<?xml version="1.0" encoding="utf-8"?>
<!-- Generator: Adobe Illustrator 25.2.1, SVG Export Plug-In . SVG Version: 6.00 Build 0)  -->
<svg version="1.1" id="Layer_1" xmlns="http://www.w3.org/2000/svg" xmlns:xlink="http://www.w3.org/1999/xlink" x="0px" y="0px"
	 viewBox="0 0 36.7 34.9" style="enable-background:new 0 0 36.7 34.9;" xml:space="preserve">
<style type="text/css">
	.st0{clip-path:url(#SVGID_2_);fill:#FFFFFF;stroke:#8B693A;stroke-width:2.25;}
	.st1{fill:#8B693A;}
</style>
<g>
	<defs>
		<rect id="SVGID_1_" x="2.1" y="0.9" width="33" height="33"/>
	</defs>
	<clipPath id="SVGID_2_">
		<use xlink:href="#SVGID_1_"  style="overflow:visible;"/>
	</clipPath>
	<circle class="st0" cx="18.6" cy="17.4" r="15.4"/>
</g>
<path class="st1" d="M13.6,10.7v15.5h-3.1c-1.1,0-2.1-0.9-2.1-2.1V12.8c0-1.1,0.9-2.1,2.1-2.1L13.6,10.7L13.6,10.7z M27,10.7h-3.1
	v15.5H27c1.1,0,2.1-0.9,2.1-2.1V12.8C29.1,11.6,28.1,10.7,27,10.7z M22.9,10.7v15.5h-8.3V7.6c0-0.6,0.5-1,1-1h6.2c0.6,0,1,0.5,1,1
	L22.9,10.7L22.9,10.7z M20.8,8.6h-4.1v2.1h4.1V8.6z"/>
</svg>
