<?xml version="1.0" encoding="utf-8"?>
<!-- Generator: Adobe Illustrator 25.2.1, SVG Export Plug-In . SVG Version: 6.00 Build 0)  -->
<svg version="1.1" id="Layer_1" xmlns="http://www.w3.org/2000/svg" xmlns:xlink="http://www.w3.org/1999/xlink" x="0px" y="0px"
	 viewBox="0 0 39.5 32" style="enable-background:new 0 0 39.5 32;" xml:space="preserve">
<style type="text/css">
	.st0{fill:#C31427;}
	.st1{fill:none;stroke:#C31427;stroke-linecap:round;}
</style>
<path class="st0" d="M37.2,0.8c-1.6-0.7-3.5-0.1-4.2,1.5l-7.3,16.1l-0.1,0.2c-0.1,0.3-0.1,0.5-0.1,0.7l0.4,4.7
	c0,0.3,0.2,0.6,0.5,0.7c0.1,0.1,0.2,0.1,0.3,0.1c0.2,0,0.4-0.1,0.5-0.2l3.8-2.7c0.2-0.1,0.3-0.3,0.3-0.5L38.7,5
	C39.5,3.4,38.8,1.5,37.2,0.8z M35.2,1.8c0.5-0.2,1.1-0.2,1.5,0.1c1,0.5,1.4,1.6,1,2.6l-0.3,0.7l-3.6-1.7l0.3-0.7
	C34.3,2.4,34.7,2,35.2,1.8z M28.3,19.1c-0.2,0-0.4,0-0.5,0c-0.2-0.3-0.4-0.5-0.7-0.6l6.2-13.8l1.3,0.6L28.3,19.1z M35.6,5.7l1.3,0.6
	l-6.2,13.8C30.4,20,30.1,20,29.8,20c-0.1-0.2-0.3-0.3-0.4-0.5L35.6,5.7z M26.7,19.6c0.1,0.1,0.2,0.2,0.2,0.3
	c0.1,0.3,0.4,0.4,0.7,0.3c0.3-0.1,0.5-0.1,0.8,0.1c0.2,0.1,0.4,0.3,0.6,0.6c0.1,0.3,0.4,0.4,0.7,0.3c0.1,0,0.3-0.1,0.4,0l-3,2.2
	L26.7,19.6z"/>
<path class="st1" d="M0.8,31.2c4.1-7.6,10.4-2.8,12.3-2.8c4.7,0,6.5-7.7,13.3-4.1"/>
</svg>
