<?xml version="1.0" encoding="utf-8"?>
<!-- Generator: Adobe Illustrator 25.3.1, SVG Export Plug-In . SVG Version: 6.00 Build 0)  -->
<svg version="1.1" id="Layer_1" xmlns="http://www.w3.org/2000/svg" xmlns:xlink="http://www.w3.org/1999/xlink" x="0px" y="0px"
	 viewBox="0 0 39.6 39.6" style="enable-background:new 0 0 39.6 39.6;" xml:space="preserve">
<style type="text/css">
	.st0{fill:#C31427;}
</style>
<g id="Layer_2_1_">
</g>
<path class="st0" d="M4.7,35.1c0,1,0.8,1.8,1.8,1.8s1.8-0.8,1.8-1.8s-0.8-1.8-1.8-1.8S4.7,34.1,4.7,35.1z M5.9,35.1
	c0-0.4,0.2-0.6,0.6-0.6c0.3,0,0.6,0.2,0.6,0.6c0,0.3-0.3,0.6-0.6,0.6C6.1,35.7,5.9,35.4,5.9,35.1z"/>
<path class="st0" d="M29.6,35.1c0,1,0.8,1.9,1.9,1.9c1,0,1.9-0.8,1.9-1.9c0-1-0.8-1.9-1.9-1.9C30.5,33.2,29.6,34,29.6,35.1z
	 M30.8,35.1c0-0.4,0.3-0.7,0.7-0.7c0.4,0,0.7,0.3,0.7,0.7s-0.3,0.7-0.7,0.7C31.1,35.7,30.8,35.5,30.8,35.1z"/>
<path class="st0" d="M0.4,24.6v6.8c0,0.2,0.1,0.3,0.2,0.4L2.7,34c-0.1,0.3-0.1,0.7-0.1,1c0,2.2,1.8,3.9,3.9,3.9c1,0,1.8-0.3,2.5-0.9
	h20c0.7,0.6,1.5,0.9,2.5,0.9c1.1,0,2.1-0.5,2.8-1.2l3.9-0.4c0.6-0.1,1-0.5,1.1-1c0.1-0.6-0.1-1.1-0.6-1.4c-1.1-0.7-2.4-1.3-3.9-1.9
	c-0.7-1.2-1.9-1.9-3.4-1.9c-0.5,0-1,0.1-1.4,0.3c-1.2-0.4-2.5-0.7-3.8-1c-0.5-0.1-0.9-0.3-1.2-0.7l-0.4-0.4c-0.2-0.2-0.6-0.2-0.8,0
	l-2,1.8h-4c0,0-0.1,0-0.1-0.1l-0.6-1C17,29.9,17,29.8,17,29.7v-3c0-0.3-0.3-0.6-0.6-0.6h-2.1c-0.1,0-0.2,0-0.3,0.1l-3.3,2.3
	C10,29,8,29.7,7.3,30c-0.2,0-0.4,0.1-0.6,0.2v-5.6c0-0.3-0.3-0.6-0.6-0.6h-5C0.7,24,0.4,24.3,0.4,24.6z M5.5,25.2v1.9H1.6v-1.9H5.5z
	 M28.7,32.3C28,33,27.5,34,27.5,35.1c0,0.7,0.2,1.3,0.5,1.8H9.9c0.3-0.5,0.5-1.2,0.5-1.8c0-1.9-1.4-3.5-3.2-3.9
	c0.1,0,0.2-0.1,0.3-0.1h0.1c0.1,0,2.7-1,3.7-1.6l3.2-2.1h1.3v2.4c0,0.3,0.1,0.6,0.3,0.9l0.6,1c0.2,0.4,0.7,0.6,1.1,0.6H22
	c0.1,0,0.3-0.1,0.4-0.2l1.7-1.6l0,0c0.5,0.5,1.1,0.8,1.8,1C26.9,31.8,27.8,32,28.7,32.3z M35.1,36.5c0.2-0.4,0.3-0.9,0.3-1.4
	c0-0.2,0-0.3,0-0.5c1,0.5,2,0.9,2.8,1.4c0.1,0,0.1,0.1,0.1,0.2c0,0.1-0.1,0.1-0.1,0.1L35.1,36.5z M31.5,37.8c-1.5,0-2.7-1.2-2.7-2.7
	s1.2-2.7,2.7-2.7c1.5,0,2.7,1.2,2.7,2.7c0,0.6-0.2,1.2-0.6,1.7l-0.1,0.1C33,37.5,32.3,37.8,31.5,37.8z M3.7,35.1
	c0-1.1,0.7-2.1,1.7-2.5l0,0c0.3-0.1,0.7-0.2,1-0.2c1.5,0,2.7,1.2,2.7,2.7s-1.2,2.7-2.7,2.7C5,37.8,3.7,36.6,3.7,35.1z M1.6,31.2
	v-2.9h3.9v2.8L5,31.4c-0.7,0.3-1.3,0.8-1.8,1.5L1.6,31.2z"/>
</svg>
