<?xml version="1.0" encoding="utf-8"?>
<!-- Generator: Adobe Illustrator 25.2.1, SVG Export Plug-In . SVG Version: 6.00 Build 0)  -->
<svg version="1.1" id="Layer_1" xmlns="http://www.w3.org/2000/svg" xmlns:xlink="http://www.w3.org/1999/xlink" x="0px" y="0px"
	 viewBox="0 0 39.5 32" style="enable-background:new 0 0 39.5 32;" xml:space="preserve">
<g>
	<path d="M24.6,24.6l-0.2,0.1L24,24.2c0,0,0-0.1,0-0.2c-0.1-1.4-0.5-2.8-1-3.8l1.4-2.8c0.6-0.1,0.9-0.2,1-0.2c0.6-0.2,1-0.6,1.2-1.1
		c0.3-0.5,0.3-1.1,0.1-1.6c-0.1-0.3-0.3-0.6-0.5-0.8l0.3-0.5c0.2-0.3,0.1-0.7-0.2-0.8c-0.3-0.2-0.7-0.1-0.8,0.2l-0.3,0.6
		c-0.2,0-0.3,0-0.5,0c-0.2,0-0.4,0-0.6,0.1c0,0-0.5,0.1-1,0.1c-0.3,0-0.6,0-0.8-0.1c-0.2-0.1-0.4-0.2-0.4-0.4c0-0.1-0.1-0.2-0.2-0.2
		c0.6-0.2,1.1-0.5,1.6-0.9c0.7-0.6,1.2-1.5,1.3-2.4l0.3,0c0.3,0,0.6-0.3,0.6-0.7c0-0.3-0.3-0.6-0.7-0.6h-0.2
		c-0.1-0.6-0.4-1.2-0.8-1.8l2.1-1c0.3-0.2,0.4-0.5,0.3-0.8C26,4,25.6,3.9,25.4,4.1l-2.2,1c-0.4-0.6-1-1.1-2.1-1.1
		c-0.6,0-1.4,0.2-2.4,0.6c-2.2,1-2.3,3-2.1,3.9c0,0.8,0.2,1.6,0.6,2.2L16.1,10c-0.3-0.7-1-1.2-1.8-1.2l-0.6-0.1c-0.1,0-0.2,0-0.3,0
		c-1.2,0-2.1,0.8-2.3,2l-0.8,6.4c0,0.2,0,0.3,0.1,0.4c0.1,0.1,0.2,0.2,0.4,0.2l3.5,0.4l-0.2,1.6c0,0,0,0,0,0
		c-0.1,0.8-0.2,1.4-0.4,1.9l-1,2.4l-0.6,1.3c-0.3,0.6,0,1.4,0.6,1.6c0.4,0.2,0.9,0.2,1.2-0.1c0.2,0.4,0.6,0.8,1.1,0.8h1.3
		c0.7,0,1.2-0.6,1.2-1.2s-0.6-1.2-1.2-1.2h-0.1l1.4-3.4c0.6,0,1.1,0.1,1.4,0.1c0.2,0.1,0.6,0.5,0.8,1.2l-1.6,3.5
		c-0.2,0.3,0,0.7,0.3,0.8c0.1,0,0.2,0.1,0.3,0.1c0.2,0,0.4-0.1,0.6-0.3l1.1-2v0l0.2,1.4c0.1,0.6,0.6,1,1.2,1c0.1,0,0.1,0,0.2,0
		c0.4-0.1,0.8-0.3,0.9-0.7c0.3,0.4,0.8,0.5,1.3,0.4l1-0.3c0.6-0.2,1-0.9,0.8-1.5C26,24.8,25.3,24.4,24.6,24.6z M24.6,14.3
		c0.1,0,0.2,0,0.3,0c0.4,0,0.8,0.2,0.9,0.6c0.2,0.5-0.1,1-0.6,1.2c0,0-0.2,0.1-0.5,0.1l-0.2-1.8C24.5,14.3,24.6,14.3,24.6,14.3z
		 M22.6,6.7c0.6,0.6,0.9,1.4,0.8,2.2c-0.1,1.4-1.3,2.5-2.7,2.5c-0.1,0-0.2,0-0.3,0c-0.1,0-0.2,0-0.2,0c-0.2,0-0.3-0.1-0.5-0.1
		c-1-0.4-1.7-1.3-1.8-2.4L22.6,6.7z M16.3,11.7l0.4,0.2c-0.2,0.1-0.3,0.2-0.4,0.3L16.3,11.7z M16,15.1c0.1-1.4,1.4-2.6,2.9-2.6l0,0
		c0.2,0,0.3,0,0.4,0c0.2,0,0.3,0.1,0.5,0.1c0.4,0.2,0.8,0.5,1.1,0.8c0.2,0.4,0.6,0.7,1,0.8c0.4,0.2,0.8,0.2,1.2,0.2l0.2,1.8
		c-0.1,0-0.1,0-0.2,0c-0.4,0-0.9,0-1.4-0.2c-1.1-0.3-1.5-0.8-1.5-0.8l0,0c0,0-0.5,0.2-0.6,0.2c-1.4,1.1-3.3,0.7-3.8,0.5L16,15.1z
		 M15.8,17.4c0.4,0.1,1,0.2,1.6,0.2c0.9,0,1.9-0.2,2.8-0.8c0.2,0.1,0.5,0.3,0.9,0.4L21,18.4l-5.2-0.5L15.8,17.4z M21.5,23.8
		c-0.4-2.4-1.8-3-1.8-3c0,0-2.1-0.2-2.1-0.2h0c-0.2,0-0.5,0.2-0.6,0.4l-1.3,3c0,0-0.1,0-0.1,0l-1.1-0.4l0.5-1.2
		c0.3-0.7,0.4-1.5,0.5-2.3l0,0l0.1-0.8l0,0l5.5,0.5c0.6,0.6,1.3,2.2,1.6,4L21.5,23.8z M22.2,19C22.2,19,22.2,19,22.2,19l0.1-1.6
		c0.2,0,0.4,0,0.7,0L22.2,19z"/>
	<circle cx="21.7" cy="8.5" r="0.6"/>
	<path d="M38.5,17.1c0,0-2-0.8-3-2.4v-1.5c1.1,1.1,2.3,1.6,2.4,1.6c0.1,0,0.2,0,0.2,0c0.2,0,0.5-0.2,0.6-0.4c0.1-0.3,0-0.7-0.3-0.8
		c0,0-1.9-0.8-2.9-2.5v-1c0.8,0.8,1.6,1.2,1.7,1.2c0.1,0,0.2,0,0.3,0c0.2,0,0.4-0.1,0.6-0.4c0.2-0.3,0-0.7-0.3-0.8
		c0,0-1.6-0.8-2.3-2.4c0,0,0,0,0,0l0,0l0,0l0,0l0,0l0,0c0,0,0,0-0.1,0c0,0,0,0,0,0l0,0c0,0,0,0-0.1,0h0c0,0,0,0-0.1,0h0h0
		c0,0,0,0-0.1,0h0c0,0,0,0-0.1,0l0,0h0c0,0,0,0-0.1,0l0,0l0,0l0,0l0,0l0,0c0,0,0,0,0,0c-0.7,1.6-2.2,2.4-2.3,2.4
		c-0.3,0.1-0.4,0.5-0.3,0.8c-0.1,0-1.1-0.5-1.6-1.4l0,0c0.4,0.3,0.6,0.4,0.7,0.4c0.1,0,0.2,0,0.3,0c0.2,0,0.4-0.1,0.6-0.4
		c0.2-0.3,0-0.7-0.3-0.8c0,0-0.9-0.4-1.2-1.3c0,0,0,0,0,0c0,0,0,0,0,0l0,0l0,0l0,0l0,0l0,0c0,0,0,0,0,0l0,0c0,0,0,0-0.1,0h0
		c0,0,0,0-0.1,0h0h0c0,0,0,0-0.1,0h0c0,0,0,0-0.1,0l0,0h0c0,0,0,0-0.1,0l0,0l0,0l0,0l0,0l0,0c0,0,0,0,0,0C28.5,8.5,27.7,9,27.7,9
		c-0.3,0.2-0.4,0.5-0.3,0.8c0.1,0.2,0.3,0.4,0.6,0.4c0.1,0,0.2,0,0.3,0c0,0,0.3-0.2,0.7-0.4l0,0c-0.5,0.9-1.6,1.4-1.6,1.4
		c-0.3,0.1-0.5,0.5-0.3,0.8c0.1,0.2,0.3,0.4,0.6,0.4c0.1,0,0.2,0,0.2,0c0,0,0.6-0.2,1.1-0.7v0.4c-0.6,0.8-1.6,1.3-1.6,1.3
		c-0.3,0.1-0.5,0.5-0.4,0.8c0.1,0.2,0.3,0.4,0.6,0.4c0.1,0,0.2,0,0.2,0c0,0,0.6-0.2,1.2-0.7V15c0,0.3,0.3,0.6,0.6,0.6
		c0.3,0,0.6-0.3,0.6-0.6v-1.4c0.3,0.2,0.6,0.4,0.9,0.5c0.1,0.1,0.1,0.2,0.2,0.4c0.1,0.2,0.3,0.4,0.6,0.4c0.1,0,0.2,0,0.2,0
		c0.1,0,1.3-0.6,2.4-1.6v1.5c-1,1.6-2.9,2.4-3,2.4c-0.3,0.1-0.5,0.5-0.4,0.8c0.1,0.2,0.3,0.4,0.6,0.4c0.1,0,0.2,0,0.2,0
		c0.1,0,1.4-0.5,2.5-1.6v3.1c0,0.3,0.3,0.6,0.6,0.6s0.6-0.3,0.6-0.6v-3.1c1.2,1.1,2.4,1.6,2.5,1.6c0.1,0,0.2,0,0.2,0
		c0.2,0,0.5-0.2,0.6-0.4C39,17.5,38.8,17.2,38.5,17.1z M34.3,11.2c-0.6,1-1.5,1.8-2.2,2.2c-0.1-0.1-0.2-0.2-0.3-0.2
		c0,0-1.1-0.4-1.6-1.3v-0.3c0.6,0.4,1.1,0.7,1.1,0.7c0.1,0,0.2,0,0.2,0c0.2,0,0.5-0.2,0.6-0.4c0.1-0.2,0-0.3,0-0.5
		c0.1,0,0.2,0,0.2,0c0.1,0,0.2,0,0.3,0c0,0,0.9-0.4,1.7-1.2V11.2z"/>
	<path d="M2.9,18.1c-0.3,0.1-0.5,0.5-0.4,0.8c0.1,0.2,0.3,0.4,0.6,0.4c0.1,0,0.2,0,0.2,0c0.1,0,1.4-0.5,2.5-1.6v3.1
		c0,0.3,0.3,0.6,0.6,0.6S7,21.1,7,20.8v-3.1c1.2,1.1,2.4,1.6,2.5,1.6s0.2,0,0.2,0c0.2,0,0.5-0.2,0.6-0.4c0.1-0.3,0-0.7-0.4-0.8
		c0,0-2-0.8-3-2.4v-1.4C8,15.4,9.2,15.9,9.3,16c0.1,0,0.2,0,0.2,0c0.2,0,0.5-0.2,0.6-0.4c0.1-0.3,0-0.7-0.3-0.8c0,0-1.9-0.8-2.8-2.5
		v-1c0.8,0.8,1.6,1.2,1.7,1.2c0.1,0,0.2,0,0.3,0c0.2,0,0.4-0.1,0.6-0.4c0.2-0.3,0-0.7-0.3-0.8c0,0-1.6-0.8-2.2-2.4c0,0,0,0,0,0
		c0,0,0,0,0,0l0,0l0,0l0,0l0,0c0,0,0,0-0.1,0h0l0,0c0,0,0,0-0.1,0h0c0,0,0,0-0.1,0h0h0c0,0,0,0-0.1,0h0c0,0,0,0-0.1,0l0,0h0
		c0,0,0,0-0.1,0l0,0l0,0l0,0l0,0l0,0c0,0,0,0,0,0c-0.6,1.6-2.2,2.4-2.2,2.4c-0.3,0.2-0.4,0.5-0.3,0.8c0.1,0.2,0.3,0.4,0.5,0.4
		c0.1,0,0.2,0,0.3,0c0,0,0.9-0.4,1.7-1.2v1C4.9,14.1,3,14.9,3,14.9c-0.3,0.1-0.5,0.5-0.3,0.8c0.1,0.2,0.3,0.4,0.6,0.4
		c0.1,0,0.2,0,0.2,0c0.1,0,1.3-0.5,2.4-1.6v1.4C4.9,17.4,2.9,18.1,2.9,18.1z"/>
	<path d="M23.8,3.9l2-2.1l5,5.1c0.2,0.2,0.5,0.2,0.7,0.1l3.3-1.8l2.8,1.8c0.1,0.1,0.2,0.1,0.3,0.1c0.2,0,0.4-0.1,0.5-0.3
		c0.2-0.3,0.1-0.7-0.2-0.8l-3.1-2c-0.2-0.1-0.4-0.1-0.6,0l-3.2,1.7l-5.1-5.2c-0.1-0.1-0.3-0.2-0.4-0.2l0,0c-0.2,0-0.3,0.1-0.4,0.2
		l-2.4,2.5c-0.2,0.2-0.2,0.6,0,0.9C23.1,4.2,23.5,4.1,23.8,3.9z"/>
	<path d="M3.2,8.4c0.1,0,0.1,0,0.2,0l4-1.3c0.1,0,0.2-0.1,0.3-0.2l1.4-2.2L13,7.9c0.2,0.2,0.5,0.2,0.7,0l1.4-0.8h0.4
		c0.3,0,0.6-0.3,0.6-0.6s-0.3-0.6-0.6-0.6H15c-0.1,0-0.2,0-0.3,0.1l-1.2,0.7L9.3,3.3C9.2,3.2,9,3.1,8.8,3.2c-0.2,0-0.3,0.1-0.4,0.3
		L6.7,6.1L3,7.3C2.7,7.4,2.5,7.7,2.6,8C2.7,8.3,2.9,8.4,3.2,8.4z"/>
	<path d="M31.9,23.9c-0.2,0-0.5,0.1-0.8,0.2c0.1-0.5,0.2-0.8,0.2-0.8c0.1-0.3-0.1-0.7-0.4-0.8c-0.3-0.1-0.7,0.1-0.8,0.4
		c0,0-0.1,0.4-0.2,0.8c-0.2-0.2-0.4-0.3-0.5-0.4c-0.3-0.1-0.7,0-0.8,0.4c-0.1,0.3,0,0.7,0.4,0.8c0.2,0.1,0.6,0.7,0.8,1.2
		c0,0,0,0,0,0.1l0,0c0,0,0,0,0,0.1c0,0,0,0,0,0c0,0,0,0,0.1,0c0,0,0,0,0,0s0,0,0.1,0c0,0,0,0,0,0s0,0,0.1,0h0c0,0,0.1,0,0.1,0
		c0,0,0.1,0,0.1,0l0,0c0,0,0.1,0,0.1,0l0,0l0,0c0,0,0,0,0,0c0,0,0,0,0.1,0l0,0l0,0l0,0l0,0c0,0,0,0,0,0c0,0,0,0,0,0
		c0.7-0.6,1-0.6,1.1-0.6c0.3,0,0.6-0.3,0.6-0.7C32.6,24.1,32.3,23.9,31.9,23.9z"/>
	<path d="M7.2,25c-0.2,0.1-0.3,0.2-0.4,0.4c-0.1-0.6-0.2-1-0.2-1c-0.1-0.3-0.4-0.5-0.8-0.4c-0.3,0.1-0.5,0.4-0.4,0.8
		c0,0,0.1,0.6,0.2,1.3c-0.3-0.2-0.5-0.3-0.8-0.3c-0.3,0-0.6,0.2-0.7,0.6c0,0.3,0.2,0.6,0.6,0.7c0,0,0.3,0,1,0.8v0c0,0,0,0,0,0
		c0,0,0,0,0,0c0,0,0,0,0,0l0,0l0,0l0,0l0,0c0,0,0,0,0,0c0,0,0,0,0.1,0l0,0h0h0c0,0,0.1,0,0.1,0s0.1,0,0.1,0h0c0,0,0,0,0.1,0h0
		c0,0,0,0,0.1,0c0,0,0,0,0,0c0,0,0,0,0.1-0.1l0,0c0,0,0,0,0-0.1c0,0,0,0,0,0c0,0,0,0,0-0.1v0l0,0c0.3-0.8,0.7-1.6,0.9-1.7
		C8.1,26,8.2,25.6,8,25.3C7.9,25,7.5,24.9,7.2,25z"/>
	<path d="M30.4,29.2L30.4,29.2c-0.2-0.5-0.6-0.9-1.6-0.9c-1.2,0-1.7,1.2-1.8,2c0,0.2,0,0.4,0.1,0.5c0.1,0.2,0.3,0.2,0.5,0.2h3.6
		c0.2,0,0.3-0.1,0.4-0.2c0.1-0.1,0.2-0.3,0.2-0.4C31.7,29.9,31.3,29.2,30.4,29.2z"/>
	<path d="M12,30.4c-0.1-0.2-0.2-0.3-0.4-0.3l-1-0.2c-0.2,0-0.4,0-0.6,0.2l-0.7,0.8c-0.2,0.2-0.2,0.4-0.1,0.7
		c0.1,0.2,0.3,0.4,0.6,0.4h1.9l0,0c0.3,0,0.6-0.3,0.6-0.6c0-0.1,0-0.2-0.1-0.3L12,30.4z"/>
	<path d="M37.5,26c-0.1-0.2-0.2-0.3-0.4-0.3l-1-0.3c-0.2,0-0.4,0-0.6,0.2l-0.7,0.8c-0.2,0.2-0.2,0.4-0.1,0.7
		c0.1,0.2,0.3,0.4,0.6,0.4h1.9l0,0c0.3,0,0.6-0.3,0.6-0.6c0-0.1,0-0.2-0.1-0.3L37.5,26z"/>
	<path d="M12.5,23.1c0.3,0,0.6-0.4,0.5-0.7c0-0.3-0.4-0.6-0.7-0.5c0,0-2.9,0.4-4.6,0.4H3.1c-0.3,0-0.6,0.3-0.6,0.6
		c0,0.3,0.3,0.6,0.6,0.6h4.7C9.6,23.5,12.4,23.1,12.5,23.1z"/>
	<path d="M37.8,21.4c-2.6,0.4-4.8,0-5,0c-2.7-0.7-7.8-0.7-8-0.7l0,0c-0.3,0-0.6,0.3-0.6,0.6c0,0.3,0.3,0.6,0.6,0.6l0,0
		c0.1,0,5.2,0,7.8,0.6l0,0l0,0c0.1,0,1.1,0.2,2.7,0.2c0.8,0,1.7,0,2.7-0.2c0.3,0,0.6-0.4,0.5-0.7C38.5,21.6,38.1,21.4,37.8,21.4z"/>
</g>
</svg>
