<?xml version="1.0" encoding="utf-8"?>
<!-- Generator: Adobe Illustrator 25.2.1, SVG Export Plug-In . SVG Version: 6.00 Build 0)  -->
<svg version="1.1" id="Layer_1" xmlns="http://www.w3.org/2000/svg" xmlns:xlink="http://www.w3.org/1999/xlink" x="0px" y="0px"
	 viewBox="0 0 33 33" style="enable-background:new 0 0 33 33;" xml:space="preserve">
<style type="text/css">
	.st0{fill:#FFFFFF;stroke:#9028A3;stroke-width:2.25;}
	.st1{fill:#9028A3;}
</style>
<g id="Layer_1_1_">
	<circle class="st0" cx="16.5" cy="16.5" r="15.4"/>
</g>
<path class="st1" d="M27.8,16.8l-2.1-2.1c-0.2-0.2-0.5-0.2-0.7,0s-0.2,0.5,0,0.7l1.2,1.2h-4v-3.2c0.8-0.2,1.5-1,1.5-1.9
	c0-1.1-0.9-2-2-2c-1.1,0-2,0.9-2,2c0,0.9,0.6,1.7,1.5,1.9v3.2h-4.9v-3.2c0.8-0.2,1.5-1,1.5-1.9c0-1.1-0.9-2-2-2s-2,0.9-2,2
	c0,0.9,0.6,1.7,1.5,1.9v3.2h-4.9v-3.2c0.8-0.2,1.5-1,1.5-1.9c0-1.1-0.9-2-2-2s-2,0.9-2,2c0,0.9,0.6,1.7,1.5,1.9v3.2H6.8
	c-0.3,0-0.5,0.2-0.5,0.5s0.2,0.5,0.5,0.5h5.5v3.2c-0.8,0.2-1.5,1-1.5,1.9c0,1.1,0.9,2,2,2s2-0.9,2-2c0-0.9-0.6-1.7-1.5-1.9v-3.2h4.9
	v3.2c-0.8,0.2-1.5,1-1.5,1.9c0,1.1,0.9,2,2,2s2-0.9,2-2c0-0.9-0.6-1.7-1.5-1.9v-3.2h7L25,18.9c-0.2,0.2-0.2,0.5,0,0.7
	c0.1,0.1,0.2,0.2,0.4,0.2c0.1,0,0.3,0,0.4-0.2l2.1-2.1C28,17.3,28,17,27.8,16.8z M20.7,11.6c0-0.5,0.4-0.9,0.9-0.9s0.9,0.4,0.9,0.9
	c0,0.5-0.4,0.9-0.9,0.9C21.1,12.5,20.7,12.1,20.7,11.6z M14.8,11.6c0-0.5,0.4-0.9,0.9-0.9s0.9,0.4,0.9,0.9c0,0.5-0.4,0.9-0.9,0.9
	S14.8,12.1,14.8,11.6z M8.9,11.6c0-0.5,0.4-0.9,0.9-0.9c0.5,0,0.9,0.4,0.9,0.9c0,0.5-0.4,0.9-0.9,0.9C9.3,12.5,8.9,12.1,8.9,11.6z
	 M13.7,22.8c0,0.5-0.4,0.9-0.9,0.9c-0.5,0-0.9-0.4-0.9-0.9c0-0.5,0.4-0.9,0.9-0.9C13.3,21.8,13.7,22.2,13.7,22.8z M19.6,22.8
	c0,0.5-0.4,0.9-0.9,0.9s-0.9-0.4-0.9-0.9c0-0.5,0.4-0.9,0.9-0.9S19.6,22.2,19.6,22.8z"/>
</svg>
