<?xml version="1.0" encoding="utf-8"?>
<!-- Generator: Adobe Illustrator 25.4.1, SVG Export Plug-In . SVG Version: 6.00 Build 0)  -->
<svg version="1.1" id="Layer_1" xmlns="http://www.w3.org/2000/svg" xmlns:xlink="http://www.w3.org/1999/xlink" x="0px" y="0px"
	 viewBox="0 0 33 33" style="enable-background:new 0 0 33 33;" xml:space="preserve">
<style type="text/css">
	.st0{fill:#FFFFFF;stroke:#8B1504;stroke-width:2.25;}
	.st1{fill:#8B1504;}
</style>
<g id="Layer_1_1_">
	<circle class="st0" cx="16.5" cy="16.5" r="15.4"/>
</g>
<g>
	<circle class="st1" cx="18.7" cy="23" r="1.9"/>
	<circle class="st1" cx="14.6" cy="25.4" r="1.3"/>
	<path class="st1" d="M22.7,10.6c-0.6-1.4-2-2.4-3.6-2.4c-1,0-2,0.4-2.7,1.1c-0.6-0.7-1.5-1.1-2.5-1.1c-1.4,0-2.7,0.9-3.2,2.2
		c-1.6,0.5-2.8,2-2.8,3.8s1.2,3.3,2.9,3.8c0.6,1.4,1.9,2.4,3.5,2.4c1,0,2-0.4,2.6-1.1c0.7,0.7,1.6,1.1,2.7,1.1c1.6,0,3-1,3.6-2.3
		c1.4-0.6,2.4-2,2.4-3.6C25.7,12.6,24.4,11.1,22.7,10.6z"/>
</g>
</svg>
