<?xml version="1.0" encoding="utf-8"?>
<!-- Generator: Adobe Illustrator 25.0.1, SVG Export Plug-In . SVG Version: 6.00 Build 0)  -->
<svg version="1.1" id="Layer_1" xmlns="http://www.w3.org/2000/svg" xmlns:xlink="http://www.w3.org/1999/xlink" x="0px" y="0px"
	 viewBox="0 0 33 33" style="enable-background:new 0 0 33 33;" xml:space="preserve">
<style type="text/css">
	.st0{fill:#FFFFFF;stroke:#00819A;stroke-width:2.25;}
	.st1{fill-rule:evenodd;clip-rule:evenodd;fill:#00819A;}
</style>
<g id="Layer_1_1_">
	<circle class="st0" cx="16.5" cy="16.5" r="15.4"/>
</g>
<g>
	<g>
		<path class="st1" d="M18.4,16.6l-0.8,0.3l0.7,1.5l0.8-0.3c0.4-0.2,0.6-0.7,0.4-1.1S18.8,16.4,18.4,16.6"/>
		<path class="st1" d="M14,14.9c-0.4,0.2-0.6,0.7-0.4,1.1c0.2,0.4,0.7,0.6,1.1,0.4l0.8-0.3l-0.7-1.5L14,14.9z"/>
		<path class="st1" d="M19.7,19.6L19,20l0.3,0.8c0.2,0.4,0,0.9-0.4,1.1s-0.9,0-1.1-0.4l-0.3-0.8l-1.5,0.7c-0.4,0.2-0.9,0-1.1-0.4
			c-0.2-0.4,0-0.9,0.4-1.1l1.5-0.7l-0.7-1.5l-0.8,0.3c-1.3,0.6-2.7,0-3.3-1.3c-0.6-1.3,0-2.7,1.3-3.3L14,13l-0.3-0.8
			c-0.2-0.4,0-0.9,0.4-1.1c0.4-0.2,0.9,0,1.1,0.4l0.3,0.8l1.5-0.7c0.4-0.2,0.9,0,1.1,0.4c0.2,0.4,0,0.9-0.4,1.1l-1.5,0.7l0.7,1.5
			l0.8-0.3c1.3-0.6,2.7,0,3.3,1.3C21.5,17.6,21,19.1,19.7,19.6 M12.4,7.4c-5,2.2-7.3,8.2-5.1,13.2s8.2,7.3,13.2,5.1
			s7.3-8.2,5.1-13.2S17.5,5.1,12.4,7.4"/>
	</g>
</g>
</svg>
