<?xml version="1.0" encoding="utf-8"?>
<!-- Generator: Adobe Illustrator 25.2.0, SVG Export Plug-In . SVG Version: 6.00 Build 0)  -->
<svg version="1.1" id="Layer_1" xmlns="http://www.w3.org/2000/svg" xmlns:xlink="http://www.w3.org/1999/xlink" x="0px" y="0px"
	 viewBox="0 0 15.4 15.4" style="enable-background:new 0 0 15.4 15.4;" xml:space="preserve">
<style type="text/css">
	.st0{fill:#DCB83D;}
</style>
<path class="st0" d="M7.7,0C3.4,0,0,3.4,0,7.7s3.4,7.7,7.7,7.7s7.7-3.4,7.7-7.7S12,0,7.7,0z M10.7,10.6h-6c-1.3,0-2.2-0.9-2.2-1.9
	c0-0.9,0.6-1.8,1.5-1.9c0-1.5,1.4-2.2,2.4-1.7c0.4-0.8,1.2-1.4,2.3-1.4c1.4,0,2.5,1.1,2.6,2.4c1,0.3,1.6,1.2,1.6,2.2
	C13,9.6,12,10.6,10.7,10.6z"/>
</svg>
