<?xml version="1.0" encoding="utf-8"?>
<!-- Generator: Adobe Illustrator 25.2.1, SVG Export Plug-In . SVG Version: 6.00 Build 0)  -->
<svg version="1.1" id="Layer_1" xmlns="http://www.w3.org/2000/svg" xmlns:xlink="http://www.w3.org/1999/xlink" x="0px" y="0px"
	 viewBox="0 0 33 33" style="enable-background:new 0 0 33 33;" xml:space="preserve">
<style type="text/css">
	.st0{fill:#FFFFFF;stroke:#C21427;stroke-width:2.25;}
	.st1{fill:#C21427;}
</style>
<g id="Layer_1_1_">
	<circle class="st0" cx="16.5" cy="16.5" r="15.4"/>
</g>
<path class="st1" d="M20.8,8.2C20.4,8.2,20,8.6,20,9c0,0.4,0.4,0.8,0.9,0.8h0.5l-3.9,3.9L13,12.4c0,0,0,0,0,0l0,0
	c-0.1,0-0.2,0-0.2,0c-0.2,0-0.3,0.1-0.5,0.1l-5.7,3.7c-0.4,0.2-0.5,0.8-0.3,1.2c0.3,0.4,0.8,0.5,1.2,0.2l5.3-3.5l4.4,1.2
	c0.3,0.1,0.8,0.1,1.1-0.1l4.2-4.2v0.5c0,0.4,0.4,0.9,0.8,0.9c0.4,0,0.9-0.4,0.8-0.9V9c0-0.4-0.4-0.8-0.8-0.8H20.8
	C20.9,8.2,20.8,8.2,20.8,8.2z"/>
<path class="st1" d="M21.7,14.1c-0.2,0-0.3,0.1-0.4,0.2l-2.8,2.3c-0.2,0.2-0.3,0.4-0.3,0.7V24c0,0.4,0.4,0.8,0.8,0.8h2.8
	c0.4,0,0.8-0.4,0.8-0.8v-9C22.6,14.5,22.1,14,21.7,14.1z"/>
<path class="st1" d="M11.8,16.1c-0.1,0-0.2,0.1-0.3,0.1l-2.8,1.7c-0.3,0.1-0.4,0.4-0.4,0.7V24c0,0.4,0.4,0.8,0.8,0.8h2.8
	c0.4,0,0.8-0.4,0.8-0.8v-7.1C12.7,16.4,12.2,16,11.8,16.1z"/>
<path class="st1" d="M13.9,16c-0.4,0-0.8,0.4-0.8,0.8V24c0,0.4,0.4,0.8,0.8,0.8h2.8c0.4,0,0.8-0.4,0.8-0.8v-6.5
	c0-0.4-0.3-0.8-0.7-0.8l-2.8-0.6C14.1,16,14,16,13.9,16z"/>
<polygon class="st1" points="20.9,16.7 20.9,23.1 19.8,23.1 19.8,17.6 "/>
<polygon class="st1" points="14.9,17.9 16,18.2 16,23.1 14.9,23.1 "/>
<polygon class="st1" points="11,18.4 11,23.1 9.9,23.1 9.9,19.1 "/>
</svg>
