<?xml version="1.0" encoding="utf-8"?>
<!-- Generator: Adobe Illustrator 25.1.0, SVG Export Plug-In . SVG Version: 6.00 Build 0)  -->
<svg version="1.1" id="Layer_1" xmlns="http://www.w3.org/2000/svg" xmlns:xlink="http://www.w3.org/1999/xlink" x="0px" y="0px"
	 viewBox="0 0 33 33" style="enable-background:new 0 0 33 33;" xml:space="preserve">
<style type="text/css">
	.st0{fill:#FFFFFF;stroke:#1E9575;stroke-width:2.25;}
	.st1{fill:#1E9575;}
</style>
<g id="Layer_1_1_">
	<circle class="st0" cx="16.5" cy="16.5" r="15.4"/>
</g>
<g>
	<path class="st1" d="M18.9,8.8c-1.3,0-2.4,1.1-2.4,2.4c0,1.2,1,2.3,2.2,2.4c-0.2,0.4-0.7,0.9-1.5,1.4c-0.2,0.1-0.3,0.3-0.3,0.6
		c0,0.5,0.5,0.8,0.9,0.6c1.3-0.6,3.5-2,3.5-4.9C21.3,9.8,20.2,8.8,18.9,8.8z"/>
	<path class="st1" d="M24.8,8.8c-1.3,0-2.4,1.1-2.4,2.4c0,1.2,1,2.3,2.2,2.4c-0.2,0.4-0.7,0.9-1.5,1.4c-0.2,0.1-0.3,0.3-0.3,0.6
		c0,0.5,0.5,0.8,0.9,0.6c1.3-0.6,3.4-2,3.4-4.9C27.2,9.8,26.1,8.8,24.8,8.8z"/>
</g>
<g>
	<path class="st1" d="M14.1,23.9c1.3,0,2.4-1.1,2.4-2.4c0-1.2-1-2.3-2.2-2.4c0.2-0.4,0.7-0.9,1.5-1.4c0.2-0.1,0.3-0.3,0.3-0.6
		c0-0.5-0.5-0.8-0.9-0.6c-1.3,0.6-3.5,2-3.5,4.9C11.7,22.9,12.8,23.9,14.1,23.9z"/>
	<path class="st1" d="M8.2,23.9c1.3,0,2.4-1.1,2.4-2.4c0-1.2-1-2.3-2.2-2.4c0.2-0.4,0.7-0.9,1.5-1.4c0.2-0.1,0.3-0.3,0.3-0.6
		c0-0.5-0.5-0.8-0.9-0.6c-1.3,0.6-3.4,2-3.4,4.9C5.9,22.9,6.9,23.9,8.2,23.9z"/>
</g>
</svg>
