<?xml version="1.0" encoding="utf-8"?>
<!-- Generator: Adobe Illustrator 25.1.0, SVG Export Plug-In . SVG Version: 6.00 Build 0)  -->
<svg version="1.1" id="Layer_1" xmlns="http://www.w3.org/2000/svg" xmlns:xlink="http://www.w3.org/1999/xlink" x="0px" y="0px"
	 viewBox="0 0 33 33" style="enable-background:new 0 0 33 33;" xml:space="preserve">
<style type="text/css">
	.st0{fill:#1E9575;}
</style>
<g>
	<path class="st0" d="M16.8,16L16.8,16C16.8,16,16.7,16,16.8,16c-0.3,0.2-0.4,0.4-0.4,0.6c0.2,0,0.4-0.1,0.6-0.2c0,0,0,0,0,0
		c0,0,0.1-0.1,0-0.1L16.8,16C16.9,16,16.8,16,16.8,16z"/>
	<path class="st0" d="M17.5,16C17.6,16,17.6,16,17.5,16c0.8-0.4,1.7-1.2,2.4-1.9c-0.9,0.4-1.8,1-2.6,1.6L17.5,16z"/>
	<path class="st0" d="M17.6,16.8L17.6,16.8c-0.1,0.1-0.2,0.2-0.3,0.3c-0.3,0.2-0.6,0.2-1,0.2c-0.1,0-0.2,0-0.3,0
		c-0.1,0-0.2-0.2-0.2-0.3c0-0.5,0.2-1,0.5-1.3c0.1-0.1,0.3-0.2,0.5-0.2h0c0.1-0.1,0.2-0.2,0.4-0.3c0-0.3,0-0.5,0.1-0.8
		c0.1-0.1,0.1-0.3,0.1-0.4c0-0.4-0.6-0.6-1-0.6c-0.3,0-0.7,0-1,0c-1,0.2-1.8,0.8-2.3,1.7c-0.5,0.8-0.6,1.8-0.3,2.8
		c0.5,1.5,2.1,2.4,3.7,2.3c1-0.1,1.9-0.5,2.5-1.3c0.4-0.4,0.7-1.1,0.6-1.7c0-0.3-0.2-0.6-0.5-0.8c-0.2-0.1-0.4-0.2-0.6-0.2
		C18.3,16.3,18,16.6,17.6,16.8z M13.5,15.9c0-0.4,0.3-0.7,0.7-0.7s0.7,0.3,0.7,0.7s-0.3,0.7-0.7,0.7C13.8,16.6,13.5,16.3,13.5,15.9z
		 M14.7,18.3c-0.4,0-0.6-0.3-0.6-0.6s0.3-0.6,0.6-0.6l0,0c0.4,0,0.6,0.3,0.6,0.6C15.3,18.1,15,18.3,14.7,18.3z M15.1,14.5
		c0-0.4,0.3-0.7,0.7-0.7s0.7,0.3,0.7,0.7s-0.3,0.7-0.7,0.7C15.4,15.2,15.1,14.9,15.1,14.5z M16.5,19.6c-0.4,0-0.7-0.3-0.7-0.7
		s0.3-0.7,0.7-0.7l0,0c0.4,0,0.7,0.3,0.7,0.7C17.2,19.3,16.8,19.6,16.5,19.6z M19,17.7c0,0.4-0.3,0.7-0.7,0.7
		c-0.4,0-0.7-0.3-0.7-0.7c0-0.4,0.3-0.7,0.7-0.7S19,17.3,19,17.7z"/>
	<path class="st0" d="M16.5,8.8c-4.3,0-7.7,3.4-7.7,7.7s3.4,7.7,7.7,7.7s7.7-3.4,7.7-7.7S20.8,8.8,16.5,8.8z M21.4,13.6
		c-0.1,0.1-1.1,1.1-2.2,2c0.1,0.1,0.3,0.1,0.4,0.2c0.4,0.3,0.7,0.7,0.8,1.2c0.1,0.7-0.2,1.5-0.7,2.2c-0.7,0.9-1.8,1.4-2.9,1.5
		c-0.1,0-0.2,0-0.3,0c-1.8,0-3.5-1.1-4-2.7c-0.4-1.1-0.2-2.3,0.3-3.3c0.6-1,1.5-1.7,2.7-2c0.4-0.1,0.8-0.1,1.2,0
		c0.9,0.1,1.4,0.5,1.5,1.1c0,0.2,0,0.4-0.1,0.7c0,0.1,0,0.1-0.1,0.2c0.8-0.6,2-1.3,3.2-1.6c0.1,0,0.3,0,0.3,0.1S21.5,13.5,21.4,13.6
		z"/>
</g>
</svg>
