<?xml version="1.0" encoding="utf-8"?>
<!-- Generator: Adobe Illustrator 25.0.1, SVG Export Plug-In . SVG Version: 6.00 Build 0)  -->
<svg version="1.1" id="Layer_1" xmlns="http://www.w3.org/2000/svg" xmlns:xlink="http://www.w3.org/1999/xlink" x="0px" y="0px"
	 viewBox="0 0 33 33" style="enable-background:new 0 0 33 33;" xml:space="preserve">
<style type="text/css">
	.st0{fill:#FFFFFF;stroke:#0074BC;stroke-width:2.25;}
	.st1{fill:#0074BC;}
</style>
<g id="Layer_1_1_">
	<circle class="st0" cx="16.5" cy="16.5" r="15.4"/>
</g>
<g>
	<path class="st1" d="M27.4,17.8c0.1-0.4,0.1-0.9,0.1-1.3c0-4.9-3.2-9.1-7.7-10.5c0,0,0,0,0,0c-1-0.3-2.1-0.5-3.3-0.5
		c-4.9,0-9.1,3.3-10.5,7.8c0,0,0,0,0,0c-0.3,1-0.5,2.1-0.5,3.2c0,2.8,1.1,5.4,2.9,7.4c0,0.1,0.1,0.1,0.1,0.1c2,2.1,4.9,3.5,8,3.5
		c5.6,0,10.2-4.2,10.9-9.6C27.4,17.9,27.4,17.9,27.4,17.8z M16.5,26.6c-2.9,0-5.4-1.2-7.3-3.1c0.1-0.7,0.2-2.8-0.1-3.9
		C9,19,8.6,18.7,8.3,18.4c-0.2-0.2-0.4-0.4-0.6-0.7c-0.3-0.6-0.7-2.8-0.9-4.2c1.3-4.1,5.1-7,9.6-7c0.8,0,1.5,0.1,2.2,0.3
		c-0.3,0.3-0.5,0.7-0.6,1c-0.5-0.2-1.3-0.4-1.7-0.3c-0.7,0.2-1.4,1.1-2.1,2C14.2,9.5,14,9.8,13.9,10c-0.5,0-1,0.2-1.5,0.6
		c-0.4,0.4-0.7,1.1-0.5,1.7c0.1,0.3,0.5,0.5,0.8,0.5c0.4,0,0.8-0.2,1.2-0.5c0.4-0.2,0.7-0.4,1.1-0.4c1.7,0,2.5,0.4,2.8,0.8
		C18,12.8,18,12.9,18,13c-0.3,0.1-1.3,0-1.9-0.1c-1.1-0.1-2.2-0.2-2.9,0c-0.8,0.2-1.3,0.8-2.1,2c-0.4,0.6-0.3,1.7,0,2.3
		c0.2,0.4,0.7,1,1.2,1.2c0.4,0.1,0.9,0.1,1.4,0c0.4-0.1,1-0.1,1.2,0c0.4,0.3,0.7,1.4,0.7,2.8c0,0.1-0.1,0.3-0.2,0.4
		c-0.2,0.3-0.3,0.7-0.3,1c0.3,1.4,1.3,2.2,2.2,2.2c0,0,0.1,0,0.1,0c1.3-0.1,3.4-1.7,3.6-3.1c0.1-0.3,0-0.8,0-1.4
		c0-0.5-0.1-1.1,0-1.4c0.1-0.3,0.5-1.2,0.9-1.7c0.1-0.2,0.1-0.4-0.1-0.6c-0.3-0.3-0.7-0.7-0.9-0.8c-0.1-0.1-0.3-0.5-0.5-0.8
		c0.1,0,0.2,0.1,0.3,0.1c0.5,0.3,1.8,1.7,2.2,2.2c0.1,0.1,0.3,0.2,0.4,0.2c0.7-0.1,0.8-0.8,0.8-1.3c0-0.2,0.1-0.5,0.1-0.5
		c0.4-0.1,0.9,0.7,1.2,1.3c0.3,0.4,0.5,0.8,0.8,1.1C25.7,22.8,21.6,26.6,16.5,26.6z"/>
</g>
</svg>
