<?xml version="1.0" encoding="utf-8"?>
<!-- Generator: Adobe Illustrator 25.2.1, SVG Export Plug-In . SVG Version: 6.00 Build 0)  -->
<svg version="1.1" id="Layer_1" xmlns="http://www.w3.org/2000/svg" xmlns:xlink="http://www.w3.org/1999/xlink" x="0px" y="0px"
	 viewBox="0 0 21.7 15.3" style="enable-background:new 0 0 21.7 15.3;" xml:space="preserve">
<style type="text/css">
	.st0{fill:#C31427;}
</style>
<g id="Layer_2_1_">
</g>
<g>
	<path class="st0" d="M19.1,8c-0.1-0.2-3.7-4.4-8.1-4.4S3,7.8,2.8,8C2.7,8.2,2.7,8.5,2.9,8.6c0.2,0.2,0.5,0.1,0.6-0.1
		c0,0,0.2-0.2,0.5-0.6c0.8,0.9,3.6,3.6,6.9,3.6S17,8.9,17.8,8c0.3,0.3,0.5,0.6,0.5,0.6c0.1,0.1,0.2,0.2,0.4,0.2c0.1,0,0.2,0,0.3-0.1
		C19.2,8.5,19.2,8.2,19.1,8z M14,7.6c0,1.7-1.4,3.1-3.1,3.1c-1.7,0-3.1-1.4-3.1-3.1s1.4-3.1,3.1-3.1C12.6,4.5,14,5.9,14,7.6z
		 M4.7,7.3c0.7-0.6,1.7-1.4,2.9-2C7.2,6,6.9,6.7,6.9,7.6c0,0.7,0.2,1.4,0.6,2C6.2,8.8,5.1,7.8,4.7,7.3z M14.4,9.6
		c0.4-0.6,0.6-1.3,0.6-2c0-0.8-0.3-1.6-0.7-2.2c1.2,0.6,2.2,1.4,2.9,2C16.7,7.8,15.7,8.8,14.4,9.6z"/>
	<path class="st0" d="M10.9,10c1.4,0,2.5-1.1,2.5-2.5c0-0.3,0-0.5-0.1-0.8c-0.2,0.4-0.6,0.6-1,0.6c-0.6,0-1.2-0.5-1.2-1.2
		c0-0.5,0.3-0.9,0.6-1c-0.2-0.1-0.5-0.1-0.8-0.1c-1.4,0-2.5,1.1-2.5,2.5C8.5,8.9,9.6,10,10.9,10z"/>
</g>
<g>
	<path class="st0" d="M21.4,5.3L20.8,3c-0.1-0.2-0.3-0.4-0.6-0.5c-0.1,0-0.2,0-0.2,0c-0.2,0-0.4,0.1-0.5,0.2l-0.5,0.4
		C16.6,1.1,13.3,0,10,0.1C6.5,0.2,3.4,1.5,1,3.7C0.7,4,0.7,4.4,1,4.7c0.3,0.3,0.8,0.2,1.1,0C4.2,2.7,7,1.5,10,1.5
		c3-0.1,5.9,0.8,8,2.7l-0.3,0.4c-0.2,0.2-0.3,0.5-0.2,0.7c0.1,0.2,0.3,0.4,0.6,0.5l2.4,0.5c0.3,0,0.6,0,0.7-0.2
		C21.4,5.8,21.5,5.6,21.4,5.3z"/>
</g>
<g>
	<path class="st0" d="M0.2,9.9l0.6,2.3c0.1,0.2,0.3,0.4,0.6,0.5c0.1,0,0.2,0,0.2,0c0.2,0,0.4-0.1,0.5-0.2L2.6,12
		c2.5,2.1,5.7,3.2,9.1,3.1c3.4-0.1,6.6-1.4,8.9-3.6c0.3-0.3,0.3-0.7,0-0.9c-0.3-0.3-0.8-0.2-1.1,0c-2.1,1.9-4.9,3.1-7.9,3.2
		c-3,0.1-5.9-0.8-8-2.7L4,10.7c0.2-0.2,0.3-0.5,0.2-0.7S3.8,9.6,3.5,9.5L1.1,9C0.8,9,0.6,9,0.4,9.2C0.2,9.4,0.2,9.6,0.2,9.9z"/>
</g>
</svg>
