<?xml version="1.0" encoding="utf-8"?>
<!-- Generator: Adobe Illustrator 25.2.0, SVG Export Plug-In . SVG Version: 6.00 Build 0)  -->
<svg version="1.1" id="Layer_1" xmlns="http://www.w3.org/2000/svg" xmlns:xlink="http://www.w3.org/1999/xlink" x="0px" y="0px"
	 viewBox="0 0 15.4 15.4" style="enable-background:new 0 0 15.4 15.4;" xml:space="preserve">
<style type="text/css">
	.st0{fill:#1E9575;}
</style>
<g>
	<path class="st0" d="M8,7.2L8,7.2C8,7.2,7.9,7.2,8,7.2C7.7,7.4,7.6,7.6,7.6,7.8c0.2,0,0.4-0.1,0.6-0.2l0,0c0,0,0.1-0.1,0-0.1L8,7.2
		C8.1,7.2,8,7.2,8,7.2z"/>
	<path class="st0" d="M8.7,7.2C8.8,7.2,8.8,7.2,8.7,7.2c0.8-0.4,1.7-1.2,2.4-1.9c-0.9,0.4-1.8,1-2.6,1.6L8.7,7.2z"/>
	<path class="st0" d="M8.8,8L8.8,8C8.7,8.1,8.6,8.2,8.5,8.3c-0.3,0.2-0.6,0.2-1,0.2c-0.1,0-0.2,0-0.3,0C7.1,8.5,7,8.3,7,8.2
		c0-0.5,0.2-1,0.5-1.3C7.6,6.8,7.8,6.7,8,6.7l0,0c0.1-0.1,0.2-0.2,0.4-0.3c0-0.3,0-0.5,0.1-0.8c0.1-0.1,0.1-0.3,0.1-0.4
		c0-0.4-0.6-0.6-1-0.6c-0.3,0-0.7,0-1,0c-1,0.2-1.8,0.8-2.3,1.7C3.8,7.1,3.7,8.1,4,9.1c0.5,1.5,2.1,2.4,3.7,2.3
		c1-0.1,1.9-0.5,2.5-1.3c0.4-0.4,0.7-1.1,0.6-1.7c0-0.3-0.2-0.6-0.5-0.8c-0.2-0.1-0.4-0.2-0.6-0.2C9.5,7.5,9.2,7.8,8.8,8z M4.7,7.1
		c0-0.4,0.3-0.7,0.7-0.7s0.7,0.3,0.7,0.7S5.8,7.8,5.4,7.8S4.7,7.5,4.7,7.1z M5.9,9.5c-0.4,0-0.6-0.3-0.6-0.6s0.3-0.6,0.6-0.6l0,0
		c0.4,0,0.6,0.3,0.6,0.6C6.5,9.3,6.2,9.5,5.9,9.5z M6.3,5.7C6.3,5.3,6.6,5,7,5c0.4,0,0.7,0.3,0.7,0.7S7.4,6.4,7,6.4S6.3,6.1,6.3,5.7
		z M7.7,10.8c-0.4,0-0.7-0.3-0.7-0.7s0.3-0.7,0.7-0.7l0,0c0.4,0,0.7,0.3,0.7,0.7C8.4,10.5,8,10.8,7.7,10.8z M10.2,8.9
		c0,0.4-0.3,0.7-0.7,0.7c-0.4,0-0.7-0.3-0.7-0.7c0-0.4,0.3-0.7,0.7-0.7S10.2,8.5,10.2,8.9z"/>
	<path class="st0" d="M7.7,0C3.4,0,0,3.4,0,7.7s3.4,7.7,7.7,7.7s7.7-3.4,7.7-7.7S12,0,7.7,0z M12.6,4.8c-0.1,0.1-1.1,1.1-2.2,2
		c0.1,0.1,0.3,0.1,0.4,0.2c0.4,0.3,0.7,0.7,0.8,1.2c0.1,0.7-0.2,1.5-0.7,2.2c-0.7,0.9-1.8,1.4-2.9,1.5c-0.1,0-0.2,0-0.3,0
		c-1.8,0-3.5-1.1-4-2.7C3.3,8.1,3.5,6.9,4,5.9c0.6-1,1.5-1.7,2.7-2c0.4-0.1,0.8-0.1,1.2,0C8.8,4,9.3,4.4,9.4,5c0,0.2,0,0.4-0.1,0.7
		c0,0.1,0,0.1-0.1,0.2c0.8-0.6,2-1.3,3.2-1.6c0.1,0,0.3,0,0.3,0.1S12.7,4.7,12.6,4.8z"/>
</g>
</svg>
