<?xml version="1.0" encoding="utf-8"?>
<!-- Generator: Adobe Illustrator 25.2.0, SVG Export Plug-In . SVG Version: 6.00 Build 0)  -->
<svg version="1.1" id="Layer_1" xmlns="http://www.w3.org/2000/svg" xmlns:xlink="http://www.w3.org/1999/xlink" x="0px" y="0px"
	 viewBox="0 0 27 27" style="enable-background:new 0 0 27 27;" xml:space="preserve">
<style type="text/css">
	.st0{fill:#FFFFFF;stroke:#0074BC;stroke-width:2.25;}
	.st1{fill:#0074BC;}
</style>
<g id="Page-1">
	<g id="Icon-Guide" transform="translate(-115.000000, -18.000000)">
		<g id="Group" transform="translate(116.000000, 19.000000)">
			<path id="Stroke-33" class="st0" d="M24.3,12.1c0,6.6-5.4,12-12,12s-12-5.4-12-12s5.4-12,12-12C19,0.1,24.3,5.5,24.3,12.1z"/>
		</g>
	</g>
</g>
<g id="Layer_2">
	<g>
		<path class="st1" d="M18.9,12.5c0-0.3-0.2-0.5-0.5-0.5s-0.5,0.2-0.5,0.5c0,2.5-2,4.5-4.5,4.5c-2.5,0-4.5-2-4.5-4.5
			c0-0.3-0.2-0.5-0.5-0.5s-0.5,0.2-0.5,0.5c0,2.9,2.2,5.2,5,5.5v1.4h-2.3c-0.3,0-0.5,0.2-0.5,0.5s0.2,0.5,0.5,0.5h5.7
			c0.3,0,0.5-0.2,0.5-0.5s-0.2-0.5-0.5-0.5h-2.3V18C16.7,17.8,18.9,15.4,18.9,12.5z"/>
		<path class="st1" d="M13.4,15.7c1.7,0,3.1-1.4,3.1-3.1V9c-0.2-4.2-6.1-4.2-6.3,0v3.5C10.2,14.3,11.6,15.7,13.4,15.7z"/>
	</g>
</g>
</svg>
