<?xml version="1.0" encoding="utf-8"?>
<!-- Generator: Adobe Illustrator 25.1.0, SVG Export Plug-In . SVG Version: 6.00 Build 0)  -->
<svg version="1.1" id="Layer_1" xmlns="http://www.w3.org/2000/svg" xmlns:xlink="http://www.w3.org/1999/xlink" x="0px" y="0px"
	 viewBox="0 0 33 33" style="enable-background:new 0 0 33 33;" xml:space="preserve">
<style type="text/css">
	.st0{fill:#00819A;}
</style>
<g>
	<path class="st0" d="M17.6,16.9c0-0.3-0.1-0.5-0.2-0.7C17.2,16.1,17,16,16.7,16h-1v1.8h1.1C17.4,17.8,17.6,17.5,17.6,16.9z"/>
	<polygon class="st0" points="11.8,17.1 13.5,17.1 12.6,14 	"/>
	<path class="st0" d="M16.8,18.6h-1.1v2.3h1.1c0.3,0,0.6-0.1,0.7-0.3c0.2-0.2,0.3-0.5,0.3-0.8v-0.1c0-0.4-0.1-0.7-0.3-0.8
		C17.4,18.6,17.1,18.6,16.8,18.6z"/>
	<path class="st0" d="M16.5,8.8c-4.3,0-7.7,3.4-7.7,7.7s3.4,7.7,7.7,7.7s7.7-3.4,7.7-7.7S20.8,8.8,16.5,8.8z M22.1,17.2
		c-0.1,0.2-0.2,0.4-0.4,0.5c-0.2,0.1-0.4,0.3-0.6,0.3c-0.2,0.1-0.5,0.1-0.8,0.1c-0.3,0-0.5,0-0.8-0.1c-0.2-0.1-0.4-0.2-0.6-0.3
		c-0.1-0.1-0.3-0.3-0.4-0.5c0,0.1-0.1,0.3-0.1,0.4c-0.1,0.2-0.3,0.4-0.5,0.5c0.1,0.1,0.3,0.1,0.4,0.2c0.1,0.1,0.2,0.2,0.3,0.3
		c0.1,0.1,0.1,0.3,0.2,0.4c0,0.2,0.1,0.4,0.1,0.6v0.2c0,0.3,0,0.6-0.1,0.9c-0.1,0.2-0.2,0.4-0.4,0.6c-0.2,0.1-0.3,0.3-0.6,0.3
		c-0.2,0.1-0.4,0.1-0.7,0.1h-1.8c-0.1,0-0.2,0-0.3-0.1c-0.1-0.1-0.1-0.1-0.1-0.2v-2.2c0,0-0.1,0.1-0.2,0.1c-0.1,0-0.1,0-0.2,0
		c-0.1,0-0.1,0-0.2,0c-0.1,0-0.1-0.1-0.1-0.2l-0.4-1.3h-2.2l-0.4,1.3c0,0.1-0.1,0.1-0.1,0.2c-0.1,0-0.1,0-0.2,0c-0.1,0-0.1,0-0.2,0
		c-0.1,0-0.1,0-0.2-0.1c-0.1,0-0.1-0.1-0.1-0.1c0,0-0.1-0.1-0.1-0.2c0,0,0-0.1,0-0.1l1.8-5.7c0-0.1,0.1-0.2,0.2-0.2
		c0.1-0.1,0.2-0.1,0.4-0.1c0.1,0,0.3,0,0.4,0.1c0.1,0.1,0.2,0.1,0.2,0.2l1.5,5v-2.5c0-0.1,0-0.2,0.1-0.2c0.1-0.1,0.2-0.1,0.3-0.1
		h1.6c0.2,0,0.5,0,0.7,0.1c0.2,0,0.4,0.1,0.6,0.2c0.1,0.1,0.2,0.2,0.3,0.3v-2.1c0-0.4,0.1-0.7,0.2-0.9c0.1-0.3,0.2-0.5,0.4-0.6
		c0.2-0.2,0.4-0.3,0.6-0.3c0.2-0.1,0.5-0.1,0.8-0.1c0.3,0,0.6,0,0.8,0.1s0.5,0.2,0.6,0.3c0.2,0.1,0.3,0.3,0.4,0.5
		c0.1,0.2,0.1,0.4,0.1,0.6c0,0.2,0,0.3-0.1,0.4c-0.1,0.1-0.2,0.1-0.4,0.1c-0.1,0-0.3,0-0.3-0.1s-0.1-0.1-0.1-0.2c0-0.1,0-0.2,0-0.3
		c0-0.1-0.1-0.2-0.1-0.3c-0.1-0.1-0.2-0.2-0.3-0.3c-0.1-0.1-0.3-0.1-0.5-0.1c-0.3,0-0.6,0.1-0.8,0.3c-0.2,0.2-0.3,0.5-0.3,0.9v2.6
		c0,0.4,0.1,0.7,0.3,0.9c0.2,0.2,0.5,0.3,0.8,0.3c0.2,0,0.4,0,0.5-0.1c0.1-0.1,0.2-0.2,0.3-0.3c0.1-0.1,0.1-0.2,0.1-0.3
		c0-0.1,0-0.2,0-0.3c0-0.1,0.1-0.2,0.1-0.2c0.1,0,0.2-0.1,0.3-0.1c0.2,0,0.3,0,0.4,0.1c0.1,0.1,0.1,0.2,0.1,0.4
		C22.3,16.8,22.2,17,22.1,17.2z"/>
</g>
</svg>
