<?xml version="1.0" encoding="utf-8"?>
<!-- Generator: Adobe Illustrator 25.4.1, SVG Export Plug-In . SVG Version: 6.00 Build 0)  -->
<svg version="1.1" id="Layer_1" xmlns="http://www.w3.org/2000/svg" xmlns:xlink="http://www.w3.org/1999/xlink" x="0px" y="0px"
	 viewBox="0 0 34.9 34.9" style="enable-background:new 0 0 34.9 34.9;" xml:space="preserve">
<style type="text/css">
	.st0{fill:#FFFFFF;stroke:#9028A3;stroke-width:2.25;}
	.st1{fill:#9028A3;}
</style>
<circle class="st0" cx="17.4" cy="17.4" r="16.3"/>
<g>
	<path class="st1" d="M19.2,4.1c-0.2,0-0.4,0.1-0.5,0.2l-5.2,5.2H7.4c0,0,0,0-0.1,0C7,9.5,6.8,9.7,6.7,10l-1.4,5.6
		c0,0.1,0,0.1,0,0.2v2.8c0,0.4,0.3,0.7,0.7,0.7h0.6l0,6.3c0,0.4,0.3,0.7,0.7,0.7h20.2c0.4,0,0.7-0.3,0.7-0.7l0-6.3h0.6
		c0.4,0,0.7-0.3,0.7-0.7v-2.8c0-0.1,0-0.1,0-0.2L28,10c-0.1-0.3-0.4-0.5-0.7-0.5h-3.7l0.2-0.2c0.3-0.3,0.3-0.7,0-1c0,0,0,0,0,0
		l-4.1-4.1C19.6,4.1,19.4,4.1,19.2,4.1z M19.2,5.8l3.1,3.1l-0.9,0.9c0,0,0,0,0,0l-2.6,2.6h-3.5L14,11l0.3-0.3c0,0,0,0,0,0L19.2,5.8z
		 M7.9,10.9h4.4c0,0.2,0.1,0.4,0.2,0.5l0.8,0.8h-0.5c0,0,0,0-0.1,0c-0.4,0-0.7,0.4-0.6,0.8c0,0.3,0.3,0.6,0.7,0.6H15
		c0,0,0.1,0,0.1,0h4.1c0,0,0.1,0,0.1,0h2.7c0.4,0,0.7-0.3,0.8-0.6c0-0.4-0.3-0.7-0.6-0.8c0,0-0.1,0-0.1,0h-1.1l1.4-1.4h4.6l1.1,4.2
		H6.9L7.9,10.9z M6.7,16.5H28v1.4h-0.6H7.2H6.7V16.5z M8,19.4h18.8l0,5.6H8L8,19.4z M18,7.7C18,7.7,18,7.7,18,7.7
		c-0.2,0.2-0.2,0.3-0.2,0.5l0,1.9l-0.6,0c-0.4,0-0.7,0.4-0.7,0.8c0,0.4,0.4,0.7,0.8,0.7l1.3-0.1c0.4,0,0.6-0.3,0.7-0.7l0.1-2.5
		c0-0.4-0.3-0.7-0.7-0.7C18.3,7.5,18.2,7.5,18,7.7z"/>
</g>
</svg>
