<?xml version="1.0" encoding="utf-8"?>
<!-- Generator: Adobe Illustrator 25.2.0, SVG Export Plug-In . SVG Version: 6.00 Build 0)  -->
<svg version="1.1" id="Layer_1" xmlns="http://www.w3.org/2000/svg" xmlns:xlink="http://www.w3.org/1999/xlink" x="0px" y="0px"
	 viewBox="0 0 11.5 15.4" style="enable-background:new 0 0 11.5 15.4;" xml:space="preserve">
<style type="text/css">
	.st0{fill:#C31427;}
</style>
<g id="Layer_2">
</g>
<path class="st0" d="M8.6,5.8V4.5c0-2.4-1.7-3.7-2.7-4.3c-0.1,0-0.2,0-0.3,0C4.7,0.8,3,2.1,3,4.5v1.3L0.3,8.9C0.3,9,0.3,9,0.3,9.1
	v2.4c0,0.1,0,0.2,0.1,0.2c0,0,0.1,0,0.2,0c0,0,0.1,0,0.1,0l2.3-1v0.1c0,0.2,0.1,0.3,0.3,0.3h0l0.1,0.6c0,0.1,0.1,0.2,0.3,0.2h0.3
	c0,0.2-0.1,0.3-0.1,0.5c0,0.4,0.1,0.8,0.4,1.1c0,0,0,0,0,0c0.1,0.1,1,1.1,1.3,1.5c0.1,0.1,0.1,0.1,0.2,0.1c0.1,0,0.2,0,0.2-0.1
	c0.4-0.4,1.3-1.4,1.3-1.5c0,0,0,0,0,0c0.2-0.3,0.4-0.7,0.4-1.1c0-0.2,0-0.3-0.1-0.5h0.3c0.1,0,0.3-0.1,0.3-0.2l0.1-0.6h0
	c0.2,0,0.3-0.1,0.3-0.3v-0.1l2.3,1c0,0,0.1,0,0.1,0c0.1,0,0.1,0,0.2,0c0.1-0.1,0.1-0.1,0.1-0.2V9.1c0-0.1,0-0.1-0.1-0.2L8.6,5.8z
	 M3,10.1L0.8,11V9.2L3,6.7V10.1z M6.9,13.3C6.9,13.3,6.9,13.3,6.9,13.3c-0.1,0.1-0.6,0.7-1.1,1.2c-0.5-0.5-1-1.2-1.1-1.2
	c-0.2-0.2-0.3-0.5-0.3-0.8c0-0.2,0-0.3,0.1-0.5h1v0.8c0,0.2,0.1,0.3,0.3,0.3c0.2,0,0.3-0.1,0.3-0.3V12h1c0.1,0.2,0.1,0.3,0.1,0.5
	C7.2,12.8,7.1,13,6.9,13.3z M7.7,11.4H3.9l0-0.3h3.9L7.7,11.4z M8,10.3C8,10.3,8,10.3,8,10.3v0.3H3.6v-0.3c0,0,0,0,0,0V4.5
	c0-2,1.3-3.2,2.2-3.7C6.7,1.4,8,2.5,8,4.5V10.3z M10.8,11l-2.2-0.9V6.7l2.2,2.5V11z"/>
<path class="st0" d="M3.9,5.5C3.9,5.5,3.9,5.5,3.9,5.5C3.9,5.5,3.9,5.5,3.9,5.5C3.9,5.5,3.9,5.5,3.9,5.5C3.9,5.5,3.9,5.5,3.9,5.5
	c0,1.1,0.8,1.9,1.8,1.9c1,0,1.8-0.8,1.8-1.8c0,0,0,0,0,0c0,0,0,0,0,0c0,0,0,0,0,0c0,0,0,0,0,0c0-1-0.8-1.8-1.8-1.8
	C4.8,3.7,4,4.5,3.9,5.5z M5.8,6.8c-0.5,0-1-0.3-1.2-0.8c0.3,0.1,0.7,0.2,1.2,0.2S6.7,6.1,7,6C6.8,6.5,6.3,6.8,5.8,6.8z M7.1,5.4
	C6.9,5.5,6.5,5.6,5.8,5.6c-0.7,0-1.1-0.2-1.3-0.3c0.1-0.6,0.6-1.1,1.3-1.1C6.4,4.2,7,4.7,7.1,5.4z"/>
</svg>
