<?xml version="1.0" encoding="utf-8"?>
<!-- Generator: Adobe Illustrator 25.4.1, SVG Export Plug-In . SVG Version: 6.00 Build 0)  -->
<svg version="1.1" id="Layer_1" xmlns="http://www.w3.org/2000/svg" xmlns:xlink="http://www.w3.org/1999/xlink" x="0px" y="0px"
	 viewBox="0 0 33 33" style="enable-background:new 0 0 33 33;" xml:space="preserve">
<style type="text/css">
	.st0{fill:#FFFFFF;stroke:#38568A;stroke-width:2.25;}
	.st1{fill:#38568A;}
</style>
<g id="Layer_1_1_">
	<circle class="st0" cx="16.5" cy="16.5" r="15.4"/>
</g>
<path class="st1" d="M13.5,17.4c0.5,0.1,1,0.4,1.3,0.8c0.3,0.3,0.8,0.3,1.1,0c0.3-0.3,0.3-0.8,0-1.1l0,0c-0.6-0.6-1.3-0.9-2-1.2
	c-0.4-0.1-0.8,0.1-0.9,0.5S13,17.2,13.5,17.4C13.4,17.3,13.4,17.3,13.5,17.4L13.5,17.4z"/>
<path class="st1" d="M13.5,14.3c0.5,0.1,1,0.4,1.3,0.8c0.3,0.3,0.8,0.3,1.1,0c0.3-0.3,0.3-0.8,0-1.1c-0.6-0.6-1.3-0.9-2-1.2
	c-0.4-0.1-0.8,0.1-0.9,0.5C12.8,13.7,13,14.2,13.5,14.3C13.4,14.3,13.4,14.3,13.5,14.3L13.5,14.3z"/>
<path class="st1" d="M27.7,12.9c-3.9-2.6-8.1-1.2-9.8-0.4c-0.6-1.2-1.8-3.4-3.7-4.1c-1.3-0.4-2.8-0.2-3.9,0.7
	C10,9.3,9.9,9.5,9.9,9.7v2c-1,0.2-1.9,0.6-2.7,1.2C7,13,6.9,13.3,6.9,13.5v10.6c0,0.4,0.3,0.8,0.8,0.8c0.1,0,0.3,0,0.4-0.1
	c4.1-2.7,9,0,9.1,0h0.1h0h0.1h0.1h0.2h0.2c0.1,0,0.1,0,0.2-0.1c0,0,4.9-2.8,9,0c0.4,0.2,0.8,0.1,1-0.3c0.1-0.1,0.1-0.2,0.1-0.3V13.5
	C28.1,13.3,27.9,13,27.7,12.9z M11.4,10.2c0.7-0.4,1.5-0.6,2.2-0.3c1.6,0.5,2.7,2.8,3.1,3.8v7.5c-0.6-0.9-1.5-1.6-2.6-2.1
	c-0.4-0.1-0.8-0.2-1.2-0.2c-0.5,0-1,0.1-1.5,0.3V10.2z M8.4,22.8v-8.9c0.5-0.3,1-0.5,1.5-0.7v7.1c0,0.4,0.3,0.8,0.8,0.8
	c0.1,0,0.3,0,0.4-0.1c0.7-0.6,1.7-0.8,2.6-0.5c1,0.5,1.8,1.2,2.3,2.2C13.5,21.7,10.8,21.8,8.4,22.8z M26.6,22.8
	c-3.3-1.5-6.6-0.6-8.3,0.1V14c1.2-0.6,5-2,8.3,0V22.8z"/>
<path class="st1" d="M20.4,14.7c-0.4,0-0.7,0.4-0.7,0.8c0,0.4,0.4,0.7,0.8,0.7h0.2c1.1-0.3,2.3-0.3,3.4-0.1c0.4,0.1,0.8-0.2,0.9-0.6
	c0.1-0.4-0.2-0.8-0.6-0.9C23.1,14.4,21.7,14.4,20.4,14.7z"/>
<path class="st1" d="M24.4,18.4c-1.3-0.2-2.7-0.2-4,0.1c-0.4,0-0.7,0.4-0.7,0.8c0,0.4,0.4,0.7,0.8,0.7h0.2c1.1-0.3,2.3-0.3,3.4-0.1
	c0.4,0.1,0.8-0.2,0.9-0.6C25.1,18.9,24.8,18.5,24.4,18.4L24.4,18.4z"/>
</svg>
