<?xml version="1.0" encoding="utf-8"?>
<!-- Generator: Adobe Illustrator 25.4.1, SVG Export Plug-In . SVG Version: 6.00 Build 0)  -->
<svg version="1.1" id="Layer_1" xmlns="http://www.w3.org/2000/svg" xmlns:xlink="http://www.w3.org/1999/xlink" x="0px" y="0px"
	 viewBox="0 0 34.9 34.9" style="enable-background:new 0 0 34.9 34.9;" xml:space="preserve">
<style type="text/css">
	.st0{fill:#FFFFFF;stroke:#0F4839;stroke-width:2.25;}
	.st1{fill:#0F4839;}
</style>
<circle class="st0" cx="17.4" cy="17.4" r="16.3"/>
<g>
	<path class="st1" d="M13.9,11.3c0,0.8,0.3,1.6,0.8,2.2c0.6,0.6,0.9,1.4,0.9,2.3V16c0,1,0.8,1.7,1.7,1.7s1.7-0.8,1.7-1.7v-0.1
		c0-0.8,0.3-1.5,0.8-2.1c1.3-1.4,1.3-3.6-0.1-4.9c-1.4-1.3-3.6-1.3-4.9,0.1C14.3,9.6,13.9,10.5,13.9,11.3z M18,15.9V16
		c0,0.3-0.3,0.6-0.6,0.6c-0.3,0-0.6-0.3-0.6-0.6v-0.1c0-0.2,0-0.3,0-0.5H18C18,15.5,18,15.7,18,15.9z M17.4,9c0.2,0,0.3,0,0.5,0.1
		c1.2,0.3,2,1.5,1.8,2.8c-0.1,0.4-0.3,0.8-0.6,1.1c-0.4,0.4-0.6,0.8-0.8,1.3h-1.8c-0.2-0.5-0.5-1-0.9-1.4c-0.8-1-0.7-2.4,0.3-3.3
		c0,0,0,0,0,0C16.3,9.2,16.9,9,17.4,9z"/>
	<rect x="16.8" y="5.6" class="st1" width="1.2" height="1.2"/>
	<rect x="12.4" y="13.5" transform="matrix(0.8601 -0.5101 0.5101 0.8601 -5.3629 8.5666)" class="st1" width="1.2" height="1.2"/>
	<rect x="12" y="8.6" transform="matrix(0.4445 -0.8958 0.8958 0.4445 -1.2466 16.4037)" class="st1" width="1.2" height="1.2"/>
	<rect x="21.3" y="13.5" transform="matrix(0.5099 -0.8603 0.8603 0.5099 -1.3941 25.6899)" class="st1" width="1.2" height="1.2"/>
	<rect x="21.6" y="8.6" transform="matrix(0.8958 -0.4444 0.4444 0.8958 -1.7802 10.818)" class="st1" width="1.2" height="1.2"/>
	<path class="st1" d="M27.4,13.6c-2.6,0-4.6,2.1-4.6,4.6s2.1,4.6,4.6,4.6s4.6-2.1,4.6-4.6C32,15.7,29.9,13.6,27.4,13.6z M27.4,21.7
		c-1.9,0-3.5-1.6-3.5-3.5s1.6-3.5,3.5-3.5s3.5,1.6,3.5,3.5C30.8,20.1,29.3,21.7,27.4,21.7z"/>
	<path class="st1" d="M27.1,17.1h0.6c0.2,0,0.3,0.1,0.3,0.3h1.2c0-0.7-0.5-1.3-1.2-1.4v-0.6h-1.2v0.6c-0.8,0.2-1.3,0.9-1.1,1.7
		c0.1,0.7,0.7,1.2,1.4,1.2h0.6c0.2,0,0.3,0.1,0.3,0.3c0,0.2-0.1,0.3-0.3,0.3h-0.6c-0.2,0-0.3-0.1-0.3-0.3h-1.2
		c0,0.7,0.5,1.3,1.2,1.4v0.6h1.2v-0.6c0.8-0.2,1.3-0.9,1.1-1.7c-0.1-0.7-0.7-1.2-1.4-1.2h-0.6c-0.2,0-0.3-0.1-0.3-0.3
		C26.8,17.2,26.9,17.1,27.1,17.1z"/>
	<path class="st1" d="M6.8,23h1.3c0.5,0,1-0.4,1-1v-0.1c0.3-0.1,0.5-0.2,0.7-0.4l0.2,0.1c0.5,0.3,1,0.1,1.3-0.4l0.7-1.1
		c0.1-0.2,0.2-0.5,0.1-0.7c-0.1-0.3-0.2-0.5-0.5-0.6l-0.1-0.1c0-0.3,0-0.5,0-0.8l0.1-0.1c0.2-0.1,0.4-0.3,0.5-0.6
		c0.1-0.2,0-0.5-0.1-0.7l-0.7-1.1c-0.3-0.4-0.9-0.6-1.3-0.3l-0.1,0.1c-0.2-0.2-0.5-0.3-0.7-0.4v-0.1c0-0.5-0.4-1-1-1H6.8
		c-0.5,0-1,0.4-1,1v0.1c-0.3,0.1-0.5,0.2-0.7,0.4L5,15.2c-0.5-0.3-1-0.1-1.3,0.4L3,16.6c-0.1,0.2-0.2,0.5-0.1,0.7
		c0.1,0.3,0.2,0.5,0.5,0.6L3.5,18c0,0.3,0,0.5,0,0.8l-0.1,0.1c-0.2,0.1-0.4,0.3-0.5,0.6c-0.1,0.2,0,0.5,0.1,0.7l0.7,1.1
		c0.3,0.4,0.9,0.6,1.3,0.3l0.1-0.1c0.2,0.2,0.5,0.3,0.7,0.4V22C5.8,22.6,6.3,23,6.8,23C6.8,23,6.8,23,6.8,23z M5.7,20.5
		c-0.3-0.2-0.7-0.3-1.1-0.1l-0.1,0.1l-0.5-0.8l0.1,0c0.3-0.2,0.5-0.6,0.5-1c0-0.2,0-0.5,0-0.7c0.1-0.4-0.1-0.8-0.5-1l-0.1,0l0.5-0.8
		l0.1,0.1c0.3,0.2,0.8,0.2,1.1-0.1c0.2-0.1,0.4-0.3,0.6-0.4C6.8,15.7,7,15.4,7,15v-0.1h1V15c0,0.4,0.3,0.8,0.6,0.9
		C8.8,16,9,16.1,9.2,16.2c0.3,0.2,0.7,0.3,1.1,0.1l0.1-0.1l0.5,0.8l-0.1,0c-0.3,0.2-0.5,0.6-0.5,1c0,0.2,0,0.5,0,0.7
		c-0.1,0.4,0.1,0.8,0.5,1l0.1,0l-0.5,0.8l-0.1-0.1c-0.3-0.2-0.8-0.2-1.1,0.1c-0.2,0.1-0.4,0.3-0.6,0.4C8.2,21,8,21.4,8,21.8v0.1H7
		v-0.1c0-0.4-0.3-0.8-0.6-0.9C6.1,20.8,5.9,20.7,5.7,20.5z"/>
	<path class="st1" d="M9.5,18.4c0-1.1-0.9-2-2-2s-2,0.9-2,2c0,1.1,0.9,2,2,2S9.5,19.5,9.5,18.4z M6.6,18.4c0-0.5,0.4-0.9,0.9-0.9
		s0.9,0.4,0.9,0.9c0,0.5-0.4,0.9-0.9,0.9S6.6,18.9,6.6,18.4z"/>
	<path class="st1" d="M18,26.9v-6.1l1.3,1.3l0.8-0.8L17.8,19c-0.2-0.2-0.6-0.2-0.8,0l-2.3,2.3l0.8,0.8l1.3-1.3v6.1H18z"/>
	<path class="st1" d="M25,22.9l-3.2-0.4l-0.2,1.1l1.8,0.2c-1.3,1.1-2.4,2.5-3,4l1.1,0.4c0.6-1.4,1.5-2.7,2.8-3.6l-0.3,2l1.1,0.2
		l0.4-3.2C25.5,23.2,25.3,23,25,22.9C25,22.9,25,22.9,25,22.9L25,22.9z"/>
	<path class="st1" d="M9.4,23.1c-0.1,0.1-0.1,0.3-0.1,0.4l0.4,3.2l1.1-0.2l-0.3-2c1.2,0.9,2.2,2.2,2.8,3.6l1.1-0.4
		c-0.6-1.6-1.7-3-3-4l1.8-0.2L13,22.5l-3.2,0.4C9.7,22.9,9.5,23,9.4,23.1z"/>
</g>
</svg>
