<?xml version="1.0" encoding="utf-8"?>
<!-- Generator: Adobe Illustrator 24.1.0, SVG Export Plug-In . SVG Version: 6.00 Build 0)  -->
<svg version="1.1" id="Layer_1" xmlns="http://www.w3.org/2000/svg" xmlns:xlink="http://www.w3.org/1999/xlink" x="0px" y="0px"
	 viewBox="0 0 19.3 26.6" style="enable-background:new 0 0 19.3 26.6;" xml:space="preserve">
<style type="text/css">
	.st0{fill:#217F92;}
</style>
<g transform="translate(0,-952.36218)">
	<path class="st0" d="M2.4,952.4c-1.3,0-2.4,1.1-2.4,2.4v21.8c0,1.3,1.1,2.4,2.4,2.4h14.5c1.3,0,2.4-1.1,2.4-2.4v-21.8
		c0-1.3-1.1-2.4-2.4-2.4C16.9,952.4,2.4,952.4,2.4,952.4z M3.6,954.8h12.1c0.7,0,1.2,0.5,1.2,1.2v2.4c0,0.6-0.5,1.2-1.2,1.2H3.6
		c-0.7,0-1.2-0.6-1.2-1.2V956C2.4,955.3,3,954.8,3.6,954.8z M3.6,962h3.6c0.7,0,1.2,0.5,1.2,1.2v3.6c0,0.7-0.5,1.2-1.2,1.2H3.6
		c-0.7,0-1.2-0.5-1.2-1.2v-3.6C2.4,962.6,3,962,3.6,962z M12.1,962h3.6c0.7,0,1.2,0.5,1.2,1.2v3.6c0,0.7-0.5,1.2-1.2,1.2h-3.6
		c-0.7,0-1.2-0.5-1.2-1.2v-3.6C10.9,962.6,11.4,962,12.1,962z M4.8,963.2v1.2H3.6v1.2h1.2v1.2H6v-1.2h1.2v-1.2H6v-1.2H4.8z
		 M12.1,964.5v1.2h3.6v-1.2C15.7,964.5,12.1,964.5,12.1,964.5z M3.6,970.5h3.6c0.7,0,1.2,0.5,1.2,1.2v3.6c0,0.7-0.5,1.2-1.2,1.2H3.6
		c-0.7,0-1.2-0.5-1.2-1.2v-3.6C2.4,971,3,970.5,3.6,970.5L3.6,970.5z M12.1,970.5h3.6c0.7,0,1.2,0.5,1.2,1.2v3.6
		c0,0.7-0.5,1.2-1.2,1.2h-3.6c-0.7,0-1.2-0.5-1.2-1.2v-3.6C10.9,971,11.4,970.5,12.1,970.5L12.1,970.5z M4.6,971.7l-0.9,0.9l0.9,0.9
		l-0.9,0.8l0.9,0.8l0.8-0.8l0.9,0.8l0.9-0.8l-0.9-0.8l0.9-0.9l-0.9-0.9l-0.9,0.9L4.6,971.7z M12.1,971.7v1.2h3.6v-1.2H12.1
		L12.1,971.7z M12.1,974.1v1.2h3.6v-1.2C15.7,974.1,12.1,974.1,12.1,974.1z"/>
</g>
</svg>
