<?xml version="1.0" encoding="utf-8"?>
<!-- Generator: Adobe Illustrator 24.1.0, SVG Export Plug-In . SVG Version: 6.00 Build 0)  -->
<svg version="1.1" id="Layer_1" xmlns="http://www.w3.org/2000/svg" xmlns:xlink="http://www.w3.org/1999/xlink" x="0px" y="0px"
	 viewBox="0 0 8.5 8.5" style="enable-background:new 0 0 8.5 8.5;" xml:space="preserve">
<style type="text/css">
	.st0{fill:#34BDD8;}
</style>
<symbol  id="solution" viewBox="-4.2 -4.2 8.5 8.5">
	<g>
		<polygon class="st0" points="-0.5,-1.9 -2,-0.6 -1.7,-0.2 -0.6,-1.2 1.7,1.7 2.1,1.4 		"/>
	</g>
	<g>
		<path class="st0" d="M0-4.2c-2.3,0-4.2,1.9-4.2,4.2S-2.3,4.2,0,4.2S4.2,2.3,4.2,0S2.3-4.2,0-4.2z M0,3.8c-2.1,0-3.8-1.7-3.8-3.8
			S-2.1-3.8,0-3.8S3.8-2.1,3.8,0S2.1,3.8,0,3.8z"/>
	</g>
</symbol>
<use xlink:href="#solution"  width="8.5" height="8.5" x="-4.2" y="-4.2" transform="matrix(1 0 0 -1 4.25 4.25)" style="overflow:visible;"/>
</svg>
