<?xml version="1.0" encoding="utf-8"?>
<!-- Generator: Adobe Illustrator 25.3.1, SVG Export Plug-In . SVG Version: 6.00 Build 0)  -->
<svg version="1.1" id="Layer_1" xmlns="http://www.w3.org/2000/svg" xmlns:xlink="http://www.w3.org/1999/xlink" x="0px" y="0px"
	 viewBox="0 0 33.7 30.8" style="enable-background:new 0 0 33.7 30.8;" xml:space="preserve">
<style type="text/css">
	.st0{fill:#CC0000;}
</style>
<g>
	<path class="st0" d="M20.6,2.5l12.2,21.5c1.6,2.8-0.4,6.4-3.7,6.4H4.7c-3.3,0-5.3-3.5-3.7-6.4L13.2,2.5C14.8-0.4,19-0.4,20.6,2.5
		L20.6,2.5z M30.8,25.1L18.6,3.6c-0.7-1.3-2.7-1.3-3.4,0L3,25.1C2.2,26.4,3.2,28,4.7,28h24.5C30.6,28,31.6,26.4,30.8,25.1L30.8,25.1
		z"/>
	<path class="st0" d="M15.7,10.9c0-0.6,0.5-1.2,1.2-1.2c0.6,0,1.2,0.5,1.2,1.2v8.3c0,0.6-0.5,1.2-1.2,1.2c-0.6,0-1.2-0.5-1.2-1.2
		C15.7,19.2,15.7,10.9,15.7,10.9z"/>
	<path class="st0" d="M18.4,23.7c0,0.8-0.7,1.5-1.5,1.5c-0.8,0-1.5-0.7-1.5-1.5c0-0.8,0.7-1.5,1.5-1.5
		C17.7,22.3,18.4,22.9,18.4,23.7z"/>
</g>
</svg>
