<?xml version="1.0" encoding="utf-8"?>
<!-- Generator: Adobe Illustrator 24.1.0, SVG Export Plug-In . SVG Version: 6.00 Build 0)  -->
<svg version="1.1" id="Layer_1" xmlns="http://www.w3.org/2000/svg" xmlns:xlink="http://www.w3.org/1999/xlink" x="0px" y="0px"
	 viewBox="0 0 32.8 31.7" style="enable-background:new 0 0 32.8 31.7;" xml:space="preserve">
<style type="text/css">
	.st0{clip-path:url(#SVGID_2_);}
	.st1{clip-path:url(#SVGID_4_);fill:#0A3E4D;}
	.st2{clip-path:url(#SVGID_6_);}
	.st3{clip-path:url(#SVGID_8_);fill:#F2F2F2;}
	.st4{clip-path:url(#SVGID_10_);}
	.st5{clip-path:url(#SVGID_12_);fill:#0A3E4D;}
	.st6{clip-path:url(#SVGID_14_);}
	.st7{clip-path:url(#SVGID_16_);fill:#F2F2F2;}
	.st8{clip-path:url(#SVGID_18_);}
	.st9{clip-path:url(#SVGID_20_);fill:#0A3E4D;}
	.st10{clip-path:url(#SVGID_22_);}
	.st11{clip-path:url(#SVGID_24_);fill:#F2F2F2;}
</style>
<g>
	<defs>
		<polygon id="SVGID_1_" points="31.3,11.7 32.8,11.7 27.8,7.1 22.9,11.7 24.4,11.7 24.4,15.8 31.3,15.8 		"/>
	</defs>
	<use xlink:href="#SVGID_1_"  style="overflow:visible;fill:#0A3E4D;"/>
	<clipPath id="SVGID_2_">
		<use xlink:href="#SVGID_1_"  style="overflow:visible;"/>
	</clipPath>
	<g class="st0">
		<defs>
			<rect id="SVGID_3_" x="-54.5" y="-512.3" width="612" height="792"/>
		</defs>
		<use xlink:href="#SVGID_3_"  style="overflow:visible;fill:#0A3E4D;"/>
		<clipPath id="SVGID_4_">
			<use xlink:href="#SVGID_3_"  style="overflow:visible;"/>
		</clipPath>
		<rect x="17.9" y="2.1" class="st1" width="19.9" height="18.7"/>
	</g>
</g>
<g>
	<defs>
		<polygon id="SVGID_5_" points="24.4,15.8 24.4,27.1 22.9,27.1 27.8,31.7 32.8,27.1 31.3,27.1 31.3,15.8 		"/>
	</defs>
	<use xlink:href="#SVGID_5_"  style="overflow:visible;fill:#F2F2F2;"/>
	<clipPath id="SVGID_6_">
		<use xlink:href="#SVGID_5_"  style="overflow:visible;"/>
	</clipPath>
	<g class="st2">
		<defs>
			<rect id="SVGID_7_" x="-54.5" y="-512.3" width="612" height="792"/>
		</defs>
		<use xlink:href="#SVGID_7_"  style="overflow:visible;fill:#F2F2F2;"/>
		<clipPath id="SVGID_8_">
			<use xlink:href="#SVGID_7_"  style="overflow:visible;"/>
		</clipPath>
		<rect x="17.9" y="10.8" class="st3" width="19.9" height="25.9"/>
	</g>
</g>
<g>
	<defs>
		<polygon id="SVGID_9_" points="8.4,8.3 9.9,8.3 5,3.8 0,8.3 1.5,8.3 1.5,15.8 8.4,15.8 		"/>
	</defs>
	<use xlink:href="#SVGID_9_"  style="overflow:visible;fill:#0A3E4D;"/>
	<clipPath id="SVGID_10_">
		<use xlink:href="#SVGID_9_"  style="overflow:visible;"/>
	</clipPath>
	<g class="st4">
		<defs>
			<rect id="SVGID_11_" x="-54.5" y="-512.3" width="612" height="792"/>
		</defs>
		<use xlink:href="#SVGID_11_"  style="overflow:visible;fill:#0A3E4D;"/>
		<clipPath id="SVGID_12_">
			<use xlink:href="#SVGID_11_"  style="overflow:visible;"/>
		</clipPath>
		<rect x="-5" y="-1.2" class="st5" width="19.9" height="22"/>
	</g>
</g>
<g>
	<defs>
		<polygon id="SVGID_13_" points="1.5,27.1 0,27.1 5,31.7 9.9,27.1 8.4,27.1 8.4,15.8 1.5,15.8 		"/>
	</defs>
	<use xlink:href="#SVGID_13_"  style="overflow:visible;fill:#F2F2F2;"/>
	<clipPath id="SVGID_14_">
		<use xlink:href="#SVGID_13_"  style="overflow:visible;"/>
	</clipPath>
	<g class="st6">
		<defs>
			<rect id="SVGID_15_" x="-54.5" y="-512.3" width="612" height="792"/>
		</defs>
		<use xlink:href="#SVGID_15_"  style="overflow:visible;fill:#F2F2F2;"/>
		<clipPath id="SVGID_16_">
			<use xlink:href="#SVGID_15_"  style="overflow:visible;"/>
		</clipPath>
		<rect x="-5" y="10.8" class="st7" width="19.9" height="25.9"/>
	</g>
</g>
<g>
	<defs>
		<polygon id="SVGID_17_" points="19.8,4.5 21.3,4.5 16.4,0 11.4,4.5 13,4.5 13,15.8 19.8,15.8 		"/>
	</defs>
	<use xlink:href="#SVGID_17_"  style="overflow:visible;fill:#0A3E4D;"/>
	<clipPath id="SVGID_18_">
		<use xlink:href="#SVGID_17_"  style="overflow:visible;"/>
	</clipPath>
	<g class="st8">
		<defs>
			<rect id="SVGID_19_" x="-54.5" y="-512.3" width="612" height="792"/>
		</defs>
		<use xlink:href="#SVGID_19_"  style="overflow:visible;fill:#0A3E4D;"/>
		<clipPath id="SVGID_20_">
			<use xlink:href="#SVGID_19_"  style="overflow:visible;"/>
		</clipPath>
		<rect x="6.4" y="-5" class="st9" width="19.9" height="25.8"/>
	</g>
</g>
<g>
	<defs>
		<polygon id="SVGID_21_" points="13,23.3 11.4,23.3 16.4,27.8 21.3,23.3 19.8,23.3 19.8,15.8 13,15.8 		"/>
	</defs>
	<use xlink:href="#SVGID_21_"  style="overflow:visible;fill:#F2F2F2;"/>
	<clipPath id="SVGID_22_">
		<use xlink:href="#SVGID_21_"  style="overflow:visible;"/>
	</clipPath>
	<g class="st10">
		<defs>
			<rect id="SVGID_23_" x="-54.5" y="-512.3" width="612" height="792"/>
		</defs>
		<use xlink:href="#SVGID_23_"  style="overflow:visible;fill:#F2F2F2;"/>
		<clipPath id="SVGID_24_">
			<use xlink:href="#SVGID_23_"  style="overflow:visible;"/>
		</clipPath>
		<rect x="6.4" y="10.8" class="st11" width="19.9" height="22"/>
	</g>
</g>
</svg>
