<?xml version="1.0" encoding="utf-8"?>
<!-- Generator: Adobe Illustrator 24.1.0, SVG Export Plug-In . SVG Version: 6.00 Build 0)  -->
<svg version="1.1" id="Layer_1" xmlns="http://www.w3.org/2000/svg" xmlns:xlink="http://www.w3.org/1999/xlink" x="0px" y="0px"
	 viewBox="0 0 15.9 18.4" style="enable-background:new 0 0 15.9 18.4;" xml:space="preserve">
<style type="text/css">
	.st0{fill:#093D4C;}
</style>
<path class="st0" d="M8,0L8,0l-8,4.5L0,4.6v9.2l7.9,4.6l0.1,0l7.9-4.6l0.1,0V4.6L8,0z M7,13.4L1.3,13l1.6-6L7,13.4z M1.6,4.8l4-2.3
	l-3,2.7L1.6,4.8z M13,7l1.6,6l-5.7,0.4L13,7z M13.3,5.2l-3-2.7l4,2.3L13.3,5.2z M8,1.7l3.9,3.6H4L8,1.7z M12.3,6.3L8,13L3.7,6.3
	H12.3z M13.4,14.1L8.5,17v-2.5L13.4,14.1z M13.8,6.1l1.1-0.5v4.8L13.8,6.1z M2.1,6.1L1,10.4V5.6L2.1,6.1z M7.5,14.4V17l-4.9-2.8
	L7.5,14.4z"/>
</svg>
