<?xml version="1.0" encoding="utf-8"?>
<!-- Generator: Adobe Illustrator 24.3.0, SVG Export Plug-In . SVG Version: 6.00 Build 0)  -->
<svg version="1.1" id="Layer_1" xmlns="http://www.w3.org/2000/svg" xmlns:xlink="http://www.w3.org/1999/xlink" x="0px" y="0px"
	 viewBox="0 0 8.5 8.5" style="enable-background:new 0 0 8.5 8.5;" xml:space="preserve">
<style type="text/css">
	.st0{fill:#34BDD8;}
</style>
<g id="solution">
	<g>
		<path class="st0" d="M4.2,8.4C2,8.4,0.1,6.5,0.1,4.2S2,0.1,4.2,0.1S8.4,2,8.4,4.2S6.6,8.4,4.2,8.4z M4.2,0.5
			c-2.1,0-3.8,1.7-3.8,3.8s1.7,3.8,3.8,3.8s3.8-1.7,3.8-3.8S6.3,0.5,4.2,0.5z"/>
	</g>
	<g>
		<path class="st0" d="M3.8,5.1C3.7,4.4,4.4,3.9,4.8,3.5c0.8-1-0.8-1.4-1.5-0.9L3.1,2.2c1.1-0.8,3.2,0.1,2.1,1.5
			C4.9,4,4.1,4.4,4.3,5.1H3.8z M3.7,5.9c0-0.5,0.7-0.5,0.7,0C4.4,6.5,3.7,6.5,3.7,5.9z"/>
	</g>
</g>
</svg>
