<?xml version="1.0" encoding="utf-8"?>
<!-- Generator: Adobe Illustrator 24.1.2, SVG Export Plug-In . SVG Version: 6.00 Build 0)  -->
<svg version="1.1" id="Layer_1" xmlns="http://www.w3.org/2000/svg" xmlns:xlink="http://www.w3.org/1999/xlink" x="0px" y="0px"
	 viewBox="0 0 56.1 47.7" style="enable-background:new 0 0 56.1 47.7;" xml:space="preserve">
<style type="text/css">
	.st0{fill:#DBF1F7;}
	.st1{fill:#FFFFFF;stroke:#E6E7E7;stroke-miterlimit:10;}
	.st2{fill:none;stroke:#E6E7E7;stroke-miterlimit:10;}
	.st3{fill:#0C3E4D;}
	.st4{font-family:'NotoSans';}
	.st5{font-size:11.1517px;}
	.st6{fill:#FFFFFF;}
	.st7{fill:none;stroke:#003D4D;stroke-miterlimit:10;}
	.st8{fill:#1C8092;}
	.st9{fill:none;stroke:#003D4D;stroke-width:0.75;stroke-miterlimit:10;}
</style>
<ellipse class="st0" cx="23.3" cy="23.9" rx="23.3" ry="23.9"/>
<path class="st1" d="M53.1,20.7H39c-1.2,0-2.2-1-2.2-2.2V8.2c0-1.2,1-2.2,2.2-2.2h14.1c1.2,0,2.2,1,2.2,2.2v10.3
	C55.4,19.7,54.4,20.7,53.1,20.7z"/>
<polygon class="st2" points="36.8,20.2 36.1,22.6 37.4,20.7 "/>
<text transform="matrix(1.17 0 0 1 41.0253 13.8077)" class="st3 st4 st5">...</text>
<circle class="st6" cx="24.3" cy="27" r="8.1"/>
<path class="st3" d="M18.8,34.3c0,0-2.9-5.7-1.1-10.1c1.3-3.3,3.2-4.1,4.7-3.3c1.9,0.9,4.2,3.4,5.5,4.2c2,1.2,3.5,0.1,3.5,0.1
	s0.5,6.2-1,8.8c0,0,4-4.4,4-7c0-2.8-3.3-9.5-8.5-9.7c-0.3,0,1-3.8-3.8-3.8c-3.8,0-2.5,4.2-2.5,4.2c0.2,0.5-5.3,4.2-5.3,9.4
	C14.2,31.2,18.8,34.3,18.8,34.3z"/>
<line class="st7" x1="22.6" y1="31.9" x2="26.6" y2="31.9"/>
<path class="st8" d="M11.1,47.8h12.7c0,0,0.4-9.2,0-9.3c-2.7-0.9-1.5-3.4-2.3-3.4c-0.8,0-11.1,1.5-11.7,4.8
	C9.4,43.1,11.1,47.8,11.1,47.8z"/>
<line class="st9" x1="21.3" y1="27" x2="21.3" y2="27.9"/>
<line class="st9" x1="27.7" y1="27" x2="27.7" y2="27.9"/>
<path class="st8" d="M37.9,47.8H25.2c0,0-0.4-9.2,0-9.3c2.7-0.9,1.5-3.4,2.3-3.4c0.8,0,11.1,1.5,11.7,4.8
	C39.6,43.1,37.9,47.8,37.9,47.8z"/>
</svg>
