<?xml version="1.0" encoding="utf-8"?>
<!-- Generator: Adobe Illustrator 25.2.1, SVG Export Plug-In . SVG Version: 6.00 Build 0)  -->
<svg version="1.1" id="Layer_1" xmlns="http://www.w3.org/2000/svg" xmlns:xlink="http://www.w3.org/1999/xlink" x="0px" y="0px"
	 viewBox="0 0 20.7 20.7" style="enable-background:new 0 0 20.7 20.7;" xml:space="preserve">
<style type="text/css">
	.st0{fill:#1F7E91;}
	.st1{fill:#093D4C;}
</style>
<path class="st0" d="M0.8,0.8h19.1v19.1l-19.1,0V0.8 M0,0l0,20.7h20.7V0L0,0z"/>
<path class="st1" d="M10.4,2.4C8.5,2.4,6.9,4,6.9,6v8.9c0,2,1.6,3.6,3.6,3.6s3.6-1.6,3.6-3.6V6C14,4,12.4,2.4,10.4,2.4z M13.1,14.9
	c0,1.5-1.2,2.7-2.7,2.7s-2.7-1.2-2.7-2.7V6c0-1.5,1.2-2.7,2.7-2.7s2.7,1.2,2.7,2.7V14.9z"/>
<path class="st1" d="M10.4,4.2C9.5,4.2,8.7,5,8.7,6s0.8,1.8,1.8,1.8S12.2,7,12.2,6S11.4,4.2,10.4,4.2z M10.4,6.9
	C10,6.9,9.6,6.5,9.6,6s0.4-0.9,0.9-0.9c0.5,0,0.9,0.4,0.9,0.9S10.9,6.9,10.4,6.9z"/>
<path class="st1" d="M10.4,8.7c-1,0-1.8,0.8-1.8,1.8s0.8,1.8,1.8,1.8s1.8-0.8,1.8-1.8S11.4,8.7,10.4,8.7z M10.4,11.4
	c-0.5,0-0.9-0.4-0.9-0.9c0-0.5,0.4-0.9,0.9-0.9c0.5,0,0.9,0.4,0.9,0.9C11.3,11,10.9,11.4,10.4,11.4z"/>
<path class="st1" d="M10.4,13.1c-1,0-1.8,0.8-1.8,1.8s0.8,1.8,1.8,1.8s1.8-0.8,1.8-1.8S11.4,13.1,10.4,13.1z M10.4,15.8
	c-0.5,0-0.9-0.4-0.9-0.9c0-0.5,0.4-0.9,0.9-0.9c0.5,0,0.9,0.4,0.9,0.9C11.3,15.4,10.9,15.8,10.4,15.8z"/>
</svg>
