<?xml version="1.0" encoding="utf-8"?>
<!-- Generator: Adobe Illustrator 24.1.0, SVG Export Plug-In . SVG Version: 6.00 Build 0)  -->
<svg version="1.1" id="Layer_1" xmlns="http://www.w3.org/2000/svg" xmlns:xlink="http://www.w3.org/1999/xlink" x="0px" y="0px"
	 viewBox="0 0 8.5 8.5" style="enable-background:new 0 0 8.5 8.5;" xml:space="preserve">
<style type="text/css">
	.st0{fill:#34BDD8;}
</style>
<symbol  id="analysis" viewBox="-4.3 -4.3 8.5 8.5">
	<path class="st0" d="M0,4.2c-2.3,0-4.2-1.9-4.2-4.2S-2.3-4.3,0-4.3S4.2-2.3,4.2,0S2.3,4.2,0,4.2z M-3.8,0c0,2.1,1.7,3.8,3.8,3.8
		S3.7,2.1,3.7,0c0-0.9-0.3-1.6-0.8-2.3L1.3-0.9c0.3,0.4,0.4,0.8,0.4,1.3c0,1.2-1,2.3-2.3,2.3s-2.3-1-2.3-2.3s1-2.3,2.3-2.3
		c0.6,0,1.1,0.2,1.5,0.6l1.6-1.3C2-3.3,1-3.8,0-3.8C-2.1-3.8-3.8-2.1-3.8,0z M-0.5-1.4c-1,0-1.8,0.8-1.8,1.8s0.8,1.8,1.8,1.8
		s1.8-0.8,1.8-1.8S0.5-1.4-0.5-1.4z"/>
</symbol>
<use xlink:href="#analysis"  width="8.5" height="8.5" id="XMLID_134_" x="-4.3" y="-4.3" transform="matrix(1 0 0 -1 4.2501 4.25)" style="overflow:visible;"/>
</svg>
