<?xml version="1.0" encoding="utf-8"?>
<!-- Generator: Adobe Illustrator 25.2.1, SVG Export Plug-In . SVG Version: 6.00 Build 0)  -->
<svg version="1.1" id="Layer_1" xmlns="http://www.w3.org/2000/svg" xmlns:xlink="http://www.w3.org/1999/xlink" x="0px" y="0px"
	 viewBox="0 0 20.7 20.7" style="enable-background:new 0 0 20.7 20.7;" xml:space="preserve">
<style type="text/css">
	.st0{fill:#093D4C;stroke:#093D4C;stroke-width:0.25;stroke-miterlimit:10;}
</style>
<path class="st0" d="M12.1,14.6c-0.4-3,2.6-5.1,4.3-6.8c3.4-4.3-3.4-6-6.4-3.9L9.1,2.2c4.7-3.4,13.7,0.4,9,6.4c-1.3,1.3-4.7,3-3.9,6
	H12.1z M11.7,18c0-0.8,0.7-1.5,1.5-1.5s1.5,0.7,1.5,1.5C14.7,20.5,11.7,20.5,11.7,18z"/>
<path class="st0" d="M6.3,15.2c-1.3-1.7-0.2-3.9,0.2-5.5C7.1,6,2.5,7.3,1.4,9.6L0.3,8.9C2,5.3,8.6,4.4,7.8,9.6
	c-0.3,1.2-1.7,3.4-0.2,4.8L6.3,15.2z M7.3,17.4c-0.3-0.5-0.1-1.1,0.4-1.4c0.5-0.3,1.1-0.1,1.4,0.4C9.9,17.9,8.1,18.9,7.3,17.4z"/>
</svg>
