<?xml version="1.0" encoding="utf-8"?>
<!-- Generator: Adobe Illustrator 25.2.1, SVG Export Plug-In . SVG Version: 6.00 Build 0)  -->
<svg version="1.1" id="Layer_1" xmlns="http://www.w3.org/2000/svg" xmlns:xlink="http://www.w3.org/1999/xlink" x="0px" y="0px"
	 viewBox="0 0 10.3 10.4" style="enable-background:new 0 0 10.3 10.4;" xml:space="preserve">
<style type="text/css">
	.st0{fill:#F47540;}
</style>
<symbol  id="icon-unit" viewBox="-4.3 -4.3 8.6 8.6">
	<path class="st0" d="M2.3-1c0,0.7,0,1.3,0,2c0,0,0,0,0,0C2.1,1,1.9,1,1.7,1C1.3,1,1,1.2,1,1.6c0,0,0,0.1,0,0.1c0,0.2,0,0.4,0,0.6
		c0,0,0,0,0,0c-0.7,0-1.3,0-2,0c0,0,0,0,0,0c0-0.2,0-0.4,0-0.6C-1,1.3-1.2,1-1.6,1c0,0-0.1,0-0.1,0c-0.2,0-0.4,0-0.6,0c0,0,0,0,0,0
		c0-0.7,0-1.3,0-2c0,0,0,0,0,0c0.2,0,0.4,0,0.6,0C-1.3-1-1-1.2-1-1.6c0,0,0-0.1,0-0.1c0-0.7,0-1.3,0-2C-1-4-1.2-4.3-1.6-4.3
		c0,0-0.1,0-0.1,0c-0.7,0-1.3,0-2,0c-0.3,0-0.6,0.2-0.7,0.6c0,0,0,0.1,0,0.1c0,0.7,0,1.3,0,2C-4.3-1.3-4.1-1-3.7-1c0,0,0.1,0,0.1,0
		C-3.4-1-3.2-1-3-1c0,0,0,0,0,0c0,0.7,0,1.3,0,2c0,0,0,0,0,0c-0.2,0-0.4,0-0.6,0C-4,1-4.3,1.3-4.3,1.7c0,0.7,0,1.3,0,2
		c0,0.3,0.2,0.6,0.6,0.7c0,0,0.1,0,0.1,0c0.7,0,1.3,0,2,0C-1.3,4.3-1,4.1-1,3.7c0,0,0-0.1,0-0.1C-1,3.4-1,3.2-1,3c0,0,0,0,0,0
		c0.7,0,1.3,0,2,0c0,0,0,0,0,0c0,0.2,0,0.4,0,0.6C1,4,1.2,4.3,1.6,4.3c0,0,0.1,0,0.1,0c0.7,0,1.3,0,2,0C4,4.3,4.3,4,4.3,3.7
		c0,0,0-0.1,0-0.1c0-0.7,0-1.3,0-2c0-0.3-0.2-0.6-0.5-0.7c0,0-0.1,0-0.1,0C3.4,1,3.2,1,3,1c0,0,0,0,0,0c0-0.7,0-1.3,0-2c0,0,0,0,0,0
		c0.2,0,0.4,0,0.6,0C4-1,4.3-1.2,4.3-1.6c0,0,0-0.1,0-0.1c0-0.7,0-1.3,0-2C4.3-4,4-4.3,3.6-4.3c-0.7,0-1.3,0-2,0
		C1.3-4.3,1-4.1,1-3.7c0,0,0,0,0,0.1c0,0.7,0,1.3,0,2C1-1.3,1.3-1,1.6-1c0,0,0.1,0,0.1,0C1.9-1,2.1-1,2.3-1C2.3-1,2.3-1,2.3-1z
		 M-3.6,3.6c0-0.7,0-1.3,0-2c0.7,0,1.3,0,2,0c0,0.7,0,1.3,0,2C-2.3,3.6-3,3.6-3.6,3.6z M3.6,1.7c0,0.7,0,1.3,0,2c-0.7,0-1.3,0-2,0
		c0-0.7,0-1.3,0-2C2.3,1.7,3,1.7,3.6,1.7z M1.7-3.6c0.7,0,1.3,0,2,0c0,0.7,0,1.3,0,2c-0.7,0-1.3,0-2,0C1.7-2.3,1.7-3,1.7-3.6z"/>
</symbol>
<use xlink:href="#icon-unit"  width="8.6" height="8.6" id="XMLID_6_" x="-4.3" y="-4.3" transform="matrix(1.1914 0 0 -1.1914 5.1948 5.1756)" style="overflow:visible;"/>
</svg>
