<?xml version="1.0" encoding="utf-8"?>
<!-- Generator: Adobe Illustrator 25.2.1, SVG Export Plug-In . SVG Version: 6.00 Build 0)  -->
<svg version="1.1" xmlns="http://www.w3.org/2000/svg" xmlns:xlink="http://www.w3.org/1999/xlink" x="0px" y="0px"
	 viewBox="0 0 56.1 47.7" style="enable-background:new 0 0 56.1 47.7;" xml:space="preserve">
<style type="text/css">
	.st0{fill:#DFF3F3;}
	.st1{fill:#FFFFFF;}
	.st2{fill:#2B6777;}
	.st3{fill:none;stroke:#0B1F32;stroke-miterlimit:10;}
	.st4{fill:#0F1F32;}
	.st5{fill:none;stroke:#0B1F32;stroke-width:0.75;stroke-miterlimit:10;}
	.st6{fill:#0E2031;}
</style>
<g id="Layer_1">
	<ellipse class="st0" cx="26.5" cy="29.6" rx="23.3" ry="23.9"/>
</g>
<g id="Layer_2">
	<circle class="st1" cx="38.7" cy="26.8" r="8.1"/>
	<path class="st2" d="M30.6,27.2c0,0,0.7,0.3,2.5-4.1c1.3-3.3,1.2-4.4,2.7-3.7c1.9,0.9,2.1,4.3,3.4,4.2c2-0.1,4.7-1.8,4.7-1.8
		s2.3,2.7,2.8,5.5c0,0,0.5-2.3,0.5-4.3c0-2.7-0.4-7-5.6-7.2c-0.3,0-0.3-1.1-5.1-1.1c-3.8,0-4.3,2.3-4.3,2.3s-2.4-1.3-2.3,4.1
		C29.9,25.2,30.6,27.2,30.6,27.2z"/>
	<line class="st3" x1="37.1" y1="31.7" x2="41.1" y2="31.7"/>
	<path class="st4" d="M25.6,47.6h12.7c0,0,0.4-9.2,0-9.3c-2.7-0.9-1.5-3.4-2.3-3.4c-0.8,0-11.1,1.5-11.7,4.8
		C23.8,43,25.6,47.6,25.6,47.6z"/>
	<line class="st5" x1="35.8" y1="26.8" x2="35.8" y2="27.8"/>
	<line class="st5" x1="42.2" y1="26.8" x2="42.2" y2="27.8"/>
	<path class="st4" d="M52.4,47.6H39.6c0,0-0.4-9.2,0-9.3c2.7-0.9,1.5-3.4,2.3-3.4s11.1,1.5,11.7,4.8C54.1,43,52.4,47.6,52.4,47.6z"
		/>
</g>
<g id="Layer_3">
	<circle class="st1" cx="15.9" cy="26.8" r="8.1"/>
	<path class="st6" d="M10.5,34.2c0,0-2.9-5.7-1.1-10.1c1.3-3.3,3.2-4.1,4.7-3.3c1.9,0.9,4.2,3.4,5.5,4.2c2,1.2,3.5,0.1,3.5,0.1
		s0.5,6.2-1,8.8c0,0,4-4.4,4-7c0-2.8-3.3-9.5-8.5-9.7c-0.3,0,1-3.8-3.8-3.8c-3.8,0-2.5,4.2-2.5,4.2c0.2,0.5-5.3,4.2-5.3,9.4
		C5.9,31,10.5,34.2,10.5,34.2z"/>
	<line class="st3" x1="14.3" y1="31.7" x2="18.3" y2="31.7"/>
	<path class="st2" d="M2.8,47.6h12.7c0,0,0.4-9.2,0-9.3c-2.7-0.9-1.5-3.4-2.3-3.4S2.1,36.5,1.6,39.7C1,43,2.8,47.6,2.8,47.6z"/>
	<line class="st5" x1="13" y1="26.8" x2="13" y2="27.8"/>
	<line class="st5" x1="19.4" y1="26.8" x2="19.4" y2="27.8"/>
	<path class="st2" d="M29.6,47.6H16.9c0,0-0.4-9.2,0-9.3c2.7-0.9,1.5-3.4,2.3-3.4c0.8,0,11.1,1.5,11.7,4.8
		C31.3,43,29.6,47.6,29.6,47.6z"/>
</g>
</svg>
