<?xml version="1.0" encoding="utf-8"?>
<!-- Generator: Adobe Illustrator 25.3.1, SVG Export Plug-In . SVG Version: 6.00 Build 0)  -->
<svg version="1.1" id="Layer_1" xmlns="http://www.w3.org/2000/svg" xmlns:xlink="http://www.w3.org/1999/xlink" x="0px" y="0px"
	 viewBox="0 0 139.2 81.5" style="enable-background:new 0 0 139.2 81.5;" xml:space="preserve">
<style type="text/css">
	.st0{fill:#217F92;}
</style>
<path class="st0" d="M131.7,23.4h-25c-2.7,0-5,2.2-5,5v5h35v-5C136.7,25.6,134.4,23.4,131.7,23.4z M124.2,30.9h-10v-5h10V30.9z"/>
<path class="st0" d="M101.7,68.4v5c0,2.8,2.3,5,5,5h25c2.8,0,5-2.2,5-5v-5H101.7z M119.2,75.9c-1.5,0-2.5-1-2.5-2.5s1-2.5,2.5-2.5
	c1.5,0,2.5,1,2.5,2.5S120.7,75.9,119.2,75.9z"/>
<path class="st0" d="M101.7,35.9v30h35v-30H101.7z M131.7,60.9h-25v-20h25V60.9z"/>
<path class="st0" d="M66.7,28.4h-50c-2.7,0-5,2.2-5,5v32.5h60V33.4C71.7,30.6,69.4,28.4,66.7,28.4z M66.7,60.9h-50V33.4h50V60.9z"/>
<path class="st0" d="M46.7,68.4v5h-10v-5h-30v5c0,2.8,2.2,5,5,5h60c2.8,0,5-2.2,5-5v-5H46.7z"/>
<path class="st0" d="M96.7,73.4v-15h-20v5h5v0.8c2.5-1.5,5.5-0.5,6.8,1.8c1.5,2.5,0.5,5.5-1.8,6.8c-1.5,1-3.5,1-5,0v0.8
	c0,1.8-0.5,3.5-1.5,5h21.5C98.9,78.4,96.7,76.1,96.7,73.4z"/>
<path class="st0" d="M106.7,3.4h-45c-2.8,0-5,2.2-5,5v15h5v-15h45v10h5v-10C111.7,5.6,109.4,3.4,106.7,3.4z"/>
</svg>
