<?xml version="1.0" encoding="utf-8"?>
<!-- Generator: Adobe Illustrator 26.0.3, SVG Export Plug-In . SVG Version: 6.00 Build 0)  -->
<svg version="1.1" id="Layer_1" xmlns="http://www.w3.org/2000/svg" xmlns:xlink="http://www.w3.org/1999/xlink" x="0px" y="0px"
	 viewBox="0 0 115.9 55" style="enable-background:new 0 0 115.9 55;" xml:space="preserve">
<style type="text/css">
	.st0{fill:#C5C5CB;}
	.st1{fill:#1E9575;}
	.st2{fill:#757887;}
	.st3{fill:#555C6C;}
	.st4{fill:#354557;}
	.st5{fill:#F47540;}
	.st6{fill:#E5E5E5;}
	.st7{fill:#18C0DC;}
	.st8{fill:#093D4C;}
	.st9{fill:#F2F2F3;}
	.st10{fill:#FFFFFF;}
	.st11{fill:#1B495B;}
	.st12{fill:#236380;}
	.st13{fill:#26739E;}
	.st14{fill:#7F9DBD;}
	.st15{fill:#CED7E3;}
	.st16{fill:#D34F32;}
	.st17{opacity:0.7;fill:#D34F32;enable-background:new    ;}
	.st18{opacity:0.2;fill:#D34F32;enable-background:new    ;}
	.st19{opacity:0.5;fill:#D34F32;enable-background:new    ;}
	.st20{opacity:0.3;fill:#D34F32;enable-background:new    ;}
	.st21{fill:#394557;}
</style>
<rect x="0.1" y="46.4" class="st0" width="3.6" height="8.6"/>
<rect x="0.1" y="46.4" class="st1" width="3.6" height="0.9"/>
<rect x="4.4" y="45.2" class="st2" width="3.6" height="9.8"/>
<rect x="4.4" y="45.2" class="st1" width="3.6" height="3.2"/>
<rect x="8.7" y="42.9" class="st3" width="3.6" height="12.1"/>
<rect x="8.7" y="42.9" class="st1" width="3.6" height="4.8"/>
<rect x="13.1" y="49.7" class="st4" width="3.6" height="5.3"/>
<rect x="13.1" y="49.7" class="st1" width="3.6" height="0.5"/>
<path class="st1" d="M48.2,3.8H46c0-1.7-1.4-3.1-3.1-3.1v-2.2C45.8-1.5,48.2,0.8,48.2,3.8z"/>
<path class="st4" d="M42.9,9.1C40,9.2,37.5,6.9,37.3,4c-0.1-2.9,2.2-5.4,5.1-5.6c0.2,0,0.3,0,0.5,0v2.2c-1.7,0-3.1,1.4-3.1,3.1
	s1.4,3.1,3.1,3.1S46,5.4,46,3.7l0,0h2.2C48.2,6.7,45.9,9.1,42.9,9.1z"/>
<path class="st5" d="M102.7,29.6v-1.7h2.7v-2.7h1.7v2.7h2.7v1.7h-2.7v2.7h-1.7v-2.7C105.4,29.6,102.7,29.6,102.7,29.6z"/>
<path class="st5" d="M5.3,3.3l1-1l1.5,1.5l1.5-1.5l1,1L8.8,4.8l1.5,1.5l-1,1L7.8,5.8L6.2,7.4l-1-1l1.5-1.5L5.3,3.3z"/>
<path class="st6" d="M68.7,5.5h4.8v1.1h-4.8V5.5z"/>
<path class="st6" d="M9.6,29c-0.2,0.2-0.5,0.4-0.9,0.4c-0.3,0-0.6-0.1-0.9-0.4c-0.5-0.5-0.5-1.3,0-1.8s1.2-0.5,1.7,0l0,0
	C10,27.8,10,28.6,9.6,29z M9.1,28.5c0.2-0.2,0.2-0.5,0-0.7c-0.1-0.1-0.2-0.1-0.4-0.2c-0.1,0-0.3,0.1-0.4,0.2c-0.2,0.2-0.2,0.5,0,0.7
	c0.1,0.1,0.2,0.2,0.4,0.2C8.8,28.7,9,28.6,9.1,28.5z M11.4,26.9h0.5l-2.7,5H8.7L11.4,26.9z M12.8,31.5c-0.5,0.5-1.3,0.5-1.8,0
	s-0.5-1.3,0-1.8s1.3-0.5,1.8,0l0,0C13.2,30.2,13.2,31,12.8,31.5z M12.3,30.3c-0.1-0.1-0.2-0.2-0.4-0.2c-0.1,0-0.3,0.1-0.4,0.2
	c-0.1,0.1-0.1,0.2-0.1,0.3s0.1,0.3,0.2,0.4c0.1,0.1,0.2,0.2,0.4,0.1c0.1,0,0.3-0.1,0.4-0.1c0-0.1,0-0.2,0-0.4
	C12.4,30.5,12.4,30.4,12.3,30.3z"/>
<circle class="st7" cx="14.1" cy="18.9" r="1.8"/>
<circle class="st7" cx="20.6" cy="12.4" r="1.8"/>
<circle class="st7" cx="25.8" cy="16" r="1.8"/>
<circle class="st7" cx="32.2" cy="9.6" r="1.8"/>
<path class="st8" d="M32.2,7.3c-1.2,0-2.2,1-2.2,2.2c0,0.4,0.1,0.9,0.4,1.2l-3.3,3.4c-0.8-0.5-1.9-0.4-2.7,0.2l-1.6-1.1
	c0.1-0.3,0.2-0.6,0.2-0.8c0-1.2-1-2.3-2.2-2.3c-1.2,0-2.3,1-2.3,2.2c0,0.4,0.1,0.9,0.3,1.2L15.3,17c-0.4-0.2-0.8-0.4-1.2-0.3
	c-1.2,0-2.2,1-2.2,2.2s1,2.2,2.2,2.2s2.3-1,2.3-2.2c0-0.4-0.1-0.8-0.4-1.2l3.4-3.4c0.4,0.2,0.8,0.3,1.2,0.3c0.6,0,1.1-0.2,1.5-0.6
	l1.6,1.1c-0.1,0.3-0.2,0.6-0.2,0.8c0,1.2,1,2.2,2.3,2.2s2.2-1,2.2-2.3c0-0.4-0.1-0.8-0.4-1.2l3.3-3.4c1.1,0.7,2.5,0.4,3.1-0.7
	c0.5-1,0.1-2-0.3-2.4C33.5,7.9,32.6,7.3,32.2,7.3L32.2,7.3z M14.1,20.1c-0.7,0-1.2-0.6-1.2-1.2s0.6-1.2,1.2-1.2s1.2,0.6,1.2,1.2
	S14.8,20.1,14.1,20.1z M20.6,13.6c-0.7,0-1.2-0.6-1.2-1.3s0.6-1.2,1.3-1.2c0.7,0,1.2,0.6,1.2,1.2C21.9,13.1,21.3,13.6,20.6,13.6
	L20.6,13.6z M25.8,17.3c-0.7,0-1.2-0.6-1.2-1.2c0-0.7,0.6-1.2,1.2-1.2c0.7,0,1.2,0.6,1.2,1.2C27.1,16.7,26.5,17.3,25.8,17.3z
	 M32.2,10.8c-0.7,0-1.2-0.6-1.2-1.2s0.6-1.2,1.2-1.2c0.6,0,1.2,0.6,1.2,1.2S32.9,10.8,32.2,10.8z"/>
<path class="st9" d="M92.9,11V9.2l0,0V0.2c0-0.3,0.2-0.6,0.6-0.6l0,0h13.8c0.3,0,0.6,0.2,0.6,0.6l0,0v9c0,0.3-0.2,0.6-0.6,0.6l0,0
	H94L92.9,11z"/>
<g id="Concepts_in_Practice-3">
	<path class="st10" d="M93.6,19.1c0-0.1-0.1-0.3-0.3-0.3H45.3l0,0c-0.1,0-0.3,0.1-0.3,0.3v35.8h48.6V19.1L93.6,19.1z"/>
	<path class="st4" d="M93.3,18.2c0.6,0,1,0.4,1,1V55h-1.1V24.7H45.5v30.1h-1.3V19.1c0-0.6,0.4-1,1-1L93.3,18.2L93.3,18.2z
		 M93.1,23.6v-4.2H45.5v4.2H93.1z"/>
	<path class="st4" d="M50.8,36.1c0-0.3,0.3-0.6,0.6-0.6h9.5c0.3,0,0.6,0.3,0.6,0.6c0,0.3-0.3,0.6-0.6,0.6h-9.5
		C51.1,36.6,50.8,36.3,50.8,36.1z"/>
	<path class="st4" d="M63.5,37.9c0.3,0,0.6,0.3,0.6,0.7c0,0.3-0.3,0.6-0.7,0.6h-12c-0.3,0-0.4-0.3-0.6-0.6c0-0.3,0.1-0.6,0.6-0.7
		H63.5C63.4,37.9,63.4,37.9,63.5,37.9z"/>
	<path class="st4" d="M61.5,40.4c0.3,0,0.6,0.3,0.6,0.6c0,0.3-0.3,0.6-0.6,0.6H51.3l0,0c-0.3,0-0.6-0.3-0.6-0.6
		c0-0.3,0.3-0.6,0.6-0.6H61.5L61.5,40.4z"/>
	<path class="st4" d="M60,43c0.3,0,0.6,0.3,0.6,0.7c0,0.3-0.3,0.6-0.7,0.6h-8.5c-0.3,0-0.4-0.3-0.6-0.6c0-0.3,0.1-0.6,0.6-0.7H60
		C59.8,43,60,43,60,43z"/>
	<path class="st11" d="M79.2,31c-1.1,0-2.1,0.1-3.1,0.6c-4.5,1.7-6.8,6.8-5.1,11.5l8.2-3.1C79.2,39.9,79.2,31,79.2,31z"/>
	<path class="st12" d="M71,43c0.1,0.6,0.4,1,0.7,1.6l0,0c2.5,4.1,8.1,5.4,12.2,2.8l-4.7-7.5L71,43z"/>
	<path class="st13" d="M83.9,47.4c3.3-2,4.8-5.7,4-9.3l-8.6,1.8L83.9,47.4z"/>
	<path class="st14" d="M87.8,38c-0.6-2.7-2.3-4.8-4.7-6.1l-4,7.9L87.8,38z"/>
	<path class="st15" d="M83.2,32c-1.3-0.7-2.5-1-4-1v8.8L83.2,32z"/>
	<circle class="st4" cx="44.3" cy="51.6" r="2"/>
	<path class="st1" d="M44.3,54.6c1.7,0,3-1.3,3-3c0-1.7-1.3-3-3-3c-1.7,0-3,1.3-3,3C41.3,53.2,42.6,54.6,44.3,54.6L44.3,54.6z
		 M46.1,51.6L46.1,51.6c0,1-0.8,1.8-1.8,1.8s-1.8-0.8-1.8-1.8s0.8-1.8,1.8-1.8C45.3,49.8,46.1,50.5,46.1,51.6z"/>
	<circle class="st4" cx="106" cy="47.5" r="2.3"/>
	<path class="st16" d="M109.3,47.5L109.3,47.5c0-1.9-1.5-3.4-3.4-3.4s-3.4,1.5-3.4,3.4c0,1.9,1.5,3.4,3.4,3.4
		C107.9,50.8,109.3,49.3,109.3,47.5z M108.1,47.5L108.1,47.5c0,1.2-1,2.1-2.1,2.1c-1.2,0-2.1-1-2.1-2.1c0-1.2,1-2.1,2.1-2.1
		C107.1,45.3,108.1,46.3,108.1,47.5z"/>
	<rect x="96.5" y="3.2" class="st17" width="2.2" height="4.1"/>
	<rect x="98.6" y="1.6" class="st18" width="2.2" height="5.8"/>
	<rect x="100.8" y="2.2" class="st19" width="2.2" height="5.1"/>
	<rect x="102.8" y="3.9" class="st20" width="2.2" height="3.4"/>
	<g>
		<circle class="st21" cx="91.3" cy="13" r="2.1"/>
		<path class="st21" d="M90.2,14.7c-0.9,1.2-1.1,4-1.1,4h4.5c0,0-0.6-3.4-1.2-4H90.2z"/>
	</g>
	<circle class="st4" cx="30.1" cy="38.9" r="3.1"/>
	<path class="st5" d="M34.6,38.9C34.6,38.9,34.6,38.8,34.6,38.9c0-2.5-2.1-4.5-4.5-4.5c-2.5,0-4.5,2.1-4.5,4.5s2.1,4.5,4.5,4.5
		C32.6,43.4,34.6,41.3,34.6,38.9z M32.9,38.9L32.9,38.9c0,1.7-1.3,2.9-2.9,2.9c-1.5,0-2.9-1.3-2.9-2.9c0-1.5,1.3-2.9,2.9-2.9
		C31.6,36,32.9,37.2,32.9,38.9z"/>
</g>
<g>
	<path class="st13" d="M47.5,17.2l0.7-0.4l-0.4-0.9L47,16.1c-0.1-0.1-0.2-0.2-0.3-0.3l0.1-0.8L46,14.7l-0.4,0.7c-0.1,0-0.3,0-0.4,0
		l-0.4-0.7l-0.9,0.4L44,16c-0.1,0.1-0.2,0.2-0.3,0.3l-0.8-0.1L42.6,17l0.7,0.4c0,0.1,0,0.3,0,0.4l-0.7,0.4l0.4,0.9l0.8-0.2
		c0.1,0.1,0.2,0.2,0.3,0.3L44,20.1l0.9,0.3l0.4-0.7c0.1,0,0.3,0,0.4,0l0.4,0.7l0.9-0.4l-0.2-0.8c0.1-0.1,0.2-0.2,0.3-0.3l0.8,0.1
		l0.3-0.9l-0.7-0.4C47.5,17.5,47.5,17.4,47.5,17.2z M45.8,18.4c-0.4,0.2-1,0-1.2-0.4c-0.2-0.4,0-1,0.4-1.2c0.4-0.2,1,0,1.2,0.4
		C46.5,17.6,46.3,18.2,45.8,18.4z"/>
	<path class="st1" d="M42.7,26c0.1-0.2,0.3-0.4,0.3-0.6l1.3,0l0.2-1.7l-1.3-0.3c0-0.2-0.1-0.4-0.2-0.7l0.9-1l-1-1.3l-1.1,0.7
		c-0.2-0.1-0.4-0.3-0.6-0.3l0-1.2l-1.7-0.2l-0.3,1.3c-0.2,0-0.4,0.1-0.7,0.1l-1-0.9l-1.2,1l0.7,1.1c-0.1,0.2-0.3,0.4-0.3,0.6l-1.2,0
		l-0.2,1.7l1.2,0.3c0,0.2,0.1,0.4,0.2,0.7l-0.9,1l1,1.3l1.1-0.7c0.2,0.1,0.4,0.3,0.6,0.3l0,1.3l1.7,0.2l0.3-1.3
		c0.2,0,0.4-0.1,0.7-0.2l1,0.9l1.3-1L42.7,26z M39.8,25.5c-0.9,0-1.5-0.7-1.5-1.5c0-0.9,0.7-1.5,1.5-1.5c0.9,0,1.5,0.7,1.5,1.5
		C41.3,24.9,40.6,25.6,39.8,25.5z"/>
</g>
</svg>
