<?xml version="1.0" encoding="utf-8"?>
<!-- Generator: Adobe Illustrator 22.0.1, SVG Export Plug-In . SVG Version: 6.00 Build 0)  -->
<svg version="1.1" id="Layer_1" xmlns="http://www.w3.org/2000/svg" xmlns:xlink="http://www.w3.org/1999/xlink" x="0px" y="0px"
	 viewBox="0 0 21 23.8" style="enable-background:new 0 0 21 23.8;" xml:space="preserve">
<style type="text/css">
	.st0{clip-path:url(#SVGID_2_);fill:#28739E;}
	.st1{fill:#394557;}
	.st2{fill:#FFFFFF;}
	.st3{fill:#354456;}
</style>
<g>
	<g>
		<defs>
			<rect id="SVGID_1_" y="0" width="21" height="23.8"/>
		</defs>
		<clipPath id="SVGID_2_">
			<use xlink:href="#SVGID_1_"  style="overflow:visible;"/>
		</clipPath>
		<path class="st0" d="M0.9,0.9h19.3v22H0.9V0.9z M0,23.8h21V0H0V23.8z"/>
	</g>
</g>
<g>
	<path class="st1" d="M13.3,7.8V6.2H5.2V16h1.6h6.5V7.8z M5.9,7h6.6v8.3H5.9V7z"/>
	<rect x="7.9" y="9.2" class="st1" width="2.6" height="0.6"/>
	<rect x="7.9" y="10.8" class="st1" width="2.6" height="0.6"/>
	<rect x="7.9" y="12.4" class="st1" width="2.6" height="0.6"/>
</g>
<g>
	<circle class="st1" cx="12.8" cy="15.7" r="3.2"/>
</g>
<polygon class="st2" points="11.4,17.2 11.8,17.2 12.2,16.2 13.5,16.2 13.9,17.2 14.3,17.2 13.1,13.9 12.7,13.9 "/>
<polygon class="st3" points="12.3,15.8 13.4,15.8 12.9,14.3 "/>
</svg>
