<?xml version="1.0" encoding="utf-8"?>
<!-- Generator: Adobe Illustrator 22.1.0, SVG Export Plug-In . SVG Version: 6.00 Build 0)  -->
<svg version="1.1" id="Layer_1" xmlns="http://www.w3.org/2000/svg" xmlns:xlink="http://www.w3.org/1999/xlink" x="0px" y="0px"
	 viewBox="0 0 21 23.8" style="enable-background:new 0 0 21 23.8;" xml:space="preserve">
<style type="text/css">
	.st0{clip-path:url(#SVGID_2_);fill:#28739E;}
	.st1{fill:none;stroke:#394557;stroke-width:0.5;stroke-miterlimit:10;}
	.st2{fill:#FFFFFF;stroke:#394557;stroke-width:0.5;stroke-miterlimit:10;}
	.st3{fill:#394557;}
</style>
<g>
	<g>
		<defs>
			<rect id="SVGID_1_" y="0" width="21" height="23.8"/>
		</defs>
		<clipPath id="SVGID_2_">
			<use xlink:href="#SVGID_1_"  style="overflow:visible;"/>
		</clipPath>
		<path class="st0" d="M0.9,0.9h19.3v22H0.9V0.9z M0,23.8h21V0H0V23.8z"/>
	</g>
</g>
<g>
	<path class="st1" d="M5.9,10.9c-0.7,1-0.9,2.7-0.9,2.7l3.7,0c0,0-0.5-2.2-1-2.7L5.9,10.9z"/>
	<circle class="st2" cx="6.8" cy="9.5" r="1.7"/>
</g>
<g>
	<path class="st1" d="M12.8,10.7c-0.7,1-0.9,2.7-0.9,2.7l3.7,0c0,0-0.5-2.2-1-2.7L12.8,10.7z"/>
	<circle class="st2" cx="13.7" cy="9.3" r="1.7"/>
</g>
<g>
	<path class="st1" d="M9.2,7.8c-0.7,1-0.9,2.7-0.9,2.7l3.7,0c0,0-0.5-2.2-1-2.7L9.2,7.8z"/>
	<circle class="st2" cx="10.1" cy="6.4" r="1.7"/>
</g>
<g>
	<circle class="st3" cx="10.2" cy="11.3" r="2.7"/>
	<path class="st3" d="M8.9,13.5c-1.1,1.5-1.4,4.2-1.4,4.2l5.8,0c0,0-0.8-3.4-1.6-4.2L8.9,13.5z"/>
</g>
</svg>
