<?xml version="1.0" encoding="utf-8"?>
<!-- Generator: Adobe Illustrator 22.0.1, SVG Export Plug-In . SVG Version: 6.00 Build 0)  -->
<svg version="1.1" id="Layer_1" xmlns="http://www.w3.org/2000/svg" xmlns:xlink="http://www.w3.org/1999/xlink" x="0px" y="0px"
	 viewBox="0 0 21 23.8" style="enable-background:new 0 0 21 23.8;" xml:space="preserve">
<style type="text/css">
	.st0{clip-path:url(#SVGID_2_);fill:#28739E;}
	.st1{fill:none;stroke:#354456;stroke-width:0.5;stroke-miterlimit:10;}
	.st2{fill:#354456;stroke:#FFFFFF;stroke-width:0.1;stroke-miterlimit:10;}
</style>
<g>
	<g>
		<defs>
			<rect id="SVGID_1_" y="0" width="21" height="23.8"/>
		</defs>
		<clipPath id="SVGID_2_">
			<use xlink:href="#SVGID_1_"  style="overflow:visible;"/>
		</clipPath>
		<path class="st0" d="M0.9,0.9h19.3v22H0.9V0.9z M0,23.8h21V0H0V23.8z"/>
	</g>
</g>
<ellipse class="st1" cx="10.6" cy="12" rx="5" ry="5"/>
<ellipse class="st1" cx="10.6" cy="12" rx="2.7" ry="5"/>
<line class="st1" x1="10.6" y1="7" x2="10.6" y2="17.2"/>
<line class="st1" x1="15.6" y1="12.1" x2="5.5" y2="12.1"/>
<path class="st1" d="M14.2,8.7c0,0.8-1.7,1.5-3.7,1.5S6.8,9.5,6.8,8.7"/>
<path class="st1" d="M14.3,15.4c0-0.8-1.7-1.5-3.7-1.5s-3.7,0.7-3.7,1.5"/>
<polygon class="st2" points="12.1,13.3 13.5,17.7 14.2,16.5 15.4,18 16.2,17.3 14.9,15.9 16.2,15.3 "/>
</svg>
