<?xml version="1.0" encoding="utf-8"?>
<!-- Generator: Adobe Illustrator 23.0.6, SVG Export Plug-In . SVG Version: 6.00 Build 0)  -->
<svg version="1.1" id="Layer_1" xmlns="http://www.w3.org/2000/svg" xmlns:xlink="http://www.w3.org/1999/xlink" x="0px" y="0px"
	 viewBox="0 0 110 62" style="enable-background:new 0 0 110 62;" xml:space="preserve">
<style type="text/css">
	.st0{clip-path:url(#SVGID_1_);}
	.st1{clip-path:url(#SVGID_2_);enable-background:new    ;}
	.st2{clip-path:url(#SVGID_3_);}
	.st3{clip-path:url(#SVGID_4_);}
	.st4{clip-path:url(#SVGID_24_);fill:#271314;}
	.st5{clip-path:url(#SVGID_30_);}
	.st6{clip-path:url(#SVGID_31_);enable-background:new    ;}
	.st7{clip-path:url(#SVGID_32_);}
	.st8{clip-path:url(#SVGID_33_);}
	.st9{clip-path:url(#SVGID_34_);fill:#E1BF98;}
	.st10{fill-rule:evenodd;clip-rule:evenodd;fill:#15BFDB;}
	.st11{fill-rule:evenodd;clip-rule:evenodd;fill:#1DA8B7;}
	.st12{clip-path:url(#SVGID_35_);}
	.st13{clip-path:url(#SVGID_36_);fill:#D7AF8D;}
	.st14{fill-rule:evenodd;clip-rule:evenodd;fill:#E1BF98;}
	.st15{fill-rule:evenodd;clip-rule:evenodd;fill:#D7AF8D;}
	.st16{clip-path:url(#SVGID_37_);}
	.st17{clip-path:url(#SVGID_38_);}
	.st18{clip-path:url(#SVGID_39_);fill:#E3CCA2;}
	.st19{clip-path:url(#SVGID_40_);}
	.st20{clip-path:url(#SVGID_41_);fill:#D7AF8D;}
	.st21{clip-path:url(#SVGID_42_);}
	.st22{clip-path:url(#SVGID_43_);fill:#D7AF8D;}
	.st23{clip-path:url(#SVGID_44_);}
	.st24{clip-path:url(#SVGID_45_);fill:#D7AF8D;}
	.st25{clip-path:url(#SVGID_46_);}
	.st26{clip-path:url(#SVGID_47_);enable-background:new    ;}
	.st27{fill:none;stroke:#B96D62;stroke-width:0.4327;stroke-linecap:round;stroke-miterlimit:10;}
	.st28{clip-path:url(#SVGID_49_);}
	.st29{clip-path:url(#SVGID_50_);fill:#503C3C;}
	.st30{clip-path:url(#SVGID_51_);}
	.st31{clip-path:url(#SVGID_52_);enable-background:new    ;}
	.st32{clip-path:url(#SVGID_53_);}
	.st33{clip-path:url(#SVGID_54_);}
	.st34{clip-path:url(#SVGID_55_);fill:#CDA572;}
	.st35{fill-rule:evenodd;clip-rule:evenodd;fill:#344456;}
	.st36{fill-rule:evenodd;clip-rule:evenodd;fill:none;}
	.st37{clip-path:url(#SVGID_56_);}
	.st38{clip-path:url(#SVGID_57_);fill:#B79265;}
	.st39{clip-path:url(#SVGID_58_);}
	.st40{clip-path:url(#SVGID_59_);fill:#B79265;}
	.st41{clip-path:url(#SVGID_60_);}
	.st42{clip-path:url(#SVGID_61_);fill:#B79265;}
	.st43{clip-path:url(#SVGID_62_);fill-rule:evenodd;clip-rule:evenodd;fill:#CDA572;}
	.st44{clip-path:url(#SVGID_62_);fill-rule:evenodd;clip-rule:evenodd;fill:#BB9A72;}
	.st45{fill:#FFFFFF;}
	.st46{clip-path:url(#SVGID_64_);}
	.st47{clip-path:url(#SVGID_65_);fill:#FFFFFF;}
	.st48{clip-path:url(#SVGID_68_);}
	.st49{clip-path:url(#SVGID_69_);}
	.st50{clip-path:url(#SVGID_71_);}
	.st51{fill:#BB9A72;}
	.st52{fill:#231F20;}
	.st53{clip-path:url(#SVGID_73_);}
	.st54{clip-path:url(#SVGID_75_);enable-background:new    ;}
	.st55{clip-path:url(#SVGID_77_);}
	.st56{clip-path:url(#SVGID_79_);}
	.st57{clip-path:url(#SVGID_81_);fill:#2C2722;}
	.st58{clip-path:url(#SVGID_83_);}
	.st59{clip-path:url(#SVGID_86_);enable-background:new    ;}
	.st60{clip-path:url(#SVGID_90_);}
	.st61{clip-path:url(#SVGID_94_);}
	.st62{clip-path:url(#SVGID_98_);fill:#5C4638;}
	.st63{clip-path:url(#SVGID_102_);}
	.st64{clip-path:url(#SVGID_106_);enable-background:new    ;}
	.st65{clip-path:url(#SVGID_110_);}
	.st66{clip-path:url(#SVGID_112_);}
	.st67{clip-path:url(#SVGID_116_);fill:#15BFDB;}
	.st68{clip-path:url(#SVGID_119_);}
	.st69{clip-path:url(#SVGID_122_);fill:#503C3C;}
	.st70{clip-path:url(#SVGID_126_);}
	.st71{clip-path:url(#SVGID_130_);fill:#543F34;}
	.st72{fill-rule:evenodd;clip-rule:evenodd;fill:#5C4638;}
	.st73{clip-path:url(#SVGID_132_);}
	.st74{clip-path:url(#SVGID_134_);enable-background:new    ;}
	.st75{clip-path:url(#SVGID_136_);}
	.st76{clip-path:url(#SVGID_138_);}
	.st77{clip-path:url(#SVGID_140_);fill:#634E43;}
	.st78{clip-path:url(#SVGID_142_);}
	.st79{clip-path:url(#SVGID_144_);enable-background:new    ;}
	.st80{clip-path:url(#SVGID_146_);}
	.st81{clip-path:url(#SVGID_148_);}
	.st82{clip-path:url(#SVGID_150_);fill:#634E43;}
	.st83{fill-rule:evenodd;clip-rule:evenodd;fill:#513E36;}
	.st84{clip-path:url(#SVGID_152_);}
	.st85{clip-path:url(#SVGID_154_);fill:#2C2722;}
	.st86{clip-path:url(#SVGID_156_);}
	.st87{clip-path:url(#SVGID_159_);fill:#2C2722;}
	.st88{fill:#2C2722;}
	.st89{fill:#F2F2F2;}
	.st90{fill:#093D4C;}
</style>
<g>
	<g>
		<defs>
			<rect id="SVGID_85_" x="46.7" y="28.2" width="16.5" height="19.3"/>
		</defs>
		<clipPath id="SVGID_1_">
			<use xlink:href="#SVGID_85_"  style="overflow:visible;"/>
		</clipPath>
		<g class="st0">
			<defs>
				<rect id="SVGID_87_" x="40.5" y="27.5" width="29.5" height="35.1"/>
			</defs>
			<clipPath id="SVGID_2_">
				<use xlink:href="#SVGID_87_"  style="overflow:visible;"/>
			</clipPath>
			<g class="st1">
				<g>
					<defs>
						<rect id="SVGID_89_" x="44.7" y="26.8" width="20.4" height="21.1"/>
					</defs>
					<clipPath id="SVGID_3_">
						<use xlink:href="#SVGID_89_"  style="overflow:visible;"/>
					</clipPath>
					<g class="st2">
						<defs>
							<path id="SVGID_91_" d="M62,45.4c-0.7,0.8-1.6,1.4-2.6,1.8v0c-0.6,0.2-1.2,0.3-1.9,0.3h-4.8c-0.7,0-1.4-0.1-2.1-0.4
								c-1-0.4-1.9-1-2.6-1.8c-2.7-3.2-1.4-16.4,6.3-17.1C63.5,27.4,64.5,42.5,62,45.4"/>
						</defs>
						<clipPath id="SVGID_4_">
							<use xlink:href="#SVGID_91_"  style="overflow:visible;"/>
						</clipPath>
						<g class="st3">
							<defs>
								<rect id="SVGID_93_" x="46.1" y="28.2" width="17.5" height="19.7"/>
							</defs>
							<clipPath id="SVGID_24_">
								<use xlink:href="#SVGID_93_"  style="overflow:visible;"/>
							</clipPath>
							<rect x="43.2" y="24.7" class="st4" width="23.5" height="26.3"/>
						</g>
					</g>
				</g>
			</g>
		</g>
	</g>
	<g>
		<defs>
			<rect id="SVGID_95_" x="40.5" y="42.2" width="29" height="20.3"/>
		</defs>
		<clipPath id="SVGID_30_">
			<use xlink:href="#SVGID_95_"  style="overflow:visible;"/>
		</clipPath>
		<g class="st5">
			<defs>
				<rect id="SVGID_97_" x="40.5" y="27.5" width="29.5" height="35.1"/>
			</defs>
			<clipPath id="SVGID_31_">
				<use xlink:href="#SVGID_97_"  style="overflow:visible;"/>
			</clipPath>
			<g class="st6">
				<g>
					<defs>
						<rect id="SVGID_99_" x="40.5" y="41.6" width="29.5" height="21.1"/>
					</defs>
					<clipPath id="SVGID_32_">
						<use xlink:href="#SVGID_99_"  style="overflow:visible;"/>
					</clipPath>
					<g class="st7">
						<defs>
							<path id="SVGID_101_" d="M69.5,60.3v2.2h-29v-2.2c0-4.1,0.5-9,4.5-9.7c0.1,0,2.9-0.6,3-0.6c0.5-0.1,1-0.3,1.4-0.6
								c0.5-0.3,0.9-0.7,1.2-1.2c0.4-0.6,0.6-1.4,0.6-2.2v-3.8h7.5V46c0,0.8,0.2,1.5,0.6,2.2c0.3,0.5,0.7,0.9,1.2,1.2
								c0.4,0.3,0.9,0.5,1.4,0.5c0.1,0,2.9,0.6,3,0.6C69,51.2,69.5,56.2,69.5,60.3"/>
						</defs>
						<clipPath id="SVGID_33_">
							<use xlink:href="#SVGID_101_"  style="overflow:visible;"/>
						</clipPath>
						<g class="st8">
							<defs>
								<rect id="SVGID_103_" x="40.5" y="41.6" width="29.5" height="21.1"/>
							</defs>
							<clipPath id="SVGID_34_">
								<use xlink:href="#SVGID_103_"  style="overflow:visible;"/>
							</clipPath>
							<rect x="37" y="38.7" class="st9" width="36" height="27.4"/>
						</g>
					</g>
				</g>
			</g>
		</g>
	</g>
	<path id="SVGID_157_" class="st10" d="M48,49.9c0,0-1.2,0.3-2.1,0.4v12.2h18.2V50.3c-0.9-0.2-2-0.4-2.1-0.4
		c-0.5-0.1-0.9-0.3-1.3-0.5c-0.4,4.2-2.6,7.9-5.7,10.4c-3.1-2.5-5.3-6.2-5.7-10.4C48.9,49.6,48.5,49.8,48,49.9"/>
	<path class="st11" d="M46.2,50.3c-0.1,0-0.2,0-0.3,0.1v12.2h3.2C47,58.8,45.9,54.7,46.2,50.3z"/>
	<path class="st11" d="M64.1,55.4v-5.1c-0.9-0.2-2-0.4-2.1-0.4c0,0-0.1,0-0.1,0C62.9,51.7,63.6,53.5,64.1,55.4z"/>
	<g>
		<defs>
			<path id="SVGID_105_" d="M58.7,42.2V45c-0.1,0.1-0.2,0.2-0.3,0.3L58,45.8c-1.1,1.1-2.1,1.1-3,1.1c-0.8,0-1.8,0-3-1.1l-0.5-0.5
				c-0.1-0.1-0.2-0.2-0.3-0.3v-2.9H58.7z"/>
		</defs>
		<clipPath id="SVGID_35_">
			<use xlink:href="#SVGID_105_"  style="overflow:visible;"/>
		</clipPath>
		<g class="st12">
			<defs>
				<rect id="SVGID_107_" x="40.5" y="27.5" width="29.5" height="35.1"/>
			</defs>
			<clipPath id="SVGID_36_">
				<use xlink:href="#SVGID_107_"  style="overflow:visible;"/>
			</clipPath>
			<rect x="47.8" y="38.7" class="st13" width="14.5" height="11.8"/>
		</g>
	</g>
	<path id="SVGID_109_" class="st14" d="M60,34.1v5c0,0.4,0,0.9-0.1,1.3v0c0,0.3-0.1,0.6-0.1,0.8c-0.1,1.1-0.7,2.1-1.4,2.8L58,44.5
		c-1.1,1.1-2.1,1.1-3,1.1s-1.8,0-3-1.1l-0.5-0.5c-0.8-0.8-1.3-1.7-1.4-2.8c0-0.2,0-0.3-0.1-0.5c0-0.5-0.1-1.1-0.1-1.6v-5
		c0-1.2,0.4-2.3,1.1-3.2v0c0.2-0.2,0.3-0.4,0.5-0.5h0c0.8-0.5,1.7-0.8,2.7-0.9c1.6-0.2,3,0.2,4.1,0.9c0,0,0,0,0,0
		c0.2,0.2,0.3,0.3,0.5,0.5c0,0,0,0,0,0C59.6,31.8,60,32.9,60,34.1"/>
	<path id="SVGID_29_" class="st15" d="M55,45.7c-0.8,0-1.8,0-3-1.1l-0.5-0.5c-0.8-0.8-1.3-1.7-1.4-2.8c0-0.2,0-0.3-0.1-0.5
		c0-0.5-0.1-1.1-0.1-1.6v-5c0-1.2,0.4-2.3,1.1-3.2v0c0.2-0.2,0.3-0.4,0.5-0.5h0c0.8-0.5,1.7-0.8,2.7-0.9c0.3,0,0.5,0,0.7,0l0,8.4
		l-0.4,2.5L55,41L55,45.7z"/>
	<g>
		<defs>
			<path id="SVGID_27_" d="M55,45.7c-0.8,0-1.8,0-3-1.1l-0.5-0.5c-0.8-0.8-1.3-1.7-1.4-2.8c0-0.2,0-0.3-0.1-0.5
				c0-0.5-0.1-1.1-0.1-1.6v-5c0-1.2,0.4-2.3,1.1-3.2v0c0.2-0.2,0.3-0.4,0.5-0.5h0c0.8-0.5,1.7-0.8,2.7-0.9c1.6-0.2,3,0.2,4.1,0.9
				c0,0,0,0,0,0c0.2,0.2,0.3,0.3,0.5,0.5c0,0,0,0,0,0c0.7,0.9,1.2,2,1.2,3.2"/>
		</defs>
		<defs>
			<path id="SVGID_26_" d="M60,34.1v5c0,0.4,0,0.9-0.1,1.3v0c0,0.3-0.1,0.6-0.1,0.8c-0.1,1.1-0.7,2.1-1.4,2.8L58,44.5
				c-1.1,1.1-2.1,1.1-3,1.1"/>
		</defs>
		<clipPath id="SVGID_37_">
			<use xlink:href="#SVGID_27_"  style="overflow:visible;"/>
		</clipPath>
		<clipPath id="SVGID_38_" class="st16">
			<use xlink:href="#SVGID_26_"  style="overflow:visible;"/>
		</clipPath>
		<g class="st17">
			<defs>
				<rect id="SVGID_28_" x="40.5" y="27.5" width="29.5" height="35.1"/>
			</defs>
			<clipPath id="SVGID_39_">
				<use xlink:href="#SVGID_28_"  style="overflow:visible;"/>
			</clipPath>
			<rect x="46.4" y="26" class="st18" width="17.1" height="23.2"/>
		</g>
	</g>
	<g>
		<defs>
			<path id="SVGID_113_" d="M60,34.1v5c0,0.4,0,0.9-0.1,1.3c-0.2-1.6-0.7-3-1.5-4.4c-0.5-0.8-0.8-1.8-0.8-2.8v-1.8l-0.1,1.4
				c-0.1,1.2-0.9,2.3-2.1,2.7l-1.7,0.6c-2,0.7-3.4,2.5-3.8,4.5c0-0.5-0.1-1.1-0.1-1.6v-5c0-1.2,0.4-2.3,1.1-3.2v0
				c0.2-0.2,0.3-0.4,0.5-0.5h0c0.8-0.5,1.7-0.8,2.7-0.9c1.6-0.2,3,0.2,4.1,0.9c0,0,0,0,0,0c0.2,0.2,0.3,0.3,0.5,0.5c0,0,0,0,0,0
				C59.6,31.8,60,32.9,60,34.1"/>
		</defs>
		<clipPath id="SVGID_40_">
			<use xlink:href="#SVGID_113_"  style="overflow:visible;"/>
		</clipPath>
		<g class="st19">
			<defs>
				<rect id="SVGID_115_" x="40.5" y="27.5" width="29.5" height="35.1"/>
			</defs>
			<clipPath id="SVGID_41_">
				<use xlink:href="#SVGID_115_"  style="overflow:visible;"/>
			</clipPath>
			<rect x="46.4" y="26" class="st20" width="17.1" height="18.2"/>
		</g>
	</g>
	<g>
		<defs>
			<path id="SVGID_117_" d="M59.6,37.3c-0.2-0.3-0.6-0.4-1.3-0.4l-0.1,0c-1.5,0-2.3,0.3-2.3,0.9c0,0.1,0,0.3,0.1,0.4
				c0.2-0.4,0.9-0.7,2.3-0.7h0.2c0.7,0,1.1,0.1,1.3,0.4c0.1,0.1,0.1,0.2,0.2,0.4l0,0C59.8,37.8,59.8,37.5,59.6,37.3"/>
		</defs>
		<clipPath id="SVGID_42_">
			<use xlink:href="#SVGID_117_"  style="overflow:visible;"/>
		</clipPath>
		<g class="st21">
			<defs>
				<rect id="SVGID_25_" x="40.5" y="27.5" width="29.5" height="35.1"/>
			</defs>
			<clipPath id="SVGID_43_">
				<use xlink:href="#SVGID_25_"  style="overflow:visible;"/>
			</clipPath>
			<rect x="52.3" y="33.4" class="st22" width="11" height="8.4"/>
		</g>
	</g>
	<g>
		<defs>
			<path id="SVGID_121_" d="M51.8,36.9l-0.1,0c-0.7,0-1.1,0.1-1.3,0.4c-0.2,0.2-0.2,0.6-0.2,1.1c0-0.2,0.1-0.4,0.2-0.5
				c0.2-0.3,0.6-0.4,1.3-0.4l0.1,0c1.3,0,2.1,0.2,2.3,0.7c0-0.1,0-0.3,0-0.4C54.2,37.2,53.4,36.9,51.8,36.9"/>
		</defs>
		<clipPath id="SVGID_44_">
			<use xlink:href="#SVGID_121_"  style="overflow:visible;"/>
		</clipPath>
		<g class="st23">
			<defs>
				<rect id="SVGID_123_" x="40.5" y="27.5" width="29.5" height="35.1"/>
			</defs>
			<clipPath id="SVGID_45_">
				<use xlink:href="#SVGID_123_"  style="overflow:visible;"/>
			</clipPath>
			<rect x="46.7" y="33.4" class="st24" width="11" height="8.5"/>
		</g>
	</g>
	<g>
		<defs>
			<polygon id="SVGID_125_" points="40.5,55.3 40.5,62.5 69.5,62.5 69.5,55.3 69.5,48.1 40.5,48.1 			"/>
		</defs>
		<clipPath id="SVGID_46_">
			<use xlink:href="#SVGID_125_"  style="overflow:visible;"/>
		</clipPath>
		<g class="st25">
			<defs>
				<rect id="SVGID_127_" x="40.5" y="27.5" width="29.5" height="35.1"/>
			</defs>
			<clipPath id="SVGID_47_">
				<use xlink:href="#SVGID_127_"  style="overflow:visible;"/>
			</clipPath>
			<g class="st26">
				<g>
					<defs>
						<rect id="SVGID_129_" x="40.5" y="47.9" width="29.5" height="14.7"/>
					</defs>
					<clipPath id="SVGID_48_">
						<use xlink:href="#SVGID_129_"  style="overflow:visible;"/>
					</clipPath>
				</g>
			</g>
		</g>
	</g>
	<g>
		<g>
			<g>
			</g>
			<path class="st27" d="M53.6,37.1"/>
		</g>
		<g>
			<path class="st27" d="M56.4,37.1"/>
		</g>
	</g>
	<g>
		<defs>
			<path id="SVGID_165_" d="M62,45.4c-0.7,0.8-1.6,1.4-2.6,1.8c0.8-1.6,1.3-3.3,0.8-5.1c-0.1-0.5-0.2-0.9-0.2-1.4v-0.4
				c0-1.9-0.5-3.8-1.6-5.5c-0.5-0.8-0.8-1.8-0.8-2.8v-1.8l-0.1,1.4c-0.1,1.2-0.9,2.3-2.1,2.7l-1.7,0.6c-2.3,0.8-3.8,3-3.8,5.5v0.6
				c0,2-1.1,3.5,0.7,6.1c-1-0.4-1.9-1-2.6-1.8c-2.7-3.2-1.4-16.4,6.3-17.1C63.5,27.4,64.5,42.5,62,45.4"/>
		</defs>
		<clipPath id="SVGID_49_">
			<use xlink:href="#SVGID_165_"  style="overflow:visible;"/>
		</clipPath>
		<g class="st28">
			<defs>
				<rect id="SVGID_167_" x="40.5" y="27.5" width="29.5" height="35.1"/>
			</defs>
			<clipPath id="SVGID_50_">
				<use xlink:href="#SVGID_167_"  style="overflow:visible;"/>
			</clipPath>
			<rect x="43.2" y="24.7" class="st29" width="23.5" height="26"/>
		</g>
	</g>
</g>
<g>
	<g>
		<g>
			<g>
				<g>
					<defs>
						<rect id="SVGID_19_" x="4.6" y="37.5" width="42.9" height="24.3"/>
					</defs>
					<clipPath id="SVGID_51_">
						<use xlink:href="#SVGID_19_"  style="overflow:visible;"/>
					</clipPath>
					<g class="st30">
						<defs>
							<rect id="SVGID_20_" x="4.6" y="16.5" width="43.7" height="45.9"/>
						</defs>
						<clipPath id="SVGID_52_">
							<use xlink:href="#SVGID_20_"  style="overflow:visible;"/>
						</clipPath>
						<g class="st31">
							<g>
								<defs>
									<rect id="SVGID_21_" x="4.6" y="36.7" width="43.7" height="25.7"/>
								</defs>
								<clipPath id="SVGID_53_">
									<use xlink:href="#SVGID_21_"  style="overflow:visible;"/>
								</clipPath>
								<g class="st32">
									<defs>
										<path id="SVGID_22_" d="M47.5,61.8v-6c0-3.2-1.9-6.1-4.8-7.3l-8.6-3.6c-1.2-0.5-2-1.7-2-3v-4.3H19.9v4.3
											c0,1.3-0.8,2.5-2,3l-8.6,3.6c-2.9,1.2-4.8,4.1-4.8,7.3v6H47.5z"/>
									</defs>
									<clipPath id="SVGID_54_">
										<use xlink:href="#SVGID_22_"  style="overflow:visible;"/>
									</clipPath>
									<g class="st33">
										<defs>
											<rect id="SVGID_23_" x="4.6" y="36.7" width="43.7" height="25.7"/>
										</defs>
										<clipPath id="SVGID_55_">
											<use xlink:href="#SVGID_23_"  style="overflow:visible;"/>
										</clipPath>
										<rect x="0" y="32.9" class="st34" width="52" height="33.5"/>
									</g>
								</g>
							</g>
						</g>
					</g>
				</g>
				<path id="SVGID_18_" class="st35" d="M42.6,48.5l-8.6-3.6v0.2c0,4.5-3.6,8.2-8.1,8.2c-4.5,0-8.1-3.7-8.1-8.2v-0.2l-8.6,3.6
					c-2.9,1.2-4.8,4.1-4.8,7.3v6h43v-6C47.5,52.6,45.6,49.7,42.6,48.5"/>
				<g>
					<path class="st36" d="M42.7,48.4l-8.6-3.6V45c0,0,0,0.1,0,0.1c5,2.2,10.8,4.1,12.2,9.9c0.5,2,0.8,4.3,0.9,6.8h0.3v-6
						C47.5,52.6,45.6,49.7,42.7,48.4z"/>
					<path class="st36" d="M15.5,61.8c-0.4-1.2-0.7-2.5-1-3.7c-0.1-0.2-0.2-0.5-0.4-0.7c0,1.5,0,3,0,4.4H15.5z"/>
				</g>
				<g>
					<defs>
						<path id="SVGID_16_" d="M26,46.7c1.3,0,2.9-0.1,5.2-2.3c0.4-0.4,0.8-0.9,1.1-1.3c-0.1-0.4-0.2-0.8-0.2-1.2v-2.7
							c-0.4,0.8-1,1.3-1.5,1.6l0-0.1c-0.1-0.5-0.4-1-0.7-1.5c-0.2-0.3-0.6-0.5-1-0.5H26h-2.8c-0.4,0-0.8,0.2-1,0.5
							c-0.3,0.5-0.5,1-0.7,1.5l0,0.1c-0.5-0.3-1.1-0.8-1.5-1.6v2.7c0,0.4-0.1,0.8-0.2,1.2c0.3,0.5,0.7,0.9,1.1,1.3
							C23,46.5,24.4,46.7,26,46.7"/>
					</defs>
					<clipPath id="SVGID_56_">
						<use xlink:href="#SVGID_16_"  style="overflow:visible;"/>
					</clipPath>
					<g class="st37">
						<defs>
							<rect id="SVGID_17_" x="4.6" y="16.5" width="43.7" height="45.9"/>
						</defs>
						<clipPath id="SVGID_57_">
							<use xlink:href="#SVGID_17_"  style="overflow:visible;"/>
						</clipPath>
						<rect x="15.1" y="34" class="st38" width="21.7" height="17.3"/>
					</g>
				</g>
				<g>
					<defs>
						<path id="SVGID_14_" d="M19.1,31.5l-0.4-0.6c-0.3-0.4-0.7-0.7-1.2-0.8c-0.7-0.1-1.3,0.5-1.2,1.2l0.5,2.4c0.2,1,1,1.9,2,2.2
							l0.7,0.2L19.1,31.5z"/>
					</defs>
					<clipPath id="SVGID_58_">
						<use xlink:href="#SVGID_14_"  style="overflow:visible;"/>
					</clipPath>
					<g class="st39">
						<defs>
							<rect id="SVGID_15_" x="4.6" y="16.5" width="43.7" height="45.9"/>
						</defs>
						<clipPath id="SVGID_59_">
							<use xlink:href="#SVGID_15_"  style="overflow:visible;"/>
						</clipPath>
						<rect x="11.8" y="25.4" class="st40" width="12.3" height="15.2"/>
					</g>
				</g>
				<g>
					<defs>
						<path id="SVGID_12_" d="M32.5,36l0.7-0.2c1-0.3,1.8-1.1,2-2.2l0.5-2.4c0.1-0.7-0.5-1.3-1.2-1.2c-0.5,0.1-0.9,0.4-1.2,0.8
							l-0.4,0.6L32.5,36z"/>
					</defs>
					<clipPath id="SVGID_60_">
						<use xlink:href="#SVGID_12_"  style="overflow:visible;"/>
					</clipPath>
					<g class="st41">
						<defs>
							<rect id="SVGID_13_" x="4.6" y="16.5" width="43.7" height="45.9"/>
						</defs>
						<clipPath id="SVGID_61_">
							<use xlink:href="#SVGID_13_"  style="overflow:visible;"/>
						</clipPath>
						<rect x="27.9" y="25.4" class="st42" width="12.3" height="15.2"/>
					</g>
				</g>
				<g>
					<g>
						<defs>
							<rect id="SVGID_11_" x="4.6" y="16.5" width="43.7" height="45.9"/>
						</defs>
						<clipPath id="SVGID_62_">
							<use xlink:href="#SVGID_11_"  style="overflow:visible;"/>
						</clipPath>
						<path class="st43" d="M26.8,43.1c1.1,0,2.3-0.4,3-1.2l1.6-1.6c0.8-0.9,1.4-2,1.5-3.2l0.5-4.6c0.1-0.9,0.2-1.8,0.2-2.8v-4.7
							c0-3.9-3.1-7-7-7h-1.3c-3.8,0-7,3.1-7,7v4.7c0,0.9,0,1.8,0.2,2.8l0.5,4.6c0.1,1.2,0.7,2.4,1.5,3.2l1.6,1.6
							c0.7,0.8,2,1.2,3,1.2H26.8z"/>
						<path class="st44" d="M26.1,18h-0.7c-3.8,0-7,3.1-7,7v4.7c0,0.9,0,1.8,0.2,2.8l0.5,4.6c0.1,1.2,0.7,2.4,1.5,3.2l1.6,1.6
							c0.7,0.8,2,1.2,3,1.2h0.9l0-8l-0.7-1.5l0.7-7.3L26.1,18z"/>
					</g>
				</g>
				<g>
					<defs>
						<rect id="SVGID_10_" x="17.1" y="17.4" width="17.8" height="13.2"/>
					</defs>
					<clipPath id="SVGID_63_">
						<use xlink:href="#SVGID_10_"  style="overflow:visible;"/>
					</clipPath>
				</g>
			</g>
			<g>
				<g>
					<g>
						<g>
							<g>
								<path d="M29.4,29.5"/>
								<path class="st45" d="M30.1,28.9"/>
							</g>
						</g>
					</g>
				</g>
			</g>
			<g>
				<defs>
					<path id="SVGID_9_" d="M22.6,37.3C22.6,37.3,22.6,37.3,22.6,37.3"/>
				</defs>
				<defs>
					<path id="SVGID_8_" d="M29.6,37.3C29.6,37.3,29.6,37.3,29.6,37.3"/>
				</defs>
				<use xlink:href="#SVGID_9_"  style="overflow:visible;fill:#A01D21;"/>
				<use xlink:href="#SVGID_8_"  style="overflow:visible;fill:#A01D21;"/>
				<clipPath id="SVGID_64_">
					<use xlink:href="#SVGID_9_"  style="overflow:visible;"/>
				</clipPath>
				<clipPath id="SVGID_65_" class="st46">
					<use xlink:href="#SVGID_8_"  style="overflow:visible;"/>
				</clipPath>
				<path class="st47" d="M29.3,37.8C28.4,38,26.4,38,26.4,38c-0.2,0-0.4,0-0.6,0c0,0-2.4,0-3-0.3c-0.1,0-0.2-0.5-0.2-0.5h6.9
					C29.5,37.3,29.5,37.8,29.3,37.8z"/>
			</g>
		</g>
	</g>
	<g>
		<defs>
			<path id="SVGID_66_" d="M31.8,23.4"/>
		</defs>
		<defs>
			<path id="SVGID_67_" d="M31.8,23.4c-0.6-2-1.6-2.8-3.5-2.8l-0.4,0c-3.9,0.4-5.8,2.9-5.6,7.4c0.1,1.1,0.2,2.3,0.3,3.4
				c0.3-3.5,2.1-5.4,5.5-5.8l0.4,0c1.9-0.1,2.9-0.3,3.5,1.7"/>
		</defs>
		<use xlink:href="#SVGID_66_"  style="overflow:visible;fill-rule:evenodd;clip-rule:evenodd;fill:#BB9A72;"/>
		<use xlink:href="#SVGID_67_"  style="overflow:visible;fill-rule:evenodd;clip-rule:evenodd;fill:#BB9A72;"/>
		<clipPath id="SVGID_68_">
			<use xlink:href="#SVGID_66_"  style="overflow:visible;"/>
		</clipPath>
		<clipPath id="SVGID_69_" class="st48">
			<use xlink:href="#SVGID_67_"  style="overflow:visible;"/>
		</clipPath>
		<g class="st49">
			<defs>
				
					<rect id="SVGID_70_" x="-14" y="-55" transform="matrix(0.9989 -4.625692e-02 4.625692e-02 0.9989 -3.9875 1.1787)" width="75" height="283.4"/>
			</defs>
			<use xlink:href="#SVGID_70_"  style="overflow:visible;fill:#BB9A72;"/>
			<clipPath id="SVGID_71_">
				<use xlink:href="#SVGID_70_"  style="overflow:visible;"/>
			</clipPath>
			<g class="st50">
				
					<rect x="13.3" y="-7.7" transform="matrix(0.9989 -4.625692e-02 4.625692e-02 0.9989 -1.1781 1.2909)" class="st51" width="28" height="67.5"/>
			</g>
		</g>
	</g>
	<path class="st52" d="M34.8,27.5c0-0.7,0-1.4,0-2c0.1-0.6,0.4-1.2,0.4-1.9c-0.1-1-0.7-1.4-1.3-2.3c-0.2-0.3-0.5-0.6-0.8-0.9
		c-0.7-0.9-1.7-1.7-2.8-2.2c-0.9-0.7-1.9-1.4-2.9-1.4c-0.6,0-1,0.1-1.6,0.1c-0.2,0-0.5-0.2-0.7-0.2c-1.1,0-2.7,0.9-3.7,1.4
		c-1.5,0.9-3.9,3-4.1,5c-0.5,0.6-0.8,1.2-0.7,2.1c0.1,1.2,0.4,2.4,0.6,3.6c0,0,0,0.1,0,0.1c0,0.4,0.1,0.7,0.1,1.1c0.1,0,0.1,0,0.2,0
		c0.4,0.1,0.7,0.2,0.9,0.5c1-3.8,0.3-3.2,0.5-6.5c0.1-0.9,0.7-1.9,1.6-2.2c1.9-0.7,2.7,0.5,5.3,0.5c2.7,0,3.5-1.2,5.3-0.5
		c0.9,0.3,1.6,1.3,1.6,2.2c0.3,3.4-0.5,2.7,0.5,6.6h0c0.3-0.3,0.6-0.5,1-0.6c0,0,0.1,0,0.1,0c0.1-0.4,0.1-0.9,0.1-1.3
		c0.1-0.1,0.1-0.2,0.1-0.3C34.9,28.1,34.8,27.8,34.8,27.5z"/>
</g>
<g>
	<g>
		<g>
			<defs>
				<rect id="SVGID_72_" x="70" y="17" width="32.6" height="28"/>
			</defs>
			<clipPath id="SVGID_73_">
				<use xlink:href="#SVGID_72_"  style="overflow:visible;"/>
			</clipPath>
			<g class="st53">
				<defs>
					<rect id="SVGID_74_" x="68.3" y="17" width="36.8" height="46.4"/>
				</defs>
				<clipPath id="SVGID_75_">
					<use xlink:href="#SVGID_74_"  style="overflow:visible;"/>
				</clipPath>
				<g class="st54">
					<g>
						<defs>
							<rect id="SVGID_76_" x="69.2" y="16.1" width="34.2" height="29.8"/>
						</defs>
						<clipPath id="SVGID_77_">
							<use xlink:href="#SVGID_76_"  style="overflow:visible;"/>
						</clipPath>
						<g class="st55">
							<defs>
								<path id="SVGID_78_" d="M72.6,38.6c0,1.5,2.6,4.8,5.4,5.2c2.8,0.4,15.7,1.9,17,1c1.4-0.9,3.8-1.8,4.6-2.9
									c0.8-1.1,0.7-3.8,1.9-5.8c1.1-2,1.8-3.4,0.4-5.6c-0.8-1.3,0.4-3.8-1.4-5.5c-1.8-1.7-6.2-4.7-7.2-5.7c-0.9-1.1-4-1.5-4.6-0.1
									c0,0-1.4-2.6-5.2-2.2c-3.8,0.5-6.9,3.7-8,5c-1.1,1.4-4.3,3.8-4.2,5.7c0.1,1.9-1.7,3.9-1.3,5.6C70.7,36,72.6,37.1,72.6,38.6"
									/>
							</defs>
							<clipPath id="SVGID_79_">
								<use xlink:href="#SVGID_78_"  style="overflow:visible;"/>
							</clipPath>
							<g class="st56">
								<defs>
									<rect id="SVGID_80_" x="69.2" y="17" width="34.2" height="28.9"/>
								</defs>
								<clipPath id="SVGID_81_">
									<use xlink:href="#SVGID_80_"  style="overflow:visible;"/>
								</clipPath>
								<rect x="65.7" y="12.6" class="st57" width="41.4" height="36.8"/>
							</g>
						</g>
					</g>
				</g>
			</g>
		</g>
		<g>
			<defs>
				<rect id="SVGID_82_" x="68.3" y="37.1" width="36.2" height="25.4"/>
			</defs>
			<clipPath id="SVGID_83_">
				<use xlink:href="#SVGID_82_"  style="overflow:visible;"/>
			</clipPath>
			<g class="st58">
				<defs>
					<rect id="SVGID_84_" x="68.3" y="17" width="36.8" height="46.4"/>
				</defs>
				<clipPath id="SVGID_86_">
					<use xlink:href="#SVGID_84_"  style="overflow:visible;"/>
				</clipPath>
				<g class="st59">
					<g>
						<defs>
							<rect id="SVGID_88_" x="68.3" y="37.1" width="36.8" height="25.4"/>
						</defs>
						<clipPath id="SVGID_90_">
							<use xlink:href="#SVGID_88_"  style="overflow:visible;"/>
						</clipPath>
						<g class="st60">
							<defs>
								<path id="SVGID_92_" d="M104.5,59.7v2.8H68.3v-2.8c0-5.1,0.6-11.2,5.7-12.1l2-0.4l1.5-0.3l0.1,0c2.4-0.4,4.1-2.5,4.1-4.9
									v-4.8h9.3v4.8c0,2.4,1.7,4.5,4.1,4.9l0.1,0l1.5,0.3l2,0.4C103.9,48.5,104.5,54.6,104.5,59.7"/>
							</defs>
							<clipPath id="SVGID_94_">
								<use xlink:href="#SVGID_92_"  style="overflow:visible;"/>
							</clipPath>
							<g class="st61">
								<defs>
									<rect id="SVGID_96_" x="68.3" y="37.1" width="36.8" height="25.4"/>
								</defs>
								<clipPath id="SVGID_98_">
									<use xlink:href="#SVGID_96_"  style="overflow:visible;"/>
								</clipPath>
								<rect x="63.9" y="32.7" class="st62" width="44.9" height="34.1"/>
							</g>
						</g>
					</g>
				</g>
			</g>
		</g>
		<g>
			<defs>
				<rect id="SVGID_100_" x="68.3" y="47.1" width="36.2" height="15.4"/>
			</defs>
			<clipPath id="SVGID_102_">
				<use xlink:href="#SVGID_100_"  style="overflow:visible;"/>
			</clipPath>
			<g class="st63">
				<defs>
					<rect id="SVGID_104_" x="68.3" y="17" width="36.8" height="45.5"/>
				</defs>
				<clipPath id="SVGID_106_">
					<use xlink:href="#SVGID_104_"  style="overflow:visible;"/>
				</clipPath>
				<g class="st64">
					<g>
						<defs>
							<rect id="SVGID_108_" x="68.3" y="46.7" width="36.8" height="15.8"/>
						</defs>
						<clipPath id="SVGID_110_">
							<use xlink:href="#SVGID_108_"  style="overflow:visible;"/>
						</clipPath>
						<g class="st65">
							<defs>
								<path id="SVGID_111_" d="M104.5,59.7v2.8H68.3v-2.8c0-5.1,0.6-11.2,5.7-12.1l2-0.4l0,0.1c1.2,4.5,5,7.2,10.4,7.2
									s9.2-2.6,10.4-7.2l0-0.1l2,0.4C103.9,48.5,104.5,54.6,104.5,59.7"/>
							</defs>
							<clipPath id="SVGID_112_">
								<use xlink:href="#SVGID_111_"  style="overflow:visible;"/>
							</clipPath>
							<g class="st66">
								<defs>
									<rect id="SVGID_114_" x="68.3" y="46.7" width="36.8" height="15.8"/>
								</defs>
								<clipPath id="SVGID_116_">
									<use xlink:href="#SVGID_114_"  style="overflow:visible;"/>
								</clipPath>
								<rect x="63.9" y="42.7" class="st67" width="44.9" height="24.1"/>
							</g>
						</g>
					</g>
				</g>
			</g>
		</g>
		<g>
			<defs>
				<path id="SVGID_118_" d="M97.4,47.1l0,0.1c-1.3,4.5-5.3,7.2-11,7.2c-5.7,0-9.7-2.6-11-7.2l0-0.1l1.6-0.3l0,0.1
					c1,3.6,4.1,6,9.4,6c5.4,0,8.4-2.4,9.4-6l0-0.1L97.4,47.1z"/>
			</defs>
			<clipPath id="SVGID_119_">
				<use xlink:href="#SVGID_118_"  style="overflow:visible;"/>
			</clipPath>
			<g class="st68">
				<defs>
					<rect id="SVGID_120_" x="67.9" y="17" width="39.1" height="46.4"/>
				</defs>
				<clipPath id="SVGID_122_">
					<use xlink:href="#SVGID_120_"  style="overflow:visible;"/>
				</clipPath>
				<rect x="70.7" y="42.4" class="st69" width="31.4" height="16.4"/>
			</g>
		</g>
		<g>
			<defs>
				<path id="SVGID_124_" d="M91,37.1v3.6c-0.1,0.1-0.2,0.2-0.3,0.3L90,41.6C88.6,43,87.4,43,86.4,43c-1,0-2.3-0.1-3.7-1.4l-0.6-0.6
					c-0.1-0.1-0.2-0.2-0.3-0.3v-3.6H91z"/>
			</defs>
			<clipPath id="SVGID_126_">
				<use xlink:href="#SVGID_124_"  style="overflow:visible;"/>
			</clipPath>
			<g class="st70">
				<defs>
					<rect id="SVGID_128_" x="68.6" y="17" width="36.8" height="46.4"/>
				</defs>
				<clipPath id="SVGID_130_">
					<use xlink:href="#SVGID_128_"  style="overflow:visible;"/>
				</clipPath>
				<rect x="77.3" y="32.7" class="st71" width="18.1" height="14.7"/>
			</g>
		</g>
		<path class="st72" d="M92.3,33.8c0,0.9-0.1,1.8-0.2,2.7c-0.2,1.3-0.8,2.6-1.8,3.5l-0.6,0.6C88.3,42,87,42,86,42
			c-1,0-2.3-0.1-3.7-1.4L81.7,40c-1-0.9-1.6-2.2-1.8-3.5c-0.1-0.9-0.2-1.8-0.2-2.7v-6.2c0-1.5,0.5-2.9,1.4-4
			c1.2-1.4,2.9-2.3,4.9-2.3c2,0,3.7,0.9,4.8,2.3c0.9,1.1,1.4,2.5,1.4,4V33.8z"/>
		<g>
			<defs>
				<rect id="SVGID_131_" x="97.1" y="57.1" width="7.4" height="5.4"/>
			</defs>
			<clipPath id="SVGID_132_">
				<use xlink:href="#SVGID_131_"  style="overflow:visible;"/>
			</clipPath>
			<g class="st73">
				<defs>
					<rect id="SVGID_133_" x="68.3" y="17" width="36.8" height="46.4"/>
				</defs>
				<clipPath id="SVGID_134_">
					<use xlink:href="#SVGID_133_"  style="overflow:visible;"/>
				</clipPath>
				<g class="st74">
					<g>
						<defs>
							<rect id="SVGID_135_" x="96.3" y="56.4" width="8.8" height="6.1"/>
						</defs>
						<clipPath id="SVGID_136_">
							<use xlink:href="#SVGID_135_"  style="overflow:visible;"/>
						</clipPath>
						<g class="st75">
							<defs>
								<path id="SVGID_137_" d="M104.5,59.7v2.8h-7.1l-0.4-1.4l7.4-4c0,0.6,0.1,1.2,0.1,1.8C104.5,59.1,104.5,59.4,104.5,59.7"/>
							</defs>
							<clipPath id="SVGID_138_">
								<use xlink:href="#SVGID_137_"  style="overflow:visible;"/>
							</clipPath>
							<g class="st76">
								<defs>
									<rect id="SVGID_139_" x="96.3" y="56.4" width="8.8" height="6.1"/>
								</defs>
								<clipPath id="SVGID_140_">
									<use xlink:href="#SVGID_139_"  style="overflow:visible;"/>
								</clipPath>
								<rect x="92.7" y="52.7" class="st77" width="16.2" height="14.2"/>
							</g>
						</g>
					</g>
				</g>
			</g>
		</g>
		<g>
			<defs>
				<rect id="SVGID_141_" x="68.3" y="57.1" width="7.4" height="5.4"/>
			</defs>
			<clipPath id="SVGID_142_">
				<use xlink:href="#SVGID_141_"  style="overflow:visible;"/>
			</clipPath>
			<g class="st78">
				<defs>
					<rect id="SVGID_143_" x="68.3" y="17" width="36.8" height="46.4"/>
				</defs>
				<clipPath id="SVGID_144_">
					<use xlink:href="#SVGID_143_"  style="overflow:visible;"/>
				</clipPath>
				<g class="st79">
					<g>
						<defs>
							<rect id="SVGID_145_" x="68.3" y="56.4" width="7.9" height="6.1"/>
						</defs>
						<clipPath id="SVGID_146_">
							<use xlink:href="#SVGID_145_"  style="overflow:visible;"/>
						</clipPath>
						<g class="st80">
							<defs>
								<path id="SVGID_147_" d="M68.3,59.7v2.8h7.1l0.4-1.4l-7.4-4c0,0.6-0.1,1.2-0.1,1.8C68.3,59.1,68.3,59.4,68.3,59.7"/>
							</defs>
							<clipPath id="SVGID_148_">
								<use xlink:href="#SVGID_147_"  style="overflow:visible;"/>
							</clipPath>
							<g class="st81">
								<defs>
									<rect id="SVGID_149_" x="68.3" y="56.4" width="7.9" height="6.1"/>
								</defs>
								<clipPath id="SVGID_150_">
									<use xlink:href="#SVGID_149_"  style="overflow:visible;"/>
								</clipPath>
								<rect x="63.9" y="52.7" class="st82" width="16.2" height="14.2"/>
							</g>
						</g>
					</g>
				</g>
			</g>
		</g>
		<path class="st72" d="M92.3,33.8c0,0.9-0.1,1.8-0.2,2.7c-0.2,1.3-0.8,2.6-1.8,3.5l-0.6,0.6C88.3,42,87,42,86,42
			c-1,0-2.3-0.1-3.7-1.4L81.7,40c-1-0.9-1.6-2.2-1.8-3.5c-0.1-0.9-0.2-1.8-0.2-2.7v-6.2c0-1.5,0.5-2.9,1.4-4
			c1.2-1.4,2.9-2.3,4.9-2.3c2,0,3.7,0.9,4.8,2.3c0.9,1.1,1.4,2.5,1.4,4V33.8z"/>
		<path class="st83" d="M86,42c-1,0-2.3-0.1-3.7-1.4L81.7,40c-1-0.9-1.6-2.2-1.8-3.5c-0.1-0.9-0.2-1.8-0.2-2.7v-6.2
			c0-1.5,0.5-2.9,1.4-4c1.2-1.4,2.9-2.3,4.9-2.3v9.5l-0.5,3.9L86,36V42z"/>
		<g>
			<defs>
				<path id="SVGID_151_" d="M89.7,20c0,0,1.1,3-1,3.2c-2.1,0.2-4.1-1-4.7,0.1c-0.7,1.1-0.9,3.1-2.4,3.4c-1.5,0.3-1.6,3.2-1.9,5.3
					c-0.4,2.1-5.3-1.1-5.3-1.1l3.1-6.9l5.1-4.4l4.9-1.1L89.7,20z"/>
			</defs>
			<clipPath id="SVGID_152_">
				<use xlink:href="#SVGID_151_"  style="overflow:visible;"/>
			</clipPath>
			<g class="st84">
				<defs>
					<rect id="SVGID_153_" x="68.3" y="17" width="36.8" height="46.4"/>
				</defs>
				<clipPath id="SVGID_154_">
					<use xlink:href="#SVGID_153_"  style="overflow:visible;"/>
				</clipPath>
				<rect x="70.1" y="14.3" class="st85" width="24.4" height="22.9"/>
			</g>
		</g>
		<g>
			<defs>
				<path id="SVGID_155_" d="M92.4,29.4c0,0,0-3.5-0.5-4.2c-0.9-1.2-2.3-1.5-2.5-2.8c-0.2-1.4,0.2-2.8,0.2-2.8l4.1,2.2l1.5,4.9
					l-1.2,3.1L92.4,29.4z"/>
			</defs>
			<clipPath id="SVGID_156_">
				<use xlink:href="#SVGID_155_"  style="overflow:visible;"/>
			</clipPath>
			<g class="st86">
				<defs>
					<rect id="SVGID_158_" x="68.3" y="17" width="36.8" height="46.4"/>
				</defs>
				<clipPath id="SVGID_159_">
					<use xlink:href="#SVGID_158_"  style="overflow:visible;"/>
				</clipPath>
				<rect x="84.9" y="15.2" class="st87" width="14.6" height="18.9"/>
			</g>
		</g>
		<g>
			<path class="st88" d="M84.9,29c0.2,0.2,0.3,0.4,0.5,0.6l0,0C85.2,29.4,85.1,29.2,84.9,29z"/>
			<path class="st88" d="M92.6,29.5h-1.2c-0.1-0.2-0.3-0.4-0.5-0.5c-0.5-0.4-1.1-0.6-1.7-0.6c-0.9,0-1.7,0.5-2.2,1.2
				c-0.2-0.2-0.5-0.4-0.9-0.4c0,0,0,0,0,0c0,0,0,0,0,0c-0.3,0-0.6,0.2-0.8,0.4l0,0c-0.1-0.2-0.3-0.4-0.5-0.6
				c-0.1-0.1-0.2-0.1-0.3-0.2c-0.4-0.3-0.9-0.4-1.4-0.4c-0.9,0-1.7,0.5-2.1,1.2h-1.1c-0.1,0-0.3,0.1-0.3,0.3c0,0.1,0.1,0.3,0.3,0.3
				h0.8c-0.1,0.3-0.1,0.6-0.1,0.9c0,1.4,1.1,2.6,2.6,2.6c1.4,0,2.6-1.1,2.6-2.6c0-0.2,0-0.5-0.1-0.7c0,0,0,0,0,0
				c0-0.2,0.1-0.4,0.3-0.5c0.1,0,0.2-0.1,0.2-0.1c0.1,0,0.2,0,0.3,0.1c0.2,0.1,0.3,0.3,0.3,0.5c0,0,0,0,0,0.1
				c-0.1,0.2-0.1,0.4-0.1,0.6c0,1.4,1.1,2.6,2.6,2.6c1.1,0,2-0.7,2.4-1.7c0.1-0.1,0-0.3-0.2-0.3c-0.1-0.1-0.3,0-0.3,0.2
				c-0.3,0.8-1.1,1.3-1.9,1.3c-1.1,0-2-0.9-2-2s0.9-2,2-2c1,0,1.8,0.7,2,1.7c0,0.1,0.2,0.2,0.3,0.2c0.1,0,0.2-0.2,0.2-0.3
				c0-0.2-0.1-0.3-0.1-0.5h0.9c0.1,0,0.3-0.1,0.3-0.3C92.9,29.6,92.7,29.5,92.6,29.5z M83.2,33c-1.1,0-2-0.9-2-2s0.9-2,2-2
				c1.1,0,2,0.9,2,2S84.3,33,83.2,33z"/>
			<rect x="84.6" y="28.9" class="st88" width="3.2" height="0.3"/>
		</g>
	</g>
</g>
<g>
	<path class="st89" d="M65.4,18.3l0-2.6h0V3.3c0-0.4-0.4-0.8-0.8-0.8H45.4c-0.4,0-0.8,0.4-0.8,0.8v12.5c0,0.4,0.4,0.8,0.8,0.8h18.4
		L65.4,18.3z"/>
	<g>
		<circle class="st90" cx="50.5" cy="9.5" r="1"/>
		<circle class="st90" cx="55" cy="9.5" r="1"/>
		<circle class="st90" cx="59.5" cy="9.5" r="1"/>
	</g>
</g>
</svg>
