<?xml version="1.0" encoding="utf-8"?>
<!-- Generator: Adobe Illustrator 26.3.1, SVG Export Plug-In . SVG Version: 6.00 Build 0)  -->
<svg version="1.1" id="Layer_1" xmlns="http://www.w3.org/2000/svg" xmlns:xlink="http://www.w3.org/1999/xlink" x="0px" y="0px"
	 viewBox="0 0 110 61.5" style="enable-background:new 0 0 110 61.5;" xml:space="preserve">
<style type="text/css">
	.st0{fill:none;}
	.st1{opacity:0.3;fill-rule:evenodd;clip-rule:evenodd;fill:#354557;enable-background:new    ;}
	.st2{fill-rule:evenodd;clip-rule:evenodd;fill:#354557;}
	.st3{fill:#333333;}
	.st4{fill:#B10069;}
	.st5{fill:#D8B08D;}
	.st6{fill:url(#SVGID_1_);}
	.st7{fill:#870257;}
	.st8{fill:#6B0751;}
	.st9{fill:#344456;}
	.st10{fill:#24739E;}
	.st11{fill:url(#SVGID_00000075848044914028020390000010019143091090374804_);}
	.st12{fill:#D3D3D3;}
	.st13{fill:url(#SVGID_00000034068289205260976410000001521668305974144174_);}
	.st14{fill:#C6A083;}
</style>
<g>
	<path class="st0" d="M53.9,36.8C30,25.6,8.1,36.7-0.1,61.4h109.7C101.5,36.8,78,48.2,53.9,36.8z"/>
	<path class="st1" d="M57.2,28.7C33.5,17.5,8.7,36.8-0.4,61.4h109.7C101.2,36.8,81.3,40,57.2,28.7z"/>
	<path class="st2" d="M110,61.4H-0.4c2.2-5.8,5.1-11.3,8-14.7c9.8,8.1,20.5,10.4,31.1,10.6c10.5,0.5,15.4-0.7,25.6-3.7
		c7.6-2.2,12.1-10.2,23-10.4C97.5,42.9,106.7,51.4,110,61.4z"/>
</g>
<path class="st3" d="M39.4,6.8c0,0-0.1,7.8-1.3,12.6c-1.3,4.8,4.1,3.7,6.3,14.5C46.6,44.8,43,56.2,20,48.7c4-9.1-11-7-6.1-15.4
	S21.1,8.7,27,6S39.4,6.8,39.4,6.8z"/>
<g>
	<g>
		<path class="st4" d="M38,47.2c-1.9-2.7-4.5-8.5-6.7-14.6c-2.3-6.5,4.5-10.4,7-5.5c2.7,5.3,3.8,10,7.8,18.4
			C47.5,48.3,41,51.4,38,47.2z"/>
		<path class="st5" d="M47.4,22.2c0,0,1.6-3.7,1.1-5.3c-0.6-1.7-0.1-0.5,0.8-1.3h4.4c0.7-0.5,0.9,1.2-0.2,2.8
			c-1,1.5-1.5,4.5-1.5,4.5L47.4,22.2z"/>
		<path class="st4" d="M53.1,20.5h-5.6c0,0-2.7,8.1-5.6,16.1c-2.9,8.1-6.1,10.6-1.7,12.2c1.4,0.6,5.3,0.8,6-2.3
			C46.9,43.5,53.1,20.5,53.1,20.5z"/>
	</g>
</g>
<g>
	<path class="st5" d="M24.5,26.4h0.1c1.7,0,3.3,1.9,3.8,2.8v0.1c2.7,4.1,6.1,10.2,9.2,9.2s1.8-5.9-0.3-9.3c-1.5-2.4-2.9-3.6-3.5-4.1
		c-0.3,0-0.6,0-0.8,0c-0.2-0.8-0.3-2.2-0.4-3.5c1.4-0.2,2.6-0.7,3.1-1.3c2.9-3.1,2.7-14.6,2.7-14.6c-0.5-1.2-5.9-3.4-9.9-1
		c-3.3,2-4.7,6.8-3.5,11.1l-0.1,0.1c0,0,1,3.1,0.9,6.2c-0.1,1.8-0.3,3-0.4,3.6c-0.9,0.2-1.9,0.6-3,0.9c0,0,0,0,0.1,0
		C22.8,26.5,23.6,26.2,24.5,26.4z"/>
	
		<linearGradient id="SVGID_1_" gradientUnits="userSpaceOnUse" x1="26.55" y1="-29.9829" x2="26.55" y2="22.4345" gradientTransform="matrix(1 0 0 -1 0 64)">
		<stop  offset="0" style="stop-color:#AFAFAF"/>
		<stop  offset="0.3952" style="stop-color:#CCCCCC"/>
		<stop  offset="1" style="stop-color:#FFFFFF"/>
	</linearGradient>
	<path class="st6" d="M28.5,29.1C28.5,29.2,28.5,29.2,28.5,29.1C28.5,29.2,28.5,29.1,28.5,29.1c-0.5-0.9-2.1-2.8-3.8-2.8h-0.1
		C25.7,26.5,27.2,27.1,28.5,29.1z"/>
	<path class="st7" d="M42.7,50.4c-0.1-2.2,0.4-7.2-0.1-11.5C41.9,33.1,35.9,25,35.9,25c-0.5,0-1.3-0.1-2-0.1c0.6,0.5,2,1.7,3.5,4.1
		c2.2,3.4,3.4,8.2,0.3,9.3c-3.1,1-6.5-5.1-9.2-9.2c0,0,0,0,0-0.1c-1.3-2-2.8-2.6-4-2.8c-0.6,0-1.6,0.2-1.9,0.2c-0.1,0-0.1,0-0.1,0
		s0,0-0.1,0c-0.4,0-2.4,0.4-3.9,2l0,0c-1,1.1-1.8,2.7-1.8,5.3l0,0c0,0.6,0,1.1,0.1,1.7c0.3,3.9,1.3,8.4,2.2,12.2
		c0.5,1.8,0.7,3.5,0.5,5.8c0,0.4-0.1,0.8-0.1,1.1c0,0,0,0,0,0.1c-0.4,2.2-1.4,4.6-2.2,6.5h0.3h0.3h8.7h16.7
		C42.8,56.2,43,56.7,42.7,50.4z"/>
	<path class="st8" d="M28.4,29.2c-0.5-0.7-1.8-2.7-3.5-2.8c-0.3,0-2.6,0.2-2.6,0.2s-5.6,0.5-5.6,7.3s3.6,15.8,2.6,20.8
		c-0.8,3.9-2.5,6.6-2,6.6c0.3,0,11.5,0,11.5,0c1.9-3.2-0.1-10.6-0.5-16.5C27.6,37.3,29.7,31.1,28.4,29.2z"/>
</g>
<g>
	<g>
		<g>
			<path class="st9" d="M34.3,10.1L34.3,10.1L34.3,10.1c-0.7,0-0.8,1.3-0.8,2.1s0.1,2.1,0.8,2.1l0,0h5.4V10L34.3,10.1L34.3,10.1z"/>
			<g>
				<path class="st10" d="M43,9.2c-0.4,0-0.7,1.4-0.7,3.2s0.3,3.2,0.7,3.2l0,0h10.7V9.2L43,9.2z"/>
				<g>
					
						<linearGradient id="SVGID_00000119118781330855445870000001902995395183704736_" gradientUnits="userSpaceOnUse" x1="4000.9119" y1="983.5484" x2="4003.5513" y2="983.5484" gradientTransform="matrix(-1 2.300000e-03 -2.300000e-03 -1 4058.2104 986.7432)">
						<stop  offset="0" style="stop-color:#101719"/>
						<stop  offset="1" style="stop-color:#243137"/>
					</linearGradient>
					<path style="fill:url(#SVGID_00000119118781330855445870000001902995395183704736_);" d="M53.7,9.2c0.4,0,0.7,1.4,0.7,3.2
						s-0.3,3.2-0.7,3.2S53,14.2,53,12.4S53.3,9.2,53.7,9.2 M53.7,8.6c-1.2,0-1.3,2.4-1.3,3.8s0.2,3.8,1.3,3.8s1.3-2.4,1.3-3.8
						C55,10.9,54.9,8.6,53.7,8.6L53.7,8.6z"/>
					<path class="st12" d="M53.7,9.2c-0.4,0-0.7,1.4-0.7,3.2s0.3,3.2,0.7,3.2s0.7-1.4,0.7-3.2S54.1,9.2,53.7,9.2z"/>
				</g>
			</g>
			<path class="st9" d="M51.5,12.8c0,0.5-0.4,0.9-0.9,0.9h-3.8c-0.5,0-0.9-0.4-0.9-0.9v-0.9c0-0.5,0.4-0.9,0.9-0.9h3.8
				c0.5,0,0.9,0.4,0.9,0.9V12.8z"/>
			<g>
				<g>
					<path class="st10" d="M37.7,9.2c-0.4,0-0.7,1.4-0.7,3.2s0.3,3.2,0.7,3.2l0,0h10.8V9.2L37.7,9.2z"/>
				</g>
				<g>
					
						<linearGradient id="SVGID_00000060734825057412397900000008216170920169272962_" gradientUnits="userSpaceOnUse" x1="4006.1389" y1="983.5604" x2="4008.7778" y2="983.5604" gradientTransform="matrix(-1 2.300000e-03 -2.300000e-03 -1 4058.2104 986.7432)">
						<stop  offset="0" style="stop-color:#101719"/>
						<stop  offset="1" style="stop-color:#243137"/>
					</linearGradient>
					<path style="fill:url(#SVGID_00000060734825057412397900000008216170920169272962_);" d="M48.5,9.2c0.4,0,0.7,1.4,0.7,3.2
						s-0.3,3.2-0.7,3.2s-0.7-1.4-0.7-3.2S48.1,9.2,48.5,9.2 M48.5,8.6c-1.1,0-1.3,2.4-1.3,3.8s0.2,3.8,1.3,3.8
						c1.2,0,1.3-2.4,1.3-3.8C49.8,10.9,49.6,8.6,48.5,8.6L48.5,8.6z"/>
					<path class="st12" d="M48.5,9.2c-0.4,0-0.7,1.4-0.7,3.2s0.3,3.2,0.7,3.2s0.7-1.4,0.7-3.2S48.9,9.2,48.5,9.2z"/>
				</g>
			</g>
		</g>
	</g>
	<g>
		<path class="st4" d="M29,49c-2.6-2.1-6.6-7-10.3-12.3c-4-5.7,1.6-11.2,5.3-7.1c4,4.4,6,8.3,12.1,15.3C38.2,47.3,33.1,52.3,29,49z"
			/>
		<path class="st5" d="M36.2,22.8c0,0,1.4-3.8,0.8-5.4c-0.7-1.7-0.6-4.8,0.2-5.7c0.9-0.9,3.5-1.2,4.9,0.2c1.3,1.4,0.9,5,0,6.6
			s-1.2,4.6-1.2,4.6L36.2,22.8z"/>
		<path class="st4" d="M41.7,20.7L36.2,21c0,0-2.2,8.2-4.6,16.5s-5.4,10.9-0.9,12.3c1.5,0.5,5.4,0.5,5.9-2.7
			C37,44,41.7,20.7,41.7,20.7z"/>
	</g>
</g>
<path class="st14" d="M27.6,20.4c0,0,0.6,0.4,2.1,0.7s2.8,0.5,2.8,0.5s-0.3,0.1-1.6,0.1c-1.3,0-3.2-0.8-3.3-0.9S27.6,20.4,27.6,20.4
	z"/>
<path d="M39.4,6.8c0,0-0.1,1.3-5,1.7s-5.5,2.1-5.5,2.1s-2.4-1.4-3.4,0.9s1,3.3,2,3.8c0.9,0.6,0.6,2.9-0.2,6.5s-1,4.5-3.7,4.6
	s-7.8,2-6.8,8.9s1.2,8,2.1,12.1c-3-4.7-7,3.5-6.8-7.5c0.2-9,1.9-16.8,3.8-23.1c2-6.7,3.9-9.7,6.9-12.7C29-2.1,39.5-0.2,39.4,6.8z"/>
</svg>
