<svg id="Layer_1" data-name="Layer 1" xmlns="http://www.w3.org/2000/svg" xmlns:xlink="http://www.w3.org/1999/xlink" viewBox="0 0 110 62"><defs><style>.cls-1,.cls-2{fill:none;}.cls-2{clip-rule:evenodd;}.cls-3{clip-path:url(#clip-path);}.cls-4{fill:#fff;}.cls-5{clip-path:url(#clip-path-2);}.cls-6{fill:#c94b2f;}</style><clipPath id="clip-path"><circle class="cls-1" cx="85.98" cy="37.72" r="11.43"/></clipPath><clipPath id="clip-path-2"><path class="cls-2" d="M93.26,34.44A.86.86,0,0,1,93,35l-7.59,7.59a.87.87,0,0,1-1.2,0l-4.4-4.4a.84.84,0,0,1,0-1.2l1.2-1.2a.85.85,0,0,1,1.2,0l2.6,2.6,5.79-5.8a.87.87,0,0,1,1.2,0l1.2,1.2A.86.86,0,0,1,93.26,34.44Z"/></clipPath></defs><title>Conceptcheck</title><g class="cls-3"><rect class="cls-4" x="72.35" y="24.1" width="27.24" height="27.24"/></g><g class="cls-5"><rect class="cls-6" x="77.38" y="30.19" width="18.08" height="14.88"/></g></svg>