<?xml version="1.0" encoding="utf-8"?>
<!-- Generator: Adobe Illustrator 26.0.3, SVG Export Plug-In . SVG Version: 6.00 Build 0)  -->
<svg version="1.1" id="Layer_1" xmlns="http://www.w3.org/2000/svg" xmlns:xlink="http://www.w3.org/1999/xlink" x="0px" y="0px"
	 viewBox="0 0 9 9.4" style="enable-background:new 0 0 9 9.4;" xml:space="preserve">
<style type="text/css">
	.st0{fill:#394557;}
	.st1{fill:#364558;}
	.st2{fill:#FFFFFF;}
</style>
<path class="st0" d="M8.3,1.6V0H0.6v9.4h1.5h6.2C8.3,9.4,8.3,1.6,8.3,1.6z M1.2,0.8h6.3v7.9H1.2V0.8z"/>
<path class="st1" d="M6.1,2.5V1.7H2.2v4.7H3h3.1V2.5z M2.6,2h3.2v4H2.6V2z"/>
<rect x="3.2" y="3.8" class="st1" width="1.9" height="0.2"/>
<rect x="3.2" y="4.4" class="st1" width="1.9" height="0.2"/>
<rect x="3.2" y="5" class="st1" width="1.9" height="0.2"/>
<circle class="st0" cx="5.9" cy="6.4" r="1.2"/>
<g>
	<path class="st2" d="M6.3,7.2H6.2L5.9,6.3c0-0.1-0.1-0.2-0.1-0.2c0,0.1,0,0.2-0.1,0.3L5.6,7.2H5.4L5.1,5.9h0.2l0.2,0.8
		c0,0.1,0,0.2,0.1,0.3c0-0.1,0-0.2,0.1-0.3l0.2-0.8h0.2l0.2,0.8c0,0.1,0.1,0.2,0.1,0.3c0-0.1,0-0.2,0.1-0.3l0.2-0.8h0.2L6.3,7.2z"/>
</g>
<rect x="3.2" y="3.2" class="st1" width="1.9" height="0.2"/>
<rect x="3.2" y="2.6" class="st1" width="1.9" height="0.2"/>
</svg>
