<?xml version="1.0" encoding="utf-8"?>
<!-- Generator: Adobe Illustrator 23.0.6, SVG Export Plug-In . SVG Version: 6.00 Build 0)  -->
<svg version="1.1" id="Layer_1" xmlns="http://www.w3.org/2000/svg" xmlns:xlink="http://www.w3.org/1999/xlink" x="0px" y="0px"
	 viewBox="0 0 148.6 48.6" style="enable-background:new 0 0 148.6 48.6;" xml:space="preserve">
<style type="text/css">
	.st0{fill:#E8C9AA;}
	.st1{fill:#C19E81;}
	.st2{fill:#CA4B2F;}
	.st3{fill:#18C0DC;}
	.st4{fill:#FFFFFF;}
	.st5{fill:#354557;}
	.st6{fill:#D3E3EB;}
	.st7{fill:#EFEEEA;}
	.st8{opacity:0.5;fill:#18C0DC;enable-background:new    ;}
	.st9{opacity:0.5;fill:#FFFFFF;enable-background:new    ;}
	.st10{opacity:0.5;fill:#FFFFFF;}
	.st11{fill:#354557;stroke:#354557;stroke-linecap:round;stroke-miterlimit:10;}
	.st12{fill:none;stroke:#354557;stroke-linecap:round;stroke-linejoin:round;stroke-miterlimit:10;}
</style>
<title>ethics-across-time-and-cultures</title>
<g id="Cases_from_the_real_world-3">
	<path class="st0" d="M8.5,24.7v23.9h12.2v-2.7c0-1.9,0.6-3.7,1.7-5.2c1.1,1.5,1.7,3.3,1.7,5.2v2.7h12.2V24.7H8.5z"/>
	<rect x="18.2" y="31.4" class="st1" width="8.5" height="17.2"/>
	<polygon class="st2" points="20.7,48.6 20.7,48.6 21.1,48.6 21.1,48.6 23.8,48.6 23.8,48.6 24.2,48.6 24.2,48.6 	"/>
	<circle class="st3" cx="22.4" cy="35.7" r="2.3"/>
	<rect x="27.2" y="14.3" class="st0" width="7" height="10.5"/>
	<rect x="10.8" y="14.1" class="st0" width="7" height="10.5"/>
	<polygon class="st4" points="22.4,40.7 20.9,44.1 20.7,48.6 24.1,48.6 23.9,44.1 	"/>
	<g id="XMLID_7_">
		<g>
			<path class="st5" d="M37.6,30.6c0.2,0,0.4,0.2,0.4,0.5c0,0.2-0.2,0.4-0.5,0.4h-0.7v17.1H36V31.4h-8.5v17.2h-0.8V31.4h-8.5v17.2
				h-0.8V31.4H8.9v17.2H8.1V31.4H7.3c-0.2,0-0.3-0.2-0.4-0.4c0-0.2,0.1-0.4,0.4-0.5h0.8v-6c0-0.2,0.2-0.4,0.4-0.4h1.9V18h-0.2
				c-0.2,0-0.3-0.2-0.4-0.4c0-0.2,0.1-0.4,0.4-0.5h0.2v-2.6h-0.2c-0.2,0-0.3-0.2-0.4-0.4c0-0.2,0.1-0.4,0.4-0.5h8.1
				c0.2,0,0.3,0.2,0.4,0.4c0,0.2-0.1,0.4-0.4,0.5h-0.2v2.6h0.2c0.2,0,0.3,0.2,0.4,0.4c0,0.2-0.1,0.4-0.4,0.5h-0.2v6.1h8.5V18h-0.2
				c-0.2,0-0.3-0.2-0.4-0.4c0-0.2,0.1-0.4,0.4-0.5h0.2v-2.6h-0.2c-0.2,0-0.3-0.2-0.4-0.4c0-0.2,0.1-0.4,0.4-0.5h8.1h0.1
				c0.2,0,0.4,0.2,0.4,0.5c0,0.2-0.2,0.4-0.5,0.4h-0.2v2.6h0.2h0.1c0.2,0,0.4,0.2,0.4,0.5c0,0.2-0.2,0.4-0.5,0.4h-0.2v6.1h1.9
				c0.2,0,0.4,0.2,0.4,0.4v6h1C37.6,30.6,37.6,30.6,37.6,30.6z M36,30.6V25h-8.5v5.6H29v-1.9c0-0.2,0.2-0.4,0.4-0.4s0.4,0.2,0.4,0.4
				v1.9h1.5v-1.9c0-0.2,0.2-0.3,0.4-0.4c0.2,0,0.4,0.1,0.5,0.4v1.9h1.5v-1.9c0-0.2,0.2-0.3,0.4-0.4c0.2,0,0.4,0.1,0.5,0.4v1.9H36z
				 M33.6,24.2v-6.1h-6.1v6.1H33.6z M33.6,17.2v-2.6h-6.1v2.6H33.6z M26.7,30.6V25h-8.5v5.6h2.6v-1.9c0-0.2,0.2-0.3,0.4-0.4
				c0.2,0,0.4,0.1,0.5,0.4v1.9h1.5v-1.9c0-0.2,0.2-0.3,0.4-0.4c0.2,0,0.4,0.1,0.5,0.4v1.9H26.7z M17.4,30.6V25H8.9v5.6h1.5v-1.9
				c0-0.2,0.2-0.3,0.4-0.4c0.2,0,0.4,0.1,0.5,0.4v1.9h1.5v-1.9c0-0.2,0.2-0.3,0.4-0.4c0.2,0,0.4,0.1,0.5,0.4v1.9H15v-1.9
				c0-0.2,0.2-0.3,0.4-0.4c0.2,0,0.4,0.1,0.5,0.4v1.9H17.4z M17.4,24.2v-6.1h-6.1v6.1H17.4z M17.4,17.3v-2.6h-6.1v2.6H17.4z"/>
			<path class="st4" d="M36,25v5.6h-1.5v-1.9c0-0.2-0.2-0.4-0.5-0.4c-0.2,0-0.3,0.2-0.4,0.4v1.9h-1.5v-1.9c0-0.2-0.2-0.4-0.5-0.4
				c-0.2,0-0.3,0.2-0.4,0.4v1.9h-1.5v-1.9c0-0.2-0.2-0.4-0.4-0.4S29,28.5,29,28.7v1.9h-1.5V25H36z"/>
			<rect x="27.5" y="14.6" class="st4" width="6.1" height="2.7"/>
			<path class="st5" d="M24.6,46.1v2.5h-0.8v-2.5c0-1.6-0.5-3.2-1.3-4.5c-0.9,1.3-1.3,2.9-1.3,4.5v2.5h-0.8v-2.5
				c0-2,0.6-3.9,1.8-5.5c0.1-0.1,0.2-0.2,0.3-0.2c0.1,0,0.3,0.1,0.3,0.2C23.9,42.2,24.6,44.1,24.6,46.1z"/>
			<path class="st4" d="M17.4,25v5.6h-1.5v-1.9c0-0.2-0.2-0.4-0.5-0.4c-0.2,0-0.3,0.2-0.4,0.4v1.9h-1.5v-1.9c0-0.2-0.2-0.4-0.5-0.4
				c-0.2,0-0.3,0.2-0.4,0.4v1.9h-1.5v-1.9c0-0.2-0.2-0.4-0.5-0.4c-0.2,0-0.3,0.2-0.4,0.4v1.9H8.9V25H17.4z"/>
			<rect x="11.2" y="14.6" class="st4" width="6.1" height="2.7"/>
		</g>
	</g>
	<path class="st5" d="M13.5,20v2.3c0,0.2-0.2,0.3-0.4,0.4c-0.2,0-0.4-0.1-0.5-0.4V20l0,0c0-0.2,0.2-0.4,0.4-0.4
		C13.4,19.6,13.5,19.8,13.5,20z"/>
	<path class="st5" d="M29.8,34.5v2.3c0,0.2-0.2,0.3-0.4,0.4c-0.2,0-0.4-0.1-0.5-0.4v-2.3l0,0c0-0.2,0.2-0.4,0.4-0.4
		C29.6,34.1,29.8,34.3,29.8,34.5z"/>
	<path class="st5" d="M31.7,34.1c0.2,0,0.4,0.2,0.4,0.4v2.3c0,0.2-0.2,0.3-0.4,0.4c-0.2,0-0.4-0.1-0.5-0.4v-2.3
		C31.3,34.3,31.5,34.1,31.7,34.1L31.7,34.1z"/>
	<path class="st5" d="M13.1,37.3c-0.2,0-0.4-0.2-0.4-0.4v-2.3c0-0.2,0.2-0.3,0.4-0.4c0.2,0,0.4,0.1,0.5,0.4V37
		C13.5,37.1,13.4,37.3,13.1,37.3L13.1,37.3z"/>
	<path class="st5" d="M15.4,37.3c-0.2,0-0.4-0.2-0.4-0.4v-2.3c0-0.2,0.2-0.3,0.4-0.4c0.2,0,0.4,0.1,0.5,0.4V37
		C15.9,37.1,15.7,37.3,15.4,37.3L15.4,37.3z"/>
	<path class="st5" d="M10.9,37.2c-0.2,0-0.4-0.1-0.5-0.4v-2.3c0-0.2,0.2-0.3,0.4-0.4c0.2,0,0.4,0.1,0.5,0.4v2.3
		C11.2,37,11.1,37.2,10.9,37.2z"/>
	<path class="st5" d="M34.5,34.5v2.3c0,0.2-0.2,0.3-0.4,0.4c-0.2,0-0.4-0.1-0.5-0.4v-2.3l0,0c0-0.2,0.2-0.4,0.4-0.4
		C34.3,34.1,34.5,34.3,34.5,34.5z"/>
	<path class="st5" d="M29.4,47.3c-0.2,0-0.4,0.2-0.4,0.4v0.9h0.8v-0.9C29.8,47.4,29.6,47.3,29.4,47.3z"/>
	<path class="st5" d="M32.1,47.6c0-0.2-0.2-0.4-0.5-0.4c-0.2,0-0.4,0.2-0.4,0.5v0.9H32v-0.9C32.1,47.6,32.1,47.6,32.1,47.6z"/>
	<path class="st5" d="M13.5,47.6c0-0.2-0.2-0.4-0.5-0.4c-0.2,0-0.4,0.2-0.4,0.5v0.9h0.8L13.5,47.6C13.6,47.6,13.6,47.6,13.5,47.6z"
		/>
	<path class="st5" d="M15.9,47.6c0-0.2-0.2-0.4-0.5-0.4c-0.2,0-0.4,0.2-0.4,0.5v0.9h0.8L15.9,47.6C15.9,47.6,15.9,47.6,15.9,47.6z"
		/>
	<path class="st5" d="M11.2,47.6c0-0.2-0.2-0.4-0.5-0.4c-0.2,0-0.4,0.2-0.4,0.5v0.9h0.8L11.2,47.6C11.2,47.6,11.2,47.6,11.2,47.6z"
		/>
	<path class="st5" d="M34.4,47.6c0-0.2-0.2-0.4-0.5-0.4c-0.2,0-0.4,0.2-0.4,0.5v0.9h0.8v-0.9C34.5,47.6,34.5,47.6,34.4,47.6z"/>
	<path class="st5" d="M25.2,35.7L25.2,35.7c0,1.5-1.2,2.7-2.7,2.7s-2.7-1.2-2.7-2.7S21,33,22.5,33C23.9,32.9,25.2,34.1,25.2,35.7z
		 M22.4,37.6L22.4,37.6c1.1,0,1.9-0.9,1.9-1.9l0,0c0-1.1-0.9-1.9-1.9-1.9c-1.1,0-1.9,0.9-1.9,1.9C20.5,36.7,21.4,37.6,22.4,37.6
		L22.4,37.6z"/>
	<path class="st5" d="M15.5,19.6c0.2,0,0.4,0.2,0.4,0.4v2.3c0,0.2-0.2,0.3-0.4,0.4c-0.2,0-0.4-0.1-0.5-0.4V20
		C15,19.8,15.2,19.6,15.5,19.6L15.5,19.6z"/>
	<path class="st5" d="M29.4,22.7c-0.2,0-0.4-0.2-0.4-0.4V20v-0.1c0-0.2,0.2-0.4,0.5-0.4c0.2,0,0.4,0.2,0.4,0.5v2.3
		C29.8,22.5,29.6,22.7,29.4,22.7L29.4,22.7z"/>
	<path class="st5" d="M31.3,22.3V20v-0.1c0-0.2,0.2-0.4,0.5-0.4c0.2,0,0.4,0.2,0.4,0.5v2.3l0,0c0,0.2-0.2,0.4-0.4,0.4
		C31.5,22.7,31.3,22.5,31.3,22.3z"/>
	<polygon class="st6" points="8.9,48.6 11,48.6 11,48.6 	"/>
	<polygon class="st6" points="11.8,48.6 14.5,48.6 14.5,48.6 	"/>
	<polygon class="st6" points="15.3,48.6 17.4,48.6 17.4,48.6 	"/>
	<polygon class="st6" points="18.2,48.6 20.3,48.6 20.3,48.6 	"/>
	<polygon class="st6" points="21.1,48.6 23.8,48.6 23.8,48.6 	"/>
	<polygon class="st6" points="24.6,48.6 26.7,48.6 26.7,48.6 	"/>
	<polygon class="st6" points="27.5,48.6 29.6,48.6 29.6,48.6 	"/>
	<polygon class="st6" points="30.4,48.6 33.1,48.6 33.1,48.6 	"/>
	<polygon class="st6" points="33.9,48.6 36,48.6 36,48.6 	"/>
	<rect x="82.4" y="30" class="st0" width="12" height="18.6"/>
	<g id="XMLID_4_">
		<g>
			<polygon class="st7" points="105.4,20.7 105.4,48.6 94.2,48.6 94.2,30 93.4,30 93.4,20.7 			"/>
		</g>
	</g>
	<rect x="96.2" y="45.4" class="st8" width="6" height="3.2"/>
	<g id="XMLID_3_">
		<g>
			<path class="st5" d="M105.6,20.7v27.9H105V23.3H93.7v6.6c0,0.2-0.1,0.3-0.3,0.4c-0.2,0-0.3-0.1-0.4-0.3v-0.1v-9.1
				c0-0.2,0.1-0.3,0.3-0.3l0,0h11.9C105.5,20.4,105.6,20.6,105.6,20.7z M105,22.6v-1.5H93.7v1.5H105z"/>
			<rect x="93.7" y="21.1" class="st2" width="11.3" height="1.5"/>
		</g>
	</g>
	<path class="st5" d="M102.3,27.4c-0.2,0-0.3-0.2-0.3-0.3v-1c0-0.2,0.2-0.3,0.4-0.3c0.2,0,0.3,0.1,0.3,0.3v1
		C102.6,27.2,102.5,27.4,102.3,27.4z"/>
	<path class="st5" d="M99.3,27.4c-0.2,0-0.3-0.2-0.3-0.3v-1c0-0.2,0.2-0.3,0.4-0.3c0.2,0,0.3,0.1,0.3,0.3v1
		C99.7,27.2,99.5,27.4,99.3,27.4z"/>
	<path class="st5" d="M96.3,25.7c0.2,0,0.3,0.1,0.3,0.3v1c0,0.2-0.1,0.4-0.3,0.4c-0.2,0-0.4-0.1-0.4-0.3V27v-1
		C96,25.8,96.2,25.7,96.3,25.7L96.3,25.7z"/>
	<path class="st5" d="M102.6,31c0,0.2-0.1,0.4-0.3,0.4c-0.2,0-0.4-0.1-0.4-0.3V31v-1c0-0.2,0.1-0.4,0.3-0.4c0.2,0,0.4,0.1,0.4,0.3
		V30V31z"/>
	<path class="st5" d="M99.7,31c0,0.2-0.1,0.4-0.3,0.4S99,31.3,99,31.1V31v-1c0-0.2,0.1-0.4,0.3-0.4c0.2,0,0.4,0.1,0.4,0.3V30
		C99.7,30,99.7,31,99.7,31z"/>
	<path class="st5" d="M96.3,29.7c0.2,0,0.3,0.2,0.3,0.3v1c0,0.2-0.1,0.4-0.3,0.4c-0.2,0-0.4-0.1-0.4-0.3V31v-1
		C96,29.8,96.2,29.7,96.3,29.7z"/>
	<path class="st5" d="M102.6,35c0,0.2-0.1,0.4-0.3,0.4c-0.2,0-0.4-0.1-0.4-0.3V35v-1c0-0.2,0.2-0.3,0.4-0.3c0.2,0,0.3,0.1,0.3,0.3
		V35z"/>
	<path class="st5" d="M99.7,35c0,0.2-0.1,0.4-0.3,0.4c-0.2,0-0.4-0.1-0.4-0.3V35v-1c0-0.2,0.2-0.3,0.4-0.3c0.2,0,0.3,0.1,0.3,0.3V35
		z"/>
	<path class="st5" d="M96.3,33.7c0.2,0,0.3,0.1,0.3,0.3v1c0,0.2-0.1,0.4-0.3,0.4c-0.2,0-0.4-0.1-0.4-0.3V35v-1
		C96,33.8,96.2,33.7,96.3,33.7z"/>
	<path class="st5" d="M102.6,39c0,0.2-0.2,0.3-0.4,0.3c-0.2,0-0.3-0.1-0.3-0.3v-1c0-0.2,0.1-0.4,0.3-0.4c0.2,0,0.4,0.1,0.4,0.3V38
		V39z"/>
	<path class="st5" d="M99.7,39c0,0.2-0.2,0.3-0.4,0.3c-0.2,0-0.3-0.1-0.3-0.3v-1c0-0.2,0.1-0.4,0.3-0.4c0.2,0,0.4,0.1,0.4,0.3V38V39
		z"/>
	<path class="st5" d="M96.3,37.6c0.2,0,0.3,0.2,0.3,0.3v1c0,0.2-0.2,0.3-0.4,0.3c-0.2,0-0.3-0.1-0.3-0.3v-1
		C96,37.8,96.2,37.6,96.3,37.6z"/>
	<path class="st5" d="M102.6,42.9c0,0.2-0.1,0.4-0.3,0.4c-0.2,0-0.4-0.1-0.4-0.3v-0.1v-1c0-0.2,0.1-0.4,0.3-0.4
		c0.2,0,0.4,0.1,0.4,0.3v0.1V42.9z"/>
	<path class="st5" d="M99.7,42.9c0,0.2-0.1,0.4-0.3,0.4S99,43.2,99,43v-0.1v-1c0-0.2,0.1-0.4,0.3-0.4c0.2,0,0.4,0.1,0.4,0.3v0.1
		C99.7,41.9,99.7,42.9,99.7,42.9z"/>
	<path class="st5" d="M96.3,41.6c0.2,0,0.3,0.1,0.3,0.3l0,0v1c0,0.2-0.1,0.4-0.3,0.4c-0.2,0-0.4-0.1-0.4-0.3v-0.1v-1
		C96,41.8,96.1,41.6,96.3,41.6L96.3,41.6z"/>
	<path class="st5" d="M96,45.5v3.1h0.7v-2.8H99v2.8h0.7v-2.8h2.3v2.8h0.7v-3.1c0-0.2-0.1-0.3-0.3-0.3l0,0h-6
		C96.2,45.2,96,45.3,96,45.5L96,45.5z"/>
	<path class="st5" d="M82,43.4v5.2h0.7v-5.2c0-0.2-0.2-0.3-0.4-0.3C82.1,43.1,82,43.2,82,43.4z"/>
	<g id="XMLID_5_">
		<g>
			<path class="st5" d="M94.7,30v18.6H94V32.3H82.7v11.9c0,0.2-0.1,0.4-0.3,0.4c-0.2,0-0.4-0.1-0.4-0.3v-0.1V30
				c0-0.2,0.2-0.3,0.3-0.3l0,0h11.9C94.5,29.7,94.7,29.8,94.7,30z M94,31.7v-1.3H82.7v1.3H94z"/>
			<rect x="82.7" y="30.4" class="st4" width="11.3" height="1.3"/>
		</g>
	</g>
	<path class="st5" d="M91.4,35.3c-0.2,0-0.3-0.2-0.3-0.3v-1c0-0.2,0.2-0.3,0.4-0.3c0.2,0,0.3,0.1,0.3,0.3v1
		C91.7,35.2,91.6,35.3,91.4,35.3z"/>
	<path class="st5" d="M88.4,35.3c-0.2,0-0.3-0.2-0.3-0.3v-1c0-0.2,0.2-0.3,0.4-0.3c0.2,0,0.3,0.1,0.3,0.3v1
		C88.7,35.2,88.6,35.3,88.4,35.3z"/>
	<path class="st5" d="M85.4,33.7c0.2,0,0.3,0.1,0.3,0.3v1c0,0.2-0.1,0.4-0.3,0.4c-0.2,0-0.4-0.1-0.4-0.3V35v-1
		C85.1,33.8,85.2,33.7,85.4,33.7z"/>
	<path class="st5" d="M91.7,39c0,0.2-0.2,0.3-0.4,0.3c-0.2,0-0.3-0.1-0.3-0.3v-1c0-0.2,0.1-0.4,0.3-0.4c0.2,0,0.4,0.1,0.4,0.3V38V39
		z"/>
	<path class="st5" d="M88.7,39c0,0.2-0.2,0.3-0.4,0.3c-0.2,0-0.3-0.1-0.3-0.3v-1c0-0.2,0.1-0.4,0.3-0.4c0.2,0,0.4,0.1,0.4,0.3V38V39
		z"/>
	<path class="st5" d="M85.4,37.6c0.2,0,0.3,0.2,0.3,0.3v1c0,0.2-0.2,0.3-0.4,0.3c-0.2,0-0.3-0.1-0.3-0.3v-1
		C85.1,37.8,85.2,37.6,85.4,37.6z"/>
	<path class="st5" d="M91.7,42.9c0,0.2-0.1,0.4-0.3,0.4c-0.2,0-0.4-0.1-0.4-0.3v-0.1v-1c0-0.2,0.1-0.4,0.3-0.4
		c0.2,0,0.4,0.1,0.4,0.3v0.1V42.9z"/>
	<path class="st5" d="M88.7,42.9c0,0.2-0.1,0.4-0.3,0.4c-0.2,0-0.4-0.1-0.4-0.3v-0.1v-1c0-0.2,0.1-0.4,0.3-0.4
		c0.2,0,0.4,0.1,0.4,0.3v0.1V42.9z"/>
	<path class="st5" d="M85.4,41.6c0.2,0,0.3,0.1,0.3,0.3l0,0v1c0,0.2-0.1,0.4-0.3,0.4c-0.2,0-0.4-0.1-0.4-0.3v-0.1v-1
		C85.1,41.8,85.2,41.6,85.4,41.6L85.4,41.6z"/>
	<rect x="85.4" y="45.4" class="st9" width="6" height="3.2"/>
	<path class="st5" d="M85.1,45.5v3.1h0.7v-2.8H88v2.8h0.7v-2.8H91v2.8h0.7v-3.1c0-0.2-0.1-0.3-0.3-0.3l0,0h-6
		C85.2,45.2,85.1,45.3,85.1,45.5L85.1,45.5z"/>
	<rect x="106.5" y="16.9" class="st0" width="19.6" height="31.7"/>
	<polygon class="st10" points="121.1,48.6 111.8,48.6 111.8,43.2 121.1,43.2 	"/>
	<polygon class="st1" points="134.5,48.6 126.2,48.6 126.2,34.2 134.5,34.2 	"/>
	<path class="st5" d="M128.6,36.7h3.1c0.2,0,0.4,0.2,0.4,0.4v3.1c0,0.2-0.2,0.4-0.4,0.4l0,0h-3.1c-0.2,0-0.4-0.2-0.4-0.4v-3.1
		C128.3,36.8,128.4,36.7,128.6,36.7L128.6,36.7z"/>
	<path class="st5" d="M128.6,42.4h3.1c0.2,0,0.4,0.2,0.4,0.4v3.1c0,0.2-0.2,0.4-0.4,0.4l0,0h-3.1c-0.2,0-0.4-0.2-0.4-0.4v-3.1
		C128.3,42.5,128.4,42.4,128.6,42.4z"/>
	<g id="XMLID_6_">
		<g>
			<rect x="129" y="43.1" class="st3" width="2.4" height="2.4"/>
			<rect x="129" y="37.4" class="st3" width="2.4" height="2.4"/>
		</g>
	</g>
	<path class="st5" d="M110.8,42.9h11.4c0.2,0,0.4,0.1,0.4,0.3s-0.1,0.4-0.3,0.4h-0.1h-0.7v5h-0.7v-5h-4v5h-0.7v-5h-4v5h-0.7v-5h-0.7
		c-0.2,0-0.3-0.2-0.3-0.4C110.5,43,110.6,42.9,110.8,42.9z"/>
	<g id="XMLID_2_">
		<g>
			<path class="st5" d="M134.5,34.1v14.5h-0.6V34.5h-7.2v14.1l0,0H126V17.2h-19v31.4h-0.7V16.8c0-0.2,0.1-0.4,0.3-0.4l0,0h19.7
				c0.2,0,0.3,0.1,0.3,0.4v17h7.6C134.4,33.8,134.5,34,134.5,34.1L134.5,34.1z"/>
		</g>
	</g>
	<g id="XMLID_1_">
		<g>
			<path class="st5" d="M123.5,37v3.1c0,0.2-0.2,0.3-0.3,0.3h-3.1c-0.2,0-0.4-0.2-0.4-0.3V37c0-0.2,0.2-0.3,0.3-0.3l0,0h3.1
				C123.4,36.7,123.5,36.8,123.5,37z M122.8,39.8v-2.4h-2.4v2.4H122.8z"/>
			<path class="st5" d="M123.5,31.3v3.1c0,0.2-0.2,0.4-0.3,0.4h-3.1c-0.2,0-0.4-0.2-0.4-0.4v-3.1c0-0.2,0.2-0.4,0.4-0.4h3.1
				C123.4,31,123.5,31.1,123.5,31.3z M122.8,34.1v-2.4h-2.4v2.4H122.8z"/>
			<path class="st5" d="M123.5,25.6v3.1c0,0.2-0.2,0.4-0.3,0.4h-3.1c-0.2,0-0.4-0.2-0.4-0.4v-3.1c0-0.2,0.2-0.4,0.4-0.4h3.1
				C123.4,25.3,123.5,25.4,123.5,25.6z M122.8,28.4V26h-2.4v2.4H122.8z"/>
			<path class="st5" d="M123.5,19.9V23c0,0.2-0.2,0.4-0.3,0.4h-3.1c-0.2,0-0.4-0.1-0.4-0.4v-3.1c0-0.2,0.2-0.3,0.4-0.3h3.1
				C123.4,19.6,123.5,19.7,123.5,19.9z M122.8,22.7v-2.4h-2.4v2.4H122.8z"/>
			<rect x="120.4" y="31.7" class="st3" width="2.5" height="2.4"/>
			<rect x="120.4" y="26" class="st3" width="2.5" height="2.4"/>
			<rect x="120.4" y="20.3" class="st3" width="2.5" height="2.4"/>
			<rect x="120.4" y="37.4" class="st3" width="2.4" height="2.4"/>
			<path class="st5" d="M118.4,37v3.1c0,0.2-0.2,0.3-0.4,0.3h-3.1c-0.2,0-0.3-0.2-0.3-0.3V37c0-0.2,0.1-0.4,0.3-0.4l0,0h3.1
				C118.2,36.7,118.4,36.8,118.4,37z M117.7,39.8v-2.4h-2.4v2.4H117.7z"/>
			<path class="st5" d="M118.4,31.3v3.1c0,0.2-0.2,0.4-0.4,0.4h-3.1c-0.2,0-0.3-0.2-0.3-0.4v-3.1c0-0.2,0.1-0.4,0.3-0.4h3.1
				C118.2,31,118.4,31.1,118.4,31.3z M117.7,34.1v-2.4h-2.4v2.4H117.7z"/>
			<path class="st5" d="M118.4,25.6v3.1c0,0.2-0.2,0.4-0.4,0.4h-3.1c-0.2,0-0.3-0.2-0.3-0.4v-3.1c0-0.2,0.2-0.4,0.3-0.4h3.1
				C118.2,25.3,118.4,25.4,118.4,25.6z M117.7,28.4V26h-2.4v2.4H117.7z"/>
			<path class="st5" d="M118.4,19.9V23c0,0.2-0.2,0.4-0.4,0.4h-3.1c-0.2,0-0.3-0.1-0.3-0.4v-3.1c0-0.2,0.2-0.3,0.3-0.3h3.1
				C118.2,19.6,118.4,19.7,118.4,19.9z M117.7,22.7v-2.4h-2.4v2.4H117.7z"/>
			<rect x="115.3" y="37.4" class="st3" width="2.4" height="2.4"/>
			<rect x="115.3" y="31.7" class="st3" width="2.4" height="2.4"/>
			<rect x="115.3" y="26" class="st3" width="2.4" height="2.4"/>
			<rect x="115.3" y="20.3" class="st3" width="2.4" height="2.4"/>
			<path class="st5" d="M113.2,37v3.1c0,0.2-0.2,0.4-0.3,0.4l0,0h-3.1c-0.2,0-0.3-0.2-0.4-0.4V37c0-0.2,0.1-0.4,0.3-0.4l0,0h3.1
				C113,36.7,113.2,36.8,113.2,37z M112.5,39.8v-2.4h-2.4v2.4H112.5z"/>
			<path class="st5" d="M113.2,25.6v3.1c0,0.2-0.2,0.4-0.3,0.4l0,0h-3.1c-0.2,0-0.3-0.2-0.4-0.3l0,0v-3.1c0-0.2,0.2-0.4,0.3-0.4l0,0
				h3.1C113,25.3,113.2,25.4,113.2,25.6L113.2,25.6z M112.5,28.4V26h-2.4v2.4H112.5z"/>
			<path class="st5" d="M113.2,19.9V23c0,0.2-0.2,0.4-0.3,0.4l0,0h-3.1c-0.2,0-0.3-0.1-0.4-0.3l0,0V20c0-0.2,0.2-0.3,0.3-0.3l0,0
				h3.1C113,19.6,113.2,19.7,113.2,19.9L113.2,19.9z M112.5,22.7v-2.4h-2.4v2.4H112.5z"/>
			<path class="st5" d="M113.2,31.3v3.1c0,0.2-0.2,0.4-0.3,0.4l0,0h-3.1c-0.2,0-0.3-0.2-0.4-0.3l0,0v-3.1c0-0.2,0.2-0.4,0.4-0.3l0,0
				h3.1C113,31,113.1,31.1,113.2,31.3z M112.5,34.1v-2.4h-2.4v2.4H112.5z"/>
			<rect x="110.1" y="37.4" class="st3" width="2.4" height="2.4"/>
			<rect x="110.1" y="31.7" class="st3" width="2.4" height="2.4"/>
			<rect x="110.1" y="26" class="st3" width="2.4" height="2.4"/>
			<rect x="110.1" y="20.3" class="st3" width="2.4" height="2.4"/>
		</g>
	</g>
	<path class="st5" d="M114.7,46.1c0.1-0.1,0.3-0.1,0.4-0.1c0,0,0.1,0,0.1,0.1c0.1,0.1,0.1,0.4,0,0.5s-0.2,0.1-0.2,0.1h-0.1
		c0,0-0.1,0-0.1-0.1l-0.1-0.1c0-0.1,0-0.2,0-0.3C114.6,46.2,114.6,46.1,114.7,46.1z"/>
	<path class="st5" d="M117.8,46.1c0.1-0.1,0.4-0.1,0.5,0l0.1,0.1v0.1c0,0.1,0,0.2-0.1,0.2l-0.1,0.1h-0.1H118c0,0-0.1,0-0.1-0.1
		c-0.1-0.1-0.1-0.2-0.1-0.2L117.8,46.1C117.7,46.2,117.7,46.1,117.8,46.1z"/>
	<circle class="st2" cx="138.1" cy="39.4" r="4.2"/>
	<path class="st5" d="M142.7,39.1c0.2,2.5-1.7,4.7-4.2,4.9v4.6h-0.8V44c-2.4-0.2-4.2-2.2-4.2-4.6c0-2.5,2.1-4.6,4.6-4.5
		C140.5,34.8,142.5,36.7,142.7,39.1z M138.5,43.2c1.8-0.2,3.2-1.6,3.4-3.4c0.2-2.1-1.3-3.9-3.4-4.2c-2.1-0.2-3.9,1.3-4.2,3.4
		c-0.2,2.1,1.3,3.9,3.4,4.2v-1.6c-1-0.2-1.8-1.1-1.8-2.1c0-0.2,0.2-0.4,0.4-0.4s0.4,0.2,0.4,0.4c0,0.6,0.4,1.1,1,1.3v-1.3
		c0-0.2,0.2-0.3,0.3-0.3c0.2,0,0.4,0.1,0.5,0.3v1.3c0.6-0.2,1-0.7,1-1.3c0-0.2,0.2-0.4,0.4-0.4s0.4,0.2,0.4,0.4c0,1-0.8,1.9-1.8,2.1
		L138.5,43.2L138.5,43.2z"/>
	<circle class="st2" cx="145.4" cy="42.4" r="2.8"/>
	<path class="st5" d="M148.5,42.2c0.1,1.7-1.1,3.2-2.9,3.3v3.1h-0.5v-3.1c-1.6-0.1-2.9-1.5-2.9-3.1c0-1.7,1.4-3.1,3.1-3.1
		C147,39.4,148.4,40.6,148.5,42.2z M145.6,45c1.2-0.1,2.1-1.1,2.3-2.3c0.2-1.4-0.9-2.7-2.3-2.8c-1.4-0.2-2.7,0.9-2.8,2.3
		c-0.2,1.4,0.9,2.7,2.3,2.8v-1.1c-0.7-0.1-1.2-0.7-1.2-1.4c0-0.2,0.1-0.3,0.3-0.3s0.3,0.1,0.3,0.3c0,0.4,0.3,0.8,0.7,0.9v-0.9
		c0-0.1,0.1-0.2,0.2-0.2c0.2,0,0.3,0.1,0.3,0.2v0.9c0.4-0.1,0.7-0.5,0.7-0.9c0-0.2,0.1-0.3,0.3-0.3s0.3,0.1,0.3,0.3
		c0,0.7-0.5,1.3-1.2,1.4V45H145.6z"/>
	<g>
		<circle class="st2" cx="4.9" cy="41.3" r="4.4"/>
		<path class="st5" d="M9.9,41.1c0.1,2.7-2,5-4.7,5.1v2.4H4.4v-2.4c-2.5-0.2-4.5-2.3-4.5-4.9c0-2.7,2.2-4.8,4.9-4.8
			C7.5,36.3,9.8,38.4,9.9,41.1z M8.8,41.7c0.2-2.2-1.4-4.2-3.6-4.4S1,38.7,0.8,40.9c-0.2,2.2,1.4,4.2,3.6,4.4v-1.7
			c-1.1-0.2-1.9-1.2-1.9-2.3c0-0.2,0.2-0.4,0.4-0.4s0.4,0.2,0.4,0.4c0,0.6,0.4,1.2,1,1.4v-1.4c0-0.2,0.2-0.3,0.4-0.4
			c0.2,0,0.5,0.1,0.5,0.4v1.4c0.6-0.2,1-0.8,1-1.4c0-0.2,0.2-0.4,0.4-0.4c0.2,0,0.4,0.2,0.4,0.4c0,1.1-0.8,2.1-1.9,2.3v1.7
			C7.2,45.1,8.6,43.6,8.8,41.7z"/>
	</g>
	<rect x="41.2" y="43.3" class="st7" width="36.2" height="2.9"/>
	<rect x="38.4" y="46.1" class="st7" width="41.9" height="2.5"/>
	<polygon class="st2" points="39.8,21.5 78.8,21.5 59.3,9.2 	"/>
	<polygon class="st4" points="59.2,12.2 45.4,21.1 72.8,21.1 	"/>
	<circle class="st3" cx="59.3" cy="17.3" r="1.5"/>
	<rect x="41.2" y="21.8" class="st7" width="36.1" height="4"/>
	<polygon class="st4" points="42.7,26 47.1,26 47.1,28.7 46.4,28.7 46.4,40.1 47.1,40.1 47.1,43.1 42.7,43.1 42.7,40.1 43.4,40.1 
		43.4,28.7 42.7,28.7 	"/>
	<polygon class="st4" points="49.9,26 54.2,26 54.2,28.7 53.5,28.7 53.5,40.1 54.2,40.1 54.2,43.1 49.9,43.1 49.9,40.1 50.6,40.1 
		50.6,28.7 49.9,28.7 	"/>
	<polygon class="st4" points="57.2,26 61.5,26 61.5,28.7 60.8,28.7 60.8,40.1 61.5,40.1 61.5,43.1 57.2,43.1 57.2,40.1 57.9,40.1 
		57.9,28.7 57.2,28.7 	"/>
	<polygon class="st4" points="64.4,26 68.7,26 68.7,28.7 68,28.7 68,40.1 68.7,40.1 68.7,43.1 64.4,43.1 64.4,40.1 65.1,40.1 
		65.1,28.7 64.4,28.7 	"/>
	<polygon class="st4" points="75.2,28.7 75.2,40.1 75.9,40.1 75.9,43.1 71.6,43.1 71.6,40.1 72.3,40.1 72.3,28.7 71.6,28.7 71.6,26 
		75.9,26 75.9,28.7 	"/>
	<path class="st5" d="M59.3,15.4L59.3,15.4c1,0,1.9,0.9,1.9,1.9s-0.9,1.9-1.9,1.9s-1.9-0.9-1.9-1.9S58.3,15.4,59.3,15.4z M58.3,17.3
		c0,0.6,0.4,1,1,1s1-0.4,1-1s-0.4-1-1-1S58.3,16.7,58.3,17.3z"/>
	<path class="st5" d="M80.7,46.2v2.4h-0.9v-2h-41v2h-0.9v-2.4c0-0.3,0.2-0.5,0.5-0.5h2.4v-2.4c0-0.3,0.2-0.5,0.5-0.5h1v-2.4
		c0-0.3,0.2-0.5,0.5-0.5H43V29.3h-0.3c-0.3,0-0.5-0.2-0.5-0.5v-2.4h-1c-0.3,0-0.5-0.2-0.5-0.5V22h-1c-0.2,0-0.3-0.1-0.4-0.2
		c-0.1-0.2-0.1-0.5,0.1-0.6L59.1,8.9c0.1-0.1,0.3-0.1,0.5,0l19.5,12.3c0.2,0.1,0.3,0.3,0.2,0.5c-0.1,0.2-0.2,0.3-0.4,0.3h-1v3.9l0,0
		c0,0.2-0.2,0.4-0.4,0.4h-1v2.4c0,0.3-0.2,0.5-0.5,0.5h-0.3V40H76c0.2,0,0.5,0.2,0.5,0.5v2.4h1c0.2,0,0.4,0.2,0.4,0.5v2.4h2.4
		C80.5,45.7,80.7,45.9,80.7,46.2z M41.3,21.1h3.2L59,11.8c0.2-0.1,0.3-0.1,0.5,0L74,21.1h3.2l-18-11.3L41.3,21.1z M59.3,12.7
		l-13.1,8.4h26.2L59.3,12.7z M76.9,25.5V22H41.7v3.5H76.9z M72,40.9v2h3.5v-2H72z M74.8,40V29.3h-2V40H74.8z M75.5,28.4v-2H72v2
		H75.5z M69.2,40.4v2.4h2v-2.4l0,0c0-0.2,0.2-0.5,0.4-0.5h0.3V29.3h-0.3c-0.3,0-0.5-0.2-0.4-0.5v-2.4h-2v2.4c0,0.3-0.2,0.5-0.5,0.5
		h-0.3V40h0.3C69,40,69.2,40.2,69.2,40.4z M64.8,40.9v2h3.4v-2H64.8z M67.5,40V29.3h-2V40H67.5z M68.3,28.4v-2h-3.4v2H68.3z
		 M61.5,40c0.2,0,0.4,0.2,0.4,0.4v2.4h2v-2.4c0-0.2,0.2-0.4,0.4-0.5h0.3V29.3h-0.3l0,0c-0.2,0-0.4-0.2-0.4-0.5v-2.4h-2v2.4l0,0
		c0,0.2-0.2,0.5-0.4,0.5h-0.3V40H61.5L61.5,40z M57.6,40.9v2H61v-2H57.6z M60.3,40V29.3h-2V40H60.3z M61,28.4v-2h-3.4v2H61z
		 M54.3,40c0.2,0,0.4,0.2,0.4,0.4v2.4h2v-2.4l0,0c0-0.2,0.2-0.4,0.4-0.4h0.3V29.3h-0.3l0,0c-0.2,0-0.4-0.2-0.4-0.5v-2.4h-2v2.4l0,0
		c0,0.2-0.2,0.5-0.4,0.5H54V40H54.3L54.3,40z M50.4,40.9v2h3.4v-2H50.4z M53,40V29.3h-2V40H53z M53.7,28.4v-2h-3.4v2H53.7z
		 M47.5,40.4v2.4h2v-2.4c0-0.3,0.2-0.5,0.5-0.5h0.3V29.3H50c-0.3,0-0.5-0.2-0.5-0.5v-2.4h-2v2.4c0,0.3-0.2,0.5-0.5,0.5h-0.3V40H47
		C47.3,40,47.5,40.2,47.5,40.4z M43.1,40.9v2h3.5v-2H43.1z M45.9,40V29.3h-2V40H45.9z M46.6,28.4v-2h-3.4v2H46.6z M76.9,43.7H41.7v2
		H77L76.9,43.7L76.9,43.7z"/>
	<g>
		<circle class="st2" cx="37.3" cy="44.9" r="2.3"/>
		<path class="st5" d="M39.9,44.8c0.1,1.4-1,2.6-2.4,2.6v1.2h-0.4v-1.2c-1.3-0.1-2.3-1.2-2.3-2.5c0-1.4,1.1-2.5,2.5-2.5
			C38.7,42.3,39.8,43.4,39.9,44.8z M39.3,45.1c0.1-1.1-0.7-2.2-1.8-2.3s-2.2,0.7-2.3,1.8s0.7,2.2,1.8,2.3v-0.8c-0.6-0.1-1-0.6-1-1.2
			c0-0.1,0.1-0.2,0.2-0.2c0.1,0,0.2,0.1,0.2,0.2c0,0.3,0.2,0.6,0.5,0.7v-0.7c0-0.1,0.1-0.2,0.2-0.2c0.1,0,0.2,0.1,0.3,0.2v0.7
			c0.3-0.1,0.5-0.4,0.5-0.7c0-0.1,0.1-0.2,0.2-0.2c0.1,0,0.2,0.1,0.2,0.2c0,0.6-0.4,1.1-1,1.2V47C38.5,46.8,39.2,46.1,39.3,45.1z"/>
	</g>
	<path class="st5" d="M46,23.5c0.2-0.2,0.4-0.2,0.6,0c0.1,0.1,0.1,0.2,0.1,0.3c0,0.1,0,0.1,0,0.2s-0.1,0.1-0.1,0.1
		c-0.1,0.1-0.2,0.1-0.3,0.1s-0.1,0-0.2,0c-0.1,0-0.1-0.1-0.1-0.1L45.9,24c0-0.1,0-0.1,0-0.2S45.9,23.7,46,23.5
		C45.9,23.6,45.9,23.5,46,23.5L46,23.5z"/>
	<path class="st5" d="M50.9,23.5c0.1,0.1,0.1,0.2,0.1,0.3c0,0.1,0,0.1,0,0.2s-0.1,0.1-0.1,0.1l-0.1,0.1c-0.1,0-0.1,0-0.2,0
		c-0.1,0-0.1,0-0.2,0c-0.1,0-0.1-0.1-0.2-0.1L50.1,24c0-0.1,0-0.1,0-0.2s0-0.2,0.1-0.3C50.5,23.4,50.7,23.4,50.9,23.5z"/>
	<path class="st5" d="M55.3,23.5c0.1,0.1,0.1,0.2,0.1,0.3c0,0.1,0,0.1,0,0.2s-0.1,0.1-0.1,0.1l-0.1,0.1c-0.1,0-0.1,0-0.2,0
		c-0.1,0-0.1,0-0.2,0c-0.1,0-0.1-0.1-0.1-0.1c-0.1-0.1-0.1-0.2-0.1-0.3c0-0.1,0-0.2,0.1-0.3C54.8,23.3,55.1,23.3,55.3,23.5z"/>
	<path class="st5" d="M59.6,23.5c0.1,0.1,0.1,0.2,0.1,0.3c0,0.1,0,0.1,0,0.2s-0.1,0.1-0.1,0.1c-0.1,0.1-0.2,0.1-0.3,0.1
		s-0.2,0-0.3-0.1L58.9,24c0-0.1,0-0.1,0-0.2s0.1-0.2,0.1-0.3C59.2,23.3,59.5,23.3,59.6,23.5z"/>
	<path class="st5" d="M63.9,23.5c0.1,0.1,0.1,0.2,0.1,0.3c0,0.1,0,0.1,0,0.2s-0.1,0.1-0.1,0.1l-0.1,0.1c-0.1,0-0.1,0-0.2,0
		c-0.1,0-0.1,0-0.2,0c-0.1-0.1-0.2-0.1-0.2-0.2s0-0.1,0-0.2s0.1-0.2,0.1-0.3C63.5,23.4,63.7,23.4,63.9,23.5z"/>
	<path class="st5" d="M68.2,23.5c0.1,0.1,0.1,0.2,0.1,0.3c0,0.1,0,0.1,0,0.2s-0.1,0.1-0.1,0.1s-0.1,0.1-0.2,0.1s-0.1,0-0.2,0
		s-0.1,0-0.2,0s-0.1-0.1-0.2-0.1L67.3,24c0-0.1,0-0.1,0-0.2s0-0.2,0.1-0.3C67.8,23.4,68.1,23.4,68.2,23.5z"/>
	<path class="st5" d="M72.6,23.5c0.1,0.1,0.1,0.2,0.1,0.3c0,0.1,0,0.1,0,0.2s-0.1,0.1-0.1,0.1s-0.1,0.1-0.2,0.1s-0.1,0-0.2,0
		s-0.1,0-0.2,0s-0.1-0.1-0.2-0.1c-0.1-0.1-0.1-0.2-0.1-0.3c0-0.1,0-0.2,0.1-0.3C72.2,23.3,72.5,23.3,72.6,23.5z"/>
	<path class="st11" d="M59.3,9.2c0-2.2-0.1-6.5-0.1-8.7"/>
	<g>
		<path class="st2" d="M59.3,0.5c2.7,2.2,5.5,1.9,8.2,4.1c-2.7-0.8-5.5,0.8-8.2,0C59.3,3.3,59.3,1.9,59.3,0.5z"/>
		<path class="st12" d="M59.3,0.5c2.7,2.2,5.5,1.9,8.2,4.1c-2.7-0.8-5.5,0.8-8.2,0C59.3,3.3,59.3,1.9,59.3,0.5z"/>
	</g>
</g>
</svg>
