<?xml version="1.0" encoding="utf-8"?>
<!-- Generator: Adobe Illustrator 23.0.0, SVG Export Plug-In . SVG Version: 6.00 Build 0)  -->
<svg version="1.1" xmlns="http://www.w3.org/2000/svg" xmlns:xlink="http://www.w3.org/1999/xlink" x="0px" y="0px"
	 viewBox="0 0 110 62" style="enable-background:new 0 0 110 62;" xml:space="preserve">
<style type="text/css">
	.st0{opacity:0.5;}
	.st1{fill:#7CABC5;}
	.st2{opacity:0.3;fill:#7CABC5;}
	.st3{opacity:0.2;fill:#7CABC5;}
	.st4{opacity:0.1;fill:#7CABC5;}
	.st5{opacity:0.05;fill:#7CABC5;}
	.st6{opacity:0.6;fill:#7CABC5;}
	.st7{fill:none;stroke:#344456;stroke-width:1.25;stroke-linecap:round;stroke-linejoin:round;stroke-miterlimit:10;}
	.st8{fill:#FFFFFF;stroke:#344456;stroke-width:2;stroke-linecap:round;stroke-linejoin:round;stroke-miterlimit:10;}
	.st9{fill:#0DC0DC;}
	.st10{fill:#A7C7D8;}
</style>
<g id="Layer_2">
</g>
<g id="Layer_1">
	<g>
		<g class="st0">
			<path class="st1" d="M81.29,61.95l5.35,0c-0.04-1.44-1.22-2.58-2.68-2.58C82.51,59.37,81.33,60.52,81.29,61.95z"/>
			<ellipse class="st1" cx="83.97" cy="51.81" rx="2.67" ry="2.66"/>
			<ellipse class="st2" cx="83.97" cy="41.6" rx="2.67" ry="2.66"/>
			<ellipse class="st3" cx="83.97" cy="31.38" rx="2.67" ry="2.66"/>
			<ellipse class="st4" cx="83.97" cy="21.17" rx="2.67" ry="2.66"/>
			<ellipse class="st5" cx="83.97" cy="10.95" rx="2.67" ry="2.66"/>
			<path class="st1" d="M97.75,61.95l5.35,0c-0.04-1.44-1.22-2.58-2.68-2.58C98.98,59.37,97.79,60.52,97.75,61.95z"/>
			<ellipse class="st6" cx="100.42" cy="51.81" rx="2.67" ry="2.66"/>
			<ellipse class="st2" cx="100.42" cy="41.6" rx="2.67" ry="2.66"/>
			<path class="st1" d="M65.69,61.95l5.35,0c-0.04-1.44-1.22-2.58-2.68-2.58C66.91,59.37,65.73,60.52,65.69,61.95z"/>
			<ellipse class="st1" cx="68.37" cy="51.81" rx="2.67" ry="2.66"/>
			<ellipse class="st2" cx="68.37" cy="41.6" rx="2.67" ry="2.66"/>
			<ellipse class="st3" cx="68.37" cy="31.38" rx="2.67" ry="2.66"/>
			<ellipse class="st4" cx="68.37" cy="21.17" rx="2.67" ry="2.66"/>
			<ellipse class="st5" cx="68.37" cy="10.95" rx="2.67" ry="2.66"/>
			<path class="st1" d="M50.09,61.95l5.35,0c-0.04-1.44-1.22-2.58-2.68-2.58C51.32,59.37,50.13,60.52,50.09,61.95z"/>
			<ellipse class="st1" cx="52.77" cy="51.81" rx="2.67" ry="2.66"/>
			<ellipse class="st2" cx="52.77" cy="41.6" rx="2.67" ry="2.66"/>
			<ellipse class="st3" cx="52.77" cy="31.38" rx="2.67" ry="2.66"/>
			<path class="st1" d="M34.49,61.95l5.35,0c-0.04-1.44-1.22-2.58-2.68-2.58C35.72,59.37,34.53,60.52,34.49,61.95z"/>
			<ellipse class="st1" cx="37.17" cy="51.81" rx="2.67" ry="2.66"/>
			<ellipse class="st2" cx="37.17" cy="41.6" rx="2.67" ry="2.66"/>
			<ellipse class="st3" cx="37.17" cy="31.38" rx="2.67" ry="2.66"/>
			<ellipse class="st4" cx="37.17" cy="21.17" rx="2.67" ry="2.66"/>
			<path class="st1" d="M18.9,61.95l5.34,0c-0.04-1.44-1.22-2.58-2.68-2.58C20.12,59.37,18.94,60.52,18.9,61.95z"/>
			<ellipse class="st6" cx="21.57" cy="51.81" rx="2.67" ry="2.66"/>
			<path class="st1" d="M4.31,61.95l5.35,0c-0.04-1.44-1.22-2.58-2.68-2.58C5.53,59.37,4.35,60.52,4.31,61.95z"/>
			<ellipse class="st6" cx="6.99" cy="51.81" rx="2.67" ry="2.66"/>
			<ellipse class="st2" cx="21.57" cy="41.6" rx="2.67" ry="2.66"/>
			<ellipse class="st3" cx="21.57" cy="31.38" rx="2.67" ry="2.66"/>
			<ellipse class="st2" cx="7.12" cy="41.6" rx="2.67" ry="2.66"/>
			<ellipse class="st3" cx="7.12" cy="31.38" rx="2.67" ry="2.66"/>
			<ellipse class="st4" cx="21.56" cy="21.17" rx="2.67" ry="2.66"/>
			<ellipse class="st5" cx="21.56" cy="10.95" rx="2.67" ry="2.66"/>
		</g>
		<g>
		</g>
	</g>
	<g>
		<path class="st9" d="M54.92,43.2c-0.55,0.99-0.99,2.47-0.99,3.41c0,0.22,0,0.49,0.05,0.88l-6.87-11.82
			c-0.22-0.38-0.38-0.93-0.38-1.43c0-0.5,0.16-1.1,0.38-1.48l3.3-5.77l-3.68-2.09l11.99-0.22l5.83,10.5l-3.74-2.14L54.92,43.2z
			 M71.42,9.55c-0.82-1.43-1.92-2.42-3.24-2.97H81.7c1.21,0,2.14,0.5,2.7,1.43l3.35,5.72l3.63-2.15l-5.83,10.45l-11.93-0.17
			l3.68-2.09L71.42,9.55z M92.26,40.67c1.65,0,3.02-0.44,4.18-1.32l-6.82,11.87c-0.55,0.93-1.54,1.48-2.69,1.48h-6.44v4.23
			l-6.16-10.28l6.16-10.28v4.29L92.26,40.67L92.26,40.67z"/>
	</g>
	<path class="st10" d="M97.54,30.68c0.5,0.88,0.77,1.81,0.77,2.8c0,1.98-1.27,4.07-3.02,5.06c-0.83,0.44-1.98,0.72-3.13,0.72h-3.63
		l-6.49-11.22l10.5-5.99L97.54,30.68z"/>
	<path class="st10" d="M60.2,9.88c1.04-1.82,2.75-2.81,4.84-2.81c2.26,0,4.02,1.05,5.28,3.19l1.87,3.13L65.7,24.61l-10.5-6.1
		L60.2,9.88z"/>
	<path class="st10" d="M60.97,52.71c-3.13,0-5.72-2.58-5.72-5.72c0-0.88,0.39-2.37,0.94-3.3l1.76-3.13h13.03v12.15L60.97,52.71
		L60.97,52.71z"/>
</g>
</svg>
