<svg id="Layer_1" data-name="Layer 1" xmlns="http://www.w3.org/2000/svg" xmlns:xlink="http://www.w3.org/1999/xlink" viewBox="0 0 110 62"><defs><style>.cls-1,.cls-10,.cls-12{fill:#f6d727;}.cls-1,.cls-2,.cls-3,.cls-7,.cls-8{clip-rule:evenodd;}.cls-13,.cls-15,.cls-2{fill:#f9e366;}.cls-16,.cls-3,.cls-4,.cls-44{fill:none;}.cls-5,.cls-6{fill:#a01d21;}.cls-6{clip-path:url(#clip-path);}.cls-50,.cls-7,.cls-8,.cls-9{fill:#bb9a72;}.cls-8{clip-path:url(#clip-path-2);}.cls-10,.cls-13,.cls-28,.cls-29,.cls-32,.cls-33,.cls-43,.cls-44,.cls-49,.cls-50,.cls-76,.cls-84{fill-rule:evenodd;}.cls-11{clip-path:url(#clip-path-3);}.cls-14{clip-path:url(#clip-path-4);}.cls-16{stroke:#fff;stroke-linecap:round;stroke-miterlimit:10;stroke-width:1.25px;}.cls-17{clip-path:url(#clip-path-5);}.cls-18{clip-path:url(#clip-path-6);}.cls-19{isolation:isolate;}.cls-20{clip-path:url(#clip-path-7);}.cls-21{clip-path:url(#clip-path-8);}.cls-22{clip-path:url(#clip-path-9);}.cls-23{fill:#271314;}.cls-24{clip-path:url(#clip-path-10);}.cls-25{clip-path:url(#clip-path-12);}.cls-26{clip-path:url(#clip-path-13);}.cls-27,.cls-32{fill:#e1bf98;}.cls-28,.cls-70{fill:#15bfdb;}.cls-29{fill:#1da8b7;}.cls-30{clip-path:url(#clip-path-15);}.cls-31,.cls-33{fill:#d7af8d;}.cls-34{clip-path:url(#clip-path-17);}.cls-35{clip-path:url(#clip-path-19);}.cls-36{clip-path:url(#clip-path-21);}.cls-37{fill:#503c3c;}.cls-38{clip-path:url(#clip-path-23);}.cls-39{clip-path:url(#clip-path-24);}.cls-40{clip-path:url(#clip-path-25);}.cls-41{clip-path:url(#clip-path-26);}.cls-42,.cls-49{fill:#cda572;}.cls-43{fill:#c94b2f;}.cls-45{clip-path:url(#clip-path-28);}.cls-46{fill:#b79265;}.cls-47{clip-path:url(#clip-path-30);}.cls-48{clip-path:url(#clip-path-32);}.cls-51{clip-path:url(#clip-path-35);}.cls-52{fill:#fff;}.cls-53{clip-path:url(#clip-path-36);}.cls-54{clip-path:url(#clip-path-37);}.cls-55{fill:#231f20;}.cls-56{clip-path:url(#clip-path-38);}.cls-57{clip-path:url(#clip-path-39);}.cls-58{clip-path:url(#clip-path-40);}.cls-59{clip-path:url(#clip-path-41);}.cls-60{clip-path:url(#clip-path-42);}.cls-61{fill:#2c2722;}.cls-62{clip-path:url(#clip-path-43);}.cls-63{clip-path:url(#clip-path-45);}.cls-64{clip-path:url(#clip-path-46);}.cls-65,.cls-76{fill:#5c4638;}.cls-66{clip-path:url(#clip-path-48);}.cls-67{clip-path:url(#clip-path-49);}.cls-68{clip-path:url(#clip-path-50);}.cls-69{clip-path:url(#clip-path-51);}.cls-71{clip-path:url(#clip-path-53);}.cls-72{clip-path:url(#clip-path-54);}.cls-73{clip-path:url(#clip-path-55);}.cls-74{clip-path:url(#clip-path-56);}.cls-75{fill:#543f34;}.cls-77{clip-path:url(#clip-path-57);}.cls-78{clip-path:url(#clip-path-59);}.cls-79{clip-path:url(#clip-path-60);}.cls-80{fill:#634e43;}.cls-81{clip-path:url(#clip-path-62);}.cls-82{clip-path:url(#clip-path-64);}.cls-83{clip-path:url(#clip-path-65);}.cls-84{fill:#513e36;}.cls-85{clip-path:url(#clip-path-67);}.cls-86{clip-path:url(#clip-path-69);}</style><clipPath id="clip-path"><path id="SVGID" class="cls-5" d="M22.58,38.33v0"/></clipPath><clipPath id="clip-path-2"><path class="cls-7" d="M31.77,24.38"/></clipPath><clipPath id="clip-path-3"><path class="cls-1" d="M55.79,18.77v1.42H54.3a.71.71,0,0,1,0-1.42Zm0-1.82v1.41H53.43a.71.71,0,1,1,0-1.41Zm0-14.45v14H53.43a.7.7,0,0,1-.71-.7.68.68,0,0,1,.21-.5A6.72,6.72,0,0,1,55.75,2.5Z"/></clipPath><clipPath id="clip-path-4"><path class="cls-2" d="M55.71,18.77v1.42H57.2a.71.71,0,1,0,0-1.42Zm0-1.82v1.41h2.36a.71.71,0,1,0,0-1.41Zm0-14.45v14h2.36a.7.7,0,0,0,.71-.7.68.68,0,0,0-.21-.5A6.72,6.72,0,0,0,55.75,2.5Z"/></clipPath><clipPath id="clip-path-5"><rect id="SVGID-2" data-name="SVGID" class="cls-4" x="46.71" y="28.23" width="16.46" height="19.29"/></clipPath><clipPath id="clip-path-6"><rect id="SVGID-3" data-name="SVGID" class="cls-4" x="40.5" y="27.53" width="29.48" height="35.09"/></clipPath><clipPath id="clip-path-7"><rect id="SVGID-4" data-name="SVGID" class="cls-4" x="44.71" y="26.82" width="20.35" height="21.05"/></clipPath><clipPath id="clip-path-8"><path id="SVGID-5" data-name="SVGID" class="cls-3" d="M62,45.43a5.83,5.83,0,0,1-2.63,1.77h0a6,6,0,0,1-1.91.31H52.7a6.42,6.42,0,0,1-2.07-.35A6.32,6.32,0,0,1,48,45.36c-2.7-3.16-1.38-16.38,6.27-17.1,9.25-.87,10.22,14.28,7.74,17.17"/></clipPath><clipPath id="clip-path-9"><rect id="SVGID-6" data-name="SVGID" class="cls-4" x="46.11" y="28.23" width="17.54" height="19.65"/></clipPath><clipPath id="clip-path-10"><rect id="SVGID-7" data-name="SVGID" class="cls-4" x="40.5" y="42.16" width="29" height="20.34"/></clipPath><clipPath id="clip-path-12"><rect id="SVGID-9" data-name="SVGID" class="cls-4" x="40.5" y="41.56" width="29.48" height="21.05"/></clipPath><clipPath id="clip-path-13"><path id="SVGID-10" data-name="SVGID" class="cls-3" d="M69.5,60.25V62.5h-29V60.25c0-4.08.51-9,4.54-9.72l3-.64a3.81,3.81,0,0,0,1.43-.55,4,4,0,0,0,1.2-1.2A3.92,3.92,0,0,0,51.27,46V42.16h7.46V46a4,4,0,0,0,1.86,3.36,3.83,3.83,0,0,0,1.42.55l3,.64c4,.72,4.53,5.64,4.53,9.72"/></clipPath><clipPath id="clip-path-15"><path id="SVGID-12" data-name="SVGID" class="cls-3" d="M58.73,42.16v2.89l-.27.28L58,45.8a4.48,4.48,0,0,1-5.9,0l-.51-.47-.27-.28V42.16Z"/></clipPath><clipPath id="clip-path-17"><path id="SVGID-14" data-name="SVGID" class="cls-3" d="M60.05,34.12v5c0,.45,0,.89-.06,1.33A10.34,10.34,0,0,0,58.47,36a5.22,5.22,0,0,1-.8-2.77V31.42l-.1,1.42a3.17,3.17,0,0,1-2.07,2.74l-1.7.62A5.85,5.85,0,0,0,50,40.72c0-.55-.09-1.1-.09-1.65v-5a5,5,0,0,1,1.15-3.19h0a5,5,0,0,1,.49-.53h0a6.19,6.19,0,0,1,2.66-.86,6.67,6.67,0,0,1,4.13.86h0a4.56,4.56,0,0,1,.48.5h0a5,5,0,0,1,1.16,3.21"/></clipPath><clipPath id="clip-path-19"><path id="SVGID-16" data-name="SVGID" class="cls-3" d="M59.63,37.28c-.21-.25-.59-.36-1.33-.36h-.15c-1.54,0-2.32.32-2.32.89a2,2,0,0,0,.05.42c.18-.42.94-.65,2.27-.68h.16c.73,0,1.11.11,1.31.36a.69.69,0,0,1,.15.35h0a1.39,1.39,0,0,0-.17-1"/></clipPath><clipPath id="clip-path-21"><path id="SVGID-18" data-name="SVGID" class="cls-3" d="M62,45.43a5.83,5.83,0,0,1-2.63,1.77,7.17,7.17,0,0,0,.84-5.12,6.15,6.15,0,0,1-.16-1.43v-.42a10.24,10.24,0,0,0-1.58-5.46,5.22,5.22,0,0,1-.8-2.77V30.16l-.1,1.42a3.2,3.2,0,0,1-2.07,2.74l-1.7.62A5.85,5.85,0,0,0,50,40.44v.62c0,2-1.07,3.49.68,6.11A6.32,6.32,0,0,1,48,45.36c-2.7-3.16-1.38-16.38,6.27-17.1,9.25-.87,10.22,14.28,7.74,17.17"/></clipPath><clipPath id="clip-path-23"><rect id="SVGID-20" data-name="SVGID" class="cls-4" x="4.55" y="38.52" width="42.91" height="24.28"/></clipPath><clipPath id="clip-path-24"><rect id="SVGID-21" data-name="SVGID" class="cls-4" x="4.55" y="17.5" width="43.72" height="45.93"/></clipPath><clipPath id="clip-path-25"><rect id="SVGID-22" data-name="SVGID" class="cls-4" x="4.55" y="37.71" width="43.72" height="25.72"/></clipPath><clipPath id="clip-path-26"><path id="SVGID-23" data-name="SVGID" class="cls-3" d="M47.47,62.8v-6a7.92,7.92,0,0,0-4.83-7.31l-8.57-3.63a3.25,3.25,0,0,1-2-3V38.52H19.94v4.32a3.25,3.25,0,0,1-2,3L9.38,49.48a7.92,7.92,0,0,0-4.83,7.31v6Z"/></clipPath><clipPath id="clip-path-28"><path id="SVGID-25" data-name="SVGID" class="cls-3" d="M26,47.7c1.35,0,2.88-.09,5.18-2.32a10.5,10.5,0,0,0,1.13-1.33,3.3,3.3,0,0,1-.24-1.21V40.16a3.91,3.91,0,0,1-1.52,1.63l0-.14a4.62,4.62,0,0,0-.66-1.49,1.24,1.24,0,0,0-1-.54H23.2a1.25,1.25,0,0,0-1.05.54,4.83,4.83,0,0,0-.65,1.49l0,.14a3.91,3.91,0,0,1-1.52-1.63v2.68a3.3,3.3,0,0,1-.24,1.21,10.5,10.5,0,0,0,1.13,1.33C23,47.46,24.4,47.7,26,47.7"/></clipPath><clipPath id="clip-path-30"><path id="SVGID-27" data-name="SVGID" class="cls-3" d="M19.12,32.45l-.4-.64A1.83,1.83,0,0,0,17.53,31a1,1,0,0,0-1.19,1.22l.49,2.43a2.82,2.82,0,0,0,2,2.17l.7.21Z"/></clipPath><clipPath id="clip-path-32"><path id="SVGID-29" data-name="SVGID" class="cls-3" d="M32.49,37l.71-.21a2.82,2.82,0,0,0,2-2.17l.48-2.43A1,1,0,0,0,34.49,31a1.83,1.83,0,0,0-1.19.82l-.4.64Z"/></clipPath><clipPath id="clip-path-35"><path id="SVGID-32" data-name="SVGID" class="cls-6" d="M29.6,38.29v0"/></clipPath><clipPath id="clip-path-36"><path class="cls-8" d="M31.77,24.38c-.61-2.05-1.63-2.85-3.49-2.76l-.38,0c-3.91.37-5.79,2.87-5.59,7.44.06,1.13.16,2.27.29,3.41.3-3.48,2.14-5.42,5.53-5.77l.38,0c1.86-.08,2.88-.32,3.49,1.69"/></clipPath><clipPath id="clip-path-37"><rect class="cls-9" x="-14.05" y="-53.97" width="75.04" height="283.43" transform="translate(-4.03 1.18) rotate(-2.65)"/></clipPath><clipPath id="clip-path-38"><rect class="cls-4" x="70.04" y="17" width="32.64" height="28.04"/></clipPath><clipPath id="clip-path-39"><rect class="cls-4" x="68.31" y="16.96" width="36.78" height="46.42"/></clipPath><clipPath id="clip-path-40"><rect class="cls-4" x="69.18" y="16.08" width="34.16" height="29.78"/></clipPath><clipPath id="clip-path-41"><path class="cls-3" d="M72.61,38.58c0,1.46,2.56,4.82,5.4,5.19s15.66,1.89,17,1,3.79-1.75,4.63-2.88.73-3.76,1.86-5.77,1.76-3.43.4-5.58c-.83-1.33.41-3.8-1.35-5.51s-6.24-4.67-7.18-5.73-4-1.53-4.6-.07a5.06,5.06,0,0,0-5.22-2.16c-3.8.48-6.86,3.69-8,5s-4.34,3.76-4.19,5.69-1.7,3.88-1.32,5.59c.59,2.62,2.56,3.75,2.52,5.21"/></clipPath><clipPath id="clip-path-42"><rect class="cls-4" x="69.18" y="16.96" width="34.16" height="28.9"/></clipPath><clipPath id="clip-path-43"><rect class="cls-4" x="68.31" y="37.12" width="36.19" height="25.38"/></clipPath><clipPath id="clip-path-45"><rect class="cls-4" x="68.31" y="37.1" width="36.78" height="25.4"/></clipPath><clipPath id="clip-path-46"><path class="cls-3" d="M104.5,59.7v2.8H68.31V59.7c0-5.09.64-11.24,5.66-12.14l2-.44,1.54-.33.1,0a5,5,0,0,0,4.09-4.89V37.12h9.31v4.76a5,5,0,0,0,4.09,4.89l.1,0,1.54.33,2,.44c5,.9,5.66,7,5.66,12.14"/></clipPath><clipPath id="clip-path-48"><rect class="cls-4" x="68.31" y="47.12" width="36.19" height="15.38"/></clipPath><clipPath id="clip-path-49"><rect class="cls-4" x="68.31" y="16.96" width="36.78" height="45.52"/></clipPath><clipPath id="clip-path-50"><rect class="cls-4" x="68.31" y="46.74" width="36.78" height="15.76"/></clipPath><clipPath id="clip-path-51"><path class="cls-3" d="M104.5,59.7v2.8H68.31V59.7c0-5.09.64-11.24,5.66-12.14l2-.44,0,.13c1.19,4.55,5,7.15,10.36,7.15s9.16-2.6,10.35-7.15l0-.13,2,.44c5,.9,5.66,7,5.66,12.14"/></clipPath><clipPath id="clip-path-53"><path class="cls-3" d="M97.43,47.07l0,.12c-1.27,4.55-5.28,7.16-11,7.16s-9.75-2.61-11-7.16l0-.12L77,46.74v0c1,3.59,4.07,6,9.4,6s8.41-2.44,9.4-6v0Z"/></clipPath><clipPath id="clip-path-54"><rect class="cls-4" x="67.86" y="16.96" width="39.14" height="46.42"/></clipPath><clipPath id="clip-path-55"><path class="cls-3" d="M91,37.1v3.61l-.34.34-.63.59a5.55,5.55,0,0,1-7.37,0l-.63-.59-.34-.34V37.1Z"/></clipPath><clipPath id="clip-path-56"><rect class="cls-4" x="68.58" y="16.96" width="36.78" height="46.42"/></clipPath><clipPath id="clip-path-57"><rect class="cls-4" x="97.05" y="57.1" width="7.45" height="5.4"/></clipPath><clipPath id="clip-path-59"><rect class="cls-4" x="96.33" y="56.37" width="8.76" height="6.13"/></clipPath><clipPath id="clip-path-60"><path class="cls-3" d="M104.5,59.7v2.8H97.41l-.36-1.38,7.38-4c0,.59,0,1.18.06,1.76,0,.29,0,.56,0,.84"/></clipPath><clipPath id="clip-path-62"><rect class="cls-4" x="68.31" y="57.1" width="7.45" height="5.4"/></clipPath><clipPath id="clip-path-64"><rect class="cls-4" x="68.31" y="56.37" width="7.88" height="6.13"/></clipPath><clipPath id="clip-path-65"><path class="cls-3" d="M68.31,59.7v2.8H75.4l.36-1.38-7.38-4c0,.59,0,1.18-.06,1.76,0,.29,0,.56,0,.84"/></clipPath><clipPath id="clip-path-67"><path class="cls-3" d="M89.73,20s1.13,3-1,3.25-4.08-1-4.74.1-.88,3.14-2.37,3.43S80.06,30,79.69,32.1,74.44,31,74.44,31l3.14-6.86,5.11-4.38,4.89-1.09Z"/></clipPath><clipPath id="clip-path-69"><path class="cls-3" d="M92.41,29.4s0-3.46-.51-4.19C91,24,89.56,23.75,89.38,22.36a8.27,8.27,0,0,1,.18-2.77l4.09,2.19,1.5,4.85-1.21,3.06Z"/></clipPath></defs><title>Catching the Entrepreneurial Spirit_2.0_test</title><path class="cls-10" d="M55.79,18.77v1.42H54.3a.71.71,0,0,1,0-1.42Zm0-1.82v1.41H53.43a.71.71,0,1,1,0-1.41Zm0-14.45v14H53.43a.7.7,0,0,1-.71-.7.68.68,0,0,1,.21-.5A6.72,6.72,0,0,1,55.75,2.5Z"/><g class="cls-11"><rect class="cls-12" x="48.6" y="3.09" width="7.61" height="18.52"/></g><path class="cls-13" d="M55.71,18.77v1.42H57.2a.71.71,0,1,0,0-1.42Zm0-1.82v1.41h2.36a.71.71,0,1,0,0-1.41Zm0-14.45v14h2.36a.7.7,0,0,0,.71-.7.68.68,0,0,0-.21-.5A6.72,6.72,0,0,0,55.75,2.5Z"/><g class="cls-14"><rect class="cls-15" x="55.3" y="2.09" width="7.61" height="18.52"/></g><path class="cls-16" d="M51.28,7.11A2.42,2.42,0,0,1,53.62,5"/><g class="cls-17"><g class="cls-18"><g class="cls-19"><g class="cls-20"><g class="cls-21"><g class="cls-22"><rect class="cls-23" x="43.2" y="24.72" width="23.48" height="26.31"/></g></g></g></g></g></g><g class="cls-24"><g class="cls-18"><g class="cls-19"><g class="cls-25"><g class="cls-26"><g class="cls-25"><rect class="cls-27" x="36.99" y="38.65" width="36.02" height="27.36"/></g></g></g></g></g></g><path id="SVGID-33" data-name="SVGID" class="cls-28" d="M48,49.89l-2.08.45V62.5H64.1V50.34L62,49.89a4,4,0,0,1-1.33-.49A15.15,15.15,0,0,1,55,59.77a15.2,15.2,0,0,1-5.7-10.35,4,4,0,0,1-1.29.47"/><path class="cls-29" d="M46.21,50.28l-.3.06V62.5h3.21A21.9,21.9,0,0,1,46.21,50.28Z"/><path class="cls-29" d="M64.1,55.4V50.34L62,49.89a.29.29,0,0,1-.1,0A21.82,21.82,0,0,1,64.1,55.4Z"/><g class="cls-30"><g class="cls-18"><rect class="cls-31" x="47.76" y="38.65" width="14.47" height="11.77"/></g></g><path id="SVGID-34" data-name="SVGID" class="cls-32" d="M60.05,34.12v5c0,.45,0,.89-.06,1.33h0c0,.28-.05.56-.09.83a4.78,4.78,0,0,1-1.44,2.82l-.51.48a4.48,4.48,0,0,1-5.9,0l-.51-.48a4.78,4.78,0,0,1-1.44-2.82c0-.18,0-.35-.06-.52,0-.55-.09-1.1-.09-1.65v-5a5,5,0,0,1,1.15-3.19h0a5,5,0,0,1,.49-.53h0a6.19,6.19,0,0,1,2.66-.86,6.67,6.67,0,0,1,4.13.86h0a4.56,4.56,0,0,1,.48.5h0a5,5,0,0,1,1.16,3.21"/><path id="SVGID-35" data-name="SVGID" class="cls-33" d="M55,45.65a3.77,3.77,0,0,1-3-1.11l-.51-.48a4.78,4.78,0,0,1-1.44-2.82c0-.18,0-.35-.06-.52,0-.55-.09-1.1-.09-1.65v-5a5,5,0,0,1,1.15-3.19h0a5,5,0,0,1,.49-.53h0a6.87,6.87,0,0,1,3.4-.9v8.45l-.38,2.46L55,41Z"/><g class="cls-34"><g class="cls-18"><rect class="cls-31" x="46.45" y="25.98" width="17.11" height="18.24"/></g></g><g class="cls-35"><g class="cls-18"><rect class="cls-31" x="52.32" y="33.41" width="11" height="8.36"/></g></g><g class="cls-36"><g class="cls-18"><rect class="cls-37" x="43.2" y="24.72" width="23.48" height="25.99"/></g></g><g class="cls-38"><g class="cls-39"><g class="cls-19"><g class="cls-40"><g class="cls-41"><g class="cls-40"><rect class="cls-42" y="33.93" width="52.02" height="33.46"/></g></g></g></g></g></g><path id="SVGID-36" data-name="SVGID" class="cls-43" d="M42.64,49.48l-8.57-3.61v.19a8.09,8.09,0,1,1-16.18,0v-.19L9.33,49.48A8,8,0,0,0,4.5,56.81v6h43v-6a8,8,0,0,0-4.83-7.33"/><path class="cls-44" d="M42.67,49.45l-8.56-3.62v.29c5,2.18,10.76,4.08,12.19,9.88a37.85,37.85,0,0,1,.94,6.78h.26v-6A7.92,7.92,0,0,0,42.67,49.45Z"/><path class="cls-44" d="M15.45,62.78c-.38-1.22-.73-2.45-1-3.67-.12-.25-.23-.5-.36-.75,0,1.47,0,3,0,4.42Z"/><g class="cls-45"><g class="cls-39"><rect class="cls-46" x="15.15" y="35.03" width="21.72" height="17.27"/></g></g><g class="cls-47"><g class="cls-39"><rect class="cls-46" x="11.77" y="26.38" width="12.31" height="15.23"/></g></g><g class="cls-48"><g class="cls-39"><rect class="cls-46" x="27.94" y="26.38" width="12.31" height="15.23"/></g></g><g class="cls-39"><path class="cls-49" d="M26.82,44.1a4.42,4.42,0,0,0,3-1.21l1.6-1.59A5.62,5.62,0,0,0,33,38.06l.5-4.58a23.05,23.05,0,0,0,.16-2.75V26.07a7,7,0,0,0-7-7H25.37a7,7,0,0,0-7,7v4.66a23.05,23.05,0,0,0,.16,2.75l.5,4.58a5.62,5.62,0,0,0,1.49,3.24l1.6,1.59a4.42,4.42,0,0,0,3,1.21Z"/><path class="cls-50" d="M26.07,19.05h-.7a7,7,0,0,0-7,7v4.66a23.05,23.05,0,0,0,.16,2.75l.5,4.58a5.62,5.62,0,0,0,1.49,3.24l1.6,1.59a4.42,4.42,0,0,0,3,1.21h.87v-8l-.73-1.54.73-7.29Z"/></g><path id="SVGID-37" data-name="SVGID" class="cls-5" d="M22.58,38.33v0"/><path id="SVGID-38" data-name="SVGID" class="cls-5" d="M29.6,38.29v0"/><g class="cls-51"><path class="cls-52" d="M29.31,38.81a16.37,16.37,0,0,1-2.92.24h-.58a16.16,16.16,0,0,1-3-.28c-.08,0-.15-.5-.15-.5h6.86S29.47,38.77,29.31,38.81Z"/></g><path class="cls-50" d="M31.77,24.38"/><path class="cls-50" d="M31.77,24.38c-.61-2.05-1.63-2.85-3.49-2.76l-.38,0c-3.91.37-5.79,2.87-5.59,7.44.06,1.13.16,2.27.29,3.41.3-3.48,2.14-5.42,5.53-5.77l.38,0c1.86-.08,2.88-.32,3.49,1.69"/><g class="cls-53"><rect class="cls-9" x="-14.05" y="-53.97" width="75.04" height="283.43" transform="translate(-4.03 1.18) rotate(-2.65)"/><g class="cls-54"><rect class="cls-9" x="13.3" y="-6.67" width="28.01" height="67.54" transform="translate(-1.22 1.29) rotate(-2.65)"/></g></g><path class="cls-55" d="M34.81,28.5a18.89,18.89,0,0,0,0-2,8.65,8.65,0,0,0,.36-1.89c-.1-1-.72-1.41-1.31-2.25a7.66,7.66,0,0,0-.76-.9,7.41,7.41,0,0,0-2.82-2.17,5.89,5.89,0,0,0-2.94-1.44c-.59,0-1,.13-1.57.08-.22,0-.47-.21-.73-.22a9.17,9.17,0,0,0-3.67,1.4c-1.54.89-3.86,3-4.1,5a2.58,2.58,0,0,0-.72,2.09c.15,1.19.41,2.39.62,3.57a.66.66,0,0,0,0,.11c0,.37.08.74.13,1.14h.21a1.78,1.78,0,0,1,.94.51c1-3.79.26-3.18.52-6.54a2.72,2.72,0,0,1,1.63-2.21c1.87-.72,2.66.46,5.33.46s3.46-1.18,5.32-.46A2.72,2.72,0,0,1,32.91,25c.26,3.39-.49,2.73.54,6.64h0a1.82,1.82,0,0,1,1-.61h.12c0-.45.09-.87.13-1.28a.39.39,0,0,0,.11-.27A7.31,7.31,0,0,0,34.81,28.5Z"/><g class="cls-56"><g class="cls-57"><g class="cls-19"><g class="cls-58"><g class="cls-59"><g class="cls-60"><rect class="cls-61" x="65.66" y="12.62" width="41.4" height="36.8"/></g></g></g></g></g></g><g class="cls-62"><g class="cls-57"><g class="cls-19"><g class="cls-63"><g class="cls-64"><g class="cls-63"><rect class="cls-65" x="63.93" y="32.74" width="44.95" height="34.14"/></g></g></g></g></g></g><g class="cls-66"><g class="cls-67"><g class="cls-19"><g class="cls-68"><g class="cls-69"><g class="cls-68"><rect class="cls-70" x="63.93" y="42.74" width="44.95" height="24.14"/></g></g></g></g></g></g><g class="cls-71"><g class="cls-72"><rect class="cls-37" x="70.66" y="42.36" width="31.43" height="16.37"/></g></g><g class="cls-73"><g class="cls-74"><rect class="cls-75" x="77.33" y="32.72" width="18.06" height="14.69"/></g></g><path class="cls-76" d="M92.29,33.81a20.44,20.44,0,0,1-.18,2.71,6,6,0,0,1-1.81,3.53l-.62.59a5.58,5.58,0,0,1-7.37,0l-.63-.59a5.94,5.94,0,0,1-1.8-3.53,20.45,20.45,0,0,1-.19-2.71V27.63a6.3,6.3,0,0,1,12.6,0Z"/><g class="cls-77"><g class="cls-57"><g class="cls-19"><g class="cls-78"><g class="cls-79"><g class="cls-78"><rect class="cls-80" x="92.67" y="52.72" width="16.2" height="14.16"/></g></g></g></g></g></g><g class="cls-81"><g class="cls-57"><g class="cls-19"><g class="cls-82"><g class="cls-83"><g class="cls-82"><rect class="cls-80" x="63.93" y="52.72" width="16.2" height="14.16"/></g></g></g></g></g></g><path class="cls-76" d="M92.29,33.81a20.44,20.44,0,0,1-.18,2.71,6,6,0,0,1-1.81,3.53l-.62.59a5.58,5.58,0,0,1-7.37,0l-.63-.59a5.94,5.94,0,0,1-1.8-3.53,20.45,20.45,0,0,1-.19-2.71V27.63a6.3,6.3,0,0,1,12.6,0Z"/><path class="cls-84" d="M86,42a4.7,4.7,0,0,1-3.68-1.39l-.63-.59a5.94,5.94,0,0,1-1.8-3.53,20.45,20.45,0,0,1-.19-2.71V27.63A6.31,6.31,0,0,1,86,21.34v9.54l-.54,3.9L86,36Z"/><g class="cls-85"><g class="cls-57"><rect class="cls-61" x="70.06" y="14.33" width="24.35" height="22.88"/></g></g><g class="cls-86"><g class="cls-57"><rect class="cls-61" x="84.95" y="15.21" width="14.57" height="18.87"/></g></g><path class="cls-61" d="M84.89,29a2.69,2.69,0,0,1,.46.55h0A2.47,2.47,0,0,0,84.89,29Z"/><path class="cls-61" d="M92.6,29.52H91.38a2.4,2.4,0,0,0-.47-.54,2.56,2.56,0,0,0-3.85.59,1.08,1.08,0,0,0-.85-.41h0a1.06,1.06,0,0,0-.83.4h0a2.69,2.69,0,0,0-.46-.55,3.15,3.15,0,0,0-.29-.22,2.51,2.51,0,0,0-1.41-.44A2.57,2.57,0,0,0,81,29.52H80a.27.27,0,0,0,0,.54h.82a2.49,2.49,0,0,0-.15.87,2.57,2.57,0,0,0,5.13,0,2.46,2.46,0,0,0-.09-.67v0a.53.53,0,0,1,.29-.47.57.57,0,0,1,.25-.06.54.54,0,0,1,.25.06.53.53,0,0,1,.29.47.13.13,0,0,0,0,.06,2.61,2.61,0,0,0-.08.64,2.57,2.57,0,0,0,5,.9.26.26,0,0,0-.16-.34.25.25,0,0,0-.34.15,2,2,0,1,1-1.9-2.74,2,2,0,0,1,2,1.71.27.27,0,0,0,.53-.09,2.6,2.6,0,0,0-.12-.46h.95a.27.27,0,0,0,0-.54ZM83.19,33a2,2,0,1,1,2-2A2,2,0,0,1,83.19,33Z"/><rect class="cls-61" x="84.6" y="28.85" width="3.23" height="0.33"/></svg>