<?xml version="1.0" encoding="utf-8"?>
<!-- Generator: Adobe Illustrator 25.2.1, SVG Export Plug-In . SVG Version: 6.00 Build 0)  -->
<svg version="1.1" id="Layer_1" xmlns="http://www.w3.org/2000/svg" xmlns:xlink="http://www.w3.org/1999/xlink" x="0px" y="0px"
	 viewBox="0 0 21 23.8" style="enable-background:new 0 0 21 23.8;" xml:space="preserve">
<style type="text/css">
	.st0{clip-path:url(#SVGID_2_);}
	.st1{fill:#28739E;}
	.st2{fill:#364558;}
	.st3{fill:#364558;stroke:#344456;stroke-width:0.25;stroke-miterlimit:10;}
</style>
<g>
	<defs>
		<rect id="SVGID_1_" width="21" height="23.8"/>
	</defs>
	<clipPath id="SVGID_2_">
		<use xlink:href="#SVGID_1_"  style="overflow:visible;"/>
	</clipPath>
	<g class="st0">
		<path class="st1" d="M0.9,0.9h19.3v22H0.9V0.9z M0,23.8h21V0H0V23.8z"/>
		<path class="st2" d="M14.8,7.8V6.2H6.7V16h1.6h6.5V7.8z M7.4,6.9h6.6v8.3H7.4V6.9z"/>
		<rect x="10.4" y="9.1" class="st2" width="2.6" height="0.6"/>
		<rect x="9.1" y="10.8" class="st2" width="3.9" height="0.6"/>
		<rect x="9.1" y="12.4" class="st2" width="3.9" height="0.6"/>
		<g>
			<path class="st3" d="M9.7,9.5L8.7,9c0,0-0.1,0-0.1-0.1c0,0,0-0.1,0-0.1c0,0,0-0.1,0.1-0.1c0,0,0,0,0.1,0l1.1,0.6c0,0,0,0,0.1,0
				c0,0,0,0,0,0.1c0,0,0,0,0,0.1c0,0,0,0-0.1,0l-1.1,0.6c0,0-0.1,0-0.1,0s0,0-0.1-0.1c0,0,0-0.1,0-0.1s0,0,0.1-0.1L9.7,9.5z"/>
		</g>
	</g>
</g>
</svg>
