<?xml version="1.0" encoding="utf-8"?>
<!-- Generator: Adobe Illustrator 22.0.1, SVG Export Plug-In . SVG Version: 6.00 Build 0)  -->
<svg version="1.1" id="Layer_1" xmlns="http://www.w3.org/2000/svg" xmlns:xlink="http://www.w3.org/1999/xlink" x="0px" y="0px"
	 viewBox="0 0 110 62" style="enable-background:new 0 0 110 62;" xml:space="preserve">
<style type="text/css">
	.st0{opacity:0.5;}
	.st1{fill:#354557;}
	.st2{opacity:0.3;fill:#354557;}
	.st3{opacity:0.2;fill:#354557;}
	.st4{opacity:0.1;fill:#354557;}
	.st5{opacity:5.000000e-02;fill:#354557;}
	.st6{opacity:0.6;fill:#354557;}
	.st7{fill:#18C0DC;stroke:#354557;stroke-width:1.25;stroke-miterlimit:10;}
	.st8{fill:#E5E5E5;}
	.st9{fill:#CA4B2F;stroke:#354557;stroke-width:1.25;stroke-linecap:round;stroke-linejoin:round;stroke-miterlimit:10;}
	.st10{fill:#D2653E;}
	.st11{fill:none;stroke:#354557;stroke-width:1.25;stroke-linecap:round;stroke-linejoin:round;stroke-miterlimit:10;}
	.st12{fill:none;stroke:#354557;stroke-width:1.25;stroke-linecap:round;stroke-linejoin:round;}
	.st13{fill:none;stroke:#354557;stroke-width:1.25;stroke-linecap:round;stroke-linejoin:round;stroke-dasharray:0,3.0804;}
</style>
<symbol  id="Expanding_around_the_globe" viewBox="-46.7 -25.5 98 50.9">
	<g class="st0">
		<path class="st1" d="M-14.3-24.1h-4.6c0,1.2,1,2.2,2.3,2.2C-15.4-21.8-14.4-22.8-14.3-24.1z"/>
		<circle class="st1" cx="-16.6" cy="-15.4" r="2.3"/>
		<circle class="st2" cx="-16.6" cy="-6.6" r="2.3"/>
		<circle class="st3" cx="-16.6" cy="2.1" r="2.3"/>
		<circle class="st4" cx="-16.6" cy="10.8" r="2.3"/>
		<circle class="st5" cx="-16.6" cy="19.6" r="2.3"/>
		<path class="st1" d="M-28.3-24.1h-4.6c0,1.2,1,2.2,2.3,2.2C-29.4-21.8-28.4-22.8-28.3-24.1z"/>
		<circle class="st6" cx="-30.6" cy="-15.4" r="2.3"/>
		<circle class="st6" cx="-44.4" cy="-15.4" r="2.3"/>
		<circle class="st2" cx="-30.6" cy="-6.6" r="2.3"/>
		<path class="st1" d="M-1-24.1h-4.6c0,1.2,1,2.2,2.3,2.2S-1.1-22.8-1-24.1z"/>
		<circle class="st1" cx="-3.3" cy="-15.4" r="2.3"/>
		<circle class="st2" cx="-3.3" cy="-6.6" r="2.3"/>
		<circle class="st3" cx="-3.3" cy="2.1" r="2.3"/>
		<circle class="st4" cx="-3.3" cy="10.8" r="2.3"/>
		<circle class="st5" cx="-3.3" cy="19.6" r="2.3"/>
		<path class="st1" d="M12.3-24.1H7.7c0,1.2,1,2.2,2.3,2.2C11.2-21.8,12.2-22.8,12.3-24.1z"/>
		<circle class="st1" cx="10" cy="-15.4" r="2.3"/>
		<circle class="st2" cx="10" cy="-6.6" r="2.3"/>
		<circle class="st3" cx="10" cy="2.1" r="2.3"/>
		<path class="st1" d="M25.6-24.1H21c0,1.2,1,2.2,2.3,2.2C24.5-21.8,25.5-22.8,25.6-24.1z"/>
		<circle class="st1" cx="23.3" cy="-15.4" r="2.3"/>
		<circle class="st2" cx="23.3" cy="-6.6" r="2.3"/>
		<circle class="st3" cx="23.3" cy="2.1" r="2.3"/>
		<circle class="st4" cx="23.3" cy="10.8" r="2.3"/>
		<path class="st1" d="M38.8-24.1h-4.5c0,1.2,1,2.2,2.3,2.2C37.8-21.8,38.8-22.8,38.8-24.1z"/>
		<circle class="st6" cx="36.6" cy="-15.4" r="2.3"/>
		<path class="st1" d="M51.3-24.1h-4.6c0,1.2,1,2.2,2.3,2.2C50.2-21.8,51.2-22.8,51.3-24.1z"/>
		<circle class="st6" cx="49" cy="-15.4" r="2.3"/>
		<circle class="st2" cx="36.6" cy="-6.6" r="2.3"/>
		<circle class="st3" cx="36.6" cy="2.1" r="2.3"/>
		<circle class="st2" cx="48.9" cy="-6.6" r="2.3"/>
		<circle class="st3" cx="48.9" cy="2.1" r="2.3"/>
		<circle class="st4" cx="36.6" cy="10.8" r="2.3"/>
		<circle class="st5" cx="36.6" cy="19.6" r="2.3"/>
	</g>
	<g>
		<g>
			<circle class="st7" cx="10.3" cy="-3.8" r="21.1"/>
			<g>
				<path class="st8" d="M14.6,15.8l-2.1-1.8l0.2-1.4l3.4-0.8l-1.8-1.5l-4.5,1.2l-0.3-1.4L6.9,9.6l-1.2,1.1L5.1,9.3l1.1-1.4L5.4,7
					L4.6,6.1l2.8-0.2l1.5,1.2l2.3-0.3l1.4-2.3l2.2-1.1l1.4,2l0.9,0.9l1.5-0.3l-0.2-1.8l-2.8-2L13.4,1L9.6,2.6L5.9,5.3
					c0,0-2.8-0.8-3.2-1.2C2.2,3.6-0.3,0.9-0.3,0.9l-0.1-4.1L1.9-7l5.1-1.1l2-0.2l0.8-1.7l0.5-4.5l-0.3-1.8l1.8-3.2
					c0,0,2.5-1.4,3.1-1.5c0.6-0.2,2.2-0.9,2.2-0.9l1.1,1.8v4.3l2.8,5.1l2.3,3.5l0.5,2.5l-1.4,0.5l-1.7-0.2l-0.6,1.2l1.1,1.4l4.6-0.6
					l4.2-0.3c0,0,0.7-1,1.1-1.7l-0.1,2.5l-0.9,4.2l-1.1,2.5l-1.4,2.4L26.1,9l-1.6,1.7l-1.3,1.2l-1.9,1.4l-1.7,1l-1.9,0.9l-1.7,0.6
					L15,16L14.8,16L14.6,15.8z"/>
			</g>
		</g>
		<g>
			<path class="st9" d="M3.3-8.6c0,2.4-2,4.4-4.4,4.4s-4.4-2-4.4-4.4s4.4-8,4.4-8S3.3-11.1,3.3-8.6z"/>
			<circle class="st10" cx="-1.1" cy="-8.7" r="1.8"/>
		</g>
		<path class="st11" d="M36.5,0.9c-4.3-5-11.3-10.3-19.7-14.7c-16.7-8.7-32.9-10.5-36.2-4.1c-2.2,4.1,1.5,10.7,8.8,17.1"/>
		<g>
			<line class="st12" x1="19.5" y1="15.5" x2="19.5" y2="15.5"/>
			<path class="st13" d="M22.4,16.3c9.1,2.1,16.3,1.3,18.4-2.7c1.5-2.9,0.1-7.1-3.4-11.5"/>
			<line class="st12" x1="36.5" y1="0.9" x2="36.5" y2="0.9"/>
		</g>
		<g>
			<path class="st9" d="M21.9,20.4c0,2.4-2,4.4-4.4,4.4s-4.4-2-4.4-4.4s4.4-8,4.4-8S21.9,18,21.9,20.4z"/>
			<circle class="st10" cx="17.5" cy="20.4" r="1.8"/>
		</g>
	</g>
</symbol>
<use xlink:href="#Expanding_around_the_globe"  width="98" height="50.9" id="XMLID_59_" x="-46.7" y="-25.5" transform="matrix(1.1226 0 0 -1.1226 52.3408 34.569)" style="overflow:visible;"/>
</svg>
