<svg xmlns="http://www.w3.org/2000/svg" xmlns:xlink="http://www.w3.org/1999/xlink" viewBox="0 0 120 120"><defs><style>.cls-1,.cls-2,.cls-3,.cls-34{fill:none;}.cls-2,.cls-3,.cls-6,.cls-7,.cls-9{clip-rule:evenodd;}.cls-3{clip-path:url(#clip-path);}.cls-4,.cls-5{fill:#a01d21;}.cls-5{clip-path:url(#clip-path-2);}.cls-50,.cls-6,.cls-7,.cls-8{fill:#bb9a72;}.cls-7{clip-path:url(#clip-path-3);}.cls-10,.cls-71,.cls-9{fill:#b65831;}.cls-11{clip-path:url(#clip-path-4);}.cls-12{clip-path:url(#clip-path-5);}.cls-13{isolation:isolate;}.cls-14{clip-path:url(#clip-path-6);}.cls-15{clip-path:url(#clip-path-7);}.cls-16{clip-path:url(#clip-path-8);}.cls-17{fill:#271314;}.cls-18{clip-path:url(#clip-path-9);}.cls-19{clip-path:url(#clip-path-11);}.cls-20{clip-path:url(#clip-path-12);}.cls-21,.cls-26{fill:#e1bf98;}.cls-22{fill:#344456;}.cls-22,.cls-23,.cls-26,.cls-27,.cls-44,.cls-49,.cls-50,.cls-71,.cls-77,.cls-85{fill-rule:evenodd;}.cls-23{fill:#1da8b7;}.cls-24{clip-path:url(#clip-path-14);}.cls-25,.cls-27{fill:#d7af8d;}.cls-28{clip-path:url(#clip-path-16);}.cls-29{fill:#e3cca2;}.cls-30{clip-path:url(#clip-path-18);}.cls-31{clip-path:url(#clip-path-20);}.cls-32{clip-path:url(#clip-path-22);}.cls-33{clip-path:url(#clip-path-24);}.cls-34{stroke:#b96d62;stroke-linecap:round;stroke-miterlimit:10;stroke-width:0.43px;}.cls-35{clip-path:url(#clip-path-26);}.cls-36{fill:#5e5e5e;}.cls-37{clip-path:url(#clip-path-28);}.cls-38{fill:#503c3c;}.cls-39{clip-path:url(#clip-path-30);}.cls-40{clip-path:url(#clip-path-31);}.cls-41{clip-path:url(#clip-path-32);}.cls-42{clip-path:url(#clip-path-33);}.cls-43,.cls-49{fill:#cda572;}.cls-44{fill:#15bfdb;}.cls-45{clip-path:url(#clip-path-35);}.cls-46{fill:#b79265;}.cls-47{clip-path:url(#clip-path-37);}.cls-48{clip-path:url(#clip-path-39);}.cls-51{fill:#fff;}.cls-52{clip-path:url(#clip-path-42);}.cls-53{clip-path:url(#clip-path-43);}.cls-54{clip-path:url(#clip-path-44);}.cls-55{fill:#231f20;}.cls-56{clip-path:url(#clip-path-45);}.cls-57{clip-path:url(#clip-path-46);}.cls-58{clip-path:url(#clip-path-47);}.cls-59{clip-path:url(#clip-path-48);}.cls-60{clip-path:url(#clip-path-49);}.cls-61{fill:#2c2722;}.cls-62{clip-path:url(#clip-path-50);}.cls-63{clip-path:url(#clip-path-52);}.cls-64{clip-path:url(#clip-path-53);}.cls-65,.cls-77{fill:#5c4638;}.cls-66{clip-path:url(#clip-path-55);}.cls-67{clip-path:url(#clip-path-56);}.cls-68{clip-path:url(#clip-path-57);}.cls-69{clip-path:url(#clip-path-58);}.cls-70{fill:#f27641;}.cls-72{clip-path:url(#clip-path-60);}.cls-73{clip-path:url(#clip-path-61);}.cls-74{clip-path:url(#clip-path-62);}.cls-75{clip-path:url(#clip-path-63);}.cls-76{fill:#543f34;}.cls-78{clip-path:url(#clip-path-64);}.cls-79{clip-path:url(#clip-path-66);}.cls-80{clip-path:url(#clip-path-67);}.cls-81{fill:#634e43;}.cls-82{clip-path:url(#clip-path-69);}.cls-83{clip-path:url(#clip-path-71);}.cls-84{clip-path:url(#clip-path-72);}.cls-85{fill:#513e36;}.cls-86{clip-path:url(#clip-path-74);}.cls-87{clip-path:url(#clip-path-76);}</style><clipPath id="clip-path"><path id="SVGID" class="cls-2" d="M87.89,38.79A3.77,3.77,0,0,1,85,37.68l-.5-.47A4.72,4.72,0,0,1,83,34.41L83,33.89c0-.54-.08-1.09-.08-1.64V27.34A4.94,4.94,0,0,1,84,24.18h0a5,5,0,0,1,.5-.53h0a6.23,6.23,0,0,1,2.64-.85,6.64,6.64,0,0,1,4.1.85l0,0a4.34,4.34,0,0,1,.47.49s0,0,0,0a5,5,0,0,1,1.14,3.18"/></clipPath><clipPath id="clip-path-2"><path id="SVGID-2" data-name="SVGID" class="cls-4" d="M22.54,36.93v0"/></clipPath><clipPath id="clip-path-3"><path class="cls-6" d="M29.69,26.1"/></clipPath><clipPath id="clip-path-4" transform="translate(10.88 36)"><rect id="SVGID-3" data-name="SVGID" class="cls-1" x="79.66" y="21.5" width="16.33" height="19.14"/></clipPath><clipPath id="clip-path-5" transform="translate(10.88 36)"><rect id="SVGID-4" data-name="SVGID" class="cls-1" x="73.5" y="20.8" width="29.24" height="34.81"/></clipPath><clipPath id="clip-path-6" transform="translate(10.88 36)"><rect id="SVGID-5" data-name="SVGID" class="cls-1" x="77.68" y="20.11" width="20.19" height="20.89"/></clipPath><clipPath id="clip-path-7" transform="translate(10.88 36)"><path id="SVGID-6" data-name="SVGID" class="cls-2" d="M94.83,38.57a6,6,0,0,1-2.61,1.76h0a5.9,5.9,0,0,1-1.89.31H85.6a6.3,6.3,0,0,1-2-.35,6.2,6.2,0,0,1-2.62-1.8c-2.68-3.13-1.37-16.24,6.22-17,9.18-.87,10.14,14.16,7.68,17"/></clipPath><clipPath id="clip-path-8" transform="translate(10.88 36)"><rect id="SVGID-7" data-name="SVGID" class="cls-1" x="79.07" y="21.5" width="17.41" height="19.49"/></clipPath><clipPath id="clip-path-9" transform="translate(10.88 36)"><rect id="SVGID-8" data-name="SVGID" class="cls-1" x="73.5" y="35.32" width="28.77" height="20.18"/></clipPath><clipPath id="clip-path-11" transform="translate(10.88 36)"><rect id="SVGID-10" data-name="SVGID" class="cls-1" x="73.5" y="34.73" width="29.24" height="20.89"/></clipPath><clipPath id="clip-path-12" transform="translate(10.88 36)"><path id="SVGID-11" data-name="SVGID" class="cls-2" d="M102.27,53.27V55.5H73.5V53.27c0-4.05.51-8.93,4.5-9.65L80.93,43a3.91,3.91,0,0,0,2.61-1.73,3.91,3.91,0,0,0,.65-2.15V35.32h7.39v3.79a3.91,3.91,0,0,0,.65,2.15,4,4,0,0,0,1.2,1.19,3.94,3.94,0,0,0,1.41.54l2.93.63c4,.72,4.5,5.6,4.5,9.65"/></clipPath><clipPath id="clip-path-14" transform="translate(10.88 36)"><path id="SVGID-13" data-name="SVGID" class="cls-2" d="M91.58,35.32v2.87a3.44,3.44,0,0,1-.27.27l-.5.47a4.41,4.41,0,0,1-5.85,0l-.5-.47a3.44,3.44,0,0,1-.27-.27V35.32Z"/></clipPath><clipPath id="clip-path-16" transform="translate(10.88 36)"><path id="SVGID-15" data-name="SVGID" class="cls-3" d="M92.89,27.34v4.91q0,.68-.06,1.32v0c0,.27,0,.55-.08.82a4.72,4.72,0,0,1-1.44,2.8l-.5.47a3.76,3.76,0,0,1-2.92,1.11"/></clipPath><clipPath id="clip-path-18" transform="translate(10.88 36)"><path id="SVGID-17" data-name="SVGID" class="cls-2" d="M92.89,27.34v4.91q0,.68-.06,1.32a10.15,10.15,0,0,0-1.5-4.33,5.13,5.13,0,0,1-.8-2.75V24.67l-.1,1.41a3.12,3.12,0,0,1-2.05,2.71l-1.68.62A5.79,5.79,0,0,0,83,33.89c0-.54-.08-1.09-.08-1.64V27.34A4.94,4.94,0,0,1,84,24.18h0a5,5,0,0,1,.5-.53h0a6.23,6.23,0,0,1,2.64-.85,6.64,6.64,0,0,1,4.1.85l0,0a4.34,4.34,0,0,1,.47.49s0,0,0,0a5,5,0,0,1,1.14,3.18"/></clipPath><clipPath id="clip-path-20" transform="translate(10.88 36)"><path id="SVGID-19" data-name="SVGID" class="cls-2" d="M92.47,30.48c-.2-.25-.58-.36-1.31-.36H91c-1.52,0-2.3.32-2.3.89a2.09,2.09,0,0,0,.05.42c.18-.43.93-.66,2.25-.68h.15c.73,0,1.11.11,1.31.36a.63.63,0,0,1,.15.35h0a1.37,1.37,0,0,0-.18-1"/></clipPath><clipPath id="clip-path-22" transform="translate(10.88 36)"><path id="SVGID-21" data-name="SVGID" class="cls-2" d="M84.76,30.12h-.15c-.73,0-1.11.11-1.31.36a1.46,1.46,0,0,0-.17,1.09,1,1,0,0,1,.17-.46c.2-.26.58-.36,1.31-.36h.15c1.31,0,2.07.24,2.25.66a1.83,1.83,0,0,0,0-.4c0-.57-.77-.86-2.3-.89"/></clipPath><clipPath id="clip-path-24" transform="translate(10.88 36)"><polygon id="SVGID-23" data-name="SVGID" class="cls-2" points="73.5 48.38 73.5 55.5 102.27 55.5 102.27 48.38 102.27 41.26 73.5 41.26 73.5 48.38"/></clipPath><clipPath id="clip-path-26" transform="translate(10.88 36)"><path id="SVGID-25" data-name="SVGID" class="cls-2" d="M93.24,29.84H91a6.42,6.42,0,0,0-1.69.21l-.15,0a3.75,3.75,0,0,1-1.1.16H87.7a3.75,3.75,0,0,1-1.1-.16l-.15,0a6.42,6.42,0,0,0-1.69-.21H82.53a.36.36,0,0,0-.36.37v.15a.44.44,0,0,0,.23.4.71.71,0,0,1,.33.46l.2.86v0c.3,1.34,1.71,1.19,2.28,1.19a2.17,2.17,0,0,0,1.94-1.38h0l.34-.75a.43.43,0,0,1,.79,0l.34.75h0a2.17,2.17,0,0,0,1.94,1.38c.57,0,2,.15,2.28-1.19v0l.2-.86a.69.69,0,0,1,.34-.46.46.46,0,0,0,.23-.4v-.15a.37.37,0,0,0-.37-.37m-8,3.07h-.39c-.93,0-1.37-.26-1.51-.89a1.88,1.88,0,0,1,.07-1.47c.18-.23.54-.32,1.23-.32h.14c1,0,2.21.16,2.21.78a1.88,1.88,0,0,1-1.75,1.9M92.46,32c-.14.63-.58.89-1.51.89h-.39A1.88,1.88,0,0,1,88.81,31c0-.62,1.2-.77,2.21-.78h.14c.69,0,1,.09,1.23.32A1.88,1.88,0,0,1,92.46,32"/></clipPath><clipPath id="clip-path-28" transform="translate(10.88 36)"><path id="SVGID-27" data-name="SVGID" class="cls-2" d="M94.83,38.57a6,6,0,0,1-2.61,1.76,7.13,7.13,0,0,0,.83-5.08,6.81,6.81,0,0,1-.16-1.43v-.41A10.17,10.17,0,0,0,91.33,28a5.13,5.13,0,0,1-.8-2.75V23.42l-.1,1.41a3.12,3.12,0,0,1-2.05,2.71l-1.68.62a5.8,5.8,0,0,0-3.82,5.45v.62c0,2-1.06,3.46.67,6.06a6.2,6.2,0,0,1-2.62-1.8c-2.68-3.13-1.37-16.24,6.22-17,9.18-.87,10.14,14.16,7.68,17"/></clipPath><clipPath id="clip-path-30" transform="translate(10.88 36)"><rect id="SVGID-29" data-name="SVGID" class="cls-1" x="8.54" y="37.08" width="33.34" height="18.86"/></clipPath><clipPath id="clip-path-31" transform="translate(10.88 36)"><rect id="SVGID-30" data-name="SVGID" class="cls-1" x="8.54" y="20.75" width="33.96" height="35.67"/></clipPath><clipPath id="clip-path-32" transform="translate(10.88 36)"><rect id="SVGID-31" data-name="SVGID" class="cls-1" x="8.54" y="36.45" width="33.96" height="19.98"/></clipPath><clipPath id="clip-path-33" transform="translate(10.88 36)"><path id="SVGID-32" data-name="SVGID" class="cls-2" d="M41.88,55.94V51.27a6.16,6.16,0,0,0-3.75-5.68l-6.66-2.82a2.52,2.52,0,0,1-1.55-2.34V37.08H20.49v3.35A2.53,2.53,0,0,1,19,42.77l-6.66,2.82a6.16,6.16,0,0,0-3.75,5.68v4.67Z"/></clipPath><clipPath id="clip-path-35" transform="translate(10.88 36)"><path id="SVGID-34" data-name="SVGID" class="cls-2" d="M25.21,44.21a5,5,0,0,0,4-1.8,7.59,7.59,0,0,0,.88-1,2.47,2.47,0,0,1-.19-.94V38.36a3,3,0,0,1-1.18,1.26l0-.11a3.9,3.9,0,0,0-.52-1.16,1,1,0,0,0-.81-.42H23a1,1,0,0,0-.81.42,3.87,3.87,0,0,0-.51,1.16l0,.11a3.06,3.06,0,0,1-1.18-1.27v2.08a2.66,2.66,0,0,1-.18.94,7.59,7.59,0,0,0,.88,1,5.06,5.06,0,0,0,4,1.8"/></clipPath><clipPath id="clip-path-37" transform="translate(10.88 36)"><path id="SVGID-36" data-name="SVGID" class="cls-2" d="M19.85,32.37l-.3-.5a1.39,1.39,0,0,0-.93-.64.8.8,0,0,0-.92.95l.38,1.89a2.17,2.17,0,0,0,1.54,1.68l.55.16Z"/></clipPath><clipPath id="clip-path-39" transform="translate(10.88 36)"><path id="SVGID-38" data-name="SVGID" class="cls-2" d="M30.25,35.91l.55-.16a2.18,2.18,0,0,0,1.54-1.68l.38-1.89a.8.8,0,0,0-.93-.95,1.41,1.41,0,0,0-.92.64l-.31.5Z"/></clipPath><clipPath id="clip-path-42" transform="translate(10.88 36)"><path id="SVGID-41" data-name="SVGID" class="cls-5" d="M28,36.9v0"/></clipPath><clipPath id="clip-path-43" transform="translate(10.88 36)"><path class="cls-7" d="M29.69,26.1C29.21,24.51,28.42,23.89,27,24l-.29,0c-3,.29-4.5,2.23-4.34,5.78,0,.88.12,1.77.22,2.65.24-2.7,1.66-4.21,4.29-4.48h.3c1.45-.07,2.24-.25,2.71,1.31"/></clipPath><clipPath id="clip-path-44" transform="translate(10.88 36)"><rect class="cls-8" x="-5.91" y="-34.76" width="58.29" height="220.17" transform="translate(-3.46 1.16) rotate(-2.65)"/></clipPath><clipPath id="clip-path-45" transform="translate(10.88 36)"><rect class="cls-1" x="35.1" y="5.17" width="41.11" height="35.32"/></clipPath><clipPath id="clip-path-46" transform="translate(10.88 36)"><rect class="cls-1" x="32.91" y="5.12" width="46.33" height="58.47"/></clipPath><clipPath id="clip-path-47" transform="translate(10.88 36)"><rect class="cls-1" x="34.02" y="4.01" width="43.02" height="37.51"/></clipPath><clipPath id="clip-path-48" transform="translate(10.88 36)"><path class="cls-2" d="M38.33,32.36c0,1.84,3.22,6.07,6.81,6.53s19.71,2.39,21.42,1.24,4.78-2.21,5.83-3.63.92-4.74,2.35-7.27,2.2-4.32.5-7c-1-1.68.51-4.78-1.7-6.94S65.68,9.38,64.49,8s-5-1.93-5.79-.09c0,0-1.8-3.31-6.58-2.71s-8.64,4.64-10,6.34-5.47,4.74-5.28,7.17-2.14,4.89-1.66,7c.74,3.3,3.22,4.73,3.17,6.57"/></clipPath><clipPath id="clip-path-49" transform="translate(10.88 36)"><rect class="cls-1" x="34.02" y="5.12" width="43.02" height="36.4"/></clipPath><clipPath id="clip-path-50" transform="translate(10.88 36)"><rect class="cls-1" x="32.91" y="30.51" width="45.59" height="31.97"/></clipPath><clipPath id="clip-path-52" transform="translate(10.88 36)"><rect class="cls-1" x="32.91" y="30.49" width="46.33" height="31.99"/></clipPath><clipPath id="clip-path-53" transform="translate(10.88 36)"><path class="cls-2" d="M78.5,59v3.53H32.91V59c0-6.41.81-14.15,7.13-15.28l2.58-.56,1.94-.42.13,0a6.25,6.25,0,0,0,5.16-6.15v-6H61.57v6a6.25,6.25,0,0,0,5.15,6.15l.13,0,1.94.42,2.58.56C77.7,44.8,78.5,52.54,78.5,59"/></clipPath><clipPath id="clip-path-55" transform="translate(10.88 36)"><rect class="cls-1" x="32.91" y="43.11" width="45.59" height="19.37"/></clipPath><clipPath id="clip-path-56" transform="translate(10.88 36)"><rect class="cls-1" x="32.91" y="5.12" width="46.33" height="57.33"/></clipPath><clipPath id="clip-path-57" transform="translate(10.88 36)"><rect class="cls-1" x="32.91" y="42.63" width="46.33" height="19.86"/></clipPath><clipPath id="clip-path-58" transform="translate(10.88 36)"><path class="cls-2" d="M78.5,59v3.53H32.91V59c0-6.41.81-14.15,7.13-15.28l2.58-.56,0,.16c1.51,5.73,6.26,9,13.05,9s11.54-3.28,13-9l0-.16,2.58.56C77.7,44.8,78.5,52.54,78.5,59"/></clipPath><clipPath id="clip-path-60" transform="translate(10.88 36)"><path class="cls-9" d="M69.59,43l0,.16c-1.61,5.73-6.66,9-13.88,9s-12.28-3.28-13.89-9l0-.16,2.07-.41,0,.07c1.25,4.52,5.11,7.53,11.84,7.53S66.26,47.16,67.5,42.7l0-.07Z"/></clipPath><clipPath id="clip-path-61" transform="translate(10.88 36)"><rect class="cls-10" x="32.35" y="5.12" width="49.3" height="58.47"/></clipPath><clipPath id="clip-path-62" transform="translate(10.88 36)"><path class="cls-2" d="M61.52,30.49V35c-.14.15-.28.3-.43.44l-.79.74A6,6,0,0,1,55.66,38,5.93,5.93,0,0,1,51,36.21l-.8-.74c-.15-.14-.28-.29-.42-.44V30.49Z"/></clipPath><clipPath id="clip-path-63" transform="translate(10.88 36)"><rect class="cls-1" x="33.25" y="5.12" width="46.33" height="58.47"/></clipPath><clipPath id="clip-path-64" transform="translate(10.88 36)"><rect class="cls-1" x="69.12" y="55.68" width="9.38" height="6.8"/></clipPath><clipPath id="clip-path-66" transform="translate(10.88 36)"><rect class="cls-1" x="68.22" y="54.76" width="11.03" height="7.72"/></clipPath><clipPath id="clip-path-67" transform="translate(10.88 36)"><path class="cls-2" d="M78.5,59v3.53H69.57l-.45-1.74,9.29-5.06c0,.75.07,1.49.08,2.22,0,.36,0,.71,0,1.05"/></clipPath><clipPath id="clip-path-69" transform="translate(10.88 36)"><rect class="cls-1" x="32.91" y="55.68" width="9.38" height="6.8"/></clipPath><clipPath id="clip-path-71" transform="translate(10.88 36)"><rect class="cls-1" x="32.91" y="54.76" width="9.93" height="7.72"/></clipPath><clipPath id="clip-path-72" transform="translate(10.88 36)"><path class="cls-2" d="M32.91,59v3.53h8.94l.44-1.74L33,55.68c0,.75-.07,1.49-.08,2.22,0,.36,0,.71,0,1.05"/></clipPath><clipPath id="clip-path-74" transform="translate(10.88 36)"><path class="cls-2" d="M59.89,8.93s1.43,3.82-1.24,4.09-5.14-1.28-6,.14-1.11,4-3,4.32-2,4.05-2.44,6.71-6.61-1.33-6.61-1.33l4-8.64L51,8.7l6.16-1.38Z"/></clipPath><clipPath id="clip-path-76" transform="translate(10.88 36)"><path class="cls-2" d="M63.27,20.79s0-4.36-.64-5.28c-1.18-1.56-3-1.84-3.18-3.59a10.29,10.29,0,0,1,.23-3.49l5.15,2.76,1.89,6.11L65.2,21.16Z"/></clipPath></defs><title>leadership</title><g id="Layer_1" data-name="Layer 1"><g class="cls-11"><g class="cls-12"><g class="cls-13"><g class="cls-14"><g class="cls-15"><g class="cls-16"><rect class="cls-17" x="87.06" y="54.02" width="23.3" height="26.1"/></g></g></g></g></g></g><g class="cls-18"><g class="cls-12"><g class="cls-13"><g class="cls-19"><g class="cls-20"><g class="cls-19"><rect class="cls-21" x="80.9" y="67.84" width="35.73" height="27.14"/></g></g></g></g></g></g><path id="SVGID-42" data-name="SVGID" class="cls-22" d="M80.93,43l-2.07.45V55.5h18V43.44L94.84,43a3.75,3.75,0,0,1-1.32-.49,15.06,15.06,0,0,1-5.65,10.3,15,15,0,0,1-5.65-10.28,3.76,3.76,0,0,1-1.29.47" transform="translate(10.88 36)"/><path class="cls-23" d="M79.17,43.37l-.31.07V55.5h3.2A21.67,21.67,0,0,1,79.17,43.37Z" transform="translate(10.88 36)"/><path class="cls-23" d="M96.91,48.46v-5L94.84,43a.29.29,0,0,1-.1,0A21.13,21.13,0,0,1,96.91,48.46Z" transform="translate(10.88 36)"/><g class="cls-24"><g class="cls-12"><rect class="cls-25" x="91.59" y="67.84" width="14.36" height="11.68"/></g></g><path id="SVGID-43" data-name="SVGID" class="cls-26" d="M92.89,27.34v4.91q0,.68-.06,1.32v0c0,.27,0,.55-.08.82a4.72,4.72,0,0,1-1.44,2.8l-.5.47a4.41,4.41,0,0,1-5.85,0l-.5-.47A4.72,4.72,0,0,1,83,34.41L83,33.89c0-.54-.08-1.09-.08-1.64V27.34A4.94,4.94,0,0,1,84,24.18h0a5,5,0,0,1,.5-.53h0a6.23,6.23,0,0,1,2.64-.85,6.64,6.64,0,0,1,4.1.85l0,0a4.34,4.34,0,0,1,.47.49s0,0,0,0a5,5,0,0,1,1.14,3.18" transform="translate(10.88 36)"/><path id="SVGID-44" data-name="SVGID" class="cls-27" d="M87.89,38.79A3.77,3.77,0,0,1,85,37.68l-.5-.47A4.72,4.72,0,0,1,83,34.41L83,33.89c0-.54-.08-1.09-.08-1.64V27.34A4.94,4.94,0,0,1,84,24.18h0a5,5,0,0,1,.5-.53h0a6.23,6.23,0,0,1,2.64-.85,6.06,6.06,0,0,1,.73,0v8.38l-.37,2.44.37.64Z" transform="translate(10.88 36)"/><g class="cls-28"><g class="cls-12"><rect class="cls-29" x="90.28" y="55.27" width="16.97" height="23"/></g></g><g class="cls-30"><g class="cls-12"><rect class="cls-25" x="90.28" y="55.27" width="16.97" height="18.1"/></g></g><g class="cls-31"><g class="cls-12"><rect class="cls-25" x="96.11" y="62.64" width="10.92" height="8.3"/></g></g><g class="cls-32"><g class="cls-12"><rect class="cls-25" x="90.51" y="62.64" width="10.92" height="8.41"/></g></g><path class="cls-34" d="M86.52,30.34" transform="translate(10.88 36)"/><path class="cls-34" d="M89.28,30.34" transform="translate(10.88 36)"/><g class="cls-35"><g class="cls-12"><rect class="cls-36" x="89.57" y="62.36" width="18.4" height="10.43"/></g></g><g class="cls-37"><g class="cls-12"><rect class="cls-38" x="87.06" y="54.02" width="23.3" height="25.79"/></g></g><g class="cls-39"><g class="cls-40"><g class="cls-13"><g class="cls-41"><g class="cls-42"><g class="cls-41"><rect class="cls-43" x="15.89" y="69.51" width="40.41" height="25.99"/></g></g></g></g></g></g><path id="SVGID-45" data-name="SVGID" class="cls-44" d="M38.12,45.6l-6.65-2.82v.16a6.29,6.29,0,1,1-12.57,0v-.15L12.25,45.6A6.17,6.17,0,0,0,8.5,51.29V56H41.88V51.29a6.16,6.16,0,0,0-3.76-5.69" transform="translate(10.88 36)"/><path class="cls-23" d="M38.15,45.57,31.5,42.76V43c3.85,1.7,8.36,3.17,9.47,7.68a29.52,29.52,0,0,1,.73,5.27h.2V51.26A6.15,6.15,0,0,0,38.15,45.57Z" transform="translate(10.88 36)"/><path class="cls-23" d="M17,55.93c-.3-1-.57-1.91-.81-2.86l-.27-.58c0,1.14,0,2.29,0,3.44Z" transform="translate(10.88 36)"/><g class="cls-45"><g class="cls-40"><rect class="cls-46" x="27.65" y="70.36" width="16.88" height="13.41"/></g></g><g class="cls-47"><g class="cls-40"><rect class="cls-46" x="25.03" y="63.65" width="9.56" height="11.83"/></g></g><g class="cls-48"><g class="cls-40"><rect class="cls-46" x="37.59" y="63.65" width="9.56" height="11.83"/></g></g><g class="cls-40"><path class="cls-49" d="M25.84,41.41a3.43,3.43,0,0,0,2.36-.94l1.25-1.23a4.38,4.38,0,0,0,1.15-2.51L31,33.16A19,19,0,0,0,31.11,31V27.4A5.43,5.43,0,0,0,25.7,22h-1a5.43,5.43,0,0,0-5.4,5.45V31a19,19,0,0,0,.12,2.13l.39,3.57A4.38,4.38,0,0,0,21,39.24l1.25,1.23a3.41,3.41,0,0,0,2.36.94Z" transform="translate(10.88 36)"/><path class="cls-50" d="M25.25,22h-.54a5.43,5.43,0,0,0-5.4,5.45V31a19,19,0,0,0,.12,2.13l.39,3.57A4.38,4.38,0,0,0,21,39.24l1.25,1.23a3.41,3.41,0,0,0,2.36.94h.67V35.22L24.69,34l.56-5.66Z" transform="translate(10.88 36)"/></g><path d="M27.85,30.86" transform="translate(10.88 36)"/><path class="cls-51" d="M28.38,30.37" transform="translate(10.88 36)"/><path id="SVGID-46" data-name="SVGID" class="cls-4" d="M22.54,36.93v0" transform="translate(10.88 36)"/><path id="SVGID-47" data-name="SVGID" class="cls-4" d="M28,36.9v0" transform="translate(10.88 36)"/><g class="cls-52"><path class="cls-51" d="M27.77,37.3a12.42,12.42,0,0,1-2.26.19h-.45a12.41,12.41,0,0,1-2.34-.22c-.06,0-.11-.38-.11-.38h5.32S27.9,37.27,27.77,37.3Z" transform="translate(10.88 36)"/></g><path class="cls-50" d="M29.69,26.1" transform="translate(10.88 36)"/><path class="cls-50" d="M29.69,26.1C29.21,24.51,28.42,23.89,27,24l-.29,0c-3,.29-4.5,2.23-4.34,5.78,0,.88.12,1.77.22,2.65.24-2.7,1.66-4.21,4.29-4.48h.3c1.45-.07,2.24-.25,2.71,1.31" transform="translate(10.88 36)"/><g class="cls-53"><rect class="cls-8" x="-5.91" y="-34.76" width="58.29" height="220.17" transform="translate(7.42 37.15) rotate(-2.65)"/><g class="cls-54"><rect class="cls-8" x="15.33" y="1.98" width="21.76" height="52.47" transform="translate(9.61 37.24) rotate(-2.65)"/></g></g><path class="cls-55" d="M32.05,29.3c0-.57,0-1.09,0-1.57a6.61,6.61,0,0,0,.28-1.46c-.08-.78-.56-1.1-1-1.75a5.18,5.18,0,0,0-.59-.7,5.62,5.62,0,0,0-2.19-1.68A4.59,4.59,0,0,0,26.23,21c-.46,0-.79.11-1.22.07-.17,0-.37-.17-.57-.17A6.84,6.84,0,0,0,21.59,22c-1.2.69-3,2.29-3.19,3.86a2,2,0,0,0-.55,1.62c.11.93.32,1.85.48,2.77a.24.24,0,0,0,0,.09c0,.28.06.57.1.88h.16a1.45,1.45,0,0,1,.73.39c.77-2.94.2-2.46.41-5.07A2.08,2.08,0,0,1,21,24.83c1.44-.56,2.06.36,4.13.36s2.69-.92,4.14-.36a2.11,2.11,0,0,1,1.27,1.72c.2,2.63-.38,2.12.42,5.15h0a1.37,1.37,0,0,1,.79-.47h.1c0-.35.07-.68.1-1a.27.27,0,0,0,.08-.21C32.08,29.77,32.06,29.53,32.05,29.3Z" transform="translate(10.88 36)"/><g class="cls-56"><g class="cls-57"><g class="cls-13"><g class="cls-58"><g class="cls-59"><g class="cls-60"><rect class="cls-61" x="40.46" y="35.65" width="52.15" height="46.35"/></g></g></g></g></g></g><g class="cls-62"><g class="cls-57"><g class="cls-13"><g class="cls-63"><g class="cls-64"><g class="cls-63"><rect class="cls-65" x="38.28" y="60.99" width="56.62" height="43.01"/></g></g></g></g></g></g><g class="cls-66"><g class="cls-67"><g class="cls-13"><g class="cls-68"><g class="cls-69"><g class="cls-68"><rect class="cls-70" x="38.28" y="73.59" width="56.62" height="30.4"/></g></g></g></g></g></g><path class="cls-71" d="M69.59,43l0,.16c-1.61,5.73-6.66,9-13.88,9s-12.28-3.28-13.89-9l0-.16,2.07-.41,0,.07c1.25,4.52,5.11,7.53,11.84,7.53S66.26,47.16,67.5,42.7l0-.07Z" transform="translate(10.88 36)"/><g class="cls-72"><rect class="cls-10" x="43.23" y="41.12" width="49.3" height="58.47"/><g class="cls-73"><rect class="cls-10" x="46.75" y="73.11" width="39.59" height="20.62"/></g></g><g class="cls-74"><g class="cls-75"><rect class="cls-76" x="55.16" y="60.97" width="22.75" height="18.51"/></g></g><path class="cls-77" d="M63.12,26.35a25.93,25.93,0,0,1-.23,3.41,7.54,7.54,0,0,1-2.27,4.44l-.79.74a5.94,5.94,0,0,1-4.64,1.76,5.93,5.93,0,0,1-4.64-1.76l-.8-.74a7.54,7.54,0,0,1-2.27-4.44,25.93,25.93,0,0,1-.23-3.41V18.56a7.94,7.94,0,0,1,15.87,0Z" transform="translate(10.88 36)"/><g class="cls-78"><g class="cls-57"><g class="cls-13"><g class="cls-79"><g class="cls-80"><g class="cls-79"><rect class="cls-81" x="74.49" y="86.16" width="20.41" height="17.83"/></g></g></g></g></g></g><g class="cls-82"><g class="cls-57"><g class="cls-13"><g class="cls-83"><g class="cls-84"><g class="cls-83"><rect class="cls-81" x="38.28" y="86.16" width="20.41" height="17.83"/></g></g></g></g></g></g><path class="cls-77" d="M63.12,26.35a25.93,25.93,0,0,1-.23,3.41,7.54,7.54,0,0,1-2.27,4.44l-.79.74a5.94,5.94,0,0,1-4.64,1.76,5.93,5.93,0,0,1-4.64-1.76l-.8-.74a7.54,7.54,0,0,1-2.27-4.44,25.93,25.93,0,0,1-.23-3.41V18.56a7.94,7.94,0,0,1,15.87,0Z" transform="translate(10.88 36)"/><path class="cls-85" d="M55.19,36.7a5.93,5.93,0,0,1-4.64-1.76l-.8-.74a7.54,7.54,0,0,1-2.27-4.44,25.93,25.93,0,0,1-.23-3.41V18.56a8,8,0,0,1,7.94-7.93v12l-.69,4.91.69,1.51Z" transform="translate(10.88 36)"/><g class="cls-86"><g class="cls-57"><rect class="cls-61" x="46" y="37.81" width="30.67" height="28.82"/></g></g><g class="cls-87"><g class="cls-57"><rect class="cls-61" x="64.76" y="38.91" width="18.36" height="23.76"/></g></g><path class="cls-61" d="M53.8,20.31a3.79,3.79,0,0,1,.58.69h0A3.24,3.24,0,0,0,53.8,20.31Z" transform="translate(10.88 36)"/><path class="cls-61" d="M63.51,20.94H62a3.47,3.47,0,0,0-.59-.68,3.25,3.25,0,0,0-4.86.74,1.36,1.36,0,0,0-1.07-.51h0a1.34,1.34,0,0,0-1,.5h0a3.79,3.79,0,0,0-.58-.69,4.22,4.22,0,0,0-.36-.27,3.14,3.14,0,0,0-1.79-.56A3.24,3.24,0,0,0,49,20.94H47.58a.34.34,0,0,0-.34.34.34.34,0,0,0,.34.34h1a3.29,3.29,0,0,0-.19,1.09,3.24,3.24,0,1,0,6.47,0,2.53,2.53,0,0,0-.13-.83.06.06,0,0,0,0,0,.66.66,0,0,1,.37-.59.58.58,0,0,1,.31-.08.63.63,0,0,1,.32.08.67.67,0,0,1,.36.59.17.17,0,0,0,0,.07,3.5,3.5,0,0,0-.1.8,3.23,3.23,0,0,0,6.26,1.14.33.33,0,0,0-.2-.43.32.32,0,0,0-.43.2,2.59,2.59,0,0,1-2.4,1.65,2.56,2.56,0,1,1,2.53-3,.33.33,0,0,0,.38.28.34.34,0,0,0,.29-.38,3.92,3.92,0,0,0-.15-.59h1.19a.34.34,0,0,0,.34-.34A.34.34,0,0,0,63.51,20.94ZM51.65,25.27a2.56,2.56,0,1,1,2.55-2.56A2.56,2.56,0,0,1,51.65,25.27Z" transform="translate(10.88 36)"/><rect class="cls-61" x="64.32" y="56.1" width="4.07" height="0.42"/></g></svg>
