<?xml version="1.0" encoding="utf-8"?>
<!-- Generator: Adobe Illustrator 22.1.0, SVG Export Plug-In . SVG Version: 6.00 Build 0)  -->
<svg version="1.1" id="Layer_1" xmlns="http://www.w3.org/2000/svg" xmlns:xlink="http://www.w3.org/1999/xlink" x="0px" y="0px"
	 viewBox="0 0 21 23.8" style="enable-background:new 0 0 21 23.8;" xml:space="preserve">
<style type="text/css">
	.st0{clip-path:url(#SVGID_2_);fill:#28739E;}
	.st1{fill:none;stroke:#394557;stroke-width:0.75;stroke-miterlimit:10;}
	.st2{fill:#394557;}
</style>
<g>
	<g>
		<defs>
			<rect id="SVGID_1_" y="0" width="21" height="23.8"/>
		</defs>
		<clipPath id="SVGID_2_">
			<use xlink:href="#SVGID_1_"  style="overflow:visible;"/>
		</clipPath>
		<path class="st0" d="M0.9,0.9h19.3v22H0.9V0.9z M0,23.8h21V0H0V23.8z"/>
	</g>
</g>
<g>
	<g>
		<line class="st1" x1="10.4" y1="7.1" x2="10.5" y2="12.7"/>
		<g>
			<polygon class="st2" points="9.1,7.5 10.4,5.1 11.8,7.5 			"/>
		</g>
	</g>
</g>
<g>
	<g>
		<path class="st1" d="M11.5,12.7c0,0,0-1,1.7-3.3c0.7-0.9,1.5-1.5,2.3-1.9"/>
		<g>
			<polygon class="st2" points="15.7,9 17.4,6.8 14.6,6.4 			"/>
		</g>
	</g>
</g>
<g>
	<g>
		<path class="st1" d="M9.5,12.8c0,0,0-1-1.7-3.3C7.2,8.6,6.3,7.9,5.5,7.5"/>
		<g>
			<polygon class="st2" points="6.4,6.4 3.7,6.8 5.4,9 			"/>
		</g>
	</g>
</g>
<g>
	<circle class="st2" cx="10.5" cy="15.1" r="1.7"/>
	<path class="st2" d="M9.6,16.5c-0.7,1-0.9,2.7-0.9,2.7l3.7,0c0,0-0.5-2.2-1-2.7L9.6,16.5z"/>
</g>
</svg>
