<?xml version="1.0" encoding="utf-8"?>
<!-- Generator: Adobe Illustrator 26.0.3, SVG Export Plug-In . SVG Version: 6.00 Build 0)  -->
<svg version="1.1" id="Layer_1" xmlns="http://www.w3.org/2000/svg" xmlns:xlink="http://www.w3.org/1999/xlink" x="0px" y="0px"
	 viewBox="0 0 110 62" style="enable-background:new 0 0 110 62;" xml:space="preserve">
<style type="text/css">
	.st0{opacity:0.3;fill-rule:evenodd;clip-rule:evenodd;fill:#354557;enable-background:new    ;}
	.st1{fill-rule:evenodd;clip-rule:evenodd;fill:#354557;}
	.st2{fill:none;}
	.st3{fill-rule:evenodd;clip-rule:evenodd;fill:#7A4D28;}
	.st4{fill-rule:evenodd;clip-rule:evenodd;fill:#D34F32;}
	.st5{fill-rule:evenodd;clip-rule:evenodd;fill:#CA4B2F;}
	.st6{opacity:0.5;fill-rule:evenodd;clip-rule:evenodd;fill:#F47540;enable-background:new    ;}
	.st7{fill-rule:evenodd;clip-rule:evenodd;fill:#3F3029;}
	.st8{fill:#E3A354;}
	.st9{fill:#9028A3;}
	.st10{fill:#1E9575;}
</style>
<path class="st0" d="M53.9,50.8C30.2,46,9,50.8-0.1,61.4h109.7C101.5,50.8,78,55.7,53.9,50.8z"/>
<path class="st1" d="M109.6,61.4H-0.1c2.2-2.5,4.8-4.6,7.7-6.1c9.8,3.5,20.1,4.2,30.7,4.3c10.5,0.2,21-0.1,31.5-1
	c7.9-0.7,15.7-2.2,23.3-4.2C100.5,55.3,106.3,57.1,109.6,61.4z"/>
<path class="st2" d="M53.9,50.8C30.2,46,9,50.8-0.1,61.4h109.7C101.5,50.8,78,55.7,53.9,50.8z"/>
<path class="st3" d="M35.4,61.4v-7.9c0-4.2,2.6-7.9,6.6-9.5l11.6-4.7c1.6-0.7,2.7-2.2,2.7-3.9v-5.7h16.4v5.7c0,1.8,1.1,3.3,2.7,3.9
	L87.1,44c3.9,1.6,6.6,5.4,6.6,9.5v7.9H35.4z"/>
<path class="st4" d="M87.1,44.1c3.9,1.6,6.6,5.4,6.6,9.5v7.9H35.5v-7.9c0-4.2,2.6-7.9,6.6-9.5l11.6-4.7c0.3-0.1,0.5-0.4,0.9-0.4
	c3.4,0.4,6.8,0.7,10.2,0.5l9.8-0.7c0.3,0.2,0.7,0.4,1,0.5L87.1,44.1"/>
<path class="st5" d="M48.6,55c0,2.2,0,4.3,0,6.4h-2.1c0-0.3,0-0.5,0-0.9v-0.2c0.4-0.7,0.9-1.4,1.1-2.2c0.2-0.5,0.3-1.1,0.4-1.6
	C48.3,56,48.5,55.6,48.6,55z"/>
<path class="st5" d="M93.6,53.6v7.9h-8.9c0.2-1.1,0.4-2.3,0.5-3.4c0.2-3.2-0.2-6.5-1.1-9.5c-0.9-2.7-2.4-5.3-4.4-7.5l7.3,3
	C91,45.7,93.6,49.4,93.6,53.6z"/>
<path class="st6" d="M52.5,39.8l1.2-0.4c0.3-0.1,0.5-0.4,0.9-0.4c3.4,0.4,6.8,0.7,10.2,0.5l9.8-0.7c0.3,0.2,0.7,0.4,1,0.5l11.6,4.7
	c3.8,1.5,6.4,5.2,6.5,9.2c-0.3-0.5-0.7-1.1-1-1.6c-8.7-13.7-23.7-8.9-37.4-11.7C54.2,39.8,53.3,39.7,52.5,39.8z"/>
<path class="st3" d="M53.2,4.3c1.6-1.4,5.6-3,7.1-3l3,2.6c4.1,0,7.3,1.3,8.9,3.1c1.5,1.4,2.4,3.4,2.4,5.4v5.5c0,1.1-0.1,2.1-0.2,3.2
	l-0.8,5.3c-0.8,1.6-0.4,3.2-1.5,3.7l-2.6,1.9c-1.2,0.9-2.6,1.4-4.2,1.4h-2.2c-1.5,0-3-0.4-4.2-1.4l-2.6-1.6
	c-0.7-1.2-3.3-0.4-4.6-0.9c-3.1-0.9-2.9-6.3-2.6-8.6c0-0.2-0.3-0.2-0.9-0.2c-0.7,0-1.2,0.1-1.1-0.4c0.1-1,0.2-1.6,0.9-2.3
	c0.9-1.1,1-2.2,1-2.2s-0.3-3.6,0.4-6C50.1,7.7,53.2,4.3,53.2,4.3z"/>
<path class="st7" d="M65.6,21.1c0,0,0-6.1-1.1-5.9c-4.2,0.7-7.7-5.4-8.2-6c-0.9-1.2-5.7-1.9-5.7-1.9c0-2.7,7.5-6.3,10.2-6.3
	c0,0,1.9-0.2,3.3,0c3.9,0.5,7.1,1.8,8.6,3.5C74.2,6,75.1,8,75.1,10v5.5c0,1.1-0.1,2.1-0.2,3.2l-0.8,5.3c-0.8,1.6-0.3,4.9-1.4,5.5
	l-0.8-0.5"/>
<path class="st8" d="M61.5,12.4l-0.7-0.1c-0.2,0-0.3-0.1-0.4-0.3c-0.1-0.1-0.1-0.3-0.1-0.5l0.1-0.5c-0.2-0.1-0.3-0.2-0.4-0.3
	l-0.4,0.3c-0.1,0.1-0.3,0.1-0.5,0.1s-0.3-0.1-0.4-0.3l-0.3-0.5l0,0c-0.1-0.1-0.1-0.3-0.1-0.5c0-0.2,0.1-0.3,0.3-0.4l0.4-0.3l0,0
	c0-0.2-0.1-0.3-0.1-0.5l-0.5-0.1c-0.2,0-0.3-0.1-0.4-0.3c-0.1-0.1-0.1-0.3-0.1-0.5l0.1-0.7c0-0.2,0.1-0.3,0.3-0.4
	C58.2,6,58.4,6,58.6,6l0.5,0.1c0.1-0.2,0.2-0.3,0.3-0.4l-0.3-0.4C59,5.1,59,4.9,59,4.7s0.1-0.3,0.3-0.4L60,4
	c0.1-0.1,0.3-0.1,0.4-0.1c0.2,0,0.3,0.1,0.4,0.3l0.3,0.4l0,0c0.2,0,0.3-0.1,0.5-0.1L61.9,4c0-0.2,0.1-0.3,0.3-0.4
	c0.1-0.1,0.3-0.1,0.5-0.1l0.5,0.2c0.2,0,0.3,0.1,0.4,0.3c0.1,0.1,0.1,0.3,0.1,0.5L63.8,5c0.2,0.1,0.3,0.2,0.4,0.3L64.6,5
	c0.1-0.1,0.3-0.1,0.5-0.1c0.2,0,0.3,0.1,0.4,0.3L66,5.8c0.1,0.1,0.1,0.3,0.1,0.5S66,6.7,65.7,6.8l-0.4,0.3c0,0.2,0.1,0.3,0.1,0.5
	L66,7.8c0.2,0,0.3,0.1,0.4,0.3c0.1,0.1,0.1,0.3,0.1,0.5l-0.1,0.7c0,0.2-0.1,0.3-0.3,0.4c-0.1,0.1-0.3,0.1-0.5,0.1L65,9.7
	c-0.1,0.2-0.2,0.3-0.3,0.4l0.3,0.4c0.1,0.1,0.1,0.3,0.1,0.5c0,0.2-0.1,0.3-0.3,0.4l-0.5,0.3l0,0C64.1,12,63.9,12,63.7,12
	s-0.3-0.1-0.4-0.3l-0.3-0.4l0,0c-0.2,0-0.3,0.1-0.5,0.1l-0.1,0.4c0,0.2-0.1,0.3-0.3,0.4C61.8,12.4,61.6,12.4,61.5,12.4L61.5,12.4z
	 M60,9.9c0.1,0,0.1,0,0.1,0.1c0.2,0.2,0.4,0.3,0.7,0.5c0.1,0,0.1,0.1,0.1,0.1s0,0.1,0,0.2l-0.2,0.8v0.1l0.7,0.1h0.1l0.2-0.8
	c0-0.1,0-0.1,0.1-0.2c0,0,0.1-0.1,0.2-0.1c0.3,0,0.5,0,0.9-0.1c0.1,0,0.1,0,0.2,0c0.1,0,0.1,0.1,0.1,0.1l0.4,0.7l0,0l0,0l0.5-0.3
	l0,0l0,0l-0.4-0.7l0,0c0-0.1,0-0.1,0-0.2c0-0.1,0-0.1,0.1-0.2c0.2-0.2,0.3-0.4,0.5-0.7c0-0.1,0.1-0.1,0.1-0.1c0.1,0,0.1,0,0.2,0
	l0.8,0.2h0.1l0.1-0.7V8.6L65,8.4c-0.1,0-0.1,0-0.2-0.1c0,0-0.1-0.1-0.1-0.2c0-0.3,0-0.5-0.1-0.9c0-0.1,0-0.1,0-0.2
	c0-0.1,0.1-0.1,0.1-0.1l0.7-0.4l0,0l0,0L65,5.9l0,0l0,0l-0.7,0.4l0,0c-0.1,0-0.1,0-0.2,0c-0.1,0-0.1,0-0.2-0.1
	c-0.2-0.2-0.4-0.3-0.7-0.5c-0.1,0-0.1-0.1-0.1-0.1c0-0.1,0-0.1,0-0.2l0.2-0.8V4.5l-0.7-0.1h-0.1L62.3,5c0,0.1,0,0.1-0.1,0.2
	c0,0-0.1,0.1-0.2,0.1c-0.3,0-0.5,0-0.9,0.1c-0.1,0-0.1,0-0.2,0c-0.1,0-0.1-0.1-0.1-0.1l-0.4-0.7l0,0l0,0L59.8,5l0,0l0,0l0.4,0.7
	c0,0.1,0,0.1,0,0.2c0,0.1,0,0.1-0.1,0.2c-0.2,0.2-0.3,0.4-0.5,0.7c0,0.1-0.1,0.1-0.1,0.1c-0.1,0-0.1,0-0.2,0l-0.8-0.2h-0.1l-0.1,0.7
	v0.1L59,7.7c0.1,0,0.1,0,0.2,0.1c0,0,0.1,0.1,0.1,0.2c0,0.3,0,0.5,0.1,0.9c0,0.1,0,0.1,0,0.2c0,0.1-0.1,0.1-0.1,0.1l-0.7,0.4l0,0
	l0,0l0,0l0.3,0.5l0,0l0,0l0.7-0.4C59.8,9.9,59.9,9.7,60,9.9L60,9.9z M61.7,9.6c-0.4-0.1-0.8-0.3-1.1-0.8c-0.3-0.4-0.3-0.9-0.2-1.3
	c0.1-0.4,0.3-0.8,0.8-1.1c0.3-0.2,0.9-0.3,1.3-0.2c0.4,0.1,0.8,0.3,1.1,0.8c0.3,0.4,0.3,0.9,0.2,1.3c-0.1,0.4-0.3,0.8-0.8,1.1
	C62.6,9.6,62.1,9.7,61.7,9.6z M62.3,6.9c-0.3-0.1-0.5,0-0.8,0.1c-0.2,0.1-0.4,0.4-0.4,0.7c-0.1,0.3,0,0.5,0.1,0.8
	c0.1,0.2,0.4,0.4,0.7,0.4c0.3,0.1,0.5,0,0.8-0.1s0.4-0.4,0.4-0.7c0.1-0.3,0-0.5-0.1-0.8C62.8,7.1,62.6,7,62.3,6.9L62.3,6.9z"/>
<path class="st9" d="M69,17.5l-0.5-0.1c-0.1,0-0.2-0.1-0.3-0.2C68,17.1,68,16.9,68,16.8l0.1-0.4c-0.1-0.1-0.2-0.2-0.4-0.3l-0.4,0.2
	c-0.1,0.1-0.3,0.1-0.4,0.1c-0.1,0-0.2-0.1-0.3-0.2l-0.3-0.4l0,0c-0.1-0.1-0.1-0.3-0.1-0.4s0.1-0.2,0.2-0.3l0.4-0.2l0,0
	c0-0.1-0.1-0.3-0.1-0.4l-0.4-0.1c-0.1,0-0.2-0.1-0.3-0.2c-0.1-0.1-0.1-0.3-0.1-0.4l0.1-0.5c0-0.1,0.1-0.2,0.2-0.3
	c0.1-0.1,0.3-0.1,0.4-0.1l0.4,0.1c0.1-0.1,0.2-0.2,0.3-0.4l0.1-0.5c-0.1-0.1-0.1-0.3-0.1-0.4s0.1-0.2,0.2-0.3l0.4-0.3
	c0.1-0.1,0.3-0.1,0.4-0.1c0.1,0,0.2,0.1,0.3,0.2l0.2,0.4l0,0c0.1,0,0.3-0.1,0.4-0.1l0.1-0.4c0-0.1,0.1-0.2,0.2-0.3s0.3-0.1,0.4-0.1
	l0.5,0.1c0.1,0,0.2,0.1,0.3,0.2c0.1,0.1,0.1,0.3,0.1,0.4L71,11.3c0.1,0.1,0.2,0.2,0.4,0.3l0.4-0.2c0.1-0.1,0.3-0.1,0.4-0.1
	c0.1,0,0.2,0.1,0.3,0.2l0.3,0.4c0.1,0.1,0.1,0.3,0.1,0.4c0,0.1-0.1,0.2-0.2,0.3l-0.4,0.2c0,0.1,0.1,0.3,0.1,0.4l0.4,0.1
	c0.1,0,0.2,0.1,0.3,0.2c0.1,0.1,0.1,0.3,0.1,0.4L73.2,15c0,0.1-0.1,0.2-0.2,0.3c-0.1,0.1-0.3,0.1-0.4,0.1l-0.4-0.1
	c-0.1,0.1-0.2,0.2-0.3,0.4l0.2,0.4c0.1,0.1,0.1,0.3,0.1,0.4S72,16.9,71.9,17l-0.4,0.3l0,0c-0.1,0.1-0.3,0.1-0.4,0.1
	s-0.2-0.1-0.3-0.2l-0.2-0.4l0,0c-0.1,0-0.3,0.1-0.4,0.1l-0.3,0.2c0,0.1-0.1,0.2-0.2,0.3C69.4,17.5,69.2,17.5,69,17.5L69,17.5z
	 M67.9,15.3c0,0,0.1,0,0.1,0.1c0.2,0.2,0.3,0.3,0.5,0.4l0.1,0.1c0,0,0,0.1,0,0.2l-0.2,0.7c0,0,0,0,0,0.1l0.5,0.1c0,0,0,0,0.1,0
	l0.2-0.7c0-0.1,0-0.1,0.1-0.1h0.1c0.2,0,0.4,0,0.8-0.1c0.1,0,0.1,0,0.2,0l0.1,0.1l0.3,0.5l0,0l0,0l0.4-0.3l0,0l0,0L71.1,16l0,0
	c0,0,0-0.1,0-0.2c0-0.1,0-0.1,0.1-0.1c0.2-0.2,0.3-0.3,0.4-0.5l0.1-0.1c0,0,0.1,0,0.2,0l0.7,0.2c0,0,0,0,0.1,0l0.1-0.5
	c0,0,0,0,0-0.1l-0.7-0.2c-0.1,0-0.1,0-0.1-0.1v-0.1c0-0.2,0-0.4-0.1-0.8c0-0.1,0-0.1,0-0.2l0.1-0.1l0.5-0.3l0,0l0,0l-0.3-0.4l0,0
	l0,0l-0.5,0.3l0,0c0,0-0.1,0-0.2,0c-0.1,0-0.1,0-0.1-0.1c-0.2-0.2-0.3-0.3-0.5-0.4l-0.1-0.1c0,0,0-0.1,0-0.2l0.2-0.7c0,0,0,0,0-0.1
	l-0.5-0.1c0,0,0,0-0.1,0l-0.2,0.7c0,0.1,0,0.1-0.1,0.1c-0.1,0-0.1,0-0.1,0c-0.2,0-0.4,0-0.8,0.1c-0.1,0-0.1,0-0.2,0l-0.1-0.1
	l-0.3-0.5l0,0l0,0L68,11.4l0,0l0,0l0.3,0.5c0,0,0,0.1,0,0.2s0,0.1-0.1,0.1c-0.2,0.2-0.3,0.3-0.4,0.5l-0.1,0.1c0,0-0.1,0-0.2,0
	l-0.8-0.2c0,0,0,0-0.1,0l-0.1,0.5c0,0,0,0,0,0.1l0.7,0.2c0.1,0,0.1,0,0.1,0.1v0.1c0,0.2,0,0.4,0.1,0.8c0,0.1,0,0.1,0,0.2l-0.1,0.1
	l-0.5,0.3l0,0l0,0l0,0l0.3,0.4l0,0l0,0l0.5-0.3C67.8,15.3,67.8,15.3,67.9,15.3L67.9,15.3z M69.4,15.2c-0.3-0.1-0.7-0.3-0.9-0.7
	c-0.2-0.3-0.2-0.7-0.1-1.1c0.1-0.3,0.3-0.7,0.7-0.9c0.3-0.2,0.7-0.2,1.1-0.1c0.3,0.1,0.7,0.3,0.9,0.7c0.2,0.3,0.2,0.7,0.1,1.1
	c-0.1,0.3-0.3,0.7-0.7,0.9C70.1,15.2,69.7,15.3,69.4,15.2z M69.9,12.9c-0.2-0.1-0.4,0-0.7,0.1c-0.2,0.1-0.3,0.3-0.4,0.5
	c-0.1,0.2,0,0.4,0.1,0.7s0.3,0.3,0.5,0.4c0.2,0.1,0.4,0,0.7-0.1c0.2-0.1,0.3-0.3,0.4-0.5c0.1-0.2,0-0.4-0.1-0.7S70.1,13,69.9,12.9
	L69.9,12.9z"/>
<path class="st10" d="M69.4,10.1h-0.4c-0.1,0-0.2,0-0.3-0.1c-0.1-0.1-0.1-0.2-0.1-0.3V9.3c-0.1,0-0.2-0.1-0.3-0.1l-0.3,0.2
	c-0.1,0.1-0.2,0.1-0.3,0.1c-0.1,0-0.2,0-0.3-0.1l-0.3-0.3l0,0c-0.1-0.1-0.1-0.2-0.1-0.3s0-0.2,0.1-0.3l0.2-0.2l0,0
	c-0.1-0.1-0.1-0.2-0.1-0.3h-0.3c-0.1,0-0.2,0-0.3-0.1c-0.1-0.1-0.1-0.2-0.1-0.3V7c0-0.1,0-0.2,0.1-0.3c0.1-0.1,0.2-0.1,0.3-0.1h0.3
	c0-0.1,0.1-0.2,0.1-0.3L66.8,6c-0.1-0.1-0.1-0.2-0.1-0.3c0-0.1,0-0.2,0.1-0.3L67.2,5c0.1-0.1,0.2-0.1,0.3-0.1c0.1,0,0.2,0,0.3,0.1
	L68,5.2l0,0c0.1-0.1,0.2-0.1,0.3-0.1V4.8c0-0.1,0-0.2,0.1-0.3c0.1-0.1,0.2-0.1,0.3-0.1h0.4c0.1,0,0.2,0,0.3,0.1
	c0.1,0.1,0.1,0.2,0.1,0.3v0.3c0.1,0,0.2,0.1,0.3,0.1L70.2,5c0.1-0.1,0.2-0.1,0.3-0.1c0.1,0,0.2,0,0.3,0.1l0.3,0.3
	c0.1,0.1,0.1,0.2,0.1,0.3c0,0.1,0,0.2-0.1,0.3L71,6.2c0.1,0.1,0.1,0.2,0.1,0.3h0.3c0.1,0,0.2,0,0.3,0.1c0.1,0.1,0.1,0.2,0.1,0.3v0.4
	c0,0.1,0,0.2-0.1,0.3c-0.1,0.1-0.2,0.1-0.3,0.1h-0.3C71.1,8,71,8.1,71,8.2l0.2,0.2c0.1,0.1,0.1,0.2,0.1,0.3c0,0.1,0,0.2-0.1,0.3
	L71,9.4l0,0c-0.1,0.1-0.2,0.1-0.3,0.1c-0.1,0-0.2,0-0.3-0.1l-0.2-0.2l0,0c-0.1,0.1-0.2,0.1-0.3,0.1v0.3c0,0.1,0,0.2-0.1,0.3
	C69.6,10.1,69.5,10.1,69.4,10.1L69.4,10.1z M68,8.8C68.2,8.8,68.2,8.8,68,8.8C68.3,8.9,68.5,9,68.7,9c0,0,0.1,0,0.1,0.1v0.1v0.5l0,0
	h0.4l0,0V9.2V9.1L69.4,9c0.2,0,0.3-0.1,0.5-0.2H70c0,0,0.1,0,0.1,0.1l0.3,0.3l0,0l0,0l0.3-0.3l0,0l0,0l-0.3-0.3l0,0
	c0,0,0-0.1-0.1-0.1V8.3c0.1-0.1,0.2-0.3,0.2-0.5c0,0,0-0.1,0.1-0.1h0.1h0.5l0,0V7.2l0,0H71h-0.1l-0.1-0.1c0-0.2-0.1-0.3-0.2-0.5V6.5
	c0,0,0-0.1,0.1-0.1L71,6l0,0l0,0l-0.3-0.3l0,0l0,0L70.3,6l0,0c0,0-0.1,0-0.1,0.1h-0.1C70,6,69.8,5.9,69.6,5.9c0,0-0.1,0-0.1-0.1V5.7
	V4.8l0,0H69l0,0v0.5v0.1l-0.1,0.1c-0.2,0-0.3,0.1-0.5,0.2h-0.1c0,0-0.1,0-0.1-0.1l-0.3-0.3l0,0l0,0l-0.3,0.3l0,0l0,0L67.8,6
	c0,0,0,0.1,0.1,0.1v0.1c-0.1,0.1-0.2,0.3-0.2,0.5c0,0,0,0.1-0.1,0.1h-0.1h-0.5l0,0v0.4l0,0h0.5h0.1l0.1,0.1c0,0.2,0.1,0.3,0.2,0.5
	v0.1c0,0,0,0.1-0.1,0.1l-0.3,0.3l0,0l0,0l0,0l0.3,0.3l0,0l0,0l0.3-0.3C67.9,8.8,68,8.8,68,8.8L68,8.8z M69.1,8.3
	c-0.3,0-0.5-0.1-0.8-0.3C68.2,7.8,68,7.6,68,7.2c0-0.3,0.1-0.5,0.3-0.8c0.2-0.2,0.4-0.3,0.8-0.3c0.3,0,0.5,0.1,0.8,0.3
	c0.2,0.2,0.3,0.4,0.3,0.8c0,0.3-0.1,0.5-0.3,0.8C69.7,8.2,69.5,8.3,69.1,8.3z M69.1,6.6c-0.2,0-0.3,0.1-0.5,0.2
	c-0.1,0.1-0.2,0.3-0.2,0.5s0.1,0.3,0.2,0.5c0.1,0.1,0.3,0.2,0.5,0.2c0.2,0,0.3-0.1,0.5-0.2c0.1-0.1,0.2-0.3,0.2-0.5S69.8,7,69.7,6.8
	C69.5,6.6,69.4,6.6,69.1,6.6L69.1,6.6z"/>
</svg>
