<?xml version="1.0" encoding="utf-8"?>
<!-- Generator: Adobe Illustrator 24.3.0, SVG Export Plug-In . SVG Version: 6.00 Build 0)  -->
<svg version="1.1" id="Layer_1" xmlns="http://www.w3.org/2000/svg" xmlns:xlink="http://www.w3.org/1999/xlink" x="0px" y="0px"
	 viewBox="0 0 21 23.8" style="enable-background:new 0 0 21 23.8;" xml:space="preserve">
<style type="text/css">
	.st0{clip-path:url(#SVGID_2_);fill:#28739E;}
	.st1{fill:#394557;}
	.st2{enable-background:new    ;}
	.st3{fill:#FFFFFF;}
</style>
<g>
	<g>
		<g>
			<defs>
				<rect id="SVGID_1_" width="21" height="23.8"/>
			</defs>
			<clipPath id="SVGID_2_">
				<use xlink:href="#SVGID_1_"  style="overflow:visible;"/>
			</clipPath>
			<path class="st0" d="M0.9,0.9h19.3v22H0.9V0.9z M0,23.8h21V0H0V23.8z"/>
		</g>
	</g>
</g>
<g>
	<path class="st1" d="M13.3,7.8V6.2H5.2V16h1.6h6.5C13.3,16,13.3,7.8,13.3,7.8z M5.9,7h6.6v8.3H5.9V7z"/>
	<rect x="7.9" y="9.2" class="st1" width="2.6" height="0.6"/>
	<rect x="7.9" y="10.8" class="st1" width="2.6" height="0.6"/>
	<rect x="7.9" y="12.4" class="st1" width="2.6" height="0.6"/>
</g>
<g>
	<circle class="st1" cx="12.8" cy="15.7" r="3.2"/>
</g>
<g class="st2">
	<path class="st3" d="M11.9,13.9h0.9c0.4,0,0.8,0.1,0.9,0.2s0.3,0.3,0.3,0.6c0,0.2-0.1,0.4-0.2,0.5c-0.1,0.1-0.3,0.2-0.5,0.2v0
		c0.2,0,0.4,0.1,0.6,0.3c0.1,0.1,0.2,0.3,0.2,0.5c0,0.3-0.1,0.5-0.3,0.7c-0.2,0.2-0.5,0.2-0.8,0.2h-1.1V13.9z M12.3,15.3h0.6
		c0.3,0,0.4,0,0.6-0.1c0.1-0.1,0.2-0.2,0.2-0.4c0-0.2-0.1-0.3-0.2-0.4c-0.1-0.1-0.3-0.1-0.6-0.1h-0.5V15.3z M12.3,15.6v1.2h0.7
		c0.3,0,0.5,0,0.6-0.2c0.1-0.1,0.2-0.3,0.2-0.5c0-0.2-0.1-0.3-0.2-0.4s-0.3-0.1-0.6-0.1H12.3z"/>
</g>
</svg>
