<svg id="Layer_1" data-name="Layer 1" xmlns="http://www.w3.org/2000/svg" xmlns:xlink="http://www.w3.org/1999/xlink" viewBox="0 0 110 62"><defs><style>.cls-1,.cls-2,.cls-3{fill:none;}.cls-2,.cls-3{clip-rule:evenodd;}.cls-3{clip-path:url(#clip-path);}.cls-4{fill:#e5e5e5;}.cls-5{fill:#fff;}.cls-6{fill:#344456;}.cls-7{clip-path:url(#clip-path-2);}.cls-8{clip-path:url(#clip-path-3);}.cls-9{isolation:isolate;}.cls-10{clip-path:url(#clip-path-4);}.cls-11{clip-path:url(#clip-path-5);}.cls-12{clip-path:url(#clip-path-6);}.cls-13{fill:#271314;}.cls-14{clip-path:url(#clip-path-7);}.cls-15{clip-path:url(#clip-path-9);}.cls-16{clip-path:url(#clip-path-10);}.cls-17,.cls-22{fill:#e1bf98;}.cls-18,.cls-37{fill:#c94b2f;}.cls-18,.cls-19,.cls-22,.cls-23{fill-rule:evenodd;}.cls-19{fill:#f37540;opacity:0.3;}.cls-20{clip-path:url(#clip-path-12);}.cls-21,.cls-23{fill:#d7af8d;}.cls-24{clip-path:url(#clip-path-14);}.cls-25{fill:#e3cca2;}.cls-26{clip-path:url(#clip-path-16);}.cls-27{clip-path:url(#clip-path-18);}.cls-28{clip-path:url(#clip-path-20);}.cls-29{clip-path:url(#clip-path-22);}.cls-30{clip-path:url(#clip-path-24);}.cls-31{fill:#5e5e5e;}.cls-32{clip-path:url(#clip-path-26);}.cls-33{fill:#503c3c;}.cls-34{fill:#f2f2f2;}.cls-35{clip-path:url(#clip-path-28);}.cls-36{fill:#093d4c;}</style><clipPath id="clip-path"><path id="SVGID" class="cls-2" d="M54.89,35.73A6,6,0,0,1,50.23,34l-.8-.75a7.55,7.55,0,0,1-2.28-4.47c0-.27-.07-.54-.1-.82-.08-.86-.13-1.74-.13-2.6V17.5a7.89,7.89,0,0,1,1.8-5h0a7.85,7.85,0,0,1,.79-.84h0a9.78,9.78,0,0,1,4.2-1.36,10.54,10.54,0,0,1,6.53,1.36l0,0a7,7,0,0,1,.75.79h0a7.93,7.93,0,0,1,1.83,5.07"/></clipPath><clipPath id="clip-path-2"><rect id="SVGID-2" data-name="SVGID" class="cls-1" x="41.79" y="8.2" width="26.02" height="30.49"/></clipPath><clipPath id="clip-path-3"><rect id="SVGID-3" data-name="SVGID" class="cls-1" x="31.98" y="7.09" width="46.58" height="55.45"/></clipPath><clipPath id="clip-path-4"><rect id="SVGID-4" data-name="SVGID" class="cls-1" x="38.63" y="5.98" width="32.16" height="33.27"/></clipPath><clipPath id="clip-path-5"><path id="SVGID-5" data-name="SVGID" class="cls-2" d="M66,35.38a9.38,9.38,0,0,1-4.16,2.8h0a9.42,9.42,0,0,1-3,.49H51.25A9.89,9.89,0,0,1,48,38.12a9.73,9.73,0,0,1-4.16-2.86c-4.28-5-2.19-25.87,9.89-27C68.35,6.88,69.87,30.82,66,35.38"/></clipPath><clipPath id="clip-path-6"><rect id="SVGID-6" data-name="SVGID" class="cls-1" x="40.85" y="8.19" width="27.73" height="31.05"/></clipPath><clipPath id="clip-path-7"><rect id="SVGID-7" data-name="SVGID" class="cls-1" x="31.98" y="30.21" width="45.83" height="32.14"/></clipPath><clipPath id="clip-path-9"><rect id="SVGID-9" data-name="SVGID" class="cls-1" x="31.98" y="29.27" width="46.58" height="33.27"/></clipPath><clipPath id="clip-path-10"><path id="SVGID-10" data-name="SVGID" class="cls-2" d="M77.81,58.81v3.55H32V58.81c0-6.45.8-14.24,7.16-15.37l4.68-1a6.16,6.16,0,0,0,2.25-.88A6,6,0,0,0,48,39.67a6.24,6.24,0,0,0,1-3.43v-6H60.78v6a6.35,6.35,0,0,0,2.94,5.32,6.42,6.42,0,0,0,2.24.87l4.68,1c6.36,1.13,7.17,8.92,7.17,15.37"/></clipPath><clipPath id="clip-path-12"><path id="SVGID-12" data-name="SVGID" class="cls-2" d="M60.78,30.21v4.56c-.14.15-.28.3-.43.44l-.79.75a6,6,0,0,1-4.67,1.77A6,6,0,0,1,50.23,36l-.8-.75c-.15-.14-.29-.29-.43-.44V30.21Z"/></clipPath><clipPath id="clip-path-14"><path id="SVGID-14" data-name="SVGID" class="cls-3" d="M62.87,17.5v7.83q0,1.05-.09,2.1v0c0,.44-.08.88-.14,1.3a7.56,7.56,0,0,1-2.29,4.47l-.79.75a6,6,0,0,1-4.67,1.76"/></clipPath><clipPath id="clip-path-16"><path id="SVGID-16" data-name="SVGID" class="cls-2" d="M62.87,17.5v7.83q0,1.05-.09,2.1a16.29,16.29,0,0,0-2.41-6.91,8.2,8.2,0,0,1-1.26-4.37v-2.9L59,15.49a5,5,0,0,1-3.27,4.32l-2.68,1a9.26,9.26,0,0,0-6,7.14c-.08-.86-.13-1.74-.13-2.6V17.5a7.89,7.89,0,0,1,1.8-5h0a7.85,7.85,0,0,1,.79-.84h0a9.78,9.78,0,0,1,4.2-1.36,10.54,10.54,0,0,1,6.53,1.36l0,0a7,7,0,0,1,.75.79h0a7.93,7.93,0,0,1,1.83,5.07"/></clipPath><clipPath id="clip-path-18"><path id="SVGID-18" data-name="SVGID" class="cls-2" d="M62.2,22.5c-.32-.4-.93-.57-2.09-.57h-.23c-2.44,0-3.68.51-3.68,1.41a3.17,3.17,0,0,0,.09.67c.28-.68,1.48-1,3.59-1.08h.23c1.16,0,1.77.17,2.09.57a1.19,1.19,0,0,1,.24.56l0,0a2.21,2.21,0,0,0-.28-1.54"/></clipPath><clipPath id="clip-path-20"><path id="SVGID-20" data-name="SVGID" class="cls-2" d="M49.91,21.93h-.24c-1.16,0-1.76.17-2.09.57a2.36,2.36,0,0,0-.26,1.74,1.55,1.55,0,0,1,.26-.74c.33-.41.93-.57,2.09-.57h.24c2.09,0,3.3.39,3.59,1.06a3,3,0,0,0,.08-.65c0-.9-1.24-1.37-3.67-1.41"/></clipPath><clipPath id="clip-path-22"><polygon id="SVGID-22" data-name="SVGID" class="cls-2" points="31.98 51.01 31.98 62.35 77.81 62.35 77.81 51.01 77.81 39.67 31.98 39.67 31.98 51.01"/></clipPath><clipPath id="clip-path-24"><path id="SVGID-24" data-name="SVGID" class="cls-2" d="M63.41,21.48H59.87a9.9,9.9,0,0,0-2.7.34l-.23.07a6.5,6.5,0,0,1-1.76.24H54.6a6.48,6.48,0,0,1-1.75-.24l-.24-.07a9.85,9.85,0,0,0-2.7-.34H46.37a.58.58,0,0,0-.59.59v.24a.73.73,0,0,0,.37.64,1.15,1.15,0,0,1,.53.74L47,25.05a.08.08,0,0,1,0,0c.48,2.14,2.72,1.9,3.63,1.9a3.45,3.45,0,0,0,3.09-2.2h0l.54-1.21a.69.69,0,0,1,1.26,0l.54,1.21h0A3.45,3.45,0,0,0,59.15,27c.92,0,3.16.24,3.63-1.9,0,0,0,0,0,0l.31-1.36a1.13,1.13,0,0,1,.54-.74.74.74,0,0,0,.36-.64v-.24a.58.58,0,0,0-.59-.59M50.63,26.37H50c-1.48,0-2.18-.41-2.4-1.41a3,3,0,0,1,.1-2.35c.29-.36.86-.51,2-.51h.23c1.6,0,3.51.26,3.51,1.24a3,3,0,0,1-2.78,3M62.17,25c-.22,1-.92,1.41-2.4,1.41h-.62a3,3,0,0,1-2.78-3c0-1,1.91-1.22,3.51-1.24h.23c1.1,0,1.67.15,2,.51a3,3,0,0,1,.1,2.35"/></clipPath><clipPath id="clip-path-26"><path id="SVGID-26" data-name="SVGID" class="cls-2" d="M66,35.38a9.38,9.38,0,0,1-4.16,2.8,11.37,11.37,0,0,0,1.32-8.09,10.65,10.65,0,0,1-.25-2.26v-.67a16.18,16.18,0,0,0-2.5-8.63,8.24,8.24,0,0,1-1.26-4.38v-2.9L59,13.49a5,5,0,0,1-3.27,4.33L53,18.8a9.25,9.25,0,0,0-6.08,8.69v1c0,3.14-1.7,5.51,1.06,9.64a9.73,9.73,0,0,1-4.16-2.86c-4.28-5-2.19-25.87,9.89-27C68.35,6.88,69.87,30.82,66,35.38"/></clipPath><clipPath id="clip-path-28"><path class="cls-2" d="M32.61,5.41V8.26a.4.4,0,0,1-.4.4H29.36A.4.4,0,0,1,29.08,8L30,7.1a3.25,3.25,0,0,0-5,.67,5.58,5.58,0,0,0-.34.75.18.18,0,0,1-.19.14H23.18a.2.2,0,0,1-.21-.2v0A4.85,4.85,0,0,1,27.74,4.6,4.9,4.9,0,0,1,31.1,6l.82-.82a.4.4,0,0,1,.69.28Zm-.15,5.08a.07.07,0,0,1,0,0A4.85,4.85,0,0,1,24.37,13l-.82.82a.42.42,0,0,1-.28.12.41.41,0,0,1-.41-.41V10.7a.41.41,0,0,1,.41-.41h2.84a.41.41,0,0,1,.41.41.42.42,0,0,1-.12.28l-.87.87a3.24,3.24,0,0,0,5-.67,6,6,0,0,0,.33-.74.2.2,0,0,1,.19-.15h1.22A.21.21,0,0,1,32.46,10.49Z"/></clipPath></defs><title>Managing_Change 2.0</title><rect class="cls-4" x="75.18" y="39.78" width="27.32" height="22.46"/><rect class="cls-5" x="74.35" y="38.95" width="27.32" height="23.29"/><rect class="cls-6" x="78.75" y="44.34" width="8.68" height="1.52" transform="translate(166.18 90.19) rotate(180)"/><rect class="cls-6" x="78.75" y="47.69" width="18.52" height="1.52"/><rect class="cls-6" x="78.75" y="51.04" width="17.97" height="1.52"/><rect class="cls-6" x="78.75" y="54.4" width="18.52" height="1.52"/><rect class="cls-6" x="78.75" y="57.71" width="18.52" height="1.52"/><rect class="cls-6" x="78.75" y="57.71" width="18.52" height="1.52"/><rect class="cls-6" x="78.75" y="61.02" width="18.52" height="1.22"/><rect id="SVGID-28" data-name="SVGID" class="cls-1" x="71.34" y="35.81" width="37.34" height="26.43"/><g class="cls-7"><g class="cls-8"><g class="cls-9"><g class="cls-10"><g class="cls-11"><g class="cls-12"><rect class="cls-13" x="36.24" y="2.65" width="37.11" height="41.58"/></g></g></g></g></g></g><g class="cls-14"><g class="cls-8"><g class="cls-9"><g class="cls-15"><g class="cls-16"><g class="cls-15"><rect class="cls-17" x="26.43" y="24.67" width="56.92" height="43.24"/></g></g></g></g></g></g><path id="SVGID-29" data-name="SVGID" class="cls-18" d="M43.82,42.43l-3.3.71V62.35H69.26V43.14L66,42.43a6.46,6.46,0,0,1-2.1-.78,24,24,0,0,1-9,16.4,24,24,0,0,1-9-16.37,6.17,6.17,0,0,1-2,.75"/><path class="cls-19" d="M41,43l-.48.1V62.35h5.09A34.44,34.44,0,0,1,41,43Z"/><path class="cls-18" d="M69.26,51.14v-8L66,42.43l-.16,0A33.55,33.55,0,0,1,69.26,51.14Z"/><g class="cls-20"><g class="cls-8"><rect class="cls-21" x="43.46" y="24.66" width="22.87" height="18.61"/></g></g><path id="SVGID-30" data-name="SVGID" class="cls-22" d="M62.87,17.5v7.83q0,1.05-.09,2.1v0c0,.44-.08.88-.14,1.3a7.56,7.56,0,0,1-2.29,4.47l-.79.75a6,6,0,0,1-4.67,1.76A6,6,0,0,1,50.23,34l-.8-.75a7.55,7.55,0,0,1-2.28-4.47c0-.27-.07-.54-.1-.82-.08-.86-.13-1.74-.13-2.6V17.5a7.89,7.89,0,0,1,1.8-5h0a7.85,7.85,0,0,1,.79-.84h0a9.78,9.78,0,0,1,4.2-1.36,10.54,10.54,0,0,1,6.53,1.36l0,0a7,7,0,0,1,.75.79h0a7.93,7.93,0,0,1,1.83,5.07"/><path id="SVGID-31" data-name="SVGID" class="cls-23" d="M54.89,35.73A6,6,0,0,1,50.23,34l-.8-.75a7.55,7.55,0,0,1-2.28-4.47c0-.27-.07-.54-.1-.82-.08-.86-.13-1.74-.13-2.6V17.5a7.89,7.89,0,0,1,1.8-5h0a7.85,7.85,0,0,1,.79-.84h0a9.78,9.78,0,0,1,4.2-1.36q.6-.06,1.17-.06V23.54l-.59,3.88.59,1Z"/><g class="cls-24"><g class="cls-8"><rect class="cls-25" x="41.37" y="4.64" width="27.04" height="36.63"/></g></g><g class="cls-26"><g class="cls-8"><rect class="cls-21" x="41.37" y="4.64" width="27.04" height="28.83"/></g></g><g class="cls-27"><g class="cls-8"><rect class="cls-21" x="50.66" y="16.39" width="17.39" height="13.21"/></g></g><g class="cls-28"><g class="cls-8"><rect class="cls-21" x="41.73" y="16.39" width="17.39" height="13.4"/></g></g><g class="cls-30"><g class="cls-8"><rect class="cls-31" x="40.23" y="15.93" width="29.31" height="16.61"/></g></g><g class="cls-32"><g class="cls-8"><rect class="cls-33" x="36.24" y="2.65" width="37.11" height="41.08"/></g></g><path class="cls-34" d="M38.44,18.23l0-2.55h0V3.2a.8.8,0,0,0-.8-.8H18.41a.79.79,0,0,0-.79.8V15.74a.8.8,0,0,0,.8.8H36.85Z"/><polygon class="cls-23" points="58.47 30.74 54.1 30.74 54.1 31.83 58.47 30.74"/><g class="cls-35"><rect class="cls-36" x="21.59" y="3.33" width="12.28" height="12.28"/></g><path class="cls-37" d="M32.24,53.52S30.05,44.58,41.33,43l-.81,11.45Z"/><path class="cls-37" d="M68.86,43.05s8.75.3,8.75,10.3L69.26,54.7Z"/></svg>