<?xml version="1.0" encoding="utf-8"?>
<!-- Generator: Adobe Illustrator 22.0.1, SVG Export Plug-In . SVG Version: 6.00 Build 0)  -->
<svg version="1.1" id="Layer_1" xmlns="http://www.w3.org/2000/svg" xmlns:xlink="http://www.w3.org/1999/xlink" x="0px" y="0px"
	 viewBox="0 0 210 80" style="enable-background:new 0 0 210 80;" xml:space="preserve">
<style type="text/css">
	.st0{fill:#334456;}
</style>
<g>
	<polygon class="st0" points="0,53.7 0,27.2 3.3,27.2 3.3,25.6 11.6,25.6 16.5,30.5 16.5,53.7 18.2,53.7 19.8,53.7 19.8,43.8 
		24.8,43.8 24.8,5.7 38.1,2.3 38.1,4 39.7,4 39.7,40.5 41.4,40.5 41.4,53.7 44.7,53.7 44.7,27.2 51.3,17.3 56.3,17.3 62.9,27.2 
		62.9,62 64.6,62 64.6,65.3 66.3,65.3 66.3,43.8 69.6,42.1 81.2,42.1 81.2,55.4 84.5,55.4 84.5,57 87.8,57 87.8,60.4 89.5,60.4 
		89.5,40.5 96.1,35.5 96.1,22.2 101.1,22.2 101.1,20.6 106.1,18.9 106.1,20.6 111,20.6 111,67 112.7,67 112.7,55.4 114.3,40.5 
		122.6,40.5 125.9,38.8 125.9,27.2 142.5,25.6 142.5,63.7 144.2,63.7 144.2,67 147.5,67 147.5,63.7 152.5,63.7 152.5,28.9 
		155.8,22.2 159.1,22.2 162.4,27.2 162.4,37.2 165.7,37.2 165.7,40.5 172.4,40.5 172.4,65.3 175.7,65.3 175.7,80 0.1,79.9 	"/>
	<polygon class="st0" points="175,54.2 175,79.9 194,80 194,69.2 194,54.2 	"/>
	<polygon class="st0" points="209.5,69.7 194,69.7 194,80 209.5,79.9 	"/>
</g>
</svg>
