<?xml version="1.0" encoding="utf-8"?>
<!-- Generator: Adobe Illustrator 25.2.1, SVG Export Plug-In . SVG Version: 6.00 Build 0)  -->
<svg version="1.1" id="Layer_1" xmlns="http://www.w3.org/2000/svg" xmlns:xlink="http://www.w3.org/1999/xlink" x="0px" y="0px"
	 viewBox="0 0 21 23.8" style="enable-background:new 0 0 21 23.8;" xml:space="preserve">
<style type="text/css">
	.st0{clip-path:url(#SVGID_2_);fill:#28739E;}
	.st1{fill:#394557;}
	.st2{fill:#344456;}
</style>
<g>
	<g>
		<g>
			<defs>
				<rect id="SVGID_1_" width="21" height="23.8"/>
			</defs>
			<clipPath id="SVGID_2_">
				<use xlink:href="#SVGID_1_"  style="overflow:visible;"/>
			</clipPath>
			<path class="st0" d="M0.9,0.9h19.3v22H0.9V0.9z M0,23.8h21V0H0V23.8z"/>
		</g>
	</g>
</g>
<g>
	<path class="st1" d="M15.6,8.2v-2H5.2v12.4h2h8.3C15.6,18.6,15.6,8.2,15.6,8.2z M6.1,7.2h8.4v10.5H6.1V7.2z"/>
	<rect x="8.7" y="10" class="st1" width="3.3" height="0.8"/>
	<rect x="8.7" y="12" class="st1" width="3.3" height="0.8"/>
	<rect x="8.7" y="14" class="st1" width="3.3" height="0.8"/>
</g>
<path class="st2" d="M12.8,8.6l3.4-5.4L17,3.7l-3.4,5.4L12.8,8.6z M17.6,3.5l-1.5-0.9l-3.8,6.1l1.5,0.9L17.6,3.5z"/>
<polygon class="st2" points="13.7,9.6 12.3,8.7 12.3,10.3 "/>
</svg>
