<?xml version="1.0" encoding="utf-8"?>
<!-- Generator: Adobe Illustrator 23.0.6, SVG Export Plug-In . SVG Version: 6.00 Build 0)  -->
<svg version="1.1" id="Layer_1" xmlns="http://www.w3.org/2000/svg" xmlns:xlink="http://www.w3.org/1999/xlink" x="0px" y="0px"
	 viewBox="0 0 110 62" style="enable-background:new 0 0 110 62;" xml:space="preserve">
<style type="text/css">
	.st0{fill:#E5E5E5;}
	.st1{fill:#FFFFFF;}
	.st2{fill:#344456;}
	.st3{fill:none;}
	.st4{clip-path:url(#SVGID_3_);}
	.st5{clip-path:url(#SVGID_4_);enable-background:new    ;}
	.st6{clip-path:url(#SVGID_5_);}
	.st7{clip-path:url(#SVGID_7_);}
	.st8{clip-path:url(#SVGID_8_);fill:#271314;}
	.st9{clip-path:url(#SVGID_9_);}
	.st10{clip-path:url(#SVGID_10_);enable-background:new    ;}
	.st11{clip-path:url(#SVGID_11_);}
	.st12{clip-path:url(#SVGID_12_);}
	.st13{clip-path:url(#SVGID_13_);fill:#E1BF98;}
	.st14{fill-rule:evenodd;clip-rule:evenodd;fill:#24739E;}
	.st15{opacity:0.3;fill-rule:evenodd;clip-rule:evenodd;fill:#3BBFE2;}
	.st16{clip-path:url(#SVGID_14_);}
	.st17{clip-path:url(#SVGID_15_);fill:#D7AF8D;}
	.st18{fill-rule:evenodd;clip-rule:evenodd;fill:#E1BF98;}
	.st19{fill-rule:evenodd;clip-rule:evenodd;fill:#D7AF8D;}
	.st20{clip-path:url(#SVGID_16_);}
	.st21{clip-path:url(#SVGID_17_);}
	.st22{clip-path:url(#SVGID_18_);fill:#E3CCA2;}
	.st23{clip-path:url(#SVGID_19_);}
	.st24{clip-path:url(#SVGID_20_);fill:#D7AF8D;}
	.st25{clip-path:url(#SVGID_21_);}
	.st26{clip-path:url(#SVGID_22_);fill:#D7AF8D;}
	.st27{clip-path:url(#SVGID_25_);}
	.st28{clip-path:url(#SVGID_27_);fill:#D7AF8D;}
	.st29{clip-path:url(#SVGID_28_);}
	.st30{clip-path:url(#SVGID_29_);enable-background:new    ;}
	.st31{fill:none;stroke:#B96D62;stroke-width:0.4;stroke-linecap:round;stroke-miterlimit:10;}
	.st32{clip-path:url(#SVGID_31_);}
	.st33{clip-path:url(#SVGID_32_);fill:#5E5E5E;}
	.st34{clip-path:url(#SVGID_33_);}
	.st35{clip-path:url(#SVGID_34_);fill:#503C3C;}
	.st36{fill:#F2F2F2;}
	.st37{fill:#24739E;}
</style>
<g>
	<rect x="75.2" y="39.8" class="st0" width="27.3" height="22.5"/>
	<rect x="74.4" y="39" class="st1" width="27.3" height="23.3"/>
	<g>
		
			<rect x="78.7" y="44.3" transform="matrix(-1 -1.224647e-16 1.224647e-16 -1 166.1817 90.1911)" class="st2" width="8.7" height="1.5"/>
		<rect x="78.7" y="47.7" class="st2" width="18.5" height="1.5"/>
		<rect x="78.7" y="51" class="st2" width="18" height="1.5"/>
		<rect x="78.7" y="54.4" class="st2" width="18.5" height="1.5"/>
		<rect x="78.7" y="57.7" class="st2" width="18.5" height="1.5"/>
		<rect x="78.7" y="57.7" class="st2" width="18.5" height="1.5"/>
		<rect x="78.8" y="61" class="st2" width="18.5" height="1.2"/>
	</g>
</g>
<rect id="SVGID_1_" x="71.3" y="35.8" class="st3" width="37.3" height="26.4"/>
<g>
	<g>
		<defs>
			<rect id="SVGID_85_" x="41.8" y="8.2" width="26" height="30.5"/>
		</defs>
		<clipPath id="SVGID_3_">
			<use xlink:href="#SVGID_85_"  style="overflow:visible;"/>
		</clipPath>
		<g class="st4">
			<defs>
				<rect id="SVGID_87_" x="32" y="7.1" width="46.6" height="55.5"/>
			</defs>
			<clipPath id="SVGID_4_">
				<use xlink:href="#SVGID_87_"  style="overflow:visible;"/>
			</clipPath>
			<g class="st5">
				<g>
					<defs>
						<rect id="SVGID_89_" x="38.6" y="6" width="32.2" height="33.3"/>
					</defs>
					<clipPath id="SVGID_5_">
						<use xlink:href="#SVGID_89_"  style="overflow:visible;"/>
					</clipPath>
					<g class="st6">
						<defs>
							<path id="SVGID_91_" d="M66,35.4c-1.1,1.3-2.5,2.3-4.2,2.8v0c-0.9,0.3-2,0.5-3,0.5h-7.5c-1.1,0-2.2-0.2-3.3-0.6
								c-1.6-0.6-3.1-1.6-4.2-2.9c-4.3-5-2.2-25.9,9.9-27C68.3,6.9,69.9,30.8,66,35.4"/>
						</defs>
						<clipPath id="SVGID_7_">
							<use xlink:href="#SVGID_91_"  style="overflow:visible;"/>
						</clipPath>
						<g class="st7">
							<defs>
								<rect id="SVGID_93_" x="40.8" y="8.2" width="27.7" height="31.1"/>
							</defs>
							<clipPath id="SVGID_8_">
								<use xlink:href="#SVGID_93_"  style="overflow:visible;"/>
							</clipPath>
							<rect x="36.2" y="2.6" class="st8" width="37.1" height="41.6"/>
						</g>
					</g>
				</g>
			</g>
		</g>
	</g>
	<g>
		<defs>
			<rect id="SVGID_95_" x="32" y="30.2" width="45.8" height="32.1"/>
		</defs>
		<clipPath id="SVGID_9_">
			<use xlink:href="#SVGID_95_"  style="overflow:visible;"/>
		</clipPath>
		<g class="st9">
			<defs>
				<rect id="SVGID_97_" x="32" y="7.1" width="46.6" height="55.5"/>
			</defs>
			<clipPath id="SVGID_10_">
				<use xlink:href="#SVGID_97_"  style="overflow:visible;"/>
			</clipPath>
			<g class="st10">
				<g>
					<defs>
						<rect id="SVGID_99_" x="32" y="29.3" width="46.6" height="33.3"/>
					</defs>
					<clipPath id="SVGID_11_">
						<use xlink:href="#SVGID_99_"  style="overflow:visible;"/>
					</clipPath>
					<g class="st11">
						<defs>
							<path id="SVGID_101_" d="M77.8,58.8v3.5H32v-3.5c0-6.4,0.8-14.2,7.2-15.4c0.1,0,4.6-1,4.7-1c0.8-0.1,1.6-0.4,2.3-0.9
								c0.8-0.5,1.4-1.1,1.9-1.9c0.6-1,1-2.2,1-3.4v-6h11.8v6c0,1.3,0.4,2.4,1,3.4c0.5,0.8,1.1,1.4,1.9,1.9c0.7,0.4,1.4,0.7,2.2,0.9
								c0.1,0,4.6,1,4.7,1C77,44.6,77.8,52.4,77.8,58.8"/>
						</defs>
						<clipPath id="SVGID_12_">
							<use xlink:href="#SVGID_101_"  style="overflow:visible;"/>
						</clipPath>
						<g class="st12">
							<defs>
								<rect id="SVGID_103_" x="32" y="29.3" width="46.6" height="33.3"/>
							</defs>
							<clipPath id="SVGID_13_">
								<use xlink:href="#SVGID_103_"  style="overflow:visible;"/>
							</clipPath>
							<rect x="26.4" y="24.7" class="st13" width="56.9" height="43.2"/>
						</g>
					</g>
				</g>
			</g>
		</g>
	</g>
	<path id="SVGID_157_" class="st14" d="M43.8,42.4c-0.1,0-1.9,0.4-3.3,0.7v19.2h28.7V43.1c-1.4-0.3-3.2-0.7-3.3-0.7
		c-0.8-0.1-1.5-0.4-2.1-0.8c-0.7,6.6-4,12.5-9,16.4c-5-3.9-8.3-9.7-9-16.4C45.2,42,44.6,42.3,43.8,42.4"/>
	<path class="st15" d="M41,43c-0.2,0-0.3,0.1-0.5,0.1v19.2h5.1C42.3,56.5,40.6,50,41,43z"/>
	<path class="st14" d="M69.3,51.1v-8c-1.4-0.3-3.2-0.7-3.3-0.7c-0.1,0-0.1,0-0.2,0C67.4,45.2,68.5,48.2,69.3,51.1z"/>
	<g>
		<defs>
			<path id="SVGID_105_" d="M60.8,30.2v4.6c-0.1,0.1-0.3,0.3-0.4,0.4L59.6,36c-1.8,1.7-3.4,1.8-4.7,1.8c-1.3,0-2.9-0.1-4.7-1.8
				l-0.8-0.7c-0.1-0.1-0.3-0.3-0.4-0.4v-4.6H60.8z"/>
		</defs>
		<clipPath id="SVGID_14_">
			<use xlink:href="#SVGID_105_"  style="overflow:visible;"/>
		</clipPath>
		<g class="st16">
			<defs>
				<rect id="SVGID_107_" x="32" y="7.1" width="46.6" height="55.5"/>
			</defs>
			<clipPath id="SVGID_15_">
				<use xlink:href="#SVGID_107_"  style="overflow:visible;"/>
			</clipPath>
			<rect x="43.5" y="24.7" class="st17" width="22.9" height="18.6"/>
		</g>
	</g>
	<path id="SVGID_109_" class="st18" d="M62.9,17.5v7.8c0,0.7,0,1.4-0.1,2.1v0c0,0.4-0.1,0.9-0.1,1.3c-0.2,1.7-1,3.3-2.3,4.5L59.6,34
		c-1.8,1.7-3.4,1.8-4.7,1.8c-1.3,0-2.9-0.1-4.7-1.8l-0.8-0.7c-1.2-1.2-2.1-2.8-2.3-4.5c0-0.3-0.1-0.5-0.1-0.8
		c-0.1-0.9-0.1-1.7-0.1-2.6v-7.8c0-1.9,0.7-3.7,1.8-5v0c0.2-0.3,0.5-0.6,0.8-0.8h0c1.2-0.7,2.6-1.2,4.2-1.4c2.6-0.2,4.7,0.3,6.5,1.4
		c0,0,0,0,0,0c0.3,0.2,0.5,0.5,0.7,0.8c0,0,0,0,0,0C62.2,13.8,62.9,15.6,62.9,17.5"/>
	<path id="SVGID_26_" class="st19" d="M54.9,35.7c-1.3,0-2.9-0.1-4.7-1.8l-0.8-0.7c-1.2-1.2-2.1-2.8-2.3-4.5c0-0.3-0.1-0.5-0.1-0.8
		c-0.1-0.9-0.1-1.7-0.1-2.6v-7.8c0-1.9,0.7-3.7,1.8-5v0c0.2-0.3,0.5-0.6,0.8-0.8h0c1.2-0.7,2.6-1.2,4.2-1.4c0.4,0,0.8-0.1,1.2-0.1
		l0,13.4l-0.6,3.9l0.6,1L54.9,35.7z"/>
	<g>
		<defs>
			<path id="SVGID_24_" d="M54.9,35.7c-1.3,0-2.9-0.1-4.7-1.8l-0.8-0.7c-1.2-1.2-2.1-2.8-2.3-4.5c0-0.3-0.1-0.5-0.1-0.8
				c-0.1-0.9-0.1-1.7-0.1-2.6v-7.8c0-1.9,0.7-3.7,1.8-5v0c0.2-0.3,0.5-0.6,0.8-0.8h0c1.2-0.7,2.6-1.2,4.2-1.4
				c2.6-0.2,4.7,0.3,6.5,1.4c0,0,0,0,0,0c0.3,0.2,0.5,0.5,0.7,0.8c0,0,0,0,0,0c1.1,1.4,1.8,3.2,1.8,5.1"/>
		</defs>
		<defs>
			<path id="SVGID_6_" d="M62.9,17.5v7.8c0,0.7,0,1.4-0.1,2.1v0c0,0.4-0.1,0.9-0.1,1.3c-0.2,1.7-1,3.3-2.3,4.5L59.6,34
				c-1.8,1.7-3.4,1.8-4.7,1.8"/>
		</defs>
		<clipPath id="SVGID_16_">
			<use xlink:href="#SVGID_24_"  style="overflow:visible;"/>
		</clipPath>
		<clipPath id="SVGID_17_" class="st20">
			<use xlink:href="#SVGID_6_"  style="overflow:visible;"/>
		</clipPath>
		<g class="st21">
			<defs>
				<rect id="SVGID_23_" x="32" y="7.1" width="46.6" height="55.5"/>
			</defs>
			<clipPath id="SVGID_18_">
				<use xlink:href="#SVGID_23_"  style="overflow:visible;"/>
			</clipPath>
			<rect x="41.4" y="4.6" class="st22" width="27" height="36.6"/>
		</g>
	</g>
	<g>
		<defs>
			<path id="SVGID_113_" d="M62.9,17.5v7.8c0,0.7,0,1.4-0.1,2.1c-0.3-2.5-1.1-4.8-2.4-6.9c-0.8-1.3-1.3-2.8-1.3-4.4v-2.9l-0.2,2.2
				c-0.1,2-1.4,3.6-3.3,4.3l-2.7,1c-3.1,1.2-5.4,3.9-6,7.1c-0.1-0.9-0.1-1.7-0.1-2.6v-7.8c0-1.9,0.7-3.7,1.8-5v0
				c0.2-0.3,0.5-0.6,0.8-0.8h0c1.2-0.7,2.6-1.2,4.2-1.4c2.6-0.2,4.7,0.3,6.5,1.4c0,0,0,0,0,0c0.3,0.2,0.5,0.5,0.7,0.8c0,0,0,0,0,0
				C62.2,13.8,62.9,15.6,62.9,17.5"/>
		</defs>
		<clipPath id="SVGID_19_">
			<use xlink:href="#SVGID_113_"  style="overflow:visible;"/>
		</clipPath>
		<g class="st23">
			<defs>
				<rect id="SVGID_115_" x="32" y="7.1" width="46.6" height="55.5"/>
			</defs>
			<clipPath id="SVGID_20_">
				<use xlink:href="#SVGID_115_"  style="overflow:visible;"/>
			</clipPath>
			<rect x="41.4" y="4.6" class="st24" width="27" height="28.8"/>
		</g>
	</g>
	<g>
		<defs>
			<path id="SVGID_117_" d="M62.2,22.5c-0.3-0.4-0.9-0.6-2.1-0.6l-0.2,0c-2.4,0-3.7,0.5-3.7,1.4c0,0.2,0,0.4,0.1,0.7
				c0.3-0.7,1.5-1,3.6-1.1h0.2c1.2,0,1.8,0.2,2.1,0.6c0.1,0.1,0.2,0.3,0.2,0.6l0,0C62.5,23.3,62.5,22.8,62.2,22.5"/>
		</defs>
		<clipPath id="SVGID_21_">
			<use xlink:href="#SVGID_117_"  style="overflow:visible;"/>
		</clipPath>
		<g class="st25">
			<defs>
				<rect id="SVGID_119_" x="32" y="7.1" width="46.6" height="55.5"/>
			</defs>
			<clipPath id="SVGID_22_">
				<use xlink:href="#SVGID_119_"  style="overflow:visible;"/>
			</clipPath>
			<rect x="50.7" y="16.4" class="st26" width="17.4" height="13.2"/>
		</g>
	</g>
	<g>
		<defs>
			<path id="SVGID_121_" d="M49.9,21.9l-0.2,0c-1.2,0-1.8,0.2-2.1,0.6c-0.3,0.3-0.4,0.9-0.3,1.7c0-0.3,0.1-0.6,0.3-0.7
				c0.3-0.4,0.9-0.6,2.1-0.6l0.2,0c2.1,0,3.3,0.4,3.6,1.1c0-0.2,0.1-0.4,0.1-0.6C53.6,22.4,52.3,22,49.9,21.9"/>
		</defs>
		<clipPath id="SVGID_25_">
			<use xlink:href="#SVGID_121_"  style="overflow:visible;"/>
		</clipPath>
		<g class="st27">
			<defs>
				<rect id="SVGID_123_" x="32" y="7.1" width="46.6" height="55.5"/>
			</defs>
			<clipPath id="SVGID_27_">
				<use xlink:href="#SVGID_123_"  style="overflow:visible;"/>
			</clipPath>
			<rect x="41.7" y="16.4" class="st28" width="17.4" height="13.4"/>
		</g>
	</g>
	<g>
		<defs>
			<polygon id="SVGID_125_" points="32,51 32,62.4 77.8,62.4 77.8,51 77.8,39.7 32,39.7 			"/>
		</defs>
		<clipPath id="SVGID_28_">
			<use xlink:href="#SVGID_125_"  style="overflow:visible;"/>
		</clipPath>
		<g class="st29">
			<defs>
				<rect id="SVGID_127_" x="32" y="7.1" width="46.6" height="55.5"/>
			</defs>
			<clipPath id="SVGID_29_">
				<use xlink:href="#SVGID_127_"  style="overflow:visible;"/>
			</clipPath>
			<g class="st30">
				<g>
					<defs>
						<rect id="SVGID_129_" x="32" y="39.2" width="46.6" height="23.3"/>
					</defs>
					<clipPath id="SVGID_30_">
						<use xlink:href="#SVGID_129_"  style="overflow:visible;"/>
					</clipPath>
				</g>
			</g>
		</g>
	</g>
	<g>
		<g>
			<g>
			</g>
			<path class="st31" d="M52.7,22.3"/>
		</g>
		<g>
			<path class="st31" d="M57.1,22.3"/>
		</g>
	</g>
	<g>
		<defs>
			<path id="SVGID_161_" d="M63.4,21.5h-3.1c-0.1,0-0.3,0-0.5,0c-0.8,0-1.9,0.1-2.7,0.3l-0.2,0.1c-0.6,0.2-1.2,0.2-1.8,0.2h-0.3
				h-0.3c-0.6,0-1.2-0.1-1.8-0.2l-0.2-0.1c-0.8-0.3-1.9-0.3-2.7-0.3c-0.2,0-0.3,0-0.4,0h-3.1c-0.3,0-0.6,0.3-0.6,0.6v0.2
				c0,0.3,0.1,0.5,0.4,0.6c0.3,0.2,0.5,0.4,0.5,0.7l0.3,1.4c0,0,0,0,0,0c0.5,2.1,2.7,1.9,3.6,1.9c1.4,0,2.6-1,3.1-2.2l0,0l0.5-1.2
				c0.1-0.2,0.4-0.4,0.6-0.4c0.3,0,0.5,0.2,0.6,0.4l0.5,1.2l0,0c0.5,1.2,1.7,2.2,3.1,2.2c0.9,0,3.2,0.2,3.6-1.9c0,0,0,0,0,0l0.3-1.4
				c0.1-0.3,0.3-0.6,0.5-0.7c0.2-0.1,0.4-0.4,0.4-0.6v-0.2C64,21.7,63.7,21.5,63.4,21.5 M50.6,26.4l-0.6,0c-1.5,0-2.2-0.4-2.4-1.4
				c-0.3-1.1-0.2-2,0.1-2.4c0.3-0.4,0.9-0.5,2-0.5l0.2,0c1.6,0,3.5,0.3,3.5,1.2C53.4,24.8,52.3,26.4,50.6,26.4 M62.2,25
				c-0.2,1-0.9,1.4-2.4,1.4l-0.6,0c-1.6,0-2.8-1.6-2.8-3c0-1,1.9-1.2,3.5-1.2l0.2,0c1.1,0,1.7,0.1,2,0.5C62.4,23,62.4,23.8,62.2,25"
				/>
		</defs>
		<clipPath id="SVGID_31_">
			<use xlink:href="#SVGID_161_"  style="overflow:visible;"/>
		</clipPath>
		<g class="st32">
			<defs>
				<rect id="SVGID_163_" x="32" y="7.1" width="46.6" height="55.5"/>
			</defs>
			<clipPath id="SVGID_32_">
				<use xlink:href="#SVGID_163_"  style="overflow:visible;"/>
			</clipPath>
			<rect x="40.2" y="15.9" class="st33" width="29.3" height="16.6"/>
		</g>
	</g>
	<g>
		<defs>
			<path id="SVGID_165_" d="M66,35.4c-1.1,1.3-2.5,2.3-4.2,2.8c1.3-2.5,2-5.2,1.3-8.1c-0.2-0.7-0.3-1.5-0.3-2.3v-0.7
				c0-3-0.9-6-2.5-8.6c-0.8-1.3-1.3-2.8-1.3-4.4v-2.9l-0.2,2.2c-0.1,2-1.4,3.6-3.3,4.3l-2.7,1c-3.6,1.3-6.1,4.8-6.1,8.7v1
				c0,3.1-1.7,5.5,1.1,9.6c-1.6-0.6-3.1-1.6-4.2-2.9c-4.3-5-2.2-25.9,9.9-27C68.3,6.9,69.9,30.8,66,35.4"/>
		</defs>
		<clipPath id="SVGID_33_">
			<use xlink:href="#SVGID_165_"  style="overflow:visible;"/>
		</clipPath>
		<g class="st34">
			<defs>
				<rect id="SVGID_167_" x="32" y="7.1" width="46.6" height="55.5"/>
			</defs>
			<clipPath id="SVGID_34_">
				<use xlink:href="#SVGID_167_"  style="overflow:visible;"/>
			</clipPath>
			<rect x="36.2" y="2.6" class="st35" width="37.1" height="41.1"/>
		</g>
	</g>
	<g>
		<defs>
			<path id="SVGID_2_" d="M51.8,30.8C51.8,30.8,51.8,30.8,51.8,30.8"/>
		</defs>
		<use xlink:href="#SVGID_2_"  style="overflow:visible;fill:#A01D21;"/>
		<clipPath id="SVGID_35_">
			<use xlink:href="#SVGID_2_"  style="overflow:visible;"/>
		</clipPath>
	</g>
</g>
<path class="st36" d="M38.4,18.2l0-2.6h0V3.2c0-0.4-0.4-0.8-0.8-0.8H18.4c-0.4,0-0.8,0.4-0.8,0.8v12.5c0,0.4,0.4,0.8,0.8,0.8h18.4
	L38.4,18.2z"/>
<polygon class="st19" points="58.5,30.7 54.1,30.7 54.1,31.8 "/>
<path class="st37" d="M32.2,53.5c0,0-2.2-8.9,9.1-10.6l-0.8,11.5L32.2,53.5z"/>
<path class="st37" d="M68.9,43.1c0,0,8.8,0.3,8.8,10.3l-8.4,1.3L68.9,43.1z"/>
</svg>
