<?xml version="1.0" encoding="utf-8"?>
<!-- Generator: Adobe Illustrator 28.3.0, SVG Export Plug-In . SVG Version: 6.00 Build 0)  -->
<svg version="1.1"
	 id="svg2" xmlns:cc="http://creativecommons.org/ns#" xmlns:svg="http://www.w3.org/2000/svg" xmlns:inkscape="http://www.inkscape.org/namespaces/inkscape" xmlns:sodipodi="http://sodipodi.sourceforge.net/DTD/sodipodi-0.dtd" xmlns:rdf="http://www.w3.org/1999/02/22-rdf-syntax-ns#" xmlns:dc="http://purl.org/dc/elements/1.1/"
	 xmlns="http://www.w3.org/2000/svg" xmlns:xlink="http://www.w3.org/1999/xlink" x="0px" y="0px" viewBox="0 0 43 43.5"
	 style="enable-background:new 0 0 43 43.5;" xml:space="preserve">
<style type="text/css">
	.st0{fill:url(#path1948_00000039827665291318869630000009952947212381862582_);}
	.st1{fill:url(#path1950_00000132050466661472910120000003190920406104545448_);}
</style>
<sodipodi:namedview  bordercolor="#666666" borderopacity="1.0" gridtolerance="10.0" guidetolerance="10.0" height="40mm" id="base" inkscape:current-layer="svg2" inkscape:cx="91.558698" inkscape:cy="47.9926" inkscape:deskcolor="#d1d1d1" inkscape:document-units="pt" inkscape:pagecheckerboard="0" inkscape:pageopacity="0.0" inkscape:pageshadow="2" inkscape:showpageshadow="2" inkscape:window-height="2080" inkscape:window-maximized="0" inkscape:window-width="1976" inkscape:window-x="1092" inkscape:window-y="72" inkscape:zoom="2.1461642" objecttolerance="10.0" pagecolor="#ffffff" showgrid="false" units="mm" width="210mm">
	</sodipodi:namedview>
<linearGradient id="path1948_00000127752730648314655610000005491826548577850245_" gradientUnits="userSpaceOnUse" x1="145.2064" y1="-76.9929" x2="186.006" y2="-112.0954" gradientTransform="matrix(0.5625 0 0 -0.568 -81.9223 -41.8985)">
	<stop  offset="0" style="stop-color:#5A9FD4"/>
	<stop  offset="1" style="stop-color:#306998"/>
</linearGradient>
<path id="path1948" style="fill:url(#path1948_00000127752730648314655610000005491826548577850245_);" d="M21.3,0.6
	c-1.7,0-3.4,0.2-4.8,0.4c-4.2,0.8-5,2.3-5,5.2v3.8h10v1.3h-10H7.8c-2.9,0-5.5,1.8-6.3,5.1c-0.9,3.8-1,6.2,0,10.2
	c0.7,3,2.4,5.1,5.3,5.1h3.5v-4.6c0-3.3,2.9-6.2,6.3-6.2h10c2.8,0,5-2.3,5-5.1V6.3c0-2.7-2.3-4.8-5-5.2C24.8,0.8,23.1,0.6,21.3,0.6z
	 M15.9,3.7c1,0,1.9,0.9,1.9,1.9c0,1.1-0.8,1.9-1.9,1.9c-1,0-1.9-0.9-1.9-1.9C14,4.6,14.9,3.7,15.9,3.7z"/>
<linearGradient id="path1950_00000010310437607971790920000003980570826627546034_" gradientUnits="userSpaceOnUse" x1="201.7794" y1="-133.3411" x2="187.2099" y2="-112.7277" gradientTransform="matrix(0.5625 0 0 -0.568 -81.9223 -41.8985)">
	<stop  offset="0" style="stop-color:#FFD43B"/>
	<stop  offset="1" style="stop-color:#FFE873"/>
</linearGradient>
<path id="path1950" style="fill:url(#path1950_00000010310437607971790920000003980570826627546034_);" d="M32.8,11.4v4.5
	c0,3.5-2.9,6.4-6.3,6.4h-10c-2.7,0-5,2.3-5,5.1v9.6c0,2.7,2.4,4.3,5,5.1c3.2,0.9,6.2,1.1,10,0c2.5-0.7,5-2.2,5-5.1V33h-10v-1.3h10h5
	c2.9,0,4-2,5-5.1c1-3.1,1-6.2,0-10.2c-0.7-2.9-2.1-5.1-5-5.1L32.8,11.4z M27.2,35.6c1,0,1.9,0.9,1.9,1.9c0,1.1-0.8,1.9-1.9,1.9
	c-1,0-1.9-0.9-1.9-1.9C25.3,36.4,26.2,35.6,27.2,35.6z"/>
</svg>
