<?xml version="1.0" encoding="utf-8"?>
<!-- Generator: Adobe Illustrator 25.2.0, SVG Export Plug-In . SVG Version: 6.00 Build 0)  -->
<svg version="1.1" id="Layer_1" xmlns="http://www.w3.org/2000/svg" xmlns:xlink="http://www.w3.org/1999/xlink" x="0px" y="0px"
	 viewBox="0 0 9 9.4" style="enable-background:new 0 0 9 9.4;" xml:space="preserve">
<style type="text/css">
	.st0{fill:#394557;}
	.st1{fill:none;stroke:#394557;stroke-width:0.25;stroke-miterlimit:10;}
	.st2{fill:#FFFFFF;}
</style>
<path class="st0" d="M8.3,1.6V0H0.6v9.4h1.5h6.2C8.3,9.4,8.3,1.6,8.3,1.6z M1.2,0.8h6.3v7.9H1.2V0.8z"/>
<g>
	<path class="st1" d="M1.9,2.5v3.3c1.2,0,2.8,0,4,0V2.5H1.9z"/>
	<line class="st1" x1="1.9" y1="3.3" x2="5.9" y2="3.3"/>
	<line class="st1" x1="1.8" y1="4.1" x2="5.9" y2="4.1"/>
	<line class="st1" x1="1.9" y1="5" x2="5.8" y2="5"/>
	<line class="st1" x1="4.9" y1="3.2" x2="4.9" y2="5.8"/>
	<line class="st1" x1="3.9" y1="3.2" x2="3.9" y2="5.8"/>
	<line class="st1" x1="2.9" y1="3.2" x2="2.9" y2="5.7"/>
</g>
<circle class="st0" cx="5.9" cy="6.4" r="1.2"/>
<g>
	<path class="st2" d="M5.7,6.4L5.2,5.7h0.3l0.4,0.6l0.4-0.6h0.3L6,6.4l0.5,0.8H6.3L5.9,6.6L5.5,7.2H5.2L5.7,6.4z"/>
</g>
</svg>
