<svg id="Layer_1" data-name="Layer 1" xmlns="http://www.w3.org/2000/svg" xmlns:xlink="http://www.w3.org/1999/xlink" viewBox="0 0 21 23.76"><defs><style>.cls-1{fill:none;}.cls-2{clip-path:url(#clip-path);}.cls-3{fill:#28739e;}.cls-4{fill:#374557;}</style><clipPath id="clip-path" transform="translate(-0.03)"><rect class="cls-1" x="0.03" width="21" height="23.76"/></clipPath></defs><g class="cls-2"><path class="cls-3" d="M.89.86H20.17v22H.89ZM0,23.76H21V0H0Z" transform="translate(-0.03)"/></g><path class="cls-1" d="M10.83,14l1.85,1-.35-2.06a.73.73,0,0,1,.21-.64L14,10.77,12,10.47a.71.71,0,0,1-.54-.39L10.5,8.22l-.93,1.87a.69.69,0,0,1-.54.39L7,10.78l1.49,1.46a.72.72,0,0,1,.21.64l-.35,2,1.85-1A.67.67,0,0,1,10.83,14Z" transform="translate(-0.03)"/><path class="cls-4" d="M13.51,15l-.38-2.18,1.59-1.55a.74.74,0,0,0,.18-.74.72.72,0,0,0-.58-.48l-2.19-.32-1-2a.72.72,0,0,0-.65-.4.71.71,0,0,0-.64.4l-1,2L6.69,10a.69.69,0,0,0-.58.48.7.7,0,0,0,.18.74l1.58,1.55L7.5,15a.69.69,0,0,0,.29.7.72.72,0,0,0,.75.06l2-1,2,1a.81.81,0,0,0,.34.08.66.66,0,0,0,.42-.14A.73.73,0,0,0,13.51,15ZM8.67,12.88a.72.72,0,0,0-.21-.64L7,10.78,9,10.48a.69.69,0,0,0,.54-.39l.93-1.87.93,1.86a.71.71,0,0,0,.54.39l2.06.3-1.49,1.46a.73.73,0,0,0-.21.64l.35,2.06-1.85-1a.67.67,0,0,0-.66,0l-1.85,1Z" transform="translate(-0.03)"/><path class="cls-4" d="M10.5,7.18a.33.33,0,0,0,.33-.33V5.29a.33.33,0,1,0-.66,0V6.85A.33.33,0,0,0,10.5,7.18Z" transform="translate(-0.03)"/><path class="cls-4" d="M5.62,10.55H5.7A.32.32,0,0,0,6,10.32H6a.33.33,0,0,0-.23-.41l-1.51-.4a.33.33,0,0,0-.17.64Z" transform="translate(-0.03)"/><path class="cls-4" d="M7.87,8.73a.32.32,0,0,0,.24.11.35.35,0,0,0,.22-.08.33.33,0,0,0,0-.47L6.71,6.45a.34.34,0,0,0-.47,0,.38.38,0,0,0-.11.23.32.32,0,0,0,.09.23Z" transform="translate(-0.03)"/><path class="cls-4" d="M6.9,13.35a.31.31,0,0,0,0-.25h0a.35.35,0,0,0-.19-.17.36.36,0,0,0-.25,0L4.21,14a.32.32,0,0,0-.16.43.33.33,0,0,0,.3.19.35.35,0,0,0,.14,0l2.24-1A.3.3,0,0,0,6.9,13.35Z" transform="translate(-0.03)"/><path class="cls-4" d="M13.2,8.87h0a.38.38,0,0,0,.23-.11L15.1,6.92a.34.34,0,0,0,0-.47.33.33,0,0,0-.47,0L13,8.32a.33.33,0,0,0,0,.46A.31.31,0,0,0,13.2,8.87Z" transform="translate(-0.03)"/><path class="cls-4" d="M17,13.9l-2.24-1a.33.33,0,0,0-.44.16h0a.31.31,0,0,0,0,.25.3.3,0,0,0,.17.18l2.24,1.05a.35.35,0,0,0,.14,0l.11,0a.32.32,0,0,0,.19-.17A.34.34,0,0,0,17,13.9Z" transform="translate(-0.03)"/><path class="cls-4" d="M10.51,15.67a.33.33,0,0,0-.24.09.36.36,0,0,0-.09.24v2.47a.33.33,0,1,0,.66,0V16A.33.33,0,0,0,10.51,15.67Z" transform="translate(-0.03)"/><path class="cls-4" d="M7.43,15.75a.35.35,0,0,0-.21.15L6.4,17.22a.34.34,0,0,0,.1.46.39.39,0,0,0,.18,0A.32.32,0,0,0,7,17.57l.83-1.33a.34.34,0,0,0-.11-.45A.31.31,0,0,0,7.43,15.75Z" transform="translate(-0.03)"/><path class="cls-4" d="M15,10.32h0a.32.32,0,0,0,.31.24h.09l1.51-.4a.34.34,0,0,0,.23-.41.33.33,0,0,0-.4-.23l-1.51.41A.32.32,0,0,0,15,10.32Z" transform="translate(-0.03)"/><path class="cls-4" d="M13.83,15.9a.34.34,0,0,0-.46-.11.34.34,0,0,0-.1.46l.82,1.32a.32.32,0,0,0,.28.15.31.31,0,0,0,.18,0,.32.32,0,0,0,.1-.45Z" transform="translate(-0.03)"/></svg>