<?xml version="1.0" encoding="utf-8"?>
<!-- Generator: Adobe Illustrator 24.3.0, SVG Export Plug-In . SVG Version: 6.00 Build 0)  -->
<svg version="1.1" id="Layer_1" xmlns="http://www.w3.org/2000/svg" xmlns:xlink="http://www.w3.org/1999/xlink" x="0px" y="0px"
	 viewBox="0 0 21 23.8" style="enable-background:new 0 0 21 23.8;" xml:space="preserve">
<style type="text/css">
	.st0{fill-rule:evenodd;clip-rule:evenodd;fill:#27739E;}
	.st1{fill:none;stroke:#374557;stroke-width:0.75;stroke-miterlimit:10;}
	.st2{fill:#354456;}
</style>
<path class="st0" d="M21,0v23.8H0V0H21z M20.1,22.9v-22H0.9v22H20.1z"/>
<path class="st1" d="M7.9,16.9l3.5-2.1c3.2,0.1,5.1-1.7,5.4-4.1s-2.1-4.4-5.4-4.6s-6.2,1.7-6.5,4c-0.2,2,0.9,3.7,3.5,4.3L7.9,16.9z"
	/>
<path class="st2" d="M10.5,11.6v-0.2c0-0.2,0-0.4,0.1-0.6c0.1-0.2,0.3-0.4,0.4-0.5c0.2-0.1,0.3-0.3,0.5-0.4c0.1-0.1,0.2-0.3,0.2-0.5
	c0-0.2-0.1-0.4-0.2-0.5c-0.2-0.1-0.4-0.2-0.6-0.2c-0.2,0-0.3,0-0.5,0.1c-0.2,0-0.4,0.1-0.6,0.2L9.7,8.6c0.4-0.2,0.8-0.3,1.3-0.3
	c0.3,0,0.7,0.1,1,0.3c0.2,0.2,0.4,0.5,0.3,0.8c0,0.1,0,0.3-0.1,0.4c0,0.1-0.1,0.2-0.2,0.3c-0.2,0.2-0.3,0.3-0.5,0.5
	c-0.2,0.1-0.3,0.3-0.4,0.4C11,11.2,11,11.4,11,11.5v0.1H10.5z M10.4,12.6c0-0.3,0.1-0.4,0.4-0.4c0.1,0,0.2,0,0.3,0.1
	c0.1,0.1,0.1,0.2,0.1,0.3c0,0.1,0,0.2-0.1,0.3c-0.1,0.1-0.2,0.1-0.3,0.1c-0.1,0-0.2,0-0.3-0.1C10.4,12.9,10.4,12.7,10.4,12.6
	L10.4,12.6z"/>
</svg>
