<svg id="Layer_1" data-name="Layer 1" xmlns="http://www.w3.org/2000/svg" xmlns:xlink="http://www.w3.org/1999/xlink" viewBox="0 0 110 62"><defs><style>.cls-1,.cls-5,.cls-6{fill:none;}.cls-2,.cls-20,.cls-3,.cls-4{fill:#bb9a72;}.cls-2,.cls-3,.cls-5{clip-rule:evenodd;}.cls-3{clip-path:url(#clip-path);}.cls-13,.cls-14,.cls-19,.cls-20,.cls-6{fill-rule:evenodd;}.cls-7{clip-path:url(#clip-path-2);}.cls-8{clip-path:url(#clip-path-3);}.cls-9{isolation:isolate;}.cls-10{clip-path:url(#clip-path-4);}.cls-11{clip-path:url(#clip-path-5);}.cls-12,.cls-19{fill:#cda572;}.cls-13,.cls-23{fill:#15bfdb;}.cls-14{fill:#1da8b7;}.cls-15{clip-path:url(#clip-path-7);}.cls-16{fill:#b79265;}.cls-17{clip-path:url(#clip-path-9);}.cls-18{clip-path:url(#clip-path-11);}.cls-21{fill:#e5e5e5;stroke:#344456;stroke-miterlimit:10;stroke-width:1.25px;}.cls-22{fill:#fff;}.cls-24{fill:#344456;}.cls-25{clip-path:url(#clip-path-14);}.cls-26{clip-path:url(#clip-path-15);}.cls-27{fill:#231f20;}</style><clipPath id="clip-path"><path class="cls-2" d="M73.61,14.09"/></clipPath><clipPath id="clip-path-2"><rect id="SVGID" class="cls-1" x="38.7" y="31.02" width="55.02" height="30.87"/></clipPath><clipPath id="clip-path-3"><rect id="SVGID-2" data-name="SVGID" class="cls-1" x="38.7" y="4.3" width="56.05" height="58.39"/></clipPath><clipPath id="clip-path-4"><rect id="SVGID-3" data-name="SVGID" class="cls-1" x="38.7" y="29.99" width="56.05" height="32.7"/></clipPath><clipPath id="clip-path-5"><path id="SVGID-4" data-name="SVGID" class="cls-5" d="M93.73,61.89V54.26A10.08,10.08,0,0,0,87.54,45l-11-4.61A4.15,4.15,0,0,1,74,36.52V31H58.43v5.5a4.16,4.16,0,0,1-2.54,3.83L44.89,45a10.08,10.08,0,0,0-6.19,9.3v7.63Z"/></clipPath><clipPath id="clip-path-7"><path id="SVGID-6" data-name="SVGID" class="cls-5" d="M66.22,42.7c1.72,0,3.69-.11,6.64-3a12.51,12.51,0,0,0,1.45-1.69A4,4,0,0,1,74,36.52v-3.4a5,5,0,0,1-2,2.06L72,35a6.18,6.18,0,0,0-.85-1.89,1.62,1.62,0,0,0-1.34-.69H62.61a1.63,1.63,0,0,0-1.34.69A6.4,6.4,0,0,0,60.43,35l0,.18a5,5,0,0,1-2-2.07v3.41a4.17,4.17,0,0,1-.3,1.53,11.84,11.84,0,0,0,1.45,1.69c2.73,2.65,4.58,3,6.64,3"/></clipPath><clipPath id="clip-path-9"><path id="SVGID-8" data-name="SVGID" class="cls-5" d="M57.38,23.31l-.51-.82a2.26,2.26,0,0,0-1.52-1A1.31,1.31,0,0,0,53.82,23l.62,3.09A3.62,3.62,0,0,0,57,28.85l.9.26Z"/></clipPath><clipPath id="clip-path-11"><path id="SVGID-10" data-name="SVGID" class="cls-5" d="M74.53,29.11l.91-.25A3.63,3.63,0,0,0,78,26.09L78.61,23a1.3,1.3,0,0,0-1.52-1.54,2.24,2.24,0,0,0-1.52,1l-.52.82Z"/></clipPath><clipPath id="clip-path-14"><path class="cls-3" d="M73.61,14.09c-.8-2.61-2.09-3.62-4.49-3.51l-.48,0c-5,.47-7.43,3.65-7.16,9.46.06,1.44.2,2.89.37,4.33.38-4.42,2.74-6.88,7.08-7.33l.5,0c2.38-.11,3.68-.41,4.46,2.15"/></clipPath><clipPath id="clip-path-15"><rect class="cls-4" x="14.86" y="-85.53" width="96.22" height="360.36" transform="translate(-4.28 2.99) rotate(-2.63)"/></clipPath></defs><title>customer_satisfaction</title><path class="cls-6" d="M120.9,61.94h-109C20.94,46.36,42,39.29,65.58,46.3,89.53,53.44,112.84,46.23,120.9,61.94Z"/><g class="cls-7"><g class="cls-8"><g class="cls-9"><g class="cls-10"><g class="cls-11"><g class="cls-10"><rect class="cls-12" x="32.87" y="25.18" width="66.7" height="42.55"/></g></g></g></g></g></g><path id="SVGID-13" data-name="SVGID" class="cls-13" d="M87.54,45l-11-4.61v.25a10.38,10.38,0,1,1-20.76,0v-.24l-11,4.6a10.09,10.09,0,0,0-6.19,9.31v7.64H93.73V54.28A10.09,10.09,0,0,0,87.54,45"/><path class="cls-14" d="M87.58,44.92l-11-4.6v.24s0,.08,0,.12C83,43.46,90.4,45.87,92.23,53.25a46.87,46.87,0,0,1,1.21,8.62h.34V54.23A10.1,10.1,0,0,0,87.58,44.92Z"/><path class="cls-14" d="M52.68,61.87c-.48-1.55-.94-3.11-1.33-4.67-.15-.32-.29-.64-.46-1,0,1.87,0,3.75,0,5.62Z"/><g class="cls-15"><g class="cls-8"><rect class="cls-16" x="52.29" y="26.58" width="27.86" height="21.95"/></g></g><g class="cls-17"><g class="cls-8"><rect class="cls-16" x="47.96" y="15.59" width="15.78" height="19.36"/></g></g><g class="cls-18"><g class="cls-8"><rect class="cls-16" x="68.69" y="15.59" width="15.78" height="19.36"/></g></g><g class="cls-8"><path class="cls-19" d="M67.26,38.12a5.67,5.67,0,0,0,3.89-1.54l2.06-2a7.23,7.23,0,0,0,1.91-4.12l.64-5.83a31.27,31.27,0,0,0,.2-3.49V15.19A8.92,8.92,0,0,0,67,6.27H65.4a8.92,8.92,0,0,0-8.92,8.92v5.93a31.26,31.26,0,0,0,.19,3.49l.65,5.83a7.16,7.16,0,0,0,1.9,4.12l2.07,2a5.66,5.66,0,0,0,3.89,1.54Z"/><path class="cls-20" d="M66.29,6.27H65.4a8.92,8.92,0,0,0-8.92,8.92v5.93a31.26,31.26,0,0,0,.19,3.49l.65,5.83a7.16,7.16,0,0,0,1.9,4.12l2.07,2a5.66,5.66,0,0,0,3.89,1.54h1.11V28l-.94-2,.94-9.27Z"/></g><circle class="cls-21" cx="32.73" cy="15.09" r="12.13"/><path class="cls-22" d="M29.85,14.52a2.91,2.91,0,0,0,2.33-2V10.08a1.46,1.46,0,0,1,2,1.05v2.44h2.64A1.22,1.22,0,0,1,38.06,15l-.65,4.15a1.3,1.3,0,0,1-1.28,1.09H31.25a1.48,1.48,0,0,1-1.48-1.48V14.48Z"/><rect class="cls-23" x="27.45" y="14.37" width="2.22" height="5.64" rx="0.19" ry="0.19"/><path class="cls-24" d="M38,13.81a1.51,1.51,0,0,0-1.16-.53H34.51V11.13a.29.29,0,0,0,0-.09,2,2,0,0,0-1.06-1.25,1.87,1.87,0,0,0-1.38,0,.3.3,0,0,0-.16.27v2.44a2.55,2.55,0,0,1-2,1.69.53.53,0,0,0-.42-.2H27.64a.56.56,0,0,0-.56.55v5.26a.56.56,0,0,0,.56.56h1.83A.55.55,0,0,0,30,20a1.77,1.77,0,0,0,1.26.53h4.88a1.59,1.59,0,0,0,1.57-1.34L38.35,15A1.52,1.52,0,0,0,38,13.81ZM29.3,19.65H27.81V14.74H29.3ZM37.78,15l-.66,4.14a1,1,0,0,1-1,.85H31.25a1.18,1.18,0,0,1-1.18-1.19v-4a3.08,3.08,0,0,0,2.39-2.15s0,0,0-.07V10.29a1.1,1.1,0,0,1,.73,0,1.36,1.36,0,0,1,.72.86v2.38a.29.29,0,0,0,.29.29h2.64a.91.91,0,0,1,.71.33A1,1,0,0,1,37.78,15Z"/><path class="cls-20" d="M73.61,14.09"/><path class="cls-20" d="M73.61,14.09c-.8-2.61-2.09-3.62-4.49-3.51l-.48,0c-5,.47-7.43,3.65-7.16,9.46.06,1.44.2,2.89.37,4.33.38-4.42,2.74-6.88,7.08-7.33l.5,0c2.38-.11,3.68-.41,4.46,2.15"/><g class="cls-25"><rect class="cls-4" x="14.86" y="-85.53" width="96.22" height="360.36" transform="translate(-4.28 2.99) rotate(-2.63)"/><g class="cls-26"><rect class="cls-4" x="49.92" y="-25.39" width="35.92" height="85.87" transform="translate(-0.73 3.13) rotate(-2.63)"/></g></g><path class="cls-27" d="M77.5,19.33a24.1,24.1,0,0,0,0-2.57,9.71,9.71,0,0,0,.45-2.39c-.12-1.27-.91-1.8-1.67-2.86a8.69,8.69,0,0,0-1-1.15A9.28,9.28,0,0,0,71.66,7.6,7.68,7.68,0,0,0,67.9,5.76c-.76,0-1.3.18-2,.11-.27,0-.6-.27-.93-.28-1.41,0-3.49,1.09-4.71,1.79-2,1.12-5,3.76-5.25,6.31a3.21,3.21,0,0,0-.92,2.66c.18,1.52.52,3,.79,4.54a.78.78,0,0,0,0,.14c.05.46.1.94.16,1.45h.28a2.38,2.38,0,0,1,1.2.64c1.27-4.81.33-4,.67-8.3A3.42,3.42,0,0,1,59.31,12c2.39-.93,3.41.58,6.83.58S70.58,11.09,73,12a3.42,3.42,0,0,1,2.09,2.81c.34,4.31-.63,3.47.7,8.43h0a2.29,2.29,0,0,1,1.31-.77h.15c.07-.57.12-1.11.16-1.63a.44.44,0,0,0,.15-.34A11.47,11.47,0,0,0,77.5,19.33Z"/><polygon class="cls-20" points="69.63 32.4 65.48 32.4 65.48 33.43 69.63 32.4"/></svg>