<?xml version="1.0" encoding="utf-8"?>
<!-- Generator: Adobe Illustrator 28.2.0, SVG Export Plug-In . SVG Version: 6.00 Build 0)  -->
<svg version="1.1" id="Layer_1" xmlns="http://www.w3.org/2000/svg" xmlns:xlink="http://www.w3.org/1999/xlink" x="0px" y="0px"
	 viewBox="0 0 115.9 55" style="enable-background:new 0 0 115.9 55;" xml:space="preserve">
<style type="text/css">
	.st0{fill:#FFFFFF;}
	.st1{fill:#354557;}
	.st2{fill:#354556;}
	.st3{opacity:0.3;enable-background:new    ;}
	.st4{clip-path:url(#SVGID_00000036224653296364247920000002508571098724574396_);}
	.st5{clip-path:url(#SVGID_00000128485530917380475440000018294204191413379740_);fill:#354556;}
	.st6{opacity:0.2;enable-background:new    ;}
	.st7{clip-path:url(#SVGID_00000088817825494611681920000002708557087616208313_);}
	.st8{clip-path:url(#SVGID_00000149379906774103017890000000886403873500377790_);fill:#354556;}
	.st9{opacity:0.1;enable-background:new    ;}
	.st10{clip-path:url(#SVGID_00000066482553977153895070000010151292067162616757_);}
	.st11{clip-path:url(#SVGID_00000156557211892567557260000016128257685777213062_);fill:#354556;}
	.st12{opacity:5.000000e-02;enable-background:new    ;}
	.st13{clip-path:url(#SVGID_00000090256535049898382810000013746042386066343574_);}
	.st14{clip-path:url(#SVGID_00000165233886727018868450000017546344988807923866_);fill:#354556;}
	.st15{opacity:0.6;enable-background:new    ;}
	.st16{clip-path:url(#SVGID_00000150819713254712765300000009449513089796294039_);}
	.st17{clip-path:url(#SVGID_00000033328503766581575060000015846543964547546770_);fill:#354556;}
	.st18{clip-path:url(#SVGID_00000054255146114774293730000006947884977380297604_);}
	.st19{clip-path:url(#SVGID_00000133488686756506569780000017523730102404583339_);fill:#354556;}
	.st20{clip-path:url(#SVGID_00000013878841286497996320000004813642606654441869_);}
	.st21{clip-path:url(#SVGID_00000024716155945259510010000015494035253394953650_);fill:#354556;}
	.st22{clip-path:url(#SVGID_00000161628942739508193560000016556193846752816789_);}
	.st23{clip-path:url(#SVGID_00000063599183973179784490000015865730789542706612_);fill:#354556;}
	.st24{clip-path:url(#SVGID_00000074420910130346804560000010260890987721968291_);}
	.st25{clip-path:url(#SVGID_00000122683014732472759600000007225668931186508450_);fill:#354556;}
	.st26{clip-path:url(#SVGID_00000151513730539667348430000010671858359138959024_);}
	.st27{clip-path:url(#SVGID_00000162353051211250003960000005550859593587935894_);fill:#354556;}
	.st28{clip-path:url(#SVGID_00000083776276707078242370000013815704461423929004_);}
	.st29{clip-path:url(#SVGID_00000038410817549961650960000003226529884025703337_);fill:#354556;}
	.st30{clip-path:url(#SVGID_00000159466152465796657780000000150911685020068240_);}
	.st31{clip-path:url(#SVGID_00000139980974843993759580000009911435193874032062_);fill:#354556;}
	.st32{fill:#717378;}
	.st33{fill:#464749;}
	.st34{fill:#D34E32;}
	.st35{fill:none;stroke:#354556;stroke-width:1.25;stroke-miterlimit:10;}
	.st36{fill:#F37541;}
	.st37{fill:#26739E;}
	.st38{fill:#1E9575;}
	.st39{fill:#D34F32;}
	.st40{fill:#18C0DC;}
	.st41{fill:#093D4C;}
</style>
<g>
	<g id="window">
		<path class="st0" d="M73.7,4.3c0-0.1-0.1-0.2-0.2-0.2H42.2l0,0c-0.1,0-0.2,0.1-0.2,0.2v20.3h31.7L73.7,4.3L73.7,4.3z"/>
		<path class="st1" d="M73.5,3.8c0.4,0,0.7,0.2,0.7,0.6v20.3h-0.7V7.5H42.3v17h-0.8V4.3c0-0.3,0.3-0.6,0.7-0.6L73.5,3.8L73.5,3.8z
			 M73.4,6.9V4.5h-31v2.4C42.3,6.9,73.4,6.9,73.4,6.9z"/>
		<path class="st1" d="M46.1,10.9c0-0.3,0.3-0.5,0.6-0.5h9.7c0.3,0,0.6,0.3,0.6,0.5s-0.3,0.5-0.6,0.5h-9.7
			C46.4,11.3,46.1,11,46.1,10.9z"/>
		<path class="st1" d="M59.1,12.5c0.3,0,0.6,0.3,0.6,0.6c0,0.3-0.3,0.5-0.7,0.5H46.7c-0.3,0-0.4-0.3-0.6-0.5c0-0.3,0.1-0.5,0.6-0.6
			H59.1C59,12.5,59,12.5,59.1,12.5z"/>
		<path class="st1" d="M54.7,14.7c0.2,0,0.5,0.3,0.5,0.5c0,0.3-0.2,0.5-0.5,0.5h-8.2l0,0c-0.2,0-0.5-0.3-0.5-0.5
			c0-0.3,0.2-0.5,0.5-0.5H54.7L54.7,14.7z"/>
		<path class="st1" d="M50.7,17c0.2,0,0.3,0.3,0.3,0.6c0,0.3-0.2,0.5-0.4,0.5h-4.3c-0.2,0-0.2-0.3-0.3-0.5c0-0.3,0.1-0.5,0.3-0.6
			H50.7C50.6,17,50.7,17,50.7,17z"/>
	</g>
	<g>
		<path class="st2" d="M19.7,51c0,0.9-0.8,1.7-1.7,1.7c-0.9,0-1.7-0.8-1.7-1.7c0-0.9,0.8-1.7,1.7-1.7C18.9,49.3,19.7,50.1,19.7,51"
			/>
		<path class="st2" d="M19.7,44.5c0,0.9-0.8,1.7-1.7,1.7c-0.9,0-1.7-0.8-1.7-1.7s0.8-1.7,1.7-1.7C18.9,42.8,19.7,43.5,19.7,44.5"/>
		<g class="st3">
			<g>
				<defs>
					<rect id="SVGID_1_" x="15.6" y="36.2" width="5" height="4"/>
				</defs>
				<clipPath id="SVGID_00000090991432132363847150000017887949982319908233_">
					<use xlink:href="#SVGID_1_"  style="overflow:visible;"/>
				</clipPath>
				<g style="clip-path:url(#SVGID_00000090991432132363847150000017887949982319908233_);">
					<defs>
						<rect id="SVGID_00000142866237442601233670000014139207836252310674_" x="16.2" y="36.2" width="3.4" height="3.4"/>
					</defs>
					<clipPath id="SVGID_00000027578020837480488020000009678458227823162808_">
						<use xlink:href="#SVGID_00000142866237442601233670000014139207836252310674_"  style="overflow:visible;"/>
					</clipPath>
					<path style="clip-path:url(#SVGID_00000027578020837480488020000009678458227823162808_);fill:#354556;" d="M19.7,37.9
						c0,0.9-0.8,1.7-1.7,1.7c-0.9,0-1.7-0.8-1.7-1.7c0-0.9,0.8-1.7,1.7-1.7C18.9,36.2,19.7,37,19.7,37.9"/>
				</g>
			</g>
		</g>
		<g class="st6">
			<g>
				<defs>
					<rect id="SVGID_00000090281715679692389820000016073150543524811947_" x="15.6" y="29.2" width="5" height="4"/>
				</defs>
				<clipPath id="SVGID_00000021814314080443912810000018397085456373894077_">
					<use xlink:href="#SVGID_00000090281715679692389820000016073150543524811947_"  style="overflow:visible;"/>
				</clipPath>
				<g style="clip-path:url(#SVGID_00000021814314080443912810000018397085456373894077_);">
					<defs>
						<rect id="SVGID_00000023267965362062219320000006845066650952579750_" x="16.2" y="29.7" width="3.4" height="3.4"/>
					</defs>
					<clipPath id="SVGID_00000016756868396548859070000015211422780377912961_">
						<use xlink:href="#SVGID_00000023267965362062219320000006845066650952579750_"  style="overflow:visible;"/>
					</clipPath>
					<path style="clip-path:url(#SVGID_00000016756868396548859070000015211422780377912961_);fill:#354556;" d="M19.7,31.4
						c0,0.9-0.8,1.7-1.7,1.7c-0.9,0-1.7-0.8-1.7-1.7c0-0.9,0.8-1.7,1.7-1.7C18.9,29.7,19.7,30.5,19.7,31.4"/>
				</g>
			</g>
		</g>
		<g class="st9">
			<g>
				<defs>
					<rect id="SVGID_00000091722060161834363630000005109743503953567887_" x="15.6" y="22.2" width="5" height="5"/>
				</defs>
				<clipPath id="SVGID_00000049909355640958377530000009574870917046274444_">
					<use xlink:href="#SVGID_00000091722060161834363630000005109743503953567887_"  style="overflow:visible;"/>
				</clipPath>
				<g style="clip-path:url(#SVGID_00000049909355640958377530000009574870917046274444_);">
					<defs>
						<rect id="SVGID_00000120526544969834093890000015427783540538898570_" x="16.2" y="23.2" width="3.4" height="3.4"/>
					</defs>
					<clipPath id="SVGID_00000173151849080787844020000010568381885927312045_">
						<use xlink:href="#SVGID_00000120526544969834093890000015427783540538898570_"  style="overflow:visible;"/>
					</clipPath>
					<path style="clip-path:url(#SVGID_00000173151849080787844020000010568381885927312045_);fill:#354556;" d="M19.7,24.9
						c0,0.9-0.8,1.7-1.7,1.7c-0.9,0-1.7-0.8-1.7-1.7c0-0.9,0.8-1.7,1.7-1.7C18.9,23.2,19.7,23.9,19.7,24.9"/>
				</g>
			</g>
		</g>
		<g class="st12">
			<g>
				<defs>
					<rect id="SVGID_00000047045119866197024540000003365295079424682917_" x="15.6" y="16.2" width="5" height="4"/>
				</defs>
				<clipPath id="SVGID_00000038381417615277526600000017700224430853048991_">
					<use xlink:href="#SVGID_00000047045119866197024540000003365295079424682917_"  style="overflow:visible;"/>
				</clipPath>
				<g style="clip-path:url(#SVGID_00000038381417615277526600000017700224430853048991_);">
					<defs>
						<rect id="SVGID_00000011746767548967637770000001823496685221514886_" x="16.2" y="16.6" width="3.4" height="3.4"/>
					</defs>
					<clipPath id="SVGID_00000064349477336868436600000010143217510763909760_">
						<use xlink:href="#SVGID_00000011746767548967637770000001823496685221514886_"  style="overflow:visible;"/>
					</clipPath>
					<path style="clip-path:url(#SVGID_00000064349477336868436600000010143217510763909760_);fill:#354556;" d="M19.7,18.3
						c0,0.9-0.8,1.7-1.7,1.7c-0.9,0-1.7-0.8-1.7-1.7s0.8-1.7,1.7-1.7C18.9,16.6,19.7,17.4,19.7,18.3"/>
				</g>
			</g>
		</g>
		<path class="st2" d="M9.2,51c0,0.9-0.8,1.7-1.7,1.7c-0.9,0-1.7-0.8-1.7-1.7c0-0.9,0.8-1.7,1.7-1.7C8.4,49.3,9.2,50.1,9.2,51"/>
		<g class="st15">
			<g>
				<defs>
					<rect id="SVGID_00000000916457029622240740000001825145108653190300_" x="5.6" y="42.2" width="4" height="5"/>
				</defs>
				<clipPath id="SVGID_00000141456469045303887920000001764577950139966886_">
					<use xlink:href="#SVGID_00000000916457029622240740000001825145108653190300_"  style="overflow:visible;"/>
				</clipPath>
				<g style="clip-path:url(#SVGID_00000141456469045303887920000001764577950139966886_);">
					<defs>
						<rect id="SVGID_00000034769067155843843290000009166394610419783355_" x="5.8" y="42.8" width="3.4" height="3.4"/>
					</defs>
					<clipPath id="SVGID_00000075136386492396185930000015708351349186469273_">
						<use xlink:href="#SVGID_00000034769067155843843290000009166394610419783355_"  style="overflow:visible;"/>
					</clipPath>
					<path style="clip-path:url(#SVGID_00000075136386492396185930000015708351349186469273_);fill:#354556;" d="M9.2,44.5
						c0,0.9-0.8,1.7-1.7,1.7c-0.9,0-1.7-0.8-1.7-1.7s0.8-1.7,1.7-1.7C8.4,42.8,9.2,43.5,9.2,44.5"/>
				</g>
			</g>
		</g>
		<g class="st3">
			<g>
				<defs>
					<rect id="SVGID_00000106852080719753156160000001457361234482332829_" x="5.6" y="36.2" width="4" height="4"/>
				</defs>
				<clipPath id="SVGID_00000054246030935864772370000014621127432708857781_">
					<use xlink:href="#SVGID_00000106852080719753156160000001457361234482332829_"  style="overflow:visible;"/>
				</clipPath>
				<g style="clip-path:url(#SVGID_00000054246030935864772370000014621127432708857781_);">
					<defs>
						<rect id="SVGID_00000115495180534139175670000013989221719518914458_" x="5.8" y="36.2" width="3.4" height="3.4"/>
					</defs>
					<clipPath id="SVGID_00000099633149876903411050000017944748707081748107_">
						<use xlink:href="#SVGID_00000115495180534139175670000013989221719518914458_"  style="overflow:visible;"/>
					</clipPath>
					<path style="clip-path:url(#SVGID_00000099633149876903411050000017944748707081748107_);fill:#354556;" d="M9.2,37.9
						c0,0.9-0.8,1.7-1.7,1.7c-0.9,0-1.7-0.8-1.7-1.7c0-0.9,0.8-1.7,1.7-1.7C8.4,36.2,9.2,37,9.2,37.9"/>
				</g>
			</g>
		</g>
		<path class="st2" d="M29.6,51c0,0.9-0.8,1.7-1.7,1.7c-0.9,0-1.7-0.8-1.7-1.7c0-0.9,0.8-1.7,1.7-1.7C28.8,49.3,29.6,50.1,29.6,51"
			/>
		<path class="st2" d="M29.6,44.5c0,0.9-0.8,1.7-1.7,1.7c-0.9,0-1.7-0.8-1.7-1.7s0.8-1.7,1.7-1.7C28.8,42.8,29.6,43.5,29.6,44.5"/>
		<g class="st3">
			<g>
				<defs>
					<rect id="SVGID_00000042005992831395638780000014037396244453062020_" x="25.6" y="36.2" width="4" height="4"/>
				</defs>
				<clipPath id="SVGID_00000182517233095161041080000015569909306216344200_">
					<use xlink:href="#SVGID_00000042005992831395638780000014037396244453062020_"  style="overflow:visible;"/>
				</clipPath>
				<g style="clip-path:url(#SVGID_00000182517233095161041080000015569909306216344200_);">
					<defs>
						<rect id="SVGID_00000110454537204362628440000015668822591921924012_" x="26.2" y="36.2" width="3.4" height="3.4"/>
					</defs>
					<clipPath id="SVGID_00000044178671893541053380000007973820168093538482_">
						<use xlink:href="#SVGID_00000110454537204362628440000015668822591921924012_"  style="overflow:visible;"/>
					</clipPath>
					<path style="clip-path:url(#SVGID_00000044178671893541053380000007973820168093538482_);fill:#354556;" d="M29.6,37.9
						c0,0.9-0.8,1.7-1.7,1.7c-0.9,0-1.7-0.8-1.7-1.7c0-0.9,0.8-1.7,1.7-1.7C28.8,36.2,29.6,37,29.6,37.9"/>
				</g>
			</g>
		</g>
		<g class="st6">
			<g>
				<defs>
					<rect id="SVGID_00000127737721908370488910000003696374782795356579_" x="25.6" y="29.2" width="4" height="4"/>
				</defs>
				<clipPath id="SVGID_00000168823173860261545740000010505990812898821027_">
					<use xlink:href="#SVGID_00000127737721908370488910000003696374782795356579_"  style="overflow:visible;"/>
				</clipPath>
				<g style="clip-path:url(#SVGID_00000168823173860261545740000010505990812898821027_);">
					<defs>
						<rect id="SVGID_00000008827260355654488530000006437127997552202686_" x="26.2" y="29.7" width="3.4" height="3.4"/>
					</defs>
					<clipPath id="SVGID_00000145021362910359828820000006475466381601867692_">
						<use xlink:href="#SVGID_00000008827260355654488530000006437127997552202686_"  style="overflow:visible;"/>
					</clipPath>
					<path style="clip-path:url(#SVGID_00000145021362910359828820000006475466381601867692_);fill:#354556;" d="M29.6,31.4
						c0,0.9-0.8,1.7-1.7,1.7c-0.9,0-1.7-0.8-1.7-1.7c0-0.9,0.8-1.7,1.7-1.7C28.8,29.7,29.6,30.5,29.6,31.4"/>
				</g>
			</g>
		</g>
		<g class="st9">
			<g>
				<defs>
					<rect id="SVGID_00000057830436753707924950000006175836532872105650_" x="25.6" y="22.2" width="4" height="5"/>
				</defs>
				<clipPath id="SVGID_00000031921095209903300270000000411050022227348669_">
					<use xlink:href="#SVGID_00000057830436753707924950000006175836532872105650_"  style="overflow:visible;"/>
				</clipPath>
				<g style="clip-path:url(#SVGID_00000031921095209903300270000000411050022227348669_);">
					<defs>
						<rect id="SVGID_00000168812137680374621620000002492629993574642857_" x="26.2" y="23.2" width="3.4" height="3.4"/>
					</defs>
					<clipPath id="SVGID_00000040548747049097023110000000279036674519387791_">
						<use xlink:href="#SVGID_00000168812137680374621620000002492629993574642857_"  style="overflow:visible;"/>
					</clipPath>
					<path style="clip-path:url(#SVGID_00000040548747049097023110000000279036674519387791_);fill:#354556;" d="M29.6,24.9
						c0,0.9-0.8,1.7-1.7,1.7c-0.9,0-1.7-0.8-1.7-1.7c0-0.9,0.8-1.7,1.7-1.7C28.8,23.2,29.6,23.9,29.6,24.9"/>
				</g>
			</g>
		</g>
		<g class="st12">
			<g>
				<defs>
					<rect id="SVGID_00000155117872529630577670000013399795132091205287_" x="25.6" y="16.2" width="4" height="4"/>
				</defs>
				<clipPath id="SVGID_00000090260141524484046750000010663016671631068577_">
					<use xlink:href="#SVGID_00000155117872529630577670000013399795132091205287_"  style="overflow:visible;"/>
				</clipPath>
				<g style="clip-path:url(#SVGID_00000090260141524484046750000010663016671631068577_);">
					<defs>
						<rect id="SVGID_00000098917040367035082320000011582341813154177450_" x="26.2" y="16.6" width="3.4" height="3.4"/>
					</defs>
					<clipPath id="SVGID_00000180336991071492852130000007727111939168737187_">
						<use xlink:href="#SVGID_00000098917040367035082320000011582341813154177450_"  style="overflow:visible;"/>
					</clipPath>
					<path style="clip-path:url(#SVGID_00000180336991071492852130000007727111939168737187_);fill:#354556;" d="M29.6,18.3
						c0,0.9-0.8,1.7-1.7,1.7c-0.9,0-1.7-0.8-1.7-1.7s0.8-1.7,1.7-1.7C28.8,16.6,29.6,17.4,29.6,18.3"/>
				</g>
			</g>
		</g>
		<path class="st2" d="M39.6,51c0,0.9-0.8,1.7-1.7,1.7c-0.9,0-1.7-0.8-1.7-1.7c0-0.9,0.8-1.7,1.7-1.7C38.8,49.3,39.6,50.1,39.6,51"
			/>
		<path class="st2" d="M39.6,44.5c0,0.9-0.8,1.7-1.7,1.7c-0.9,0-1.7-0.8-1.7-1.7s0.8-1.7,1.7-1.7C38.8,42.8,39.6,43.5,39.6,44.5"/>
		<g class="st3">
			<g>
				<defs>
					<rect id="SVGID_00000077296361534702878820000002535717137924075138_" x="35.6" y="36.2" width="4" height="4"/>
				</defs>
				<clipPath id="SVGID_00000129182926220808892260000002342529042782375065_">
					<use xlink:href="#SVGID_00000077296361534702878820000002535717137924075138_"  style="overflow:visible;"/>
				</clipPath>
				<g style="clip-path:url(#SVGID_00000129182926220808892260000002342529042782375065_);">
					<defs>
						<rect id="SVGID_00000033369945704587294210000014730576609642442384_" x="36.1" y="36.2" width="3.4" height="3.4"/>
					</defs>
					<clipPath id="SVGID_00000133510817592940186890000000241932353780666510_">
						<use xlink:href="#SVGID_00000033369945704587294210000014730576609642442384_"  style="overflow:visible;"/>
					</clipPath>
					<path style="clip-path:url(#SVGID_00000133510817592940186890000000241932353780666510_);fill:#354556;" d="M39.6,37.9
						c0,0.9-0.8,1.7-1.7,1.7c-0.9,0-1.7-0.8-1.7-1.7c0-0.9,0.8-1.7,1.7-1.7C38.8,36.2,39.6,37,39.6,37.9"/>
				</g>
			</g>
		</g>
		<g class="st6">
			<g>
				<defs>
					<rect id="SVGID_00000087375396502297801890000008417703422848902307_" x="35.6" y="29.2" width="4" height="4"/>
				</defs>
				<clipPath id="SVGID_00000098915784594787384100000009264546139206649737_">
					<use xlink:href="#SVGID_00000087375396502297801890000008417703422848902307_"  style="overflow:visible;"/>
				</clipPath>
				<g style="clip-path:url(#SVGID_00000098915784594787384100000009264546139206649737_);">
					<defs>
						<rect id="SVGID_00000153679436125202193190000011668422109786395056_" x="36.1" y="29.7" width="3.4" height="3.4"/>
					</defs>
					<clipPath id="SVGID_00000163761394256617846760000009241805749250900667_">
						<use xlink:href="#SVGID_00000153679436125202193190000011668422109786395056_"  style="overflow:visible;"/>
					</clipPath>
					<path style="clip-path:url(#SVGID_00000163761394256617846760000009241805749250900667_);fill:#354556;" d="M39.6,31.4
						c0,0.9-0.8,1.7-1.7,1.7c-0.9,0-1.7-0.8-1.7-1.7c0-0.9,0.8-1.7,1.7-1.7C38.8,29.7,39.6,30.5,39.6,31.4"/>
				</g>
			</g>
		</g>
	</g>
	<g>
		<path class="st32" d="M38.2,54.2c0.2,0.2,0.5,0.4,0.9,0.4H91c0.7,0,1.3-0.6,1.3-1.3V25.7c0-0.7-0.6-1.3-1.3-1.3H39
			c-0.7,0-1.3,0.6-1.3,1.3v27.6C37.8,53.7,37.9,54,38.2,54.2"/>
		<path class="st33" d="M67.2,38.9c0-1.2-1-2.2-2.2-2.2c-1.2,0-2.2,1-2.2,2.2c0,1.2,1,2.2,2.2,2.2C66.2,41,67.2,40.1,67.2,38.9"/>
		<path class="st32" d="M28.6,54.6H35c0-1.5-1.2-2.6-2.6-2.6h-1.2C29.8,51.9,28.6,53.1,28.6,54.6"/>
	</g>
	<g>
		<path class="st34" d="M6.7,53.9h8.4v-10c0-0.4-0.3-0.7-0.7-0.7H7.5c-0.4,0-0.7,0.3-0.7,0.7V53.9z"/>
		<path class="st35" d="M6.7,53.9h8.4v-10c0-0.4-0.3-0.7-0.7-0.7H7.5c-0.4,0-0.7,0.3-0.7,0.7V53.9z"/>
		<path class="st35" d="M4.2,52.3h2.4v-6.6H4.2c-0.4,0-0.7,0.3-0.7,0.7v5.2C3.5,52,3.8,52.3,4.2,52.3z"/>
	</g>
	<g>
		<path class="st36" d="M114.7,45.3h-3c0-2.3-1.9-4.1-4.1-4.1v-3C111.5,38.2,114.7,41.4,114.7,45.3"/>
		<path class="st2" d="M107.6,52.5c-4,0-7.2-3.2-7.2-7.2c0-4,3.2-7.2,7.2-7.2v3c-2.3,0-4.2,1.9-4.2,4.2c0,2.3,1.9,4.2,4.2,4.2
			c2.3,0,4.2-1.9,4.2-4.2h3C114.7,49.2,111.5,52.5,107.6,52.5"/>
		<path class="st37" d="M111.3,5.1l0.7-0.4l-0.4-0.9L110.8,4c-0.1-0.1-0.2-0.2-0.3-0.3l0.1-0.8l-0.8-0.3l-0.4,0.7
			c-0.1,0-0.3,0-0.4,0l-0.4-0.7L107.7,3l0.1,0.9c-0.1,0.1-0.2,0.2-0.3,0.3l-0.8-0.1l-0.3,0.8l0.7,0.4c0,0.1,0,0.3,0,0.4l-0.7,0.4
			l0.4,0.9l0.8-0.2c0.1,0.1,0.2,0.2,0.3,0.3L107.8,8l0.9,0.3l0.4-0.7c0.1,0,0.3,0,0.4,0l0.4,0.7l0.9-0.4l-0.2-0.8
			c0.1-0.1,0.2-0.2,0.3-0.3l0.8,0.1L112,6l-0.7-0.4C111.3,5.4,111.3,5.3,111.3,5.1z M109.6,6.3c-0.4,0.2-1,0-1.2-0.4
			c-0.2-0.4,0-1,0.4-1.2s1,0,1.2,0.4C110.3,5.5,110.1,6.1,109.6,6.3z"/>
		<path class="st38" d="M106.5,13.9c0.1-0.2,0.3-0.4,0.3-0.6h1.3l0.2-1.7l-1.3-0.3c0-0.2-0.1-0.4-0.2-0.7l0.9-1l-1-1.3L105.6,9
			c-0.2-0.1-0.4-0.3-0.6-0.3V7.5l-1.7-0.2L103,8.6c-0.2,0-0.4,0.1-0.7,0.1l-1-0.9l-1.2,1l0.7,1.1c-0.1,0.2-0.3,0.4-0.3,0.6h-1.2
			l-0.2,1.7l1.2,0.3c0,0.2,0.1,0.4,0.2,0.7l-0.9,1l1,1.3l1.1-0.7c0.2,0.1,0.4,0.3,0.6,0.3v1.3l1.7,0.2l0.3-1.3
			c0.2,0,0.4-0.1,0.7-0.2l1,0.9l1.3-1L106.5,13.9z M103.6,13.4c-0.9,0-1.5-0.7-1.5-1.5c0-0.9,0.7-1.5,1.5-1.5c0.9,0,1.5,0.7,1.5,1.5
			C105.1,12.8,104.4,13.5,103.6,13.4z"/>
		<circle class="st1" cx="87.1" cy="17.9" r="2.3"/>
		<path class="st39" d="M90.4,17.9L90.4,17.9c0-1.9-1.5-3.4-3.4-3.4s-3.4,1.5-3.4,3.4s1.5,3.4,3.4,3.4C89,21.2,90.4,19.7,90.4,17.9z
			 M89.2,17.9L89.2,17.9c0,1.2-1,2.1-2.1,2.1c-1.2,0-2.1-1-2.1-2.1c0-1.2,1-2.1,2.1-2.1C88.2,15.7,89.2,16.7,89.2,17.9z"/>
		<path class="st1" d="M60.7,14.9l-3.4,3.6l3.4,3.6l0.6-0.6l-2.8-3.1l2.8-3.1L60.7,14.9z M66.9,14.9l-0.6,0.6l2.8,3.1l-2.8,3.1
			l0.6,0.6l3.4-3.6L66.9,14.9z M61.7,22.7l0.8,0.3l3.4-8.5l-0.8-0.3L61.7,22.7z"/>
		<circle class="st40" cx="90.1" cy="35.1" r="1.8"/>
		<circle class="st40" cx="96.6" cy="28.6" r="1.8"/>
		<circle class="st40" cx="101.8" cy="32.2" r="1.8"/>
		<circle class="st40" cx="108.2" cy="25.8" r="1.8"/>
		<path class="st41" d="M108.2,23.5c-1.2,0-2.2,1-2.2,2.2c0,0.4,0.1,0.9,0.4,1.2l-3.3,3.4c-0.8-0.5-1.9-0.4-2.7,0.2l-1.6-1.1
			c0.1-0.3,0.2-0.6,0.2-0.8c0-1.2-1-2.3-2.2-2.3c-1.2,0-2.3,1-2.3,2.2c0,0.4,0.1,0.9,0.3,1.2l-3.5,3.5c-0.4-0.2-0.8-0.4-1.2-0.3
			c-1.2,0-2.2,1-2.2,2.2s1,2.2,2.2,2.2s2.3-1,2.3-2.2c0-0.4-0.1-0.8-0.4-1.2l3.4-3.4c0.4,0.2,0.8,0.3,1.2,0.3c0.6,0,1.1-0.2,1.5-0.6
			l1.6,1.1c-0.1,0.3-0.2,0.6-0.2,0.8c0,1.2,1,2.2,2.3,2.2c1.3,0,2.2-1,2.2-2.3c0-0.4-0.1-0.8-0.4-1.2l3.3-3.4
			c1.1,0.7,2.5,0.4,3.1-0.7c0.5-1,0.1-2-0.3-2.4C109.5,24.1,108.6,23.5,108.2,23.5L108.2,23.5z M90.1,36.3c-0.7,0-1.2-0.6-1.2-1.2
			c0-0.6,0.6-1.2,1.2-1.2s1.2,0.6,1.2,1.2C91.3,35.7,90.8,36.3,90.1,36.3z M96.6,29.8c-0.7,0-1.2-0.6-1.2-1.3c0-0.7,0.6-1.2,1.3-1.2
			s1.2,0.6,1.2,1.2C97.9,29.3,97.3,29.8,96.6,29.8L96.6,29.8z M101.8,33.5c-0.7,0-1.2-0.6-1.2-1.2c0-0.7,0.6-1.2,1.2-1.2
			c0.7,0,1.2,0.6,1.2,1.2C103.1,32.9,102.5,33.5,101.8,33.5z M108.2,27c-0.7,0-1.2-0.6-1.2-1.2c0-0.6,0.6-1.2,1.2-1.2
			s1.2,0.6,1.2,1.2C109.4,26.4,108.9,27,108.2,27z"/>
	</g>
</g>
</svg>
