<svg id="Layer_1" data-name="Layer 1" xmlns="http://www.w3.org/2000/svg" xmlns:xlink="http://www.w3.org/1999/xlink" viewBox="0 0 110 62"><defs><style>.cls-1{opacity:0.5;}.cls-2,.cls-3,.cls-4,.cls-5,.cls-6,.cls-7{fill:#354557;}.cls-3{opacity:0.3;}.cls-4{opacity:0.2;}.cls-5{opacity:0.1;}.cls-6{opacity:0.05;}.cls-7{opacity:0.6;}.cls-8{fill:#18c0dc;stroke-miterlimit:10;}.cls-10,.cls-12,.cls-13,.cls-8{stroke:#354557;stroke-width:1.25px;}.cls-9{fill:#e5e5e5;}.cls-10{fill:#ca4b2f;}.cls-10,.cls-12,.cls-13{stroke-linecap:round;stroke-linejoin:round;}.cls-11{fill:#d2653e;}.cls-12,.cls-13{fill:none;}.cls-13{stroke-dasharray:0 3.08;}</style><symbol id="Expanding_around_the_globe" data-name="Expanding around the globe" viewBox="0 0 97.99 50.92"><g class="cls-1"><path class="cls-2" d="M32.4,49.52H27.83a2.29,2.29,0,0,1,4.57,0Z"/><circle class="cls-2" cx="30.11" cy="40.84" r="2.28"/><circle class="cls-3" cx="30.11" cy="32.11" r="2.28"/><circle class="cls-4" cx="30.11" cy="23.37" r="2.28"/><circle class="cls-5" cx="30.11" cy="14.64" r="2.28"/><circle class="cls-6" cx="30.11" cy="5.9" r="2.28"/><path class="cls-2" d="M18.38,49.52H13.82a2.28,2.28,0,0,1,4.56,0Z"/><circle class="cls-7" cx="16.09" cy="40.84" r="2.28"/><circle class="cls-7" cx="2.28" cy="40.84" r="2.28"/><circle class="cls-3" cx="16.09" cy="32.11" r="2.28"/><path class="cls-2" d="M45.69,49.52H41.13a2.28,2.28,0,0,1,4.56,0Z"/><circle class="cls-2" cx="43.41" cy="40.84" r="2.28"/><circle class="cls-3" cx="43.41" cy="32.11" r="2.28"/><circle class="cls-4" cx="43.41" cy="23.37" r="2.28"/><circle class="cls-5" cx="43.41" cy="14.64" r="2.28"/><circle class="cls-6" cx="43.41" cy="5.9" r="2.28"/><path class="cls-2" d="M59,49.52H54.42a2.28,2.28,0,0,1,4.56,0Z"/><circle class="cls-2" cx="56.7" cy="40.84" r="2.28"/><circle class="cls-3" cx="56.7" cy="32.11" r="2.28"/><circle class="cls-4" cx="56.7" cy="23.37" r="2.28"/><path class="cls-2" d="M72.28,49.52H67.72a2.28,2.28,0,0,1,4.56,0Z"/><circle class="cls-2" cx="69.99" cy="40.84" r="2.28"/><circle class="cls-3" cx="69.99" cy="32.11" r="2.28"/><circle class="cls-4" cx="69.99" cy="23.37" r="2.28"/><circle class="cls-5" cx="69.99" cy="14.64" r="2.28"/><path class="cls-2" d="M85.56,49.52H81a2.28,2.28,0,0,1,4.55,0Z"/><circle class="cls-7" cx="83.29" cy="40.84" r="2.28"/><path class="cls-2" d="M98,49.52H93.43a2.28,2.28,0,0,1,4.56,0Z"/><circle class="cls-7" cx="95.71" cy="40.84" r="2.28"/><circle class="cls-3" cx="83.29" cy="32.11" r="2.28"/><circle class="cls-4" cx="83.29" cy="23.37" r="2.28"/><circle class="cls-3" cx="95.6" cy="32.11" r="2.28"/><circle class="cls-4" cx="95.6" cy="23.37" r="2.28"/><circle class="cls-5" cx="83.29" cy="14.64" r="2.28"/><circle class="cls-6" cx="83.29" cy="5.9" r="2.28"/></g><circle class="cls-8" cx="56.97" cy="29.25" r="21.05"/><path class="cls-9" d="M61.31,9.62,59.2,11.37l.15,1.38,3.39.77-1.85,1.54-4.46-1.23-.31,1.39-2.46.61-1.23-1.08-.62,1.39,1.08,1.38-.77.93-.77.92,2.77.15,1.54-1.23L58,18.6l1.38,2.31L61.5,22l1.39-2,.92-.93,1.54.31-.23,1.84-2.85,2-2.14,1.22-3.86-1.53-3.69-2.77a14.76,14.76,0,0,0-3.23,1.23c-.46.46-2.92,3.23-2.92,3.23l-.08,4.06,2.23,3.79,5.08,1.08,2,.15.77,1.69.46,4.46-.31,1.85,1.85,3.23a27.72,27.72,0,0,0,3.07,1.54,16.82,16.82,0,0,1,2.16.92l1.08-1.84V41.22l2.77-5.08,2.3-3.54.46-2.46-1.38-.46-1.69.15-.62-1.23,1.08-1.38,4.59.59,4.18.33a16.56,16.56,0,0,1,1.06,1.68l-.1-2.53-.92-4.2-1.08-2.52L74,18.21l-1.16-1.72-1.6-1.71L69.9,13.55,68,12.17l-1.66-.95-1.93-.89-1.75-.62-.95-.27-.19.06Z"/><path class="cls-10" d="M50,34.09a4.39,4.39,0,0,0-8.78,0c0,2.43,4.39,8,4.39,8S50,36.52,50,34.09Z"/><circle class="cls-11" cx="45.58" cy="34.17" r="1.79"/><path class="cls-12" d="M83.18,24.58c-4.35,5-11.27,10.32-19.69,14.72C46.84,48,30.61,49.8,27.25,43.36c-2.16-4.14,1.51-10.69,8.83-17.14"/><line class="cls-12" x1="66.18" y1="9.93" x2="66.18" y2="9.93"/><path class="cls-13" d="M69.16,9.16c9.14-2.1,16.28-1.3,18.39,2.74,1.52,2.92.14,7-3.39,11.5"/><line class="cls-12" x1="83.18" y1="24.58" x2="83.18" y2="24.58"/><path class="cls-10" d="M68.64,5a4.39,4.39,0,1,0-8.78,0c0,2.43,4.39,8,4.39,8S68.64,7.44,68.64,5Z"/><circle class="cls-11" cx="64.22" cy="5.09" r="1.79"/></symbol></defs><title>expanding-around-globe</title><use id="Expanding_around_the_globe-3" data-name="Expanding around the globe" width="97.99" height="50.92" transform="translate(-0.1 6.19) scale(1.12)" xlink:href="#Expanding_around_the_globe"/></svg>