<?xml version="1.0" encoding="utf-8"?>
<!-- Generator: Adobe Illustrator 27.2.0, SVG Export Plug-In . SVG Version: 6.00 Build 0)  -->
<svg version="1.1" id="Layer_1" xmlns="http://www.w3.org/2000/svg" xmlns:xlink="http://www.w3.org/1999/xlink" x="0px" y="0px"
	 viewBox="0 0 35 34" style="enable-background:new 0 0 35 34;" xml:space="preserve">
<style type="text/css">
	.st0{fill:#FFFFFF;stroke:#0074BC;stroke-width:2.25;}
	.st1{fill:#0066CC;}
</style>
<g>
	<path class="st0" d="M17.7,1.8C9.2,1.8,2.3,8.7,2.3,17.2s6.9,15.4,15.4,15.4 M17.7,32.6c8.5,0,15.4-6.9,15.4-15.4
		S26.2,1.8,17.7,1.8"/>
</g>
<g>
	<path class="st1" d="M12.6,18.7c-0.6,0-1,0-1.5,0c-1.2,0.1-2.4,1-2.5,2c-0.2,1,0.4,2.2,1.4,2.7c1,0.5,2.1,0.2,3.1-0.7
		c0.5-0.5,0.8-1.1,1-1.7c0.4-1,1.2-1.7,2.1-2.3c0.3-0.2,0.6-0.2,0.9,0c0.3,0.2,0.2,0.5,0.2,0.7c0,1.3-0.5,2.4-1.2,3.4
		c-0.3,0.4-0.6,0.9-0.7,1.4c-0.2,1,0,2,0.8,2.6c0.8,0.6,1.7,0.8,2.6,0.3c1-0.4,1.4-1.2,1.5-2.2c0-0.9-0.4-1.7-0.9-2.4
		c-0.7-0.9-1.2-1.9-1.1-3.1c0-0.3,0-0.6,0.3-0.8c0.4-0.2,0.7,0,0.9,0.2c0.9,0.6,1.6,1.4,2.1,2.4c0.3,0.7,0.7,1.3,1.3,1.8
		c0.8,0.6,1.6,0.8,2.6,0.4c1-0.4,1.5-1.3,1.5-2.4c0-1-0.6-1.6-1.4-2.1c-0.9-0.5-1.9-0.4-2.9-0.3c-1.1,0.1-2-0.2-2.9-0.7
		c-0.3-0.1-0.5-0.3-0.5-0.6c0-0.4,0.2-0.5,0.5-0.6c1-0.5,2.1-0.8,3.2-0.7c0.5,0,1.1,0,1.6,0c1.2-0.1,2.1-1.1,2.4-2.1
		c0.2-0.9-0.3-1.9-1.2-2.5c-0.9-0.6-1.9-0.4-2.9,0.3c-0.5,0.4-0.9,0.9-1.1,1.6c-0.5,1.2-1.2,2.1-2.3,2.8c-0.2,0.1-0.5,0.2-0.7,0.1
		c-0.3-0.1-0.4-0.4-0.3-0.6c0.1-1.2,0.3-2.3,1-3.2c0.4-0.5,0.7-1,0.9-1.6c0.3-1.1,0.1-2-0.7-2.8c-0.8-0.7-1.9-0.8-2.8-0.3
		c-1,0.5-1.4,1.4-1.3,2.5c0.1,0.9,0.5,1.6,0.9,2.2c0.7,1,1.1,2.1,1.1,3.3c0,0.6-0.5,0.9-0.9,0.6c-0.9-0.5-1.6-1.1-2.1-2.1
		c-0.2-0.6-0.5-1.1-0.9-1.6c-0.6-1-1.8-1.5-2.9-1.3c-0.9,0.2-1.6,1-1.8,1.9c-0.2,1,0.2,2,1.2,2.6c0.6,0.4,1.3,0.5,2,0.4
		c1.3-0.1,2.6-0.2,3.8,0.6c0.3,0.2,0.5,0.3,0.5,0.7S16,17.9,15.7,18C14.7,18.6,13.6,18.8,12.6,18.7z"/>
</g>
</svg>
