<?xml version="1.0" encoding="utf-8"?>
<!-- Generator: Adobe Illustrator 23.0.3, SVG Export Plug-In . SVG Version: 6.00 Build 0)  -->
<svg version="1.1" id="Layer_1" xmlns="http://www.w3.org/2000/svg" xmlns:xlink="http://www.w3.org/1999/xlink" x="0px" y="0px"
	 viewBox="0 0 35.68 35.93" style="enable-background:new 0 0 35.68 35.93;" xml:space="preserve">
<style type="text/css">
	.st0{clip-path:url(#SVGID_2_);fill:#FFFFFF;stroke:#00829B;stroke-width:2.5;}
	.st1{fill:#03829B;stroke:#03829B;stroke-width:0.5;stroke-miterlimit:10;}
</style>
<g>
	<defs>
		<rect id="SVGID_1_" x="0.27" y="0.7" width="35" height="35"/>
	</defs>
	<clipPath id="SVGID_2_">
		<use xlink:href="#SVGID_1_"  style="overflow:visible;"/>
	</clipPath>
	<circle class="st0" cx="17.77" cy="18.2" r="16.17"/>
</g>
<g>
	<path class="st1" d="M17.84,29.28c-5.99,0-10.86-4.87-10.86-10.86c0-2.46,0.8-4.78,2.32-6.71c0.23-0.29,0.66-0.35,0.95-0.11
		c0.3,0.23,0.35,0.66,0.11,0.95c-1.33,1.69-2.03,3.72-2.03,5.87c0,5.24,4.26,9.5,9.5,9.5c1.85,0,3.64-0.53,5.18-1.53
		c0.31-0.2,0.74-0.12,0.94,0.2c0.21,0.31,0.12,0.73-0.2,0.94C22,28.67,19.95,29.28,17.84,29.28z M20.38,26.12
		c-0.28,0-0.54-0.17-0.64-0.45c-0.13-0.35,0.05-0.74,0.41-0.87c2.68-0.97,4.48-3.54,4.48-6.39c0-0.86-0.16-1.69-0.47-2.48
		c-0.14-0.35,0.03-0.74,0.38-0.88c0.35-0.14,0.74,0.03,0.88,0.38c0.37,0.95,0.56,1.95,0.56,2.98c0,3.42-2.16,6.5-5.37,7.66
		C20.54,26.11,20.46,26.12,20.38,26.12z M17.84,21.13c-0.64,0-1.26-0.22-1.75-0.63c-0.62-0.52-0.97-1.28-0.97-2.08
		c0-0.3,0.05-0.59,0.14-0.87c0.12-0.36,0.51-0.54,0.86-0.42c0.36,0.12,0.54,0.51,0.42,0.86c-0.05,0.14-0.07,0.29-0.07,0.44
		c0,0.4,0.18,0.78,0.49,1.04c0.31,0.26,0.71,0.37,1.12,0.3c0.53-0.09,0.99-0.55,1.08-1.08c0.07-0.37-0.01-0.74-0.23-1.04
		c-0.21-0.29-0.53-0.5-0.89-0.56c-0.52-0.08-0.9-0.53-0.9-1.07v-2.34c0-0.37,0.3-0.68,0.68-0.68c0.37,0,0.68,0.3,0.68,0.68v2.12
		c0.62,0.16,1.17,0.54,1.54,1.06c0.42,0.6,0.59,1.33,0.46,2.06c-0.19,1.09-1.09,1.99-2.19,2.19C18.17,21.12,18,21.13,17.84,21.13z
		 M17.44,26.55l-0.06,0c-3.2-0.18-6-2.23-7.15-5.23c-0.13-0.35,0.04-0.74,0.39-0.88c0.35-0.13,0.74,0.04,0.88,0.39
		c0.92,2.41,3.12,4.08,5.67,4.33v-1.61c0-0.57,0.44-1.03,1.01-1.08c2.13-0.17,3.77-1.98,3.74-4.12c-0.03-2.15-1.87-3.98-4.01-4.01
		c-1.11-0.02-2.14,0.4-2.92,1.17c-0.78,0.77-1.21,1.8-1.21,2.9c0,1.48,0.81,2.85,2.11,3.57c0.33,0.18,0.45,0.59,0.27,0.92
		c-0.18,0.33-0.59,0.45-0.92,0.27c-1.73-0.96-2.81-2.78-2.81-4.76c0-1.46,0.57-2.84,1.62-3.87c1.04-1.03,2.42-1.59,3.89-1.56
		c2.91,0.04,5.31,2.44,5.35,5.35c0.04,2.77-2.03,5.13-4.75,5.47v1.66c0,0.3-0.13,0.59-0.34,0.8C17.97,26.45,17.71,26.55,17.44,26.55
		z M14.45,15.7c-0.17,0-0.35-0.07-0.48-0.2l-1.7-1.7c-0.27-0.27-0.27-0.69,0-0.96c0.27-0.27,0.69-0.27,0.96,0l1.7,1.7
		c0.27,0.27,0.27,0.69,0,0.96C14.79,15.64,14.62,15.7,14.45,15.7z M25.19,25.95c-0.29,0-0.57-0.12-0.78-0.33l-1.62-1.64
		c-0.26-0.27-0.26-0.7,0.01-0.96c0.27-0.26,0.7-0.26,0.96,0.01l1.42,1.43c1.4-1.7,2.17-3.84,2.17-6.05c0-4.34-2.93-8.13-7.13-9.21
		c-0.36-0.09-0.58-0.46-0.49-0.83c0.09-0.36,0.47-0.58,0.83-0.49c4.8,1.23,8.15,5.56,8.15,10.52c0,2.64-0.96,5.19-2.7,7.17
		c-0.19,0.22-0.48,0.36-0.78,0.36L25.19,25.95z M21.37,15.92c-0.17,0-0.35-0.07-0.48-0.2c-0.27-0.26-0.27-0.69,0-0.96l1.43-1.43
		c-1.15-1.01-2.6-1.6-4.13-1.68c-0.58-0.03-1.03-0.5-1.03-1.08V8.94c-1.83,0.13-3.57,0.78-5.04,1.89c-0.3,0.23-0.73,0.17-0.95-0.13
		C10.94,10.4,11,9.97,11.3,9.74c1.77-1.33,3.87-2.09,6.08-2.18c0.29-0.02,0.58,0.1,0.79,0.3c0.22,0.21,0.34,0.49,0.34,0.79v1.64
		c1.85,0.15,3.61,0.94,4.96,2.24c0.21,0.2,0.33,0.47,0.33,0.76c0,0.29-0.11,0.58-0.32,0.78l-1.63,1.63
		C21.72,15.85,21.54,15.92,21.37,15.92z M9.98,19.1H7.66c-0.37,0-0.68-0.3-0.68-0.68s0.3-0.68,0.68-0.68h2.06
		c0.27-3.28,2.53-6.11,5.68-7.1c0.36-0.11,0.74,0.09,0.85,0.44c0.11,0.36-0.09,0.74-0.44,0.85c-2.69,0.84-4.6,3.3-4.75,6.12
		C11.03,18.64,10.55,19.1,9.98,19.1z"/>
</g>
</svg>
