<?xml version="1.0" encoding="utf-8"?>
<!-- Generator: Adobe Illustrator 27.9.0, SVG Export Plug-In . SVG Version: 6.00 Build 0)  -->
<svg version="1.1" id="Layer_1" xmlns="http://www.w3.org/2000/svg" xmlns:xlink="http://www.w3.org/1999/xlink" x="0px" y="0px"
	 viewBox="0 0 34.9 34.9" style="enable-background:new 0 0 34.9 34.9;" xml:space="preserve">
<style type="text/css">
	.st0{fill:#FFFFFF;stroke:#F47642;stroke-width:2.25;}
	.st1{fill:#F47642;}
</style>
<circle class="st0" cx="17.4" cy="17.4" r="16.3"/>
<path class="st1" d="M7.2,28.8c0.2-1.6,1.7-3.4,1.9-3.8c0.5,0,0.9,0,1.4,0.1c0.5,0.1,0.9,0.2,1.4,0.3c0,0.2,0,0.4,0,0.6
	c0,2.3,1.9,4.2,4.2,4.2s4.2-1.9,4.2-4.2s-1.9-4.2-4.2-4.2c-1.8,0-3.4,1.2-4,2.8c-0.5-0.1-0.9-0.2-1.4-0.3c-0.3,0-0.6-0.1-0.9-0.1
	c0.4-0.5,0.7-0.9,1.1-1.3c0.3-0.3,0.7-0.6,1-0.9c0.9-0.7,1.7-1.3,2.6-1.8c0.9-0.6,1.9-1.2,3-2.2c0.9,0,1.8,0.2,2.7,0.4
	c0.4,0.1,0.7,0.2,1.1,0.4C21.1,19,21,19.3,21,19.6c0,2.3,1.9,4.2,4.2,4.2s4.2-1.9,4.2-4.2s-1.9-4.2-4.2-4.2c-1.7,0-3.2,1-3.9,2.5
	c-0.4-0.1-0.7-0.3-1.1-0.4c-0.7-0.2-1.4-0.3-2.1-0.4c0.9-0.8,1.6-1.7,2.4-2.6c0,0,0,0,0,0c2.6,0,4.6-2.1,4.6-4.6s-2.1-4.6-4.6-4.6
	S16,7.3,16,9.9c0,2.2,1.6,4.1,3.6,4.5c-0.7,0.8-1.4,1.6-2.2,2.3c-0.1,0.1-0.3,0.3-0.4,0.4c-1.1,1-2.1,1.6-3.1,2.2
	c-0.7,0.4-1.4,0.9-2,1.4c0-0.2-0.1-0.3-0.1-0.5c-0.1-0.3-0.2-0.5-0.4-0.8c1-0.8,1.6-2,1.6-3.3c0-2.3-1.9-4.2-4.2-4.2
	s-4.2,1.9-4.2,4.2s1.9,4.2,4.2,4.2c0.7,0,1.3-0.2,1.9-0.4c0.1,0.2,0.2,0.4,0.3,0.6c0.1,0.3,0.1,0.6,0.1,0.8
	c-0.3,0.3-0.6,0.5-0.9,0.8c-0.6,0.7-1.2,1.3-1.7,2.1c-0.3,0.4-1.9,3.2-2.1,3.7 M14.9,26.6c0.2-0.5,0.4-0.9,0.4-1.4
	c0-0.3-0.1-0.5-0.2-0.8c-0.1-0.5,0.3-1.2,1-1c0.3,0.1,0.5,0.3,0.6,0.5c0.1,0.2,0.2,0.3,0.2,0.5c0.1,0.4,0.1,0.8,0,1.2
	c-0.1,0.5-0.4,0.9-0.4,1.4c0,0.3,0.1,0.7,0,1c-0.1,0.3-0.6,0.5-0.9,0.4c-0.4-0.1-0.6-0.4-0.7-0.7C14.8,27.3,14.8,27,14.9,26.6z
	 M22.7,18.6c0.2-0.2,0.4-0.3,0.6-0.3c0.4,0,0.7,0.3,0.9,0.6c0.4-0.4,1-0.6,1.8-0.6c1.2,0,2.1,0.6,2.1,1.3s-0.9,1.3-2.1,1.3
	c-0.8,0-1.5-0.3-1.8-0.6c-0.2,0.4-0.5,0.6-0.9,0.6c-0.2,0-0.5-0.1-0.6-0.3c0.3-0.2,0.4-0.6,0.4-1C23.2,19.2,23,18.8,22.7,18.6z
	 M19.4,10.7V9.1c0-0.5,0.4-0.8,0.8-0.8h0.4c-0.5,0-0.8-0.4-0.8-0.8c0-0.5,0.4-0.8,0.8-0.8c0.5,0,0.8,0.4,0.8,0.8
	c0,0.5-0.4,0.8-0.8,0.8H21c0.5,0,0.8,0.4,0.8,0.8v1.7l-0.4,0.4v2.1h-1.7v-2.1L19.4,10.7z M10.9,16.4c-0.2,0.2-0.4,0.3-0.6,0.4
	c0.1,0,0.1,0.1,0.2,0.2c0.4,0.4,0.5,1,0.1,1.3c-0.3,0.3-0.9,0.3-1.3-0.1c-0.1-0.1-0.2-0.2-0.2-0.3c-0.1,0-0.1,0-0.2,0
	c-0.1,0.1-0.1,0.2-0.2,0.3c-0.4,0.4-1,0.5-1.3,0.1C7,18,7.1,17.4,7.5,17c0,0,0.1-0.1,0.1-0.1c0,0,0,0,0-0.1
	c-0.2-0.1-0.4-0.3-0.6-0.5c-0.7-0.7-0.9-1.5-0.4-1.9c0.4-0.4,1.3-0.2,1.9,0.4c0.1,0.1,0.3,0.3,0.4,0.5c0,0,0,0,0,0
	c0.1,0,0.1,0,0.2,0c0.1-0.2,0.2-0.3,0.4-0.5c0.7-0.7,1.5-0.9,1.9-0.4C11.8,14.9,11.6,15.8,10.9,16.4z"/>
</svg>
