<?xml version="1.0" encoding="utf-8"?>
<!-- Generator: Adobe Illustrator 27.2.0, SVG Export Plug-In . SVG Version: 6.00 Build 0)  -->
<svg version="1.1" id="Layer_1" xmlns="http://www.w3.org/2000/svg" xmlns:xlink="http://www.w3.org/1999/xlink" x="0px" y="0px"
	 viewBox="0 0 27 27" style="enable-background:new 0 0 27 27;" xml:space="preserve">
<style type="text/css">
	.st0{fill:#FFFFFF;stroke:#15C0DC;stroke-width:2.25;}
	.st1{fill:#15C0DC;}
</style>
<g id="Page-1">
	<g id="Icon-Guide" transform="translate(-115.000000, -18.000000)">
		<g id="Group" transform="translate(116.000000, 19.000000)">
			<path id="Stroke-33" class="st0" d="M24.3,12.3c0,6.5-5.4,11.8-12,11.8s-12-5.3-12-11.8s5.4-11.8,12-11.8
				C19,0.5,24.3,5.8,24.3,12.3z"/>
		</g>
		<path class="st1" d="M134.3,24.3H130c-0.4-0.9-1.4-1.3-2.3-0.9c-0.4,0.2-0.7,0.5-0.9,0.9h-4.3c-0.2,0-0.4,0.2-0.4,0.4v13.6
			c0,0.2,0.2,0.4,0.4,0.4h11.8c0.2,0,0.4-0.2,0.4-0.4V24.8C134.7,24.5,134.5,24.3,134.3,24.3z M125.7,25.2h1.4
			c0.2,0,0.4-0.2,0.4-0.4c0.1-0.5,0.6-0.8,1.1-0.7c0.1,0,0.2,0.1,0.3,0.2c0.2,0.1,0.3,0.3,0.3,0.5c0,0.2,0.2,0.3,0.4,0.3h1.4V26
			c0,0.4-0.3,0.7-0.7,0.7h-4c-0.4,0-0.7-0.3-0.7-0.7L125.7,25.2z M127.1,35.6c0,0.2-0.2,0.4-0.4,0.4h-1.9c-0.2,0-0.4-0.2-0.4-0.4
			v-1.7c0-0.2,0.2-0.4,0.4-0.4h1.9c0.2,0,0.4,0.2,0.4,0.4V35.6z M127.1,31.4c0,0.2-0.2,0.4-0.4,0.4h-1.9c-0.2,0-0.4-0.2-0.4-0.4
			v-1.7c0-0.2,0.2-0.4,0.4-0.4h1.9c0.2,0,0.4,0.2,0.4,0.4V31.4z M132.4,35.2h-3.9v-0.9h3.9V35.2z M132.4,31h-3.9v-0.9h3.9V31z"/>
	</g>
</g>
</svg>
