<?xml version="1.0" encoding="utf-8"?>
<!-- Generator: Adobe Illustrator 25.3.1, SVG Export Plug-In . SVG Version: 6.00 Build 0)  -->
<svg version="1.1" id="Layer_1" xmlns="http://www.w3.org/2000/svg" xmlns:xlink="http://www.w3.org/1999/xlink" x="0px" y="0px"
	 viewBox="0 0 34.9 34.9" style="enable-background:new 0 0 34.9 34.9;" xml:space="preserve">
<style type="text/css">
	.st0{fill:#FFFFFF;stroke:#C31427;stroke-width:2.25;}
	.st1{fill:#C31427;}
</style>
<circle class="st0" cx="17.4" cy="17.5" r="16.3"/>
<path class="st1" d="M21.6,18.8c1.6-1.2,2.6-3.1,2.6-5.3c0-3.7-3-6.7-6.7-6.7s-6.7,3-6.7,6.7c0,2.1,1,4,2.6,5.3
	c-4.1,1.7-7,5.7-7,10.4c0,0.6,0.5,1.1,1.1,1.1s1.1-0.5,1.1-1.1c0-4.9,4-9,9-9s9,4,9,9c0,0.6,0.5,1.1,1.1,1.1s1.1-0.5,1.1-1.1
	C28.6,24.5,25.7,20.4,21.6,18.8z M13,13.5C13,11,15,9,17.4,9s4.5,2,4.5,4.5s-2,4.5-4.5,4.5S13,16,13,13.5z"/>
</svg>
