<?xml version="1.0" encoding="utf-8"?>
<!-- Generator: Adobe Illustrator 23.0.3, SVG Export Plug-In . SVG Version: 6.00 Build 0)  -->
<svg version="1.1" id="Layer_1" xmlns="http://www.w3.org/2000/svg" xmlns:xlink="http://www.w3.org/1999/xlink" x="0px" y="0px"
	 viewBox="0 0 39.48 40.57" style="enable-background:new 0 0 39.48 40.57;" xml:space="preserve">
<style type="text/css">
	.st0{clip-path:url(#SVGID_2_);fill:#FFFFFF;}
	.st1{clip-path:url(#SVGID_4_);fill:none;stroke:#F47642;stroke-width:2.25;}
	.st2{fill:#F47641;}
</style>
<g>
	<defs>
		<rect id="SVGID_1_" x="1.26" y="2.39" width="35" height="35"/>
	</defs>
	<clipPath id="SVGID_2_">
		<use xlink:href="#SVGID_1_"  style="overflow:visible;"/>
	</clipPath>
	<path class="st0" d="M18.76,36.19c9.01,0,16.31-7.3,16.31-16.31S27.76,3.58,18.76,3.58S2.45,10.88,2.45,19.89
		S9.75,36.19,18.76,36.19"/>
</g>
<g>
	<defs>
		<rect id="SVGID_3_" x="1.26" y="2.39" width="35" height="35"/>
	</defs>
	<clipPath id="SVGID_4_">
		<use xlink:href="#SVGID_3_"  style="overflow:visible;"/>
	</clipPath>
	<circle class="st1" cx="18.76" cy="19.89" r="16.31"/>
</g>
<path class="st2" d="M30.57,14.85c-3.04,0-7.32,0.25-9.51,2.44c-0.95,0.95-1.42,2.5-1.3,4.25c0.02,0.23,0.17,0.43,0.39,0.5
	c0.22,0.07,0.46,0,0.61-0.17c1.22-1.43,2.73-2.58,4.51-3.42c0.15-0.07,0.33-0.08,0.49-0.02c0.14,0.05,0.25,0.15,0.31,0.27
	c0.12,0.26,0.08,0.59-0.32,0.78c-0.02,0.01-0.04,0.03-0.07,0.04c-0.01,0-0.02,0-0.02,0.01c-4.37,2.05-6.51,5.63-7.49,9.32
	c-0.71-4.61-2.21-7.32-3.63-8.99c-1.03-1.33-2.04-2.04-2.62-2.43c-0.11-0.07-0.44-0.3-0.57-0.43c-0.22-0.22-0.22-0.58,0-0.81
	c0.22-0.22,0.58-0.22,0.83,0.03c0.06,0.05,0.16,0.12,0.28,0.2l0.1,0.07c0.82,0.56,2.36,1.61,3.72,3.87c0.12,0.2,0.36,0.31,0.59,0.27
	c0.23-0.04,0.41-0.22,0.46-0.45c0.3-1.52,0.16-3.77-1.19-5.13c-2.19-2.19-6.48-2.44-9.51-2.44c-0.31,0-0.57,0.26-0.57,0.57
	c0,3.04,0.25,7.32,2.44,9.51c0.91,0.91,2.32,1.32,3.72,1.32c1.14,0,2.26-0.29,3.12-0.78c1.17,2.42,2.1,6.04,2.1,11.58
	c0,0.31,0.26,0.57,0.57,0.57s0.57-0.26,0.57-0.57c0-3.09,0.53-6.8,2.5-9.85c0.79,0.77,2.15,1.26,3.65,1.31c0.08,0,0.15,0,0.22,0
	c1.53,0,2.88-0.48,3.73-1.33c2.19-2.19,2.44-6.48,2.44-9.51C31.14,15.11,30.89,14.85,30.57,14.85z"/>
</svg>
