<?xml version="1.0" encoding="utf-8"?>
<!-- Generator: Adobe Illustrator 25.3.1, SVG Export Plug-In . SVG Version: 6.00 Build 0)  -->
<svg version="1.1" id="Layer_1" xmlns="http://www.w3.org/2000/svg" xmlns:xlink="http://www.w3.org/1999/xlink" x="0px" y="0px"
	 viewBox="0 0 34.9 34.9" style="enable-background:new 0 0 34.9 34.9;" xml:space="preserve">
<style type="text/css">
	.st0{fill:#FFFFFF;stroke:#F47642;stroke-width:2.25;}
	.st1{fill:#F47642;}
</style>
<circle class="st0" cx="17.4" cy="17.4" r="16.3"/>
<path class="st1" d="M30.2,16.3c-0.4-0.9-1.4-1.3-2.3-0.9l-8.8,4.1l-0.1,0c-0.1,0.1-0.2,0.2-0.3,0.3l-1.5,2.1
	c-0.1,0.1-0.1,0.3,0,0.5c0,0.1,0,0.1,0.1,0.1c0.1,0.1,0.2,0.1,0.3,0.1l2.5,0.2c0.1,0,0.2,0,0.3-0.1l8.9-4.2
	C30.3,18.2,30.6,17.2,30.2,16.3z M29,16c0.3,0.1,0.5,0.3,0.6,0.6c0.2,0.6,0,1.2-0.5,1.4l-0.4,0.2l-0.9-2l0.4-0.2
	C28.4,15.9,28.8,15.9,29,16z M20,20.7c-0.1-0.1-0.2-0.1-0.2-0.2c0-0.2,0-0.4-0.1-0.5l7.5-3.5l0.3,0.7L20,20.7z M27.8,17.8l0.3,0.7
	L20.6,22c-0.1-0.1-0.2-0.3-0.3-0.4c0-0.1,0-0.2,0-0.4L27.8,17.8z M19.1,20.4c0,0.1,0,0.2,0,0.2c-0.1,0.2,0,0.3,0.2,0.4
	s0.2,0.1,0.3,0.3c0,0.1,0.1,0.3,0,0.5c-0.1,0.2,0,0.3,0.2,0.4c0,0,0.2,0.1,0.2,0.1l-2-0.2L19.1,20.4z"/>
<g>
	<path class="st1" d="M11.2,18.3H12c0.3,0,0.6-0.3,0.6-0.6s-0.3-0.6-0.6-0.6h-0.8V13H12c0.3,0,0.6-0.3,0.6-0.6s-0.3-0.6-0.6-0.6
		h-0.8V10h12V17l1.2-0.5V9.8c0-0.5-0.4-0.9-0.9-0.9H11c-0.5,0-0.9,0.4-0.9,0.9v2H9.2c-0.3,0-0.6,0.3-0.6,0.6S8.9,13,9.2,13H10v4.2
		H9.2c-0.3,0-0.6,0.3-0.6,0.6s0.3,0.6,0.6,0.6H10v3.5H9.2c-0.3,0-0.6,0.3-0.6,0.6c0,0.3,0.3,0.6,0.6,0.6H10v2c0,0.5,0.4,0.9,0.9,0.9
		h12.4c0.5,0,0.9-0.4,0.9-0.9v-3.1l-1.2,0.5v2.4h0h-12V23H12c0.3,0,0.6-0.3,0.6-0.6c0-0.3-0.3-0.6-0.6-0.6h-0.8V18.3z"/>
	<path class="st1" d="M21.6,13.7c0-1.4-3.6-1.8-6.6-1.8c-0.3,0-0.5,0.2-0.5,0.4s0.2,0.5,0.4,0.5c2.7,0.1,5.2,0.5,5.7,0.9
		c-0.4,0.2-1.9,0.2-2.8,0.2c-2.1,0-3.6,0.1-3.6,1c0,0.9,1.4,1.2,3.2,1.5c0.6,0.1,1.4,0.2,1.8,0.4c-0.4,0.2-1.3,0.4-1.9,0.5
		c-1,0.2-2,0.5-2.4,0.8c-0.8,0.6-0.2,2-0.1,2.2c0.1,0.2,0.2,0.3,0.4,0.3c0.1,0,0.1,0,0.2,0c0.2-0.1,0.3-0.4,0.2-0.6
		c-0.2-0.4-0.3-1-0.2-1.1c0.3-0.2,1.2-0.5,2-0.6c1.6-0.4,2.7-0.6,2.7-1.4c0-0.7-1.1-0.9-2.7-1.2c-0.7-0.1-2-0.4-2.4-0.5
		c0.5-0.2,1.8-0.2,2.6-0.2C20.1,14.7,21.6,14.6,21.6,13.7z"/>
</g>
</svg>
