<?xml version="1.0" encoding="utf-8"?>
<!-- Generator: Adobe Illustrator 27.2.0, SVG Export Plug-In . SVG Version: 6.00 Build 0)  -->
<svg version="1.1" id="Layer_1" xmlns="http://www.w3.org/2000/svg" xmlns:xlink="http://www.w3.org/1999/xlink" x="0px" y="0px"
	 viewBox="0 0 32.2 32.2" style="enable-background:new 0 0 32.2 32.2;" xml:space="preserve">
<style type="text/css">
	.st0{fill:#007A49;}
	.st1{fill:none;stroke:#007A49;stroke-width:2.25;}
</style>
<g>
	<path class="st0" d="M14,7.4v2.3c0,0.2,0.2,0.4,0.4,0.4h3.3c0.2,0,0.4-0.2,0.4-0.4V7.4c0-0.7-0.5-1.2-1.1-1.4
		c0.3-0.3,0.6-0.7,0.6-1.2c0-0.9-0.7-1.5-1.5-1.5c-0.9,0-1.5,0.7-1.5,1.5c0,0.5,0.2,0.9,0.6,1.2C14.4,6.2,14,6.7,14,7.4z M16,4.1
		c0.4,0,0.7,0.3,0.7,0.7S16.4,5.5,16,5.5c-0.4,0-0.7-0.3-0.7-0.7S15.6,4.1,16,4.1z M14.8,7.4c0-0.3,0.3-0.6,0.6-0.6h1.2
		c0.3,0,0.6,0.3,0.6,0.6v1.9h-2.5V7.4z"/>
	<path class="st0" d="M18.1,24.7v-2.3c0-0.2-0.2-0.4-0.4-0.4h-3.3c-0.2,0-0.4,0.2-0.4,0.4v2.3c0,0.7,0.5,1.2,1.1,1.4
		c-0.3,0.3-0.6,0.7-0.6,1.2c0,0.9,0.7,1.5,1.5,1.5c0.9,0,1.5-0.7,1.5-1.5c0-0.5-0.2-0.9-0.6-1.2C17.6,25.9,18.1,25.3,18.1,24.7z
		 M16,28c-0.4,0-0.7-0.3-0.7-0.7s0.3-0.7,0.7-0.7c0.4,0,0.7,0.3,0.7,0.7C16.7,27.6,16.4,28,16,28z M17.3,24.7c0,0.3-0.3,0.6-0.6,0.6
		h-1.2c-0.3,0-0.6-0.3-0.6-0.6v-1.9h2.5V24.7z"/>
	<path class="st0" d="M4.5,21.8c0.2,0.4,0.5,0.7,0.9,0.8c0.2,0.1,0.3,0.1,0.5,0.1c0.2,0,0.4,0,0.7-0.1c0.4-0.2,0.7-0.5,0.8-0.9
		c0,0,0-0.1,0-0.1c0.3,0.3,0.7,0.5,1.1,0.5c0.2,0,0.4,0,0.6-0.1l2-1c0.2-0.1,0.3-0.3,0.2-0.5l-1.4-3c-0.1-0.2-0.3-0.3-0.5-0.2l-2,1
		c-0.6,0.3-0.9,0.9-0.8,1.6c-0.4-0.2-0.9-0.2-1.3,0C4.4,20.2,4.1,21.1,4.5,21.8L4.5,21.8z M7.7,19l1.7-0.8l1,2.2l-1.7,0.8
		c-0.3,0.1-0.7,0-0.8-0.3l-0.5-1.1C7.2,19.5,7.4,19.1,7.7,19L7.7,19z M5.5,20.5c0.4-0.2,0.8,0,1,0.3c0.1,0.2,0.1,0.4,0,0.6
		c-0.1,0.2-0.2,0.3-0.4,0.4c-0.2,0.1-0.4,0.1-0.6,0c-0.2-0.1-0.3-0.2-0.4-0.4C5,21.1,5.2,20.7,5.5,20.5L5.5,20.5z"/>
	<path class="st0" d="M27.6,10.2c-0.2-0.4-0.5-0.7-0.9-0.8c-0.4-0.1-0.8-0.1-1.2,0.1c-0.4,0.2-0.7,0.5-0.8,0.9c0,0,0,0.1,0,0.1
		c-0.4-0.5-1.1-0.7-1.7-0.4l-2,1c-0.2,0.1-0.3,0.3-0.2,0.5l1.4,3c0.1,0.1,0.2,0.2,0.4,0.2c0.1,0,0.1,0,0.2,0l2-1
		c0.6-0.3,0.9-0.9,0.8-1.6c0.2,0.1,0.4,0.1,0.7,0.1c0.2,0,0.4,0,0.7-0.1C27.6,11.9,27.9,11,27.6,10.2L27.6,10.2z M24.4,13l-1.7,0.8
		l-1-2.2l1.7-0.8c0.3-0.1,0.7,0,0.8,0.3l0.5,1.1C24.8,12.5,24.7,12.9,24.4,13L24.4,13z M26.5,11.5c-0.4,0.2-0.8,0-1-0.3
		c-0.1-0.2-0.1-0.4,0-0.6c0.1-0.2,0.2-0.3,0.4-0.4c0.1,0,0.2-0.1,0.3-0.1c0.1,0,0.2,0,0.2,0c0.2,0.1,0.3,0.2,0.4,0.4
		C27,10.9,26.8,11.3,26.5,11.5L26.5,11.5z"/>
	<path class="st0" d="M11.1,11l-2.1-1C8.4,9.8,7.7,10,7.3,10.4c0,0,0-0.1,0-0.1C7.2,9.9,6.9,9.6,6.5,9.4C6.1,9.3,5.7,9.2,5.3,9.4
		c-0.4,0.1-0.7,0.4-0.9,0.8c-0.4,0.8,0,1.7,0.7,2c0.2,0.1,0.4,0.1,0.7,0.1c0.2,0,0.5-0.1,0.7-0.2c-0.1,0.6,0.2,1.3,0.8,1.6l2,1
		c0.1,0,0.1,0,0.2,0c0.2,0,0.3-0.1,0.4-0.2l1.4-3C11.4,11.3,11.3,11.1,11.1,11L11.1,11z M6.5,11.1c-0.2,0.4-0.6,0.5-1,0.3
		c-0.4-0.2-0.5-0.6-0.3-1c0.1-0.2,0.2-0.3,0.4-0.4c0.1,0,0.2,0,0.2,0c0.1,0,0.2,0,0.3,0.1c0.2,0.1,0.3,0.2,0.4,0.4
		C6.6,10.8,6.6,11,6.5,11.1L6.5,11.1z M9.3,13.8L7.7,13c-0.3-0.1-0.4-0.5-0.3-0.8l0.5-1.1c0.1-0.2,0.3-0.4,0.6-0.4
		c0.1,0,0.2,0,0.3,0.1l1.7,0.8L9.3,13.8L9.3,13.8z"/>
	<path class="st0" d="M27.6,21.9c0.4-0.8,0-1.7-0.7-2c-0.4-0.2-0.9-0.2-1.3,0c0.1-0.6-0.2-1.3-0.8-1.6l-2-1c-0.2-0.1-0.5,0-0.5,0.2
		l-1.4,3c-0.1,0.2,0,0.5,0.2,0.5l2.1,1c0.2,0.1,0.4,0.1,0.6,0.1c0.4,0,0.8-0.2,1.1-0.5c0,0,0,0.1,0,0.1c0.1,0.4,0.4,0.7,0.8,0.9
		c0.2,0.1,0.4,0.1,0.7,0.1c0.2,0,0.4,0,0.5-0.1C27.1,22.5,27.4,22.2,27.6,21.9L27.6,21.9z M24.7,19.8l-0.5,1.1
		c-0.1,0.3-0.5,0.4-0.8,0.3l-1.7-0.8l1-2.2l1.7,0.8C24.7,19.1,24.8,19.5,24.7,19.8L24.7,19.8z M26.4,21.9c-0.2,0.1-0.4,0.1-0.6,0
		c-0.2-0.1-0.3-0.2-0.4-0.4c-0.1-0.2-0.1-0.4,0-0.6c0.1-0.3,0.4-0.4,0.7-0.4c0.1,0,0.2,0,0.3,0.1c0.4,0.2,0.5,0.6,0.3,1
		C26.8,21.7,26.6,21.8,26.4,21.9L26.4,21.9z"/>
	<path class="st0" d="M10.7,16c0,3,2.4,5.3,5.3,5.3s5.3-2.4,5.3-5.3S19,10.7,16,10.7S10.7,13.1,10.7,16z M17.2,12.4
		c-0.1-0.4-0.3-0.7-0.6-0.9c2.2,0.3,3.9,2.2,3.9,4.5c0,0,0,0.1,0,0.1c-0.1-0.1-0.1-0.2-0.1-0.3c-0.1-0.3-0.2-0.6-0.5-0.8
		c-0.4-0.3-0.8-0.4-1.3-0.2l-1.6,0.6c-0.2,0.1-0.5-0.1-0.6-0.3l-0.1-0.3c-0.1-0.3,0-0.5,0.1-0.7l0.2-0.2
		C17.1,13.4,17.3,12.9,17.2,12.4L17.2,12.4z M15.1,11.6c0.3,0.2,0.6,0.4,0.9,0.5c0.2,0.1,0.3,0.2,0.4,0.5s0,0.4-0.2,0.6l-0.2,0.2
		c-0.4,0.4-0.6,1-0.4,1.6l0.1,0.3c0.3,0.7,1,1.1,1.7,0.8l1.5-0.6c0.2-0.1,0.4,0,0.5,0.1c0.1,0.1,0.2,0.2,0.2,0.4
		c0.1,0.5,0.4,0.9,0.8,1c-0.5,2-2.3,3.5-4.4,3.5c-0.7,0-1.3-0.2-1.9-0.4l0.7,0c0.3,0,0.6-0.1,0.9-0.2c0.5-0.3,0.9-0.9,0.8-1.6
		c-0.1-0.9-0.8-1.6-1.8-1.6l-0.5,0c-0.3,0-0.5-0.1-0.7-0.3c-0.2-0.2-0.2-0.5-0.2-0.8l0.1-0.5c0.2-0.8-0.1-1.6-0.7-2l-0.1-0.1
		C13.2,12.3,14.1,11.8,15.1,11.6L15.1,11.6z M12.6,15l-0.1,0.5c-0.1,0.5,0,1.1,0.4,1.5c0.3,0.4,0.8,0.6,1.4,0.6l0.5,0
		c0.5,0,0.9,0.3,0.9,0.8c0,0.3-0.1,0.6-0.4,0.8c-0.1,0.1-0.3,0.1-0.4,0.1l-1,0c-0.3,0-0.6,0-0.9-0.1c-0.8-0.8-1.3-2-1.3-3.2
		c0-0.8,0.2-1.6,0.6-2.3l0,0C12.5,14.1,12.7,14.5,12.6,15L12.6,15z"/>
</g>
<g id="Page-1">
	<g id="Icon-Guide">
		<path id="Stroke-33" class="st1" d="M31.1,16.6c0,5.5-3.1,10.7-8.1,13c-11.1,5-21.8-3-21.8-13.5C1.1,7,9.2-0.2,18.6,1.3
			c7.3,1.2,12.5,7.8,12.5,15.2L31.1,16.6z"/>
	</g>
</g>
</svg>
