<?xml version="1.0" encoding="utf-8"?>
<!-- Generator: Adobe Illustrator 27.5.0, SVG Export Plug-In . SVG Version: 6.00 Build 0)  -->
<svg version="1.1" id="Layer_1" xmlns="http://www.w3.org/2000/svg" xmlns:xlink="http://www.w3.org/1999/xlink" x="0px" y="0px"
	 viewBox="0 0 39.5 40.2" style="enable-background:new 0 0 39.5 40.2;" xml:space="preserve">
<style type="text/css">
	.st0{fill:#FFFFFF;stroke:#0074BC;stroke-width:2.25;}
	.st1{fill:#0074BC;}
</style>
<g id="Layer_1_00000014634805415406019960000004365327341225098419_">
	<g>
		<circle class="st0" cx="19.6" cy="20.4" r="17.5"/>
	</g>
</g>
<path class="st1" d="M21.4,29.7h9.1c0.2,0,0.5-0.1,0.7-0.4c0.2-0.3,0.3-0.6,0.3-1V13.1c0-0.4-0.1-0.7-0.3-1
	c-0.2-0.3-0.4-0.4-0.7-0.4l0,0H9c-0.2,0-0.5,0.1-0.7,0.4c-0.2,0.3-0.3,0.6-0.3,1v15.3c0,0.4,0.1,0.7,0.3,1c0.2,0.3,0.4,0.4,0.7,0.4
	h9.1 M9,12.5h21.5c0.1,0,0.2,0.1,0.3,0.2c0.1,0.1,0.1,0.2,0.1,0.4v13.8H8.6V13.1c0-0.1,0-0.3,0.1-0.4C8.8,12.6,8.9,12.5,9,12.5
	L9,12.5z M30.5,28.9H9c-0.1,0-0.2-0.1-0.3-0.2c-0.1-0.1-0.1-0.2-0.1-0.4v-0.7h22.3v0.7c0,0.1,0,0.3-0.1,0.4
	C30.7,28.8,30.6,28.9,30.5,28.9L30.5,28.9z M10.6,19.1c0-0.2,0.2-0.4,0.4-0.4h2.4c0.2,0,0.4,0.1,0.4,0.3l0.4,1.6l0.5-3.8h0
	c0-0.2,0.2-0.4,0.4-0.4c0.2,0,0.4,0.1,0.5,0.3l0.5,2.5l0.2-0.8v0c0-0.2,0.2-0.3,0.4-0.3c0.2,0,0.4,0.1,0.4,0.3l0.2,0.8l0.4-1.1v0
	c0.1-0.2,0.2-0.3,0.4-0.3h2.5h0c0.2,0,0.4,0.2,0.4,0.4c0,0.2-0.2,0.4-0.4,0.4h-2.2l-0.7,2v0c-0.1,0.2-0.2,0.3-0.4,0.3h0
	c-0.2,0-0.4-0.1-0.4-0.3l-0.2-0.5l-0.3,1.1v0c-0.1,0.2-0.2,0.3-0.4,0.3c-0.2,0-0.4-0.1-0.4-0.3l-0.4-1.8l-0.2,1.8
	c0.7,0.4,1.3,1,1.8,1.7c0.7-0.8,1.5-1.5,2.4-2.1c1-0.7,2-1.3,2.3-2.2c0.2-0.6,0.2-1.2,0-1.7c-0.2-0.5-0.7-1-1.2-1.2
	c-0.9-0.4-2.2-0.3-3.1,1.3c-0.1,0.1-0.2,0.2-0.4,0.2c-0.2,0-0.3-0.1-0.4-0.2c-0.6-1.2-1.6-1.7-2.6-1.5v0c-0.5,0.1-0.9,0.4-1.3,0.8
	c-0.3,0.4-0.5,0.9-0.6,1.4c0,0.2-0.2,0.4-0.5,0.4c-0.2,0-0.4-0.2-0.4-0.4c0.1-0.7,0.3-1.4,0.8-1.9c0.5-0.5,1.1-0.9,1.8-1.1
	c0.6-0.1,1.2-0.1,1.8,0.2c0.6,0.2,1.1,0.6,1.4,1.1c0.4-0.6,1-1.1,1.7-1.3c0.7-0.2,1.5-0.1,2.1,0.2c0.7,0.3,1.3,0.9,1.7,1.7
	c0.3,0.8,0.3,1.6,0,2.4c-0.5,1.2-1.6,1.9-2.6,2.7c-1.1,0.7-2.1,1.4-2.5,2.5h0c-0.1,0.2-0.2,0.3-0.4,0.3s-0.3-0.1-0.4-0.3
	c-0.3-0.7-0.8-1.3-1.5-1.7l-0.1,0.8h0c0,0.2-0.2,0.4-0.4,0.4h0h0c-0.2,0-0.4-0.1-0.4-0.3l-0.5-1.8c-0.1-0.1-0.3-0.1-0.4-0.2
	c-0.2-0.1-0.4-0.2-0.6-0.3h0c-0.1-0.1-0.2-0.2-0.2-0.3c0-0.1,0-0.2,0.1-0.3c0.1-0.1,0.2-0.2,0.3-0.2c0.1,0,0.2,0,0.3,0.1
	c0.1,0,0.1,0.1,0.2,0.1l-0.1-0.5l-2.1,0C10.8,19.5,10.6,19.3,10.6,19.1L10.6,19.1z M22.3,21.1c0-0.2,0.2-0.3,0.4-0.3h6.7
	c0.2,0,0.4,0.1,0.4,0.3c0,0.2-0.2,0.3-0.4,0.3h-6.7c-0.1,0-0.2,0-0.3-0.1C22.4,21.3,22.3,21.2,22.3,21.1L22.3,21.1z M23.7,19.5
	c0-0.2,0.2-0.3,0.3-0.3h5.5c0.2,0,0.3,0.1,0.3,0.3c0,0.2-0.2,0.3-0.3,0.3h-5.5c-0.1,0-0.2,0-0.2-0.1C23.7,19.7,23.7,19.6,23.7,19.5
	L23.7,19.5z M22.3,24.5c0-0.2,0.2-0.3,0.4-0.3h6.7c0.2,0,0.4,0.1,0.4,0.3c0,0.2-0.2,0.3-0.4,0.3h-6.7c-0.1,0-0.2,0-0.3-0.1
	C22.3,24.7,22.3,24.6,22.3,24.5L22.3,24.5z M22.3,22.8c0-0.2,0.2-0.3,0.4-0.3h6.7c0.2,0,0.4,0.1,0.4,0.3c0,0.2-0.2,0.3-0.4,0.3h-6.7
	c-0.1,0-0.2,0-0.3-0.1C22.4,23,22.3,22.9,22.3,22.8L22.3,22.8z M23.7,18c0-0.2,0.2-0.3,0.3-0.3h5.5c0.2,0,0.3,0.1,0.3,0.3
	c0,0.2-0.2,0.3-0.3,0.3h-5.5c-0.1,0-0.2,0-0.2-0.1C23.8,18.1,23.7,18,23.7,18L23.7,18z M23.7,16.3c0-0.2,0.2-0.3,0.3-0.3h5.5
	c0.2,0,0.3,0.1,0.3,0.3c0,0.2-0.2,0.3-0.3,0.3h-5.5c-0.1,0-0.2,0-0.2-0.1C23.8,16.5,23.7,16.4,23.7,16.3L23.7,16.3z"/>
</svg>
