<?xml version="1.0" encoding="utf-8"?>
<!-- Generator: Adobe Illustrator 27.4.1, SVG Export Plug-In . SVG Version: 6.00 Build 0)  -->
<svg version="1.1" id="Layer_1" xmlns="http://www.w3.org/2000/svg" xmlns:xlink="http://www.w3.org/1999/xlink" x="0px" y="0px"
	 viewBox="0 0 33 33" style="enable-background:new 0 0 33 33;" xml:space="preserve">
<style type="text/css">
	.st0{fill:#FFFFFF;stroke:#79B142;stroke-width:2.25;}
	.st1{fill-rule:evenodd;clip-rule:evenodd;fill:#79B142;}
</style>
<g id="Page-1">
	<g id="Icon-Guide" transform="translate(-115.000000, -18.000000)">
		<g id="Group" transform="translate(116.000000, 19.000000)">
			<path id="Stroke-33" class="st0" d="M30.9,15.5c0,8.5-6.9,15.4-15.4,15.4S0.1,24,0.1,15.5S7,0.1,15.5,0.1
				C24,0.1,30.9,7,30.9,15.5z"/>
			<path id="Fill-15" class="st1" d="M15.2,6.7l-2.6,2.7c-0.2,0.2-0.4,0.5-0.6,0.7c-0.1,0.1-0.1,0.1-0.1,0.2
				c1.3-0.3,2.6-0.3,3.9,0.1l0.2-0.2l1.4-1.5c1.3-1.3,3.3-1.3,4.6,0c1.3,1.3,1.3,3.4,0,4.7L20.4,15L20,15.3l-0.3,0.3l0,0l-0.6,0.6
				c-0.6,0.6-1.3,0.9-2.1,1l0,0l0,0c-0.2,0-0.3,0-0.4,0c-0.1,0-0.2,0-0.2,0l-0.2,0l0,0c-0.6-0.1-1.2-0.4-1.7-0.9
				c-0.5-0.5-0.8-1.1-0.9-1.7c0,0,0,0,0-0.1c-0.6,0.1-1.1,0.3-1.5,0.7l-0.9,0.9c0.3,0.8,0.8,1.5,1.4,2.1c0.6,0.6,1.3,1.1,2.1,1.4
				c0.1,0.1,0.3,0.1,0.4,0.2c0.1,0,0.2,0.1,0.4,0.1c0,0,0,0,0,0c0,0,0,0,0.1,0c1.3,0.3,2.6,0.2,3.8-0.3c0.2-0.1,0.3-0.1,0.4-0.2
				c0,0,0,0,0,0c0,0,0.1,0,0.1,0c0.1,0,0.1-0.1,0.2-0.1l0,0c0.4-0.3,0.8-0.6,1.2-1l2.6-2.7c2.4-2.4,2.4-6.4,0-8.8
				C21.5,4.2,17.6,4.2,15.2,6.7"/>
			<path id="Fill-17" class="st1" d="M15.4,24.1l2.6-2.7c0.2-0.2,0.4-0.5,0.6-0.7c0-0.1,0.1-0.1,0.1-0.2c-1.3,0.3-2.6,0.3-3.9-0.1
				l-0.2,0.2l-1.4,1.5c-1.3,1.3-3.3,1.3-4.6,0c-1.3-1.3-1.3-3.4,0-4.7l1.7-1.7l0.3-0.3l0.3-0.3l0,0l0.6-0.6c0.6-0.6,1.3-0.9,2.1-1
				l0,0l0,0c0.2,0,0.3,0,0.4,0c0.3,0,0.4,0.1,0.4,0.1l0,0l0,0c0.6,0.1,1.2,0.4,1.7,0.9c0.5,0.5,0.8,1.1,0.9,1.7c0,0,0,0,0,0.1
				c0.6-0.1,1.1-0.3,1.5-0.7l0.9-0.9c-0.3-0.8-0.8-1.5-1.4-2.1s-1.3-1.1-2.1-1.4c-0.1-0.1-0.3-0.1-0.4-0.2c-0.1,0-0.2-0.1-0.4-0.1
				c0,0,0,0,0,0c0,0,0,0-0.1,0c-1.3-0.3-2.6-0.2-3.8,0.3c-0.1,0.1-0.3,0.2-0.4,0.2c0,0,0,0,0,0c0,0-0.1,0-0.1,0
				c-0.1,0-0.1,0.1-0.2,0.1l0,0c-0.4,0.3-0.8,0.6-1.2,1l-2.6,2.7c-2.4,2.4-2.4,6.4,0,8.8C9.1,26.6,13,26.6,15.4,24.1"/>
		</g>
	</g>
</g>
</svg>
