<?xml version="1.0" encoding="utf-8"?>
<!-- Generator: Adobe Illustrator 23.0.3, SVG Export Plug-In . SVG Version: 6.00 Build 0)  -->
<svg version="1.1" id="Layer_1" xmlns="http://www.w3.org/2000/svg" xmlns:xlink="http://www.w3.org/1999/xlink" x="0px" y="0px"
	 viewBox="0 0 36.66 34.94" style="enable-background:new 0 0 36.66 34.94;" xml:space="preserve">
<style type="text/css">
	.st0{clip-path:url(#SVGID_2_);fill:#FFFFFF;stroke:#B05E32;stroke-width:2.25;}
	.st1{fill:#B15E32;}
</style>
<g>
	<defs>
		<rect id="SVGID_1_" x="2.14" y="0.9" width="33" height="33"/>
	</defs>
	<clipPath id="SVGID_2_">
		<use xlink:href="#SVGID_1_"  style="overflow:visible;"/>
	</clipPath>
	<circle class="st0" cx="18.64" cy="17.4" r="15.38"/>
</g>
<path class="st1" d="M13.56,10.7v15.5h-3.1c-1.14,0-2.07-0.93-2.07-2.07V12.76c0-1.14,0.93-2.07,2.07-2.07H13.56z M26.99,10.7h-3.1
	v15.5h3.1c1.14,0,2.07-0.93,2.07-2.07V12.76C29.06,11.62,28.13,10.7,26.99,10.7z M22.86,10.7v15.5h-8.27V7.6
	c0-0.57,0.46-1.03,1.03-1.03h6.2c0.57,0,1.03,0.46,1.03,1.03V10.7z M20.79,8.63h-4.13v2.07h4.13V8.63z"/>
</svg>
