<?xml version="1.0" encoding="utf-8"?>
<!-- Generator: Adobe Illustrator 27.5.0, SVG Export Plug-In . SVG Version: 6.00 Build 0)  -->
<svg version="1.1" id="Layer_1" xmlns="http://www.w3.org/2000/svg" xmlns:xlink="http://www.w3.org/1999/xlink" x="0px" y="0px"
	 viewBox="0 0 35.7 36" style="enable-background:new 0 0 35.7 36;" xml:space="preserve">
<style type="text/css">
	.st0{fill:#FFFFFF;stroke:#B05E36;stroke-width:2.5;}
	.st1{fill:#B05E36;stroke:#B05E36;stroke-miterlimit:10;}
</style>
<g>
	<g>
		<circle class="st0" cx="18" cy="18.1" r="16.2"/>
	</g>
</g>
<g>
	<path class="st1" d="M31.1,18.5c-0.1-0.1-0.2-0.2-0.4-0.2l-0.8,0l-2.4-6.5l0.6-0.2c0.4-0.1,0-1.4-0.4-1.3l-8.9,2.5
		c0,0,0.1-2.7,0-2.9c-0.1-0.2-1.3-0.2-1.4,0c-0.1,0.2,0,3.3,0,3.3l-9.3,2.6c-0.4,0.1-0.1,1.4,0.2,1.4c0.1,0,0.1,0,0.2,0l0.5-0.1
		l-2.1,6.3l-0.6,0c-0.2,0-0.3,0.1-0.4,0.3c0,0,0,0.1,0,0.1c0,2,1.6,3.6,3.6,3.6c2,0,3.6-1.6,3.6-3.6c0,0,0,0,0,0
		c0-0.1,0-0.1-0.1-0.2c-0.1-0.1-0.2-0.2-0.4-0.2l-0.7,0l-2.3-6.6l7.6-2.1l1.4-0.4l8-2.3l-2,6.4l-0.6,0c-0.1,0-0.3,0.1-0.4,0.2
		c0,0.1,0,0.1,0,0.2c0,2,1.6,3.6,3.6,3.6s3.6-1.6,3.6-3.6c0,0,0,0,0,0C31.1,18.6,31.1,18.5,31.1,18.5z M7.6,22.9l1.9-6.2l2,6.2
		C11.6,22.9,7.6,22.9,7.6,22.9z M25.4,18.3l1.8-6.5l2.2,6.4L25.4,18.3z"/>
</g>
</svg>
