<?xml version="1.0" encoding="utf-8"?>
<!-- Generator: Adobe Illustrator 27.5.0, SVG Export Plug-In . SVG Version: 6.00 Build 0)  -->
<svg version="1.1" id="Layer_1" xmlns="http://www.w3.org/2000/svg" xmlns:xlink="http://www.w3.org/1999/xlink" x="0px" y="0px"
	 viewBox="0 0 33.1 33.2" style="enable-background:new 0 0 33.1 33.2;" xml:space="preserve">
<style type="text/css">
	.st0{fill:#FFFFFF;stroke:#0DC0DC;stroke-width:2.25;}
	.st1{fill:#15C0DC;}
</style>
<g>
	<circle class="st0" cx="16.5" cy="16.6" r="15.4"/>
</g>
<path class="st1" d="M24.3,6.8h-5.7c-0.5-1.2-1.9-1.7-3.1-1.2c-0.5,0.2-1,0.7-1.2,1.2H8.6C8.3,6.8,8,7,8,7.4v18.1
	c0,0.3,0.3,0.6,0.6,0.6h15.7c0.3,0,0.6-0.3,0.6-0.6V7.4C24.9,7,24.7,6.8,24.3,6.8z M12.9,7.9h1.9c0.3,0,0.5-0.2,0.6-0.5
	c0.1-0.6,0.8-1,1.4-0.9c0.2,0,0.3,0.1,0.4,0.2c0.2,0.2,0.4,0.4,0.4,0.7c0.1,0.3,0.3,0.4,0.6,0.4h1.9V9c0,0.5-0.4,0.9-0.9,0.9h-5.3
	c-0.5,0-0.9-0.4-0.9-0.9L12.9,7.9z M14.8,21.8c0,0.3-0.3,0.6-0.6,0.6h-2.5c-0.3,0-0.6-0.3-0.6-0.6v-2.3c0-0.3,0.3-0.6,0.6-0.6h2.5
	c0.3,0,0.6,0.3,0.6,0.6V21.8z M14.8,16.1c0,0.3-0.3,0.6-0.6,0.6h-2.5c-0.3,0-0.6-0.3-0.6-0.6v-2.3c0-0.3,0.3-0.6,0.6-0.6h2.5
	c0.3,0,0.6,0.3,0.6,0.6V16.1z M21.9,21.2h-5.2V20h5.2V21.2z M21.9,15.6h-5.2v-1.2h5.2V15.6z"/>
</svg>
