<svg xmlns="http://www.w3.org/2000/svg" viewBox="0 0 33 33"><defs><style>.cls-1{fill:#fff;stroke-width:2.25px;}.cls-1,.cls-2{stroke:#b11f6c;}.cls-2{fill:#b11f6c;stroke-width:0.75px;}</style></defs><title>carnival-funphysics</title><g id="Layer_1" data-name="Layer 1"><circle class="cls-1" cx="16.5" cy="16.5" r="15.38"/></g><g id="Layer_2" data-name="Layer 2"><path class="cls-2" d="M28.3,19.85a.58.58,0,0,0-1.07-.3C25.81,21.83,25,22.5,24,22.33c-1.19-.19-2.32-1.91-3.36-5.1l-.1-.32a12.25,12.25,0,0,0-2-4,.64.64,0,0,0-.13-.15,3.61,3.61,0,0,0-1.37-1V10.27L19,9.74a.58.58,0,0,0,0-1.12L16.63,8a.58.58,0,0,0-.73.56v3.08c-1.69.15-3,1.85-4.12,5.3l-.1.32c-1.43,4.43-2.66,5.1-3.27,5.1a.58.58,0,0,0-.58.58v2.88a.58.58,0,0,0,1.16,0V23.41a3.79,3.79,0,0,0,2.06-1.81v4.19a.58.58,0,0,0,1.16,0V19.21c.19-.5.38-1,.57-1.63l.11-.32a13.2,13.2,0,0,1,1.38-3.13V25.79a.58.58,0,0,0,1.16,0V13a1.51,1.51,0,0,1,.73-.2,1.87,1.87,0,0,1,1.33.66V25.79a.58.58,0,1,0,1.16,0V15.22a19.75,19.75,0,0,1,.77,2l.11.33a19.52,19.52,0,0,0,1.17,2.94v5.26a.58.58,0,1,0,1.16,0V22.3a3.32,3.32,0,0,0,1.95,1.18h.11v2.3a.58.58,0,1,0,1.16,0v-2.4a4.35,4.35,0,0,0,2.06-1.64v4a.58.58,0,1,0,1.16,0V19.86Z" transform="translate(-1.57 -2.03)"/></g></svg>