<?xml version="1.0" encoding="utf-8"?>
<!-- Generator: Adobe Illustrator 23.0.3, SVG Export Plug-In . SVG Version: 6.00 Build 0)  -->
<svg version="1.1" id="Layer_1" xmlns="http://www.w3.org/2000/svg" xmlns:xlink="http://www.w3.org/1999/xlink" x="0px" y="0px"
	 viewBox="0 0 43.7 39.44" style="enable-background:new 0 0 43.7 39.44;" xml:space="preserve">
<style type="text/css">
	.st0{fill:#FFFFFF;stroke:#0DC0DC;stroke-width:2.25;}
	.st1{fill:#15C0DC;}
</style>
<g>
	<circle class="st0" cx="22.13" cy="20.17" r="15.38"/>
</g>
<path class="st1" d="M29.93,10.36h-5.71c-0.52-1.18-1.9-1.73-3.08-1.21c-0.54,0.24-0.97,0.67-1.21,1.21H14.2
	c-0.32,0-0.59,0.26-0.59,0.59v18.1c0,0.32,0.26,0.59,0.59,0.59h15.72c0.32,0,0.59-0.26,0.59-0.59v-18.1
	C30.51,10.62,30.25,10.36,29.93,10.36z M18.49,11.53h1.85c0.28-0.01,0.51-0.21,0.58-0.48c0.15-0.64,0.8-1.03,1.44-0.88
	c0.16,0.04,0.31,0.11,0.44,0.2c0.22,0.17,0.38,0.42,0.43,0.7c0.06,0.26,0.3,0.45,0.57,0.45h1.85v1.07c0,0.52-0.42,0.94-0.94,0.94
	h-5.27c-0.52,0-0.94-0.42-0.94-0.94L18.49,11.53z M20.35,25.34c0,0.32-0.26,0.59-0.59,0.59h-2.5c-0.32,0-0.59-0.26-0.59-0.59v-2.26
	c0-0.32,0.26-0.59,0.59-0.59h2.5c0.32,0,0.59,0.26,0.59,0.59L20.35,25.34z M20.35,19.72c0,0.32-0.26,0.59-0.59,0.59h-2.5
	c-0.32,0-0.59-0.26-0.59-0.59v-2.26c0-0.32,0.26-0.59,0.59-0.59h2.5c0.32,0,0.59,0.26,0.59,0.59L20.35,19.72z M27.45,24.8h-5.22
	v-1.17h5.22V24.8z M27.45,19.18h-5.22v-1.17h5.22V19.18z"/>
</svg>
