<?xml version="1.0" encoding="utf-8"?>
<!-- Generator: Adobe Illustrator 27.5.0, SVG Export Plug-In . SVG Version: 6.00 Build 0)  -->
<svg version="1.1" id="Layer_1" xmlns="http://www.w3.org/2000/svg" xmlns:xlink="http://www.w3.org/1999/xlink" x="0px" y="0px"
	 viewBox="0 0 35 35" style="enable-background:new 0 0 35 35;" xml:space="preserve">
<style type="text/css">
	.st0{fill:#FFFFFF;stroke:#B10069;stroke-width:2.25;}
	.st1{fill:#B10069;}
</style>
<g>
	<circle class="st0" cx="17.5" cy="17.5" r="16.3"/>
	<path class="st1" d="M24.3,7.3H13.9c-0.7,0-1.4,0.3-1.9,0.8s-0.8,1.2-0.8,1.9v0.9h-0.5c-0.7,0-1.4,0.3-1.9,0.8S8,12.9,8,13.6v10.5
		c0,0.7,0.3,1.4,0.8,1.9s1.2,0.8,1.9,0.8h13.5c0.7,0,1.4-0.3,1.9-0.8s0.8-1.2,0.8-1.9V10c0-0.7-0.3-1.4-0.8-1.9
		C25.7,7.5,25,7.3,24.3,7.3L24.3,7.3z M26,24.1c0,0.5-0.2,0.9-0.5,1.2c-0.3,0.3-0.8,0.5-1.2,0.5H10.7c-0.5,0-0.9-0.2-1.2-0.5
		S9,24.5,9,24.1V13.7c0-0.5,0.2-0.9,0.5-1.2s0.8-0.5,1.2-0.5h0.5v11.2c0,0.2-0.1,0.4-0.3,0.6S10.5,24,10.3,24
		c-0.3,0-0.5,0.2-0.5,0.5S10,25,10.2,25c0.5,0,1-0.2,1.4-0.5s0.6-0.8,0.6-1.3V10c0-0.5,0.2-0.9,0.5-1.2s0.8-0.5,1.2-0.5h10.3
		c0.5,0,0.9,0.2,1.2,0.5c0.3,0.3,0.5,0.8,0.5,1.2L26,24.1z M23.8,10.6h-9.3c-0.3,0-0.5,0.2-0.5,0.5V14l0,0c0,0.3,0.2,0.5,0.5,0.5
		h9.3c0.3,0,0.5-0.2,0.5-0.5v-2.9C24.3,10.8,24.1,10.6,23.8,10.6L23.8,10.6z M23.3,13.4H15v-1.8h8.3V13.4z M24.3,16.8L24.3,16.8
		c0,0.3-0.2,0.5-0.5,0.5h-9.4c-0.3,0-0.5-0.2-0.5-0.5s0.2-0.5,0.5-0.5h9.4C24.1,16.3,24.3,16.5,24.3,16.8L24.3,16.8z M24.3,19.7
		L24.3,19.7c0,0.3-0.2,0.5-0.5,0.5h-9.4c-0.3,0-0.5-0.2-0.5-0.5s0.2-0.5,0.5-0.5h9.4C24.1,19.2,24.3,19.4,24.3,19.7L24.3,19.7z
		 M24.3,22.5L24.3,22.5c0,0.3-0.2,0.5-0.5,0.5h-9.4c-0.3,0-0.5-0.2-0.5-0.5s0.2-0.5,0.5-0.5h9.4C24.1,22,24.3,22.2,24.3,22.5
		L24.3,22.5z"/>
</g>
</svg>
