<?xml version="1.0" encoding="utf-8"?>
<!-- Generator: Adobe Illustrator 23.0.3, SVG Export Plug-In . SVG Version: 6.00 Build 0)  -->
<svg version="1.1" id="Layer_1" xmlns="http://www.w3.org/2000/svg" xmlns:xlink="http://www.w3.org/1999/xlink" x="0px" y="0px"
	 viewBox="0 0 39.53 40.17" style="enable-background:new 0 0 39.53 40.17;" xml:space="preserve">
<style type="text/css">
	.st0{fill:#FFFFFF;stroke:#0074BC;stroke-width:2.25;}
	.st1{fill:#0374BC;}
</style>
<g>
	<circle class="st0" cx="19.57" cy="20.38" r="17.5"/>
</g>
<path class="st1" d="M34.73,21.01c-0.27-0.33-6.75-8.09-14.95-8.09S5.11,20.68,4.84,21.01c-0.3,0.36-0.25,0.9,0.12,1.19
	c0.36,0.3,0.9,0.25,1.19-0.12c0.01-0.02,0.36-0.43,0.96-1.04c1.5,1.64,6.53,6.59,12.68,6.59s11.17-4.94,12.68-6.59
	c0.6,0.62,0.95,1.02,0.96,1.04c0.17,0.2,0.41,0.31,0.66,0.31c0.19,0,0.38-0.06,0.54-0.19C34.98,21.9,35.03,21.37,34.73,21.01z
	 M25.45,20.27c0,3.12-2.54,5.66-5.66,5.66c-3.12,0-5.66-2.54-5.66-5.66s2.54-5.66,5.66-5.66C22.91,14.61,25.45,17.15,25.45,20.27z
	 M8.34,19.87c1.32-1.19,3.17-2.62,5.34-3.7c-0.79,1.17-1.25,2.58-1.25,4.1c0,1.37,0.38,2.65,1.04,3.75
	C10.98,22.58,9.1,20.69,8.34,19.87z M26.1,24.02c0.66-1.1,1.04-2.38,1.04-3.75c0-1.52-0.46-2.93-1.25-4.1
	c2.17,1.07,4.02,2.51,5.34,3.7C30.47,20.69,28.6,22.58,26.1,24.02z"/>
<path class="st1" d="M19.79,24.82c2.51,0,4.55-2.04,4.55-4.55c0-0.5-0.09-0.99-0.23-1.44c-0.35,0.71-1.08,1.19-1.92,1.19
	c-1.19,0-2.15-0.97-2.15-2.15c0-0.84,0.49-1.56,1.19-1.92c-0.45-0.15-0.93-0.23-1.44-0.23c-2.51,0-4.55,2.04-4.55,4.55
	C15.24,22.79,17.27,24.82,19.79,24.82z"/>
</svg>
