<?xml version="1.0" encoding="utf-8"?>
<!-- Generator: Adobe Illustrator 27.2.0, SVG Export Plug-In . SVG Version: 6.00 Build 0)  -->
<svg version="1.1" id="Layer_1" xmlns="http://www.w3.org/2000/svg" xmlns:xlink="http://www.w3.org/1999/xlink" x="0px" y="0px"
	 viewBox="0 0 32.2 32.2" style="enable-background:new 0 0 32.2 32.2;" xml:space="preserve">
<style type="text/css">
	.st0{fill:#C31427;}
	.st1{fill:none;stroke:#C31427;stroke-width:2.25;}
</style>
<g>
	<path class="st0" d="M25.6,8.5c0-0.4-0.2-0.8-0.4-1c-0.3-0.3-0.6-0.4-1-0.4h-4.5c-0.2-1.1-1-2.1-2-2.6c-1-0.5-2.2-0.5-3.2,0
		c-1,0.5-1.7,1.4-2,2.6H8.1c-0.4,0-0.8,0.2-1,0.4c-0.3,0.3-0.4,0.6-0.4,1c-0.4,0-0.8,0.2-1,0.4c-0.3,0.3-0.4,0.6-0.4,1v13.2
		c0,0.4,0.2,0.8,0.4,1c0.3,0.3,0.6,0.4,1,0.4h6.6c0.1,0,0.3,0,0.4,0.1c0.1,0.1,0.2,0.2,0.3,0.3l0.2,0.5c0.1,0.2,0.2,0.3,0.4,0.4
		c0.2,0.1,0.4,0.2,0.6,0.2h2c0.2,0,0.4-0.1,0.6-0.2c0.2-0.1,0.3-0.3,0.4-0.4l0.2-0.5v0c0.1-0.1,0.2-0.2,0.3-0.3
		c0.1-0.1,0.2-0.1,0.4-0.1h6.6c0.4,0,0.8-0.2,1-0.4c0.3-0.3,0.4-0.6,0.4-1V10c0-0.4-0.2-0.8-0.4-1C26.4,8.7,26,8.5,25.6,8.5
		L25.6,8.5z M16.1,4.9c0.8,0,1.5,0.3,2.1,0.9C18.7,6.3,19,7,19,7.8c0,0.8-0.3,1.5-0.9,2.1c-0.5,0.5-1.3,0.9-2.1,0.9
		s-1.5-0.3-2.1-0.9c-0.5-0.5-0.9-1.3-0.9-2.1c0-0.8,0.3-1.5,0.9-2.1C14.6,5.2,15.3,4.9,16.1,4.9L16.1,4.9z M17.8,11.4
		c1,0,2,0.4,2.7,1.1c0.7,0.7,1.1,1.7,1.1,2.7v2h-11v-2c0-1,0.4-2,1.1-2.7c0.7-0.7,1.7-1.1,2.7-1.1H17.8z M7.3,8.5
		c0-0.2,0.1-0.4,0.2-0.5c0.1-0.1,0.3-0.2,0.5-0.2h4.4c0,1.2,0.6,2.3,1.5,3c-1.1,0.1-2.2,0.7-2.9,1.5c-0.8,0.8-1.2,1.9-1.2,3.1v2H8.8
		c-0.2,0-0.4,0.2-0.4,0.4c0,0.2,0.2,0.4,0.4,0.4h7v3.7c0,0.2,0.2,0.4,0.4,0.4c0.2,0,0.4-0.2,0.4-0.4V18h7c0.2,0,0.4-0.2,0.4-0.4
		c0-0.2-0.2-0.4-0.4-0.4h-1.1v-2c0-1.1-0.4-2.2-1.2-3.1c-0.8-0.8-1.8-1.4-2.9-1.5c0.9-0.7,1.5-1.8,1.5-3h4.4c0.2,0,0.4,0.1,0.5,0.2
		c0.1,0.1,0.2,0.3,0.2,0.5v13.2c0,0.2-0.1,0.4-0.2,0.5c-0.1,0.1-0.3,0.2-0.5,0.2h-7c-0.4,0-0.8,0.2-1.1,0.5
		c-0.3-0.3-0.7-0.5-1.1-0.5h-7c-0.2,0-0.4-0.1-0.5-0.2c-0.1-0.1-0.2-0.3-0.2-0.5L7.3,8.5z M26.4,23.2c0,0.2-0.1,0.4-0.2,0.5
		c-0.1,0.1-0.3,0.2-0.5,0.2H19c-0.3,0-0.5,0.1-0.8,0.2c-0.2,0.1-0.4,0.3-0.5,0.6l-0.2,0.5v0c-0.1,0.1-0.2,0.2-0.3,0.2h-2
		c-0.1,0-0.3-0.1-0.3-0.2l-0.2-0.5c-0.1-0.2-0.3-0.4-0.5-0.6c-0.2-0.1-0.5-0.2-0.8-0.2H6.6c-0.2,0-0.4-0.1-0.5-0.2
		c-0.1-0.1-0.2-0.3-0.2-0.5V10c0-0.2,0.1-0.4,0.2-0.5c0.1-0.1,0.3-0.2,0.5-0.2v12.4c0,0.4,0.2,0.8,0.4,1c0.3,0.3,0.6,0.4,1,0.4h7
		c0.2,0,0.4,0.1,0.5,0.2c0.1,0.1,0.2,0.3,0.2,0.5c0,0.2,0.2,0.4,0.4,0.4c0.2,0,0.4-0.2,0.4-0.4c0-0.2,0.1-0.4,0.2-0.5
		c0.1-0.1,0.3-0.2,0.5-0.2h7c0.4,0,0.8-0.2,1-0.4c0.3-0.3,0.4-0.6,0.4-1V9.3c0.2,0,0.4,0.1,0.5,0.2c0.1,0.1,0.2,0.3,0.2,0.5
		L26.4,23.2z"/>
	<path class="st0" d="M8.8,10h2.6c0.2,0,0.4-0.2,0.4-0.4s-0.2-0.4-0.4-0.4H8.8c-0.2,0-0.4,0.2-0.4,0.4S8.6,10,8.8,10z"/>
	<path class="st0" d="M8.8,11.8h1.5c0.2,0,0.4-0.2,0.4-0.4c0-0.2-0.2-0.4-0.4-0.4H8.8c-0.2,0-0.4,0.2-0.4,0.4
		C8.4,11.7,8.6,11.8,8.8,11.8z"/>
	<path class="st0" d="M24.2,9.6c0-0.1,0-0.2-0.1-0.3c-0.1-0.1-0.2-0.1-0.3-0.1h-2.6c-0.2,0-0.4,0.2-0.4,0.4S21,10,21.2,10h2.6
		c0.1,0,0.2,0,0.3-0.1C24.1,9.8,24.2,9.7,24.2,9.6L24.2,9.6z"/>
	<path class="st0" d="M8.8,19.9h5.1c0.2,0,0.4-0.2,0.4-0.4s-0.2-0.4-0.4-0.4H8.8c-0.2,0-0.4,0.2-0.4,0.4S8.6,19.9,8.8,19.9z"/>
	<path class="st0" d="M18.3,19.9h5.5c0.2,0,0.4-0.2,0.4-0.4s-0.2-0.4-0.4-0.4h-5.5c-0.2,0-0.4,0.2-0.4,0.4S18.1,19.9,18.3,19.9z"/>
	<path class="st0" d="M8.8,21.3h5.1c0.2,0,0.4-0.2,0.4-0.4c0-0.2-0.2-0.4-0.4-0.4H8.8c-0.2,0-0.4,0.2-0.4,0.4
		C8.4,21.2,8.6,21.3,8.8,21.3z"/>
	<path class="st0" d="M18.3,21.3h5.5c0.2,0,0.4-0.2,0.4-0.4c0-0.2-0.2-0.4-0.4-0.4h-5.5c-0.2,0-0.4,0.2-0.4,0.4
		C17.9,21.2,18.1,21.3,18.3,21.3z"/>
	<path class="st0" d="M24.2,11.4c0-0.1,0-0.2-0.1-0.3c-0.1-0.1-0.2-0.1-0.3-0.1h-1.5c-0.2,0-0.4,0.2-0.4,0.4c0,0.2,0.2,0.4,0.4,0.4
		h1.5c0.1,0,0.2,0,0.3-0.1C24.1,11.6,24.2,11.5,24.2,11.4L24.2,11.4z"/>
</g>
<g id="Page-1">
	<g id="Icon-Guide">
		<path id="Stroke-33" class="st1" d="M31.1,16.6c0,5.5-3.1,10.7-8.1,13c-11.1,5-21.8-3-21.8-13.5C1.1,7,9.2-0.2,18.6,1.3
			c7.3,1.2,12.5,7.8,12.5,15.2L31.1,16.6z"/>
	</g>
</g>
</svg>
