<?xml version="1.0" encoding="utf-8"?>
<!-- Generator: Adobe Illustrator 23.0.3, SVG Export Plug-In . SVG Version: 6.00 Build 0)  -->
<svg version="1.1" id="Layer_1" xmlns="http://www.w3.org/2000/svg" xmlns:xlink="http://www.w3.org/1999/xlink" x="0px" y="0px"
	 viewBox="0 0 35.73 35.97" style="enable-background:new 0 0 35.73 35.97;" xml:space="preserve">
<style type="text/css">
	.st0{fill:#FFFFFF;stroke:#F47642;stroke-width:2.5;}
	.st1{fill:#F47642;stroke:#F47641;stroke-miterlimit:10;}
</style>
<g>
	<g>
		<circle class="st0" cx="18.03" cy="18.15" r="16.17"/>
	</g>
</g>
<g>
	<path class="st1" d="M31.11,18.51c-0.06-0.14-0.21-0.23-0.36-0.21l-0.79,0.01l-2.42-6.52l0.61-0.21c0.37-0.1,0-1.45-0.38-1.34
		l-8.87,2.48c0,0,0.08-2.7,0-2.9c-0.09-0.21-1.28-0.18-1.39,0c-0.14,0.23,0,3.3,0,3.3L8.26,15.7c-0.37,0.1-0.12,1.36,0.19,1.36
		c0.07,0,0.12-0.01,0.19-0.03l0.53-0.08L7.1,23.23l-0.6,0.05c-0.17-0.01-0.33,0.1-0.37,0.27c-0.01,0.03-0.01,0.07-0.01,0.09
		c0.01,1.98,1.62,3.59,3.61,3.59c1.97,0,3.59-1.6,3.61-3.58c0-0.01,0-0.02,0-0.04c0-0.07-0.02-0.12-0.05-0.17
		c-0.07-0.11-0.21-0.19-0.35-0.18l-0.74-0.01L9.9,16.64l7.62-2.1l1.39-0.39l7.99-2.27l-1.98,6.39l-0.61,0.01
		c-0.15-0.01-0.29,0.08-0.35,0.21c-0.02,0.06-0.03,0.11-0.03,0.17c0.02,1.97,1.63,3.58,3.61,3.58c1.98,0,3.59-1.61,3.61-3.58
		c0-0.01,0-0.02,0-0.03C31.14,18.6,31.13,18.55,31.11,18.51z M7.62,22.94l1.9-6.21l2.04,6.17C11.55,22.91,7.62,22.94,7.62,22.94z
		 M25.44,18.32l1.78-6.52l2.24,6.41L25.44,18.32z"/>
</g>
</svg>
