<?xml version="1.0" encoding="utf-8"?>
<!-- Generator: Adobe Illustrator 27.2.0, SVG Export Plug-In . SVG Version: 6.00 Build 0)  -->
<svg version="1.1" id="Layer_1" xmlns="http://www.w3.org/2000/svg" xmlns:xlink="http://www.w3.org/1999/xlink" x="0px" y="0px"
	 viewBox="0 0 35.8 36.2" style="enable-background:new 0 0 35.8 36.2;" xml:space="preserve">
<style type="text/css">
	.st0{fill:#FFFFFF;stroke:#B10069;stroke-width:2.25;}
	.st1{fill:#B10069;}
</style>
<g>
	<circle class="st0" cx="18.1" cy="18" r="16.3"/>
	<path class="st1" d="M24.9,7.8H14.5c-0.7,0-1.4,0.3-1.9,0.8s-0.8,1.2-0.8,1.9v0.9h-0.5c-0.7,0-1.4,0.3-1.9,0.8s-0.8,1.2-0.8,1.9
		v10.5c0,0.7,0.3,1.4,0.8,1.9s1.2,0.8,1.9,0.8h13.5c0.7,0,1.4-0.3,1.9-0.8s0.8-1.2,0.8-1.9V10.5c0-0.7-0.3-1.4-0.8-1.9
		C26.3,8,25.6,7.8,24.9,7.8L24.9,7.8z M26.6,24.6c0,0.5-0.2,0.9-0.5,1.2c-0.3,0.3-0.8,0.5-1.2,0.5H11.3c-0.5,0-0.9-0.2-1.2-0.5
		S9.6,25,9.6,24.6V14.2c0-0.5,0.2-0.9,0.5-1.2s0.8-0.5,1.2-0.5h0.5v11.2c0,0.2-0.1,0.4-0.3,0.6s-0.4,0.2-0.6,0.2
		c-0.3,0-0.5,0.2-0.5,0.5s0.2,0.5,0.4,0.5c0.5,0,1-0.2,1.4-0.5s0.6-0.8,0.6-1.3V10.5c0-0.5,0.2-0.9,0.5-1.2s0.8-0.5,1.2-0.5h10.3
		c0.5,0,0.9,0.2,1.2,0.5c0.3,0.3,0.5,0.8,0.5,1.2L26.6,24.6z M24.4,11.1h-9.3c-0.3,0-0.5,0.2-0.5,0.5v2.9l0,0c0,0.3,0.2,0.5,0.5,0.5
		h9.3c0.3,0,0.5-0.2,0.5-0.5v-2.9C24.9,11.3,24.7,11.1,24.4,11.1L24.4,11.1z M23.9,13.9h-8.3v-1.8h8.3V13.9z M24.9,17.3L24.9,17.3
		c0,0.3-0.2,0.5-0.5,0.5H15c-0.3,0-0.5-0.2-0.5-0.5s0.2-0.5,0.5-0.5h9.4C24.7,16.8,24.9,17,24.9,17.3L24.9,17.3z M24.9,20.2
		L24.9,20.2c0,0.3-0.2,0.5-0.5,0.5H15c-0.3,0-0.5-0.2-0.5-0.5s0.2-0.5,0.5-0.5h9.4C24.7,19.7,24.9,19.9,24.9,20.2L24.9,20.2z
		 M24.9,23L24.9,23c0,0.3-0.2,0.5-0.5,0.5H15c-0.3,0-0.5-0.2-0.5-0.5s0.2-0.5,0.5-0.5h9.4C24.7,22.5,24.9,22.7,24.9,23L24.9,23z"/>
</g>
</svg>
