<svg xmlns="http://www.w3.org/2000/svg" viewBox="0 0 33 33"><defs><style>.cls-1{fill:#fff;stroke-width:2.25px;}.cls-1,.cls-2{stroke:#1a9575;}.cls-2{fill:#1a9575;stroke-width:0.5px;}</style></defs><title>carnival-boundlessphysics</title><g id="Layer_1" data-name="Layer 1"><circle class="cls-1" cx="16.5" cy="16.5" r="15.38"/></g><g id="Layer_2" data-name="Layer 2"><path class="cls-2" d="M21.85,10.79a2.54,2.54,0,0,0-1.79.86,6.86,6.86,0,0,0-1.28,2.14c-.1.25-.2.51-.29.79a10.12,10.12,0,0,0-1.95-.25h-.05a.44.44,0,0,0-.42.46.44.44,0,0,0,.46.43h0a9.35,9.35,0,0,1,1.71.21,20.09,20.09,0,0,0-.47,2.66,17.79,17.79,0,0,0-2.08,1.79l-.46-.56a5.88,5.88,0,0,1-1-1.92,1.69,1.69,0,0,1,.07-1.33,1.6,1.6,0,0,1,.67-.67.43.43,0,0,0,.29-.56.44.44,0,0,0-.55-.29l-.1,0a2.45,2.45,0,0,0-1.09,1,2.59,2.59,0,0,0-.15,2,6.87,6.87,0,0,0,1.18,2.22c.17.22.36.44.56.67-.2.23-.39.45-.56.68a6.87,6.87,0,0,0-1.18,2.22,2.61,2.61,0,0,0,.15,2,2.22,2.22,0,0,0,.83.81v.05a1.55,1.55,0,0,0,3.05.38c.36,0,.73-.1,1.12-.18.09.27.19.53.29.78a6.75,6.75,0,0,0,1.28,2.14,2.29,2.29,0,0,0,3.58,0,6.75,6.75,0,0,0,1.28-2.14c.1-.25.2-.51.29-.78.29.06.59.12.87.16a6.78,6.78,0,0,0,2.49-.07,2.55,2.55,0,0,0,1.64-1.15,2.59,2.59,0,0,0,.15-2,6.87,6.87,0,0,0-1.18-2.22c-.18-.23-.37-.46-.58-.69.21-.23.4-.46.58-.69a7,7,0,0,0,1.18-2.22,2.64,2.64,0,0,0-.15-2,2.27,2.27,0,0,0-.8-.8l0,0h0a1.55,1.55,0,0,0-3-.42,10,10,0,0,0-1.14.19c-.09-.26-.18-.52-.28-.76a6.86,6.86,0,0,0-1.28-2.14A2.54,2.54,0,0,0,21.85,10.79Zm0,.89a1.63,1.63,0,0,1,1.15.59,6.07,6.07,0,0,1,1.1,1.86c.08.2.16.42.23.64a18.49,18.49,0,0,0-2.51.93,17.29,17.29,0,0,0-2.46-.91q.12-.34.24-.66a6.07,6.07,0,0,1,1.1-1.86A1.63,1.63,0,0,1,21.85,11.68Zm6,2.43a.67.67,0,1,1-.67.67A.66.66,0,0,1,27.83,14.11Zm-1.5,1.14h0a1.57,1.57,0,0,0,1.48,1.08,1.54,1.54,0,0,0,1.26-.67,1.21,1.21,0,0,1,.34.38,1.71,1.71,0,0,1,.07,1.34,5.78,5.78,0,0,1-1,1.92c-.14.2-.31.39-.48.59a18.47,18.47,0,0,0-2.06-1.78,20.39,20.39,0,0,0-.48-2.7C25.75,15.34,26.05,15.29,26.33,15.25Zm-1.75.37a15.07,15.07,0,0,1,.36,1.8c-.31-.21-.64-.41-1-.61l-1.09-.6C23.47,16,24,15.78,24.58,15.62Zm-5.47,0a16.38,16.38,0,0,1,1.66.57c-.35.18-.7.37-1,.57s-.66.4-1,.6A16.72,16.72,0,0,1,19.11,15.65Zm2.72,1c.56.27,1.13.57,1.69.9s1.07.67,1.56,1q.09.94.09,1.95c0,.66,0,1.31-.08,1.93a17.65,17.65,0,0,1-1.57,1q-.84.5-1.68.9c-.55-.27-1.11-.56-1.66-.89s-1.07-.67-1.56-1c-.06-.62-.09-1.28-.09-1.94s0-1.34.09-2q.73-.53,1.56-1C20.74,17.23,21.28,16.93,21.83,16.67Zm0,2.32a1.55,1.55,0,1,0,1.55,1.55A1.56,1.56,0,0,0,21.85,19Zm-4.17.29c0,.41,0,.83,0,1.26s0,.82,0,1.23a17.37,17.37,0,0,1-1.39-1.24A17.23,17.23,0,0,1,17.68,19.28Zm8.34,0c.5.41,1,.82,1.37,1.23A15.22,15.22,0,0,1,26,21.76c0-.4,0-.81,0-1.22S26,19.71,26,19.3Zm-4.17.57a.67.67,0,1,1-.66.67A.66.66,0,0,1,21.85,19.87ZM28,21.17c.17.2.34.39.48.58a5.88,5.88,0,0,1,1,1.92A1.71,1.71,0,0,1,29.43,25a1.62,1.62,0,0,1-1.08.72,6,6,0,0,1-2.15.05c-.24,0-.49-.08-.75-.14A20.23,20.23,0,0,0,25.93,23,17.48,17.48,0,0,0,28,21.17Zm-12.3,0A18.79,18.79,0,0,0,17.77,23a20.25,20.25,0,0,0,.47,2.67c-.31.06-.61.12-.9.16a1.55,1.55,0,0,0-2.73-.41,1.26,1.26,0,0,1-.34-.39,1.69,1.69,0,0,1-.07-1.33,5.81,5.81,0,0,1,1-1.93C15.37,21.55,15.53,21.37,15.69,21.18Zm9.25,2.46a17,17,0,0,1-.35,1.78,14.75,14.75,0,0,1-1.69-.58c.36-.18.71-.38,1.07-.59S24.63,23.85,24.94,23.64Zm-6.18,0c.31.21.64.41,1,.61s.71.4,1.06.58a14.75,14.75,0,0,1-1.68.59A17,17,0,0,1,18.76,23.65Zm3.09,1.7a17,17,0,0,0,2.49.93c-.08.23-.16.46-.24.67A6.13,6.13,0,0,1,23,28.8a1.65,1.65,0,0,1-1.15.6,1.65,1.65,0,0,1-1.15-.6A6.13,6.13,0,0,1,19.6,27c-.08-.21-.16-.44-.24-.67A18.28,18.28,0,0,0,21.85,25.35Zm-6,.28a.67.67,0,1,1,0,1.33.67.67,0,0,1,0-1.33Z" transform="translate(-5.63 -3.67)"/></g></svg>