<?xml version="1.0" encoding="utf-8"?>
<!-- Generator: Adobe Illustrator 23.0.4, SVG Export Plug-In . SVG Version: 6.00 Build 0)  -->
<svg version="1.1" xmlns="http://www.w3.org/2000/svg" xmlns:xlink="http://www.w3.org/1999/xlink" x="0px" y="0px"
	 viewBox="0 0 39.5 40.2" style="enable-background:new 0 0 39.5 40.2;" xml:space="preserve">
<style type="text/css">
	.st0{fill:#FFFFFF;stroke:#0DC0DC;stroke-width:2.25;}
	.st1{fill:#0DC0DC;}
</style>
<g id="Layer_1">
	<g>
		<circle class="st0" cx="19.6" cy="20.4" r="17.5"/>
	</g>
</g>
<g id="Layer_2">
	<path class="st1" d="M19,21.5c-0.1,0-0.2,0-0.2-0.1c-0.1-0.1-0.2-0.4,0-0.5l4.7-5.2c0.1-0.1,0.4-0.2,0.5,0c0.1,0.1,0.2,0.4,0,0.5
		l-4.7,5.2C19.2,21.5,19.1,21.5,19,21.5z"/>
	<path class="st1" d="M18.9,21.6c-0.1,0-0.2-0.1-0.3-0.2l-4.5-7.7c-0.1-0.2,0-0.4,0.1-0.5c0.2-0.1,0.4,0,0.5,0.1l4.5,7.7
		c0.1,0.2,0,0.4-0.1,0.5C19.1,21.6,19,21.6,18.9,21.6z M24.4,16.8c-1.1,0-2-0.9-2-2s0.9-2,2-2c1.1,0,2,0.9,2,2S25.5,16.8,24.4,16.8z
		 M24.4,13.9c-0.5,0-1,0.4-1,1s0.4,1,1,1s1-0.4,1-1S24.9,13.9,24.4,13.9z"/>
	<path class="st1" d="M13.7,14.8c-1.6,0-3-1.3-3.1-2.9c-0.1-0.8,0.2-1.6,0.8-2.2c0.5-0.6,1.3-1,2.1-1c1.7-0.1,3.2,1.2,3.3,2.9
		c0.1,1.7-1.2,3.2-2.9,3.3C13.8,14.8,13.8,14.8,13.7,14.8L13.7,14.8z M13.7,10.5C13.7,10.5,13.7,10.5,13.7,10.5
		c-0.4,0-0.7,0.2-1,0.4c-0.2,0.3-0.3,0.6-0.3,0.9c0,0.7,0.7,1.3,1.4,1.2c0.3,0,0.7-0.2,0.9-0.4c0.2-0.3,0.3-0.6,0.3-0.9
		c0-0.3-0.2-0.7-0.4-0.9C14.3,10.6,14,10.5,13.7,10.5L13.7,10.5z M11.6,26.2c-0.1,0-0.2-0.1-0.3-0.2c-0.1-0.2-0.1-0.4,0.1-0.5
		l7.4-4.8c0.2-0.1,0.4-0.1,0.5,0.1c0.1,0.2,0.1,0.4-0.1,0.5l-7.4,4.8C11.7,26.2,11.6,26.2,11.6,26.2L11.6,26.2z M21.2,28.2
		c-0.2,0-0.3-0.1-0.3-0.3l-1.6-5.2c-0.1-0.2,0.1-0.4,0.2-0.4c0.2-0.1,0.4,0.1,0.4,0.2l1.6,5.2c0.1,0.2-0.1,0.4-0.2,0.4
		C21.3,28.2,21.3,28.2,21.2,28.2z"/>
	<path class="st1" d="M21.2,30.5c0.7,0.4,1.6,0.1,2-0.6c0.4-0.7,0.1-1.6-0.6-2c-0.7-0.4-1.6-0.1-2,0.6
		C20.2,29.3,20.5,30.2,21.2,30.5L21.2,30.5z"/>
	<path class="st1" d="M27.7,23.9C27.7,23.9,27.6,23.9,27.7,23.9l-9.2-2.5c-0.2-0.1-0.3-0.3-0.3-0.4c0.1-0.2,0.3-0.3,0.4-0.3l9.1,2.5
		c0.2,0.1,0.3,0.3,0.3,0.4C28,23.8,27.9,23.9,27.7,23.9z"/>
	<path class="st1" d="M15.7,21.2c0,1.8,1.5,3.2,3.2,3.2s3.2-1.5,3.2-3.2S20.7,18,19,18S15.7,19.4,15.7,21.2L15.7,21.2z"/>
	<path class="st1" d="M29.7,27c-0.8,0-1.6-0.3-2.2-0.9c-0.6-0.6-1-1.4-1-2.2c0-0.9,0.3-1.7,0.9-2.3c0.6-0.6,1.4-1,2.2-1
		c0.9,0,1.7,0.3,2.3,0.9c0.6,0.6,1,1.4,1,2.2c0.1,1.8-1.3,3.2-3.1,3.3C29.7,27,29.7,27,29.7,27L29.7,27z M29.7,22.4L29.7,22.4
		c-0.4,0-0.8,0.2-1,0.4s-0.4,0.6-0.4,1c0,0.4,0.2,0.7,0.4,1c0.3,0.3,0.6,0.4,1,0.4c0.8,0,1.4-0.7,1.3-1.4c0-0.4-0.2-0.7-0.4-1
		C30.4,22.6,30,22.4,29.7,22.4L29.7,22.4z"/>
	<path class="st1" d="M9.9,30.3c-0.8,0-1.6-0.3-2.2-0.9c-0.6-0.6-1-1.4-1-2.2c0-0.9,0.3-1.7,0.9-2.3s1.4-1,2.2-1
		c1.8-0.1,3.2,1.3,3.3,3.1c0.1,1.8-1.3,3.2-3.1,3.3H9.9L9.9,30.3z M9.9,25.7L9.9,25.7c-0.4,0-0.8,0.2-1,0.4c-0.3,0.3-0.4,0.6-0.4,1
		s0.2,0.7,0.4,1s0.6,0.4,1,0.4c0.8,0,1.4-0.7,1.3-1.4c0-0.4-0.2-0.7-0.4-1C10.6,25.8,10.3,25.7,9.9,25.7L9.9,25.7z"/>
</g>
</svg>
