<?xml version="1.0" encoding="utf-8"?>
<!-- Generator: Adobe Illustrator 23.0.3, SVG Export Plug-In . SVG Version: 6.00 Build 0)  -->
<svg version="1.1" id="Layer_1" xmlns="http://www.w3.org/2000/svg" xmlns:xlink="http://www.w3.org/1999/xlink" x="0px" y="0px"
	 viewBox="0 0 34.97 34" style="enable-background:new 0 0 34.97 34;" xml:space="preserve">
<style type="text/css">
	.st0{fill:#FFFFFF;stroke:#C41428;stroke-width:2.25;}
	.st1{fill:#C4212A;}
</style>
<g>
	<path class="st0" d="M17.66,1.82C9.17,1.82,2.29,8.7,2.29,17.19s6.88,15.38,15.38,15.38 M17.66,32.57
		c8.49,0,15.38-6.88,15.38-15.38S26.16,1.82,17.66,1.82"/>
</g>
<g>
	<path class="st1" d="M12.65,18.7c-0.59,0-1.04-0.03-1.48,0.01c-1.25,0.11-2.36,1-2.54,2.02c-0.19,1.04,0.4,2.19,1.37,2.7
		c0.98,0.51,2.12,0.24,3.07-0.71c0.47-0.47,0.78-1.06,1.04-1.66c0.43-1.02,1.2-1.7,2.08-2.3c0.31-0.21,0.58-0.17,0.88,0
		c0.31,0.18,0.19,0.45,0.19,0.7c0,1.29-0.48,2.4-1.24,3.41c-0.31,0.42-0.58,0.87-0.69,1.4c-0.2,1.02-0.03,1.96,0.79,2.65
		c0.77,0.65,1.66,0.76,2.58,0.34c0.95-0.44,1.41-1.23,1.46-2.25c0.05-0.92-0.37-1.67-0.91-2.37c-0.71-0.92-1.21-1.91-1.15-3.11
		c0.02-0.31-0.04-0.61,0.31-0.82c0.39-0.23,0.66-0.02,0.93,0.17c0.89,0.63,1.64,1.39,2.06,2.43c0.28,0.69,0.68,1.31,1.28,1.77
		c0.78,0.6,1.63,0.84,2.58,0.44c1.04-0.44,1.52-1.27,1.54-2.35c0.02-1-0.57-1.64-1.4-2.11c-0.91-0.52-1.89-0.41-2.85-0.31
		c-1.08,0.11-2.02-0.16-2.94-0.68c-0.26-0.15-0.49-0.28-0.45-0.65c0.03-0.35,0.25-0.5,0.52-0.63c1.01-0.49,2.06-0.77,3.2-0.67
		c0.52,0.05,1.06,0.04,1.57-0.02c1.16-0.14,2.14-1.07,2.35-2.15c0.18-0.94-0.32-1.95-1.25-2.53c-0.89-0.56-1.94-0.44-2.92,0.32
		c-0.54,0.42-0.91,0.94-1.15,1.57c-0.45,1.21-1.23,2.12-2.33,2.77c-0.25,0.15-0.45,0.21-0.72,0.06c-0.27-0.15-0.36-0.37-0.34-0.65
		c0.08-1.17,0.28-2.28,1.02-3.25c0.36-0.48,0.68-1,0.86-1.59c0.33-1.07,0.15-2.04-0.69-2.81c-0.76-0.71-1.85-0.84-2.78-0.33
		c-0.98,0.54-1.36,1.39-1.28,2.5c0.06,0.86,0.46,1.56,0.94,2.22c0.72,0.99,1.1,2.08,1.1,3.3c0,0.58-0.46,0.87-0.94,0.57
		c-0.85-0.53-1.65-1.12-2.09-2.08c-0.25-0.55-0.53-1.09-0.85-1.6c-0.64-1.01-1.79-1.5-2.92-1.27c-0.93,0.19-1.65,0.96-1.83,1.95
		c-0.19,1.04,0.25,1.99,1.25,2.6c0.6,0.37,1.27,0.48,1.97,0.42c1.32-0.11,2.62-0.17,3.82,0.58c0.29,0.18,0.51,0.33,0.52,0.7
		c0.01,0.37-0.23,0.49-0.49,0.64C14.7,18.62,13.64,18.84,12.65,18.7z"/>
</g>
</svg>
