<?xml version="1.0" encoding="utf-8"?>
<!-- Generator: Adobe Illustrator 23.0.3, SVG Export Plug-In . SVG Version: 6.00 Build 0)  -->
<svg version="1.1" id="Layer_1" xmlns="http://www.w3.org/2000/svg" xmlns:xlink="http://www.w3.org/1999/xlink" x="0px" y="0px"
	 viewBox="0 0 36.8 35.64" style="enable-background:new 0 0 36.8 35.64;" xml:space="preserve">
<style type="text/css">
	.st0{clip-path:url(#SVGID_2_);fill:#FFFFFF;stroke:#F47642;stroke-width:2.25;}
	.st1{fill:#F47641;stroke:#F47641;stroke-width:1.5;}
</style>
<g>
	<defs>
		<rect id="SVGID_1_" x="1.12" y="0.41" width="35" height="35"/>
	</defs>
	<clipPath id="SVGID_2_">
		<use xlink:href="#SVGID_1_"  style="overflow:visible;"/>
	</clipPath>
	<circle class="st0" cx="18.62" cy="17.91" r="16.31"/>
</g>
<path class="st1" d="M18.98,26.71c1.25,0,2.29-0.94,2.45-2.14h5.68c0.18,0,0.33-0.15,0.33-0.33V11.28c0-0.18-0.15-0.33-0.33-0.33
	h-3.54l1.43-1.43c0.13-0.13,0.13-0.33,0-0.45c-0.13-0.13-0.33-0.13-0.45,0l-1.96,1.98c-0.05,0.05-0.09,0.15-0.09,0.22
	s0.04,0.16,0.09,0.22l1.98,1.98c0.05,0.05,0.15,0.09,0.22,0.09c0.07,0,0.16-0.04,0.22-0.09c0.13-0.13,0.13-0.33,0-0.45l-1.43-1.43
	h3.21V23.9h-5.37c-0.16-1.22-1.2-2.14-2.45-2.14c-1.36,0-2.47,1.11-2.47,2.47S17.62,26.71,18.98,26.71z M18.98,22.41
	c1.02,0,1.83,0.82,1.83,1.83s-0.84,1.83-1.83,1.83c-1,0-1.83-0.82-1.83-1.83S17.96,22.41,18.98,22.41z M10.85,24.64h3.54l-1.43,1.43
	c-0.13,0.13-0.13,0.33,0,0.45c0.05,0.05,0.15,0.09,0.22,0.09s0.16-0.04,0.22-0.09l1.98-1.98c0.13-0.13,0.13-0.33,0-0.45l-1.98-1.98
	c-0.13-0.13-0.33-0.13-0.45,0c-0.13,0.13-0.13,0.33,0,0.45L14.37,24h-3.19V11.68h5.37c0.16,1.22,1.2,2.14,2.45,2.14
	c1.36,0,2.47-1.11,2.47-2.47s-1.13-2.47-2.49-2.47c-1.25,0-2.29,0.94-2.45,2.14h-5.68c-0.18,0-0.33,0.15-0.33,0.33v12.96
	C10.54,24.49,10.68,24.64,10.85,24.64z M18.98,9.52c1.02,0,1.83,0.82,1.83,1.83s-0.84,1.83-1.83,1.83c-1,0-1.83-0.82-1.83-1.83
	S17.96,9.52,18.98,9.52z"/>
</svg>
