<?xml version="1.0" encoding="utf-8"?>
<!-- Generator: Adobe Illustrator 25.3.1, SVG Export Plug-In . SVG Version: 6.00 Build 0)  -->
<svg version="1.1" id="Layer_1" xmlns="http://www.w3.org/2000/svg" xmlns:xlink="http://www.w3.org/1999/xlink" x="0px" y="0px"
	 viewBox="0 0 34.9 34.9" style="enable-background:new 0 0 34.9 34.9;" xml:space="preserve">
<style type="text/css">
	.st0{fill:#FFFFFF;stroke:#00819A;stroke-width:2.25;}
	.st1{fill:#0F91AA;}
</style>
<circle class="st0" cx="17.4" cy="17.4" r="16.3"/>
<path class="st1" d="M8.7,19.3"/>
<path class="st1" d="M29.3,19.1l-3-2.3c-0.3-2.4-1.2-4.2-2.7-5.4c-1.1-0.8-2.4-1.3-4-1.6c-0.4-0.6-1.1-1.2-2-1.2c-1,0-1.7,0.6-2,1.2
	c-1.4,0.3-2.8,0.8-3.8,1.8c-1.4,1.3-2.1,3.2-2.2,5.9c-1,1.1-2.4,2.1-4.1,3.3c-0.2,0.2-0.3,0.4-0.3,0.7c0,0.3,0.2,0.5,0.4,0.6
	c2.2,1,6.2,1.1,10.7,0.7c4.4-0.4,9.2-1.3,12.7-2.5c0.3-0.1,0.4-0.3,0.5-0.6S29.5,19.3,29.3,19.1z M22.7,12.6
	c0.8,0.6,1.4,1.5,1.8,2.6c-0.5,0.1-1.1,0.3-1.7,0.4c0-1.2-0.2-2.2-0.6-3.1c-0.1-0.1-0.1-0.3-0.2-0.4C22.2,12.3,22.5,12.4,22.7,12.6z
	 M15.4,13.1c0.5-0.9,1.2-1.6,1.9-2c0.6,0,1.2,0,1.8,0.1c0.8,0.5,1.4,1.1,1.7,1.8c0.3,0.7,0.5,1.6,0.5,2.7c-2.1,0.3-4.2,0.5-6.4,0.4
	C14.8,14.9,15,13.9,15.4,13.1z M12.8,12.7c0.5-0.4,1-0.8,1.7-1c-0.2,0.2-0.3,0.5-0.4,0.8c-0.5,1-0.7,2.2-0.6,3.6
	c-0.7-0.1-1.4-0.2-2.1-0.3C11.5,14.4,12.1,13.4,12.8,12.7z M9.2,20c0.4,0.4,0.6,1,0.8,1.5c-0.9-0.1-1.7-0.2-2.4-0.3
	C8.2,20.8,8.7,20.4,9.2,20z M16.2,21.4c-1.6,0.1-3.2,0.2-4.6,0.2c-0.1-0.8-0.7-2.1-1.2-2.6c0.1-0.1,0.2-0.2,0.3-0.3
	c5.2,1.1,10.4,0.5,14.7-0.7l1.8,1.4C24,20.3,20,21.1,16.2,21.4z"/>
</svg>
