<?xml version="1.0" encoding="UTF-8"?><svg xmlns="http://www.w3.org/2000/svg" viewBox="0 0 37.25 37.25"><defs><style>.cls-1{stroke:#e00087;stroke-width:2.25px;}.cls-1,.cls-2{fill:#fff;}.cls-3{fill:#e00087;}.cls-4{fill:#15c349;}.cls-5{fill:#0dc0dc;}</style></defs><g id="Layer_1"><circle class="cls-1" cx="18.62" cy="18.62" r="17.5"/></g><g id="Layer_2"><path class="cls-3" d="M18.25,20.03c-.09,0-.18-.03-.25-.1-.15-.14-.16-.37-.02-.52l4.82-5.26c.14-.15,.37-.16,.52-.02,.15,.14,.16,.37,.02,.52l-4.82,5.26c-.07,.08-.17,.12-.27,.12Z"/><path class="cls-3" d="M18.22,20.08c-.13,0-.25-.07-.32-.18l-4.56-7.8c-.1-.17-.04-.4,.13-.5,.17-.1,.4-.04,.5,.13l4.56,7.8c.1,.17,.04,.4-.13,.5-.06,.03-.12,.05-.19,.05Z"/><circle class="cls-5" cx="23.78" cy="13.17" r="2.08"/><circle class="cls-2" cx="23.78" cy="13.17" r=".97"/><path class="cls-4" d="M12.91,13.21c-1.65,0-3.05-1.29-3.15-2.97-.05-.84,.23-1.65,.79-2.28,.56-.63,1.33-1.01,2.17-1.05,1.74-.1,3.23,1.22,3.34,2.96s-1.22,3.23-2.96,3.34c-.07,0-.13,0-.2,0h0Z"/><path class="cls-2" d="M12.91,8.74s-.05,0-.08,0c-.35,.02-.67,.18-.91,.44-.23,.26-.35,.6-.33,.95,.05,.72,.67,1.28,1.39,1.24,.35-.02,.67-.18,.91-.44,.23-.26,.35-.6,.33-.95-.02-.35-.18-.67-.44-.91-.24-.22-.55-.33-.87-.33h0Z"/><path class="cls-3" d="M10.71,24.8c-.12,0-.24-.06-.31-.17-.11-.17-.06-.4,.11-.51l7.51-4.84c.17-.11,.4-.06,.51,.11,.11,.17,.06,.4-.11,.51l-7.51,4.84c-.06,.04-.13,.06-.2,.06h0Z"/><path class="cls-3" d="M20.57,26.83c-.16,0-.3-.1-.35-.26l-1.62-5.3c-.06-.19,.05-.4,.24-.46,.19-.06,.4,.05,.46,.24l1.62,5.3c.06,.19-.05,.4-.24,.46-.03,.01-.07,.02-.11,.02Z"/><path class="cls-5" d="M20.57,29.2c.73,.37,1.62,.09,1.99-.64,.37-.73,.09-1.62-.64-1.99s-1.62-.09-1.99,.64c-.37,.73-.09,1.62,.64,1.99h0Z"/><path class="cls-3" d="M27.17,22.48s-.07,0-.1-.01l-9.25-2.54c-.2-.05-.31-.26-.26-.45s.26-.31,.45-.26l9.25,2.54c.2,.05,.31,.26,.26,.45-.05,.16-.2,.27-.36,.27Z"/><path class="cls-3" d="M14.94,19.72c0,1.82,1.48,3.3,3.3,3.3s3.3-1.48,3.3-3.3-1.48-3.3-3.3-3.3-3.3,1.48-3.3,3.3h0Z"/><path class="cls-4" d="M29.17,25.63c-.83,0-1.62-.31-2.22-.88-.64-.59-1-1.4-1.03-2.27-.03-.87,.28-1.7,.88-2.33,.59-.64,1.4-1,2.27-1.03,.87-.03,1.7,.28,2.33,.88,.64,.59,1,1.4,1.03,2.27,.06,1.8-1.35,3.3-3.15,3.36-.03,0-.07,0-.11,0h0Z"/><path class="cls-2" d="M29.17,20.96h-.05c-.38,.01-.73,.17-.99,.45s-.39,.64-.38,1.02c.01,.38,.17,.73,.45,.99s.64,.39,1.02,.38c.78-.03,1.4-.68,1.37-1.46-.01-.38-.17-.73-.45-.99-.27-.25-.61-.38-.97-.38h0Z"/><path class="cls-4" d="M9.05,28.94c-.83,0-1.62-.31-2.22-.88-.64-.59-1-1.4-1.03-2.27s.28-1.7,.88-2.33c.59-.64,1.4-1,2.27-1.03,1.8-.05,3.3,1.35,3.36,3.15s-1.35,3.3-3.15,3.36h-.11Z"/><path class="cls-2" d="M9.06,24.27h-.05c-.38,.01-.73,.17-.99,.45s-.39,.64-.38,1.02,.17,.73,.45,.99,.64,.39,1.02,.38c.78-.03,1.4-.68,1.37-1.46-.01-.38-.17-.73-.45-.99-.27-.25-.61-.38-.97-.38h0Z"/></g></svg>