<svg id="Layer_1" data-name="Layer 1" xmlns="http://www.w3.org/2000/svg" width="34.86" height="34.86" viewBox="0 0 34.86 34.86"><title>carnival-scientificmethod</title><circle cx="17.43" cy="17.43" r="16.31" fill="#fff" stroke="#b10069" stroke-width="2.25"/><path d="M18.07,7.49a10.62,10.62,0,0,1,3,.44v6.7L14.55,8.11A10.5,10.5,0,0,1,18.07,7.49Zm4.5,1A10.51,10.51,0,0,1,27.31,13l-4.74,4.74Zm-9.5.24,4.74,4.75H8.59A10.46,10.46,0,0,1,13.07,8.75ZM28,14.47A10.6,10.6,0,0,1,28.57,18a10.27,10.27,0,0,1-.44,3H21.44ZM8,15h6.7L8.19,21.52A10.37,10.37,0,0,1,8,15Zm10.06,0a2.93,2.93,0,0,1,2.07.83l.05.05h0A3,3,0,0,1,21.07,18a3,3,0,0,1-.86,2.1l0,0a3,3,0,0,1-4.24,0A3,3,0,0,1,15.07,18a3,3,0,0,1,.83-2.08l0,0h0A3,3,0,0,1,18.07,15Zm-4.5,3.25v9.23A10.54,10.54,0,0,1,8.83,23Zm1.5,3.11,6.52,6.52a10.26,10.26,0,0,1-3.52.62,10.62,10.62,0,0,1-3-.44Zm3.25,1.14h9.23a10.59,10.59,0,0,1-4.48,4.74Z" transform="translate(-0.64 -0.56)" fill="#b10069"/></svg>