<svg id="Layer_1" data-name="Layer 1" xmlns="http://www.w3.org/2000/svg" width="34.86" height="34.86" viewBox="0 0 34.86 34.86"><title>carnival-evolution</title><circle cx="17.43" cy="17.43" r="16.31" fill="#fff" stroke="#f47642" stroke-width="2.25"/><path d="M30.57,14.85c-3,0-7.32.26-9.51,2.45a5.42,5.42,0,0,0-1.3,4.24.58.58,0,0,0,.39.51.57.57,0,0,0,.61-.18,13.3,13.3,0,0,1,4.51-3.41.64.64,0,0,1,.49,0,.55.55,0,0,1,0,1l-.06,0h0a13.64,13.64,0,0,0-7.49,9.32c-.71-4.61-2.21-7.33-3.63-9a10.86,10.86,0,0,0-2.61-2.44,4.52,4.52,0,0,1-.58-.43.58.58,0,0,1,0-.81.59.59,0,0,1,.84,0,2.36,2.36,0,0,0,.28.2l.1.07a12,12,0,0,1,3.72,3.87.57.57,0,0,0,.59.27.58.58,0,0,0,.46-.45A6,6,0,0,0,16.15,15C14,12.86,9.67,12.6,6.63,12.6a.58.58,0,0,0-.57.57c0,3,.26,7.32,2.45,9.52A5.27,5.27,0,0,0,12.23,24a6.44,6.44,0,0,0,3.12-.78c1.17,2.42,2.1,6,2.1,11.58a.58.58,0,0,0,.57.57.57.57,0,0,0,.57-.57A18.28,18.28,0,0,1,21.09,25a5.54,5.54,0,0,0,3.65,1.3H25a5.25,5.25,0,0,0,3.73-1.33c2.19-2.19,2.44-6.48,2.44-9.52A.57.57,0,0,0,30.57,14.85Z" transform="translate(-1.32 -2.45)" fill="#f47641"/></svg>