<?xml version="1.0" encoding="utf-8"?>
<!-- Generator: Adobe Illustrator 25.4.1, SVG Export Plug-In . SVG Version: 6.00 Build 0)  -->
<svg version="1.1" id="Layer_1" xmlns="http://www.w3.org/2000/svg" xmlns:xlink="http://www.w3.org/1999/xlink" x="0px" y="0px"
	 viewBox="0 0 34.9 34.9" style="enable-background:new 0 0 34.9 34.9;" xml:space="preserve">
<style type="text/css">
	.st0{fill:#FFFFFF;stroke:#0074BC;stroke-width:2.25;}
	.st1{fill:#004671;}
	.st2{fill:#B3D5EB;}
	.st3{fill:#0074BC;}
</style>
<circle class="st0" cx="17.4" cy="17.4" r="16.3"/>
<g>
	<path class="st1" d="M26.7,19.6c-1.8,1-3.1,0.5-4.1-0.6c-0.8-0.9-0.9-2.3-0.1-3.3c0.9-1.3,2.1-1.8,4.2-1c-0.1-0.1-0.3,0.2-0.3,0.1
		C25,11.4,21.9,9.3,18,9.4c-0.7,0-1.1-0.6-0.8-0.9C17.3,8.2,17.7,8,18,7.9c1.7-0.3,3.5,0,5.1,0.6c1.4,0.5,1.8,0.4,2.6-0.9
		c1,0.8,1.9,1.8,2.6,2.9c2.4,3.8,2.8,7.9,1,12.1c-1.1,2.7-3.1,4.8-5.7,6.2c-0.1,0-0.2,0.1-0.3,0.1c-0.4,0.2-0.7,0.2-1-0.2
		c-0.3-0.4-0.1-0.8,0.2-1c1.2-0.9,2.2-2,2.9-3.3C26.3,22.9,26.7,21.3,26.7,19.6C26.7,19.5,26.7,19.8,26.7,19.6z"/>
	<path class="st2" d="M11.4,24.7c0-2.1,0.9-3.1,2.3-3.4c1.2-0.2,2.4,0.4,2.9,1.5c0.6,1.5,0.6,2.4-1.2,3.9c0.1,0-0.1,0,0,0
		c3.7,0.5,7-1.2,8.9-4.5c0.4-0.6,1-0.7,1.2-0.3c0.1,0.3,0.1,0.7,0,0.9c-0.7,1.6-1.7,3-3.1,4.1c-1.1,0.9-1.2,1.4-0.5,2.7
		c-1.2,0.5-2.5,0.7-3.8,0.8c-4.5,0.1-8.2-1.6-10.9-5.2c-1.8-2.4-2.6-5.1-2.6-8c0-0.1,0-0.2,0-0.3c0-0.4,0.2-0.7,0.7-0.7
		c0.5,0,0.7,0.3,0.8,0.7c0.1,1.5,0.6,2.9,1.4,4.2c0.9,1.4,2.1,2.6,3.5,3.4C11.3,24.5,11.2,24.6,11.4,24.7z"/>
	<path class="st3" d="M14.9,8.6c1.8,1.1,2,2.4,1.5,3.8c-0.4,1.2-1.5,1.9-2.7,1.8c-1.6-0.2-2.4-0.6-2.8-2.9c-0.1,0.1,0.1-0.1,0,0
		c-2.2,3-2.4,6.7-0.4,10c0.4,0.6,0.1,1.2-0.4,1.2c-0.3,0-0.7-0.2-0.8-0.4c-1.1-1.4-1.8-3-2.1-4.7c-0.3-1.4-0.6-1.8-2.1-1.8
		c0.2-1.3,0.6-2.5,1.2-3.7c2.1-4,5.4-6.4,9.9-7c2.9-0.4,5.7,0.2,8.3,1.7c0.1,0.1,0.2,0.1,0.3,0.2C25,7,25.2,7.3,25,7.7
		c-0.2,0.4-0.6,0.5-1,0.3c-1.4-0.6-2.8-0.9-4.4-0.8C17.9,7.2,16.3,7.7,14.9,8.6C14.7,8.6,15,8.4,14.9,8.6z"/>
</g>
</svg>
