<?xml version="1.0" encoding="utf-8"?>
<!-- Generator: Adobe Illustrator 27.5.0, SVG Export Plug-In . SVG Version: 6.00 Build 0)  -->
<svg version="1.1" id="Layer_1" xmlns="http://www.w3.org/2000/svg" xmlns:xlink="http://www.w3.org/1999/xlink" x="0px" y="0px"
	 viewBox="0 0 39.5 40.2" style="enable-background:new 0 0 39.5 40.2;" xml:space="preserve">
<style type="text/css">
	.st0{fill:#FFFFFF;stroke:#B10069;stroke-width:2.25;}
	.st1{fill:#B10069;}
</style>
<g id="Layer_1_00000014634805415406019960000004365327341225098419_">
	<g>
		<circle class="st0" cx="19.6" cy="20.4" r="17.5"/>
	</g>
</g>
<g>
	<path class="st1" d="M19.8,9.1c2.5,0,4.8,0.8,6.4,2.2c1.6,1.4,2.6,3.3,2.6,5.3c0,0.5-0.1,1-0.2,1.5c-0.1,0.5-0.3,1-0.6,1.5
		l-0.3,0.6c-1.4,2.6-3.4,6.2,0.1,8.6c0.2,0.2,0.3,0.4,0.1,0.6c-0.1,0.1-0.1,0.1-0.2,0.1l-8.4,2.8c-0.3,0.1-0.6,0-0.7-0.3l-1.4-4.5
		h-3.8c-0.9,0-1.7-0.3-2.3-0.8c-0.6-0.5-1-1.2-1-1.9v-2.3H9.3c-0.2,0-0.5,0-0.6-0.1l0,0c-0.2-0.1-0.3-0.2-0.3-0.3
		c-0.1-0.1-0.1-0.3-0.1-0.4c0-0.2,0.1-0.4,0.2-0.7c0.7-1.1,1.5-2.2,2.2-3.2c0.1-0.1,0.2-0.2,0.2-0.3c0-0.1,0-0.2,0-0.4l0-0.4
		c0-2.1,1-4,2.6-5.3C15.1,9.9,17.3,9.1,19.8,9.1L19.8,9.1z M25.5,11.9c-1.4-1.2-3.4-2-5.7-2c-2.2,0-4.2,0.7-5.7,2
		c-1.4,1.2-2.3,2.9-2.3,4.7l0,0.4c0,0.3,0,0.4,0,0.6c-0.1,0.2-0.1,0.3-0.3,0.5c-0.7,1.1-1.5,2.1-2.2,3.2c-0.1,0.1-0.1,0.2-0.1,0.2
		l0,0l0.1,0h1.4c0.3,0,0.5,0.2,0.5,0.4v2.7c0,0.5,0.3,1,0.7,1.3c0.4,0.3,1,0.5,1.6,0.5h4.2c0.2,0,0.4,0.1,0.5,0.3l1.4,4.3l7.1-2.3
		c-3.2-2.7-1.1-6.4,0.3-9.1l0.3-0.6c0.2-0.4,0.4-0.8,0.5-1.3c0.1-0.4,0.2-0.9,0.2-1.4C27.8,14.8,26.9,13.1,25.5,11.9L25.5,11.9z"/>
	<path class="st1" d="M17.3,19.6H19l0,0c0.6,0,1.1,0.2,1.4,0.6c0.4,0.4,0.6,0.9,0.6,1.5c0,0,0,0,0,0v1.7c0,0.3-0.2,0.5-0.5,0.5
		c-0.3,0-0.5-0.2-0.5-0.5v-1.8c0,0,0,0,0,0c0-0.3-0.1-0.5-0.3-0.7c-0.2-0.2-0.4-0.3-0.7-0.3h-1.7c-0.6,0-1.1-0.2-1.5-0.6
		c-0.3-0.3-0.6-0.8-0.6-1.3c-0.4-0.1-0.7-0.3-1-0.5c-0.4-0.4-0.6-0.9-0.6-1.5c0-0.6,0.2-1.1,0.6-1.5c0.3-0.3,0.6-0.4,0.9-0.5
		c0-0.2,0-0.3,0.1-0.5c0.2-0.6,0.6-1.2,1.2-1.6l0,0c0.6-0.3,1.3-0.4,1.9-0.2c0.4,0.1,0.7,0.3,1,0.5c0.1-0.1,0.1-0.1,0.2-0.2
		c0.3-0.3,0.7-0.4,1.2-0.4c0.5,0,0.9,0.3,1.1,0.6c0.1,0.1,0.2,0.3,0.3,0.4c0.4-0.1,0.9-0.1,1.3-0.1c0.7,0.1,1.3,0.5,1.6,1.1
		c0.4,0.6,0.5,1.2,0.4,1.8c0,0,0.1,0.1,0.1,0.1c0.4,0.5,0.5,1.1,0.4,1.7c-0.1,0.6-0.4,1.1-0.9,1.5C24.6,20,24,20.1,23.4,20
		c-0.5-0.1-0.9-0.3-1.3-0.6c-0.3,0.1-0.6,0.1-0.9,0c-0.4-0.1-0.8-0.4-1-0.8c-0.1-0.2-0.1-0.6,0.2-0.7c0.2-0.1,0.6-0.1,0.7,0.2
		c0.1,0.1,0.2,0.2,0.4,0.3c0.2,0,0.3,0,0.5-0.1c0.1-0.1,0.2-0.2,0.3-0.4c0-0.2,0-0.3-0.1-0.5c-0.1-0.2-0.1-0.6,0.2-0.7
		c0.2-0.1,0.6-0.1,0.7,0.2c0.2,0.4,0.3,0.8,0.2,1.2c-0.1,0.2-0.1,0.4-0.3,0.6c0.2,0.1,0.3,0.2,0.5,0.2c0.3,0.1,0.7,0,1-0.2
		c0.3-0.2,0.5-0.5,0.5-0.8c0-0.2,0-0.3,0-0.5c-0.2,0.2-0.4,0.4-0.6,0.6c-0.2,0.2-0.6,0.1-0.7-0.2c-0.2-0.2-0.1-0.6,0.2-0.7
		c0.4-0.2,0.6-0.6,0.7-1c0.1-0.4,0-0.8-0.2-1.2c-0.2-0.4-0.6-0.6-1-0.7c-0.4-0.1-0.8,0-1.2,0.2c-0.1,0.1-0.2,0.1-0.3,0.1
		c-0.3,0-0.5-0.3-0.5-0.6c0-0.2,0-0.3-0.1-0.4c-0.1-0.1-0.2-0.2-0.4-0.2c-0.2,0-0.3,0-0.4,0.1c-0.1,0.1-0.2,0.2-0.2,0.4
		c0,0.3-0.3,0.5-0.6,0.5c-0.2,0-0.4-0.1-0.4-0.3c-0.2-0.4-0.6-0.6-0.9-0.7c-0.4-0.1-0.8-0.1-1.2,0.1l0,0c-0.4,0.2-0.6,0.6-0.7,0.9
		c0,0.2-0.1,0.4,0,0.6c0,0,0,0,0,0c0,0.2,0.1,0.4,0.2,0.6l0,0c0.1,0.3,0,0.6-0.2,0.7c-0.3,0.1-0.6,0-0.7-0.2
		c-0.1-0.1-0.2-0.3-0.2-0.5c-0.1,0.1-0.2,0.1-0.3,0.2c-0.2,0.2-0.3,0.4-0.3,0.7c0,0.3,0.1,0.5,0.3,0.7c0.1,0.1,0.3,0.2,0.4,0.3
		c0.1-0.2,0.2-0.4,0.4-0.6c0.4-0.4,0.9-0.6,1.5-0.6c0.3,0,0.5,0.2,0.5,0.5c0,0.3-0.2,0.5-0.5,0.5c-0.3,0-0.5,0.1-0.7,0.3
		c-0.2,0.2-0.3,0.4-0.3,0.7c0,0.3,0.1,0.5,0.3,0.7C16.7,19.5,17,19.6,17.3,19.6L17.3,19.6z M21.2,16.8c-0.1,0.3-0.4,0.4-0.7,0.3
		c-0.3-0.1-0.4-0.4-0.3-0.7c0.3-0.6,0.8-1.1,1.4-1.3c0.6-0.2,1.3-0.2,2,0.1c0.3,0.1,0.4,0.4,0.3,0.7c-0.1,0.3-0.4,0.4-0.7,0.3
		c-0.4-0.2-0.8-0.2-1.2,0C21.7,16.2,21.4,16.4,21.2,16.8L21.2,16.8z M17.6,15.5c-0.2,0.2-0.5,0.2-0.7,0.1c-0.2-0.2-0.2-0.5-0.1-0.7
		c0.3-0.3,0.7-0.5,1.1-0.6c0.4,0,0.9,0.1,1.2,0.4c0.3,0.3,0.5,0.7,0.6,1.1c0,0.4-0.1,0.9-0.4,1.2c-0.2,0.2-0.5,0.2-0.7,0.1
		c-0.2-0.2-0.2-0.5-0.1-0.7c0.1-0.1,0.2-0.3,0.1-0.4c0-0.2-0.1-0.3-0.2-0.4c-0.1-0.1-0.3-0.2-0.4-0.1C17.8,15.3,17.7,15.3,17.6,15.5
		L17.6,15.5z"/>
</g>
</svg>
