<?xml version="1.0" encoding="utf-8"?>
<!-- Generator: Adobe Illustrator 23.0.3, SVG Export Plug-In . SVG Version: 6.00 Build 0)  -->
<svg version="1.1" id="Layer_1" xmlns="http://www.w3.org/2000/svg" xmlns:xlink="http://www.w3.org/1999/xlink" x="0px" y="0px"
	 viewBox="0 0 27 27" style="enable-background:new 0 0 27 27;" xml:space="preserve">
<style type="text/css">
	.st0{fill:#FFFFFF;stroke:#79B142;stroke-width:2.25;}
	.st1{fill-rule:evenodd;clip-rule:evenodd;fill:#79B142;}
</style>
<g id="Page-1">
	<g id="Icon-Guide" transform="translate(-115.000000, -18.000000)">
		<g id="Group" transform="translate(116.000000, 19.000000)">
			<path id="Stroke-33" class="st0" d="M24.33,12.12c0,6.63-5.37,12-12,12s-12-5.37-12-12s5.37-12,12-12
				C18.95,0.12,24.33,5.5,24.33,12.12z"/>
			<path id="Fill-15" class="st1" d="M12.12,5.22l-2.06,2.09C9.9,7.49,9.73,7.68,9.6,7.88C9.56,7.92,9.54,7.97,9.51,8.01
				c0.99-0.27,2.05-0.26,3.03,0.05l0.17-0.17l1.13-1.15c0.99-1.01,2.6-1.01,3.59,0c0.99,1.01,0.99,2.64,0,3.65l-1.29,1.31
				l-0.27,0.27l-0.26,0.26l0,0l-0.43,0.44c-0.45,0.45-1.02,0.7-1.6,0.75l0,0l0,0c-0.12,0.01-0.23,0.01-0.31,0.01
				c-0.07,0-0.17-0.01-0.17-0.01l-0.15-0.03l0,0c-0.49-0.09-0.97-0.33-1.36-0.72c-0.37-0.38-0.6-0.85-0.7-1.33
				c0-0.01,0-0.03-0.01-0.04c-0.43,0.04-0.86,0.22-1.19,0.56l-0.68,0.69c0.24,0.6,0.59,1.17,1.07,1.66s1.03,0.85,1.63,1.09
				c0.11,0.04,0.22,0.08,0.33,0.12c0.09,0.03,0.19,0.06,0.29,0.08c0.01,0,0.01,0,0.02,0c0.02,0,0.03,0.01,0.05,0.01
				c0.98,0.23,2.03,0.14,2.96-0.26c0.12-0.05,0.23-0.1,0.34-0.16c0.01,0,0.01-0.01,0.02-0.01c0.02-0.01,0.04-0.02,0.06-0.03
				c0.05-0.03,0.1-0.05,0.14-0.08l0,0c0.34-0.21,0.66-0.46,0.95-0.75l2.05-2.09c1.88-1.91,1.88-5,0-6.9
				C17.04,3.32,14,3.32,12.12,5.22"/>
			<path id="Fill-17" class="st1" d="M12.28,18.86l2.06-2.09c0.18-0.18,0.33-0.37,0.48-0.57c0.03-0.04,0.06-0.09,0.09-0.13
				c-0.99,0.27-2.05,0.26-3.03-0.05l-0.17,0.18l-1.13,1.15c-0.99,1.01-2.6,1.01-3.59,0s-0.99-2.64,0-3.65l1.29-1.31l0.27-0.27
				l0.26-0.26l0,0l0.43-0.44c0.45-0.46,1.02-0.7,1.6-0.75l0,0l0,0c0.12-0.01,0.23-0.01,0.31-0.01c0.2,0.01,0.31,0.04,0.31,0.04l0,0
				l0,0c0.49,0.09,0.97,0.33,1.35,0.72c0.37,0.38,0.6,0.84,0.7,1.33c0,0.01,0,0.03,0.01,0.04c0.43-0.04,0.87-0.22,1.19-0.56
				l0.68-0.7c-0.24-0.6-0.59-1.17-1.07-1.66s-1.03-0.85-1.63-1.09c-0.11-0.04-0.22-0.08-0.33-0.12c-0.1-0.03-0.19-0.06-0.29-0.08
				c-0.01,0-0.01,0-0.02-0.01c-0.02,0-0.03-0.01-0.05-0.01c-0.98-0.23-2.03-0.14-2.96,0.26C8.95,8.89,8.83,8.94,8.72,9
				C8.71,9,8.71,9.01,8.7,9.01C8.68,9.02,8.66,9.03,8.64,9.04C8.59,9.07,8.54,9.09,8.5,9.12l0,0c-0.34,0.2-0.66,0.45-0.95,0.75
				l-2.06,2.09c-1.88,1.91-1.88,5,0,6.9C7.37,20.77,10.41,20.77,12.28,18.86"/>
		</g>
	</g>
</g>
</svg>
