<?xml version="1.0" encoding="utf-8"?>
<!-- Generator: Adobe Illustrator 27.2.0, SVG Export Plug-In . SVG Version: 6.00 Build 0)  -->
<svg version="1.1" id="Layer_1" xmlns="http://www.w3.org/2000/svg" xmlns:xlink="http://www.w3.org/1999/xlink" x="0px" y="0px"
	 viewBox="0 0 32.25 32.25" style="enable-background:new 0 0 32.25 32.25;" xml:space="preserve">
<style type="text/css">
	.st0{fill:#FFFFFF;stroke:#B10069;stroke-width:2.25;}
	.st1{fill:#B10069;}
</style>
<g>
	<g>
		<circle class="st0" cx="16.12" cy="16.12" r="15"/>
	</g>
</g>
<g>
	<path class="st1" d="M6.76,25.38h9.12c0.26,0,0.52-0.1,0.7-0.29c0.19-0.19,0.29-0.44,0.29-0.7V11.57c0-0.26-0.1-0.52-0.29-0.7
		c-0.19-0.19-0.44-0.29-0.7-0.29h-1.23V9.84h0.47c0.17,0,0.33-0.07,0.45-0.19c0.12-0.12,0.19-0.28,0.19-0.45V7.52
		c0-0.17-0.07-0.33-0.19-0.45c-0.12-0.12-0.28-0.19-0.45-0.19h-7.6c-0.17,0-0.33,0.07-0.45,0.19C6.94,7.18,6.88,7.35,6.87,7.52v1.68
		c0,0.17,0.07,0.33,0.19,0.45c0.12,0.12,0.28,0.19,0.45,0.19h0.47v0.74H6.76c-0.26,0-0.52,0.1-0.7,0.29
		c-0.19,0.19-0.29,0.44-0.29,0.7v12.82c0,0.26,0.1,0.52,0.29,0.7C6.24,25.27,6.49,25.38,6.76,25.38L6.76,25.38z M6.51,17.6h1.11
		c0.1,0,0.19-0.04,0.26-0.11c0.07-0.07,0.11-0.16,0.11-0.26v-1.11h0.74v1.11c0,0.1,0.04,0.19,0.11,0.26C8.9,17.57,9,17.6,9.1,17.6
		h1.11v0.74H9.1c-0.2,0-0.37,0.17-0.37,0.37v1.11H7.99v-1.11c0-0.1-0.04-0.19-0.11-0.26s-0.16-0.11-0.26-0.11H6.51V17.6z
		 M7.25,19.08v1.11c0,0.1,0.04,0.19,0.11,0.26c0.07,0.07,0.16,0.11,0.26,0.11H9.1c0.1,0,0.19-0.04,0.26-0.11
		c0.07-0.07,0.11-0.16,0.11-0.26v-1.11h1.11c0.1,0,0.19-0.04,0.26-0.11c0.07-0.07,0.11-0.16,0.11-0.26v-1.48
		c0-0.1-0.04-0.19-0.11-0.26c-0.07-0.07-0.16-0.11-0.26-0.11H9.47v-1.11c0-0.1-0.04-0.19-0.11-0.26c-0.07-0.07-0.16-0.11-0.26-0.11
		H7.62c-0.2,0-0.37,0.17-0.37,0.37v1.11H6.51v-2.59h5.67c0.07,0,0.13,0.03,0.18,0.07c0.05,0.05,0.07,0.11,0.07,0.18v6.91
		c0,0.07-0.03,0.13-0.07,0.18c-0.05,0.05-0.11,0.07-0.18,0.07H6.51v-2.6L7.25,19.08z M12.43,9.09V7.61h0.74v1.48H12.43z M10.95,9.09
		V7.61h0.74v1.48H10.95z M9.47,9.09V7.61h0.74v1.48H9.47z M15.02,9.09h-1.11V7.61h1.11V9.09z M7.62,7.61h1.11v1.48H7.62V7.61z
		 M8.73,9.83h5.18v0.74H8.73V9.83z M6.76,11.31h9.12c0.07,0,0.13,0.03,0.18,0.07c0.05,0.05,0.07,0.11,0.07,0.18v12.82
		c0,0.07-0.03,0.13-0.07,0.18c-0.05,0.05-0.11,0.07-0.18,0.07H6.76c-0.07,0-0.13-0.03-0.18-0.07s-0.07-0.11-0.07-0.18v-1.97h5.67
		c0.26,0,0.51-0.1,0.7-0.29c0.19-0.18,0.29-0.43,0.3-0.69v-6.9c0-0.27-0.1-0.52-0.29-0.71c-0.19-0.19-0.44-0.3-0.71-0.3H6.51v-1.97
		c0-0.07,0.03-0.13,0.07-0.18C6.63,11.34,6.69,11.31,6.76,11.31L6.76,11.31z"/>
	<path class="st1" d="M18.6,25.38h6.9c0.26,0,0.52-0.1,0.7-0.29c0.19-0.19,0.29-0.44,0.29-0.7v-9.86c0-0.26-0.1-0.52-0.29-0.7
		c-0.19-0.19-0.44-0.29-0.7-0.29h-0.86V12.8h0.47c0.17,0,0.33-0.07,0.45-0.19c0.12-0.12,0.19-0.28,0.19-0.45v-0.94
		c0-0.17-0.07-0.33-0.19-0.45c-0.12-0.12-0.28-0.19-0.45-0.19h-6.12c-0.17,0-0.33,0.07-0.45,0.19c-0.12,0.12-0.19,0.28-0.19,0.45
		v0.94c0,0.17,0.07,0.33,0.19,0.45c0.12,0.12,0.28,0.19,0.45,0.19h0.47v0.74H18.6c-0.26,0-0.52,0.1-0.7,0.29
		c-0.19,0.19-0.29,0.44-0.29,0.7v9.86c0,0.26,0.1,0.52,0.29,0.7C18.08,25.27,18.33,25.38,18.6,25.38L18.6,25.38z M25.75,22.41h-7.4
		v-5.92h7.4V22.41z M25.49,24.63h-6.9c-0.07,0-0.13-0.03-0.18-0.07c-0.05-0.05-0.07-0.11-0.07-0.18v-1.23h7.4v1.23
		c0,0.07-0.03,0.13-0.07,0.18C25.63,24.61,25.56,24.64,25.49,24.63L25.49,24.63z M22.42,12.05v-0.74h0.74v0.74H22.42z M20.94,12.05
		v-0.74h0.74v0.74H20.94z M25.01,12.05H23.9v-0.74h1.11V12.05z M19.09,11.31h1.11v0.74h-1.11V11.31z M20.2,12.79h3.7v0.74h-3.7
		V12.79z M18.6,14.27h6.9c0.07,0,0.13,0.03,0.18,0.07c0.05,0.05,0.07,0.11,0.07,0.18v1.23h-7.4v-1.23c0-0.07,0.03-0.13,0.07-0.18
		S18.53,14.27,18.6,14.27L18.6,14.27z"/>
	<path class="st1" d="M19.83,20.56h1.11v1.11c0,0.1,0.04,0.19,0.11,0.26c0.07,0.07,0.16,0.11,0.26,0.11h1.48
		c0.1,0,0.19-0.04,0.26-0.11c0.07-0.07,0.11-0.16,0.11-0.26v-1.11h1.11c0.1,0,0.19-0.04,0.26-0.11c0.07-0.07,0.11-0.16,0.11-0.26
		v-1.48c0-0.1-0.04-0.19-0.11-0.26c-0.07-0.07-0.16-0.11-0.26-0.11h-1.11v-1.11c0-0.1-0.04-0.19-0.11-0.26
		c-0.07-0.07-0.16-0.11-0.26-0.11h-1.48c-0.2,0-0.37,0.17-0.37,0.37v1.11h-1.11c-0.2,0-0.37,0.17-0.37,0.37v1.48
		c0,0.1,0.04,0.19,0.11,0.26C19.63,20.53,19.73,20.56,19.83,20.56z M20.2,19.08h1.11c0.1,0,0.19-0.04,0.26-0.11
		c0.07-0.07,0.11-0.16,0.11-0.26V17.6h0.74v1.11c0,0.1,0.04,0.19,0.11,0.26c0.07,0.07,0.16,0.11,0.26,0.11h1.11v0.74h-1.11
		c-0.2,0-0.37,0.17-0.37,0.37v1.11h-0.74v-1.11c0-0.1-0.04-0.19-0.11-0.26c-0.07-0.07-0.16-0.11-0.26-0.11H20.2V19.08z"/>
</g>
</svg>
