<svg id="Layer_1" data-name="Layer 1" xmlns="http://www.w3.org/2000/svg" viewBox="0 0 33.01 33.01"><defs><style>.cls-1{fill:#fff;stroke:#1e9575;stroke-width:2.25px;}.cls-2{fill:#1e9575;}</style></defs><g id="Layer_1-2" data-name="Layer 1"><circle class="cls-1" cx="16.51" cy="16.51" r="15.38"/></g><path class="cls-2" d="M26.46,10.16A2.65,2.65,0,0,0,26,9.83a1.91,1.91,0,0,0-.89-.24h-2V6h0L19.4,9.62H12.12a1.85,1.85,0,0,0-1.85,1.85v.64H7.85A1.85,1.85,0,0,0,6,14v7.57a1.85,1.85,0,0,0,1.85,1.85h2V27l3.71-3.62h7.28a1.85,1.85,0,0,0,1.85-1.85v-.61h2.42a1.61,1.61,0,0,0,.89-.24,1.5,1.5,0,0,0,.42-.33A1.86,1.86,0,0,0,27,19V11.47A1.86,1.86,0,0,0,26.46,10.16ZM22,21.55a1.16,1.16,0,0,1-1.15,1.15H13.32l-.21.21-2.53,2.45V22.7H7.83a1.16,1.16,0,0,1-1.15-1.15V14a1.16,1.16,0,0,1,1.15-1.15h2.42v6.25a1.86,1.86,0,0,0,1.85,1.86H22v.63Z" transform="translate(0.01 0.01)"/></svg>