<?xml version="1.0" encoding="utf-8"?>
<!-- Generator: Adobe Illustrator 25.0.1, SVG Export Plug-In . SVG Version: 6.00 Build 0)  -->
<svg version="1.1" id="Layer_1" xmlns="http://www.w3.org/2000/svg" xmlns:xlink="http://www.w3.org/1999/xlink" x="0px" y="0px"
	 viewBox="0 0 33 33" style="enable-background:new 0 0 33 33;" xml:space="preserve">
<style type="text/css">
	.st0{fill:#FFFFFF;stroke:#0074BC;stroke-width:2.25;}
	.st1{fill:#0074BC;}
</style>
<g id="Layer_1_1_">
	<circle class="st0" cx="16.5" cy="16.5" r="15.4"/>
</g>
<g>
	<g>
		<polygon class="st1" points="13.4,7.5 7,11.2 7,14.1 13.4,10.4 19.7,14.1 19.7,11.2 		"/>
	</g>
	<g>
		<polygon class="st1" points="19.6,25.9 13.3,22.2 13.3,19.4 19.6,23.1 26,19.4 26,22.2 		"/>
	</g>
	<g>
		<polygon class="st1" points="7,14.8 13.4,11.2 15.8,12.6 9.5,16.3 9.5,23.6 7,22.2 		"/>
	</g>
	<g>
		<polygon class="st1" points="22.9,9.4 16.5,5.7 14,7.1 20.4,10.8 20.4,18.2 22.9,16.7 		"/>
	</g>
	<g>
		<polygon class="st1" points="10.1,24 10.1,16.7 12.6,15.3 12.6,22.6 19,26.3 16.5,27.7 		"/>
	</g>
	<g>
		<polygon class="st1" points="26,18.6 26,11.3 23.5,9.8 23.5,17.2 17.2,20.9 19.6,22.3 		"/>
	</g>
</g>
</svg>
