<svg id="Layer_1" data-name="Layer 1" xmlns="http://www.w3.org/2000/svg" width="273" height="108" viewBox="0 0 273 108"><title>phet-logo-TM-partners</title><path d="M36.73,24.89H5.62a2,2,0,0,0-1.95,1.94v77.8a2,2,0,0,0,2,2H22.79a2,2,0,0,0,1.95-2V84.28a1.93,1.93,0,0,1,2-1.94h10C56.58,82.34,68,71.8,68,53.55S56.58,24.89,36.73,24.89m-2,40.05H26.69a1.94,1.94,0,0,1-2-1.95V44a1.94,1.94,0,0,1,2-1.94h8.08C44.08,42,47,48.41,47,53.55c0,5.39-3,11.39-12.26,11.39" fill="#6acef5"/><path d="M267.38,24.89H147.93A2,2,0,0,0,146,26.83v77.8a1.94,1.94,0,0,0,1.94,2H201a1.94,1.94,0,0,0,1.94-2V91.26a1.94,1.94,0,0,0-1.94-2H168a1,1,0,0,1-1-1v-13a1,1,0,0,1,1-1h28.2a1.94,1.94,0,0,0,1.94-2V59.05a1.94,1.94,0,0,0-1.94-1.95H168a1,1,0,0,1-1-1V43a1,1,0,0,1,1-1l55.5.06a1,1,0,0,1,1,1v61.56a2,2,0,0,0,1.94,2h17.18a1.94,1.94,0,0,0,1.94-2V43.07a1,1,0,0,1,1-1h20.84a2,2,0,0,0,1.95-2V26.83a2,2,0,0,0-1.95-1.94" fill="#6acef5"/><path d="M120.44,46.94c-.78,2.42-1.52,4.86-2.19,7.37-.13.52-.27,1.06-.41,1.58-6.26,27.06-2.86,44.74-1.68,50.5a2.15,2.15,0,0,0,.86.19h15.87a2,2,0,0,0,2-2V70.57c0-11.29-5.12-19.76-14.41-23.63" fill="#fee105"/><path d="M97.37,45.34V24.14a2,2,0,0,0-2-1.95H78.24a2,2,0,0,0-1.95,1.95v80.49a2,2,0,0,0,1.95,2H89.05a2.32,2.32,0,0,0,1.36-.48c3-24.39,12.16-45.6,21.14-61.3a35.42,35.42,0,0,0-3.78-.19,70.55,70.55,0,0,0-10.4.73" fill="#fee105"/><polygon points="107.24 17.23 119.29 21.59 134.79 8.67 122.86 22.8 135.75 27.35 140.4 1.42 107.24 17.23" fill="#fee105"/><polyline points="124.05 29.94 123.54 24.15 127.99 25.76" fill="#fee105"/><path d="M255.47,106.58V98.69h-2.95V97.63h7.09v1.06h-3v7.89Z" fill="#6acef5"/><path d="M260.79,106.58v-9h1.78l2.12,6.34c.19.59.34,1,.43,1.32.1-.33.26-.8.47-1.43l2.14-6.23h1.6v9h-1.14V99.09l-2.61,7.49h-1.06L261.93,99v7.62Z" fill="#6acef5"/></svg>