<?xml version="1.0" encoding="utf-8"?>
<!-- Generator: Adobe Illustrator 19.2.1, SVG Export Plug-In . SVG Version: 6.00 Build 0)  -->
<svg version="1.1" id="Layer_1" xmlns="http://www.w3.org/2000/svg" xmlns:xlink="http://www.w3.org/1999/xlink" x="0px" y="0px"
	 viewBox="0 0 164.9 45.1" style="enable-background:new 0 0 164.9 45.1;" xml:space="preserve">
<style type="text/css">
	.st0{fill:none;stroke:#00529B;}
	.st1{fill:#00529B;}
	.st2{fill:#987C4D;}
</style>
<g id="type_possibilities">
</g>
<g id="Key_parts">
</g>
<g id="Xi">
</g>
<g id="Sigma">
	<line class="st0" x1="33.4" y1="34.8" x2="164.9" y2="34.8"/>
	<g>
		<path class="st1" d="M35.1,40.5c0-0.3,0-0.6,0-0.8h-1c-0.2,0-0.2,0.1-0.3,0.3v0.6h-0.2c0-0.4,0-0.9,0-1.3c0.5,0,0.9,0,1.4,0h0.9
			c0.5,0,0.9,0,1.4,0c0,0.4,0,0.8,0,1.3h-0.2V40c0-0.2-0.1-0.3-0.3-0.3h-1c0,0.2,0,0.5,0,0.8v3.4c0,0.3,0,0.5,0.1,0.6
			c0,0.1,0.1,0.1,0.3,0.1h0.3v0.2c-0.3,0-0.6,0-0.9,0c-0.3,0-0.6,0-0.9,0v-0.2H35c0.2,0,0.2,0,0.3-0.1c0-0.1,0.1-0.3,0.1-0.6v-3.4
			H35.1z"/>
		<path class="st1" d="M42.2,44c0,0.3,0,0.4,0,0.5s0.1,0.1,0.2,0.1h0.3v0.2c-0.3,0-0.5,0-0.8,0s-0.5,0-0.8,0v-0.2h0.3
			c0.1,0,0.2,0,0.2-0.1s0-0.3,0-0.5v-1.5c-0.1,0-0.2,0-0.4,0h-1.3c-0.2,0-0.4,0-0.4,0V44c0,0.3,0,0.4,0,0.5s0.1,0.1,0.2,0.1H40v0.2
			c-0.3,0-0.5,0-0.8,0s-0.5,0-0.8,0v-0.2h0.3c0.1,0,0.2,0,0.2-0.1s0-0.3,0-0.5v-3c0-0.3,0-0.4,0-0.5s-0.1-0.1-0.2-0.1h-0.3v-0.2
			c0.3,0,0.5,0,0.8,0c0.2,0,0.5,0,0.8,0v0.2h-0.3c-0.1,0-0.2,0-0.2,0.1s0,0.3,0,0.5v1.2c0.1,0,0.2,0,0.4,0h1.4c0.2,0,0.4,0,0.4,0V41
			c0-0.3,0-0.4,0-0.5s-0.1-0.1-0.2-0.1h-0.3v-0.2c0.3,0,0.5,0,0.8,0c0.2,0,0.5,0,0.8,0v0.2h-0.3c-0.1,0-0.2,0-0.2,0.1s0,0.3,0,0.5
			L42.2,44L42.2,44z"/>
		<path class="st1" d="M44.5,41c0-0.3,0-0.4,0-0.5s-0.1-0.1-0.2-0.1H44v-0.2c0.3,0,0.6,0,0.9,0c0.5,0,1,0,1.3,0c0.2,0,0.5,0,0.7,0
			c-0.1,0.3-0.1,0.7-0.1,1h-0.2v-0.4c0-0.1,0-0.2,0-0.2c-0.3-0.1-0.7-0.1-1.1-0.1c-0.1,0-0.3,0-0.5,0.1v1.8c0.2,0,0.4,0,0.6,0
			c0.3,0,0.5,0,0.6-0.1c0,0,0-0.1,0-0.2v-0.4h0.2c0,0.3,0,0.5,0,0.8s0,0.5,0,0.8h-0.1v-0.4c0-0.1,0-0.1,0-0.2
			c-0.1-0.1-0.2-0.1-0.6-0.1c-0.3,0-0.5,0-0.6,0v1.9c0.2,0,0.3,0.1,0.5,0.1c0.4,0,1,0,1.1-0.1s0.2-0.4,0.2-0.8h0.2
			C47,44,47,44.4,47,44.8c-0.2,0-0.7,0-1.1,0c-0.4,0-0.8,0-1.2,0c-0.2,0-0.4,0-0.6,0v-0.2h0.2c0.1,0,0.2,0,0.2-0.1s0-0.3,0-0.5
			C44.5,44,44.5,41,44.5,41z"/>
		<path class="st1" d="M53.4,40.1v-0.5c0-0.2-0.1-0.3-0.3-0.5s-0.5-0.2-0.8-0.2c-0.5,0-1.1,0.4-1.1,1.3c0,0.6,0.3,1,1.2,1.1
			c1,0.1,1.7,0.5,1.7,1.5c0,1.5-1.1,2.3-2.2,2.3c-0.5,0-1-0.2-1.2-0.3c0.1-0.5,0.1-1,0.1-1.4H51l0.1,0.6c0,0.4,0.6,0.7,1.2,0.7
			c0.6,0,1.3-0.5,1.3-1.4s-0.5-1.1-1.3-1.2c-1.1-0.2-1.6-0.6-1.6-1.5c0-1.4,1-2,1.8-2c0.6,0,1,0.2,1.3,0.4c-0.1,0.5-0.1,0.8-0.1,1.3
			h-0.3C53.4,40.3,53.4,40.1,53.4,40.1z"/>
		<path class="st1" d="M58.9,44.6C58.6,44.8,58,45,57.7,45c-1.3,0-2.2-0.9-2.2-2.5c0-0.8,0.2-1.4,0.7-1.8c0.4-0.4,1-0.6,1.6-0.6
			c0.5,0,1,0.2,1.3,0.3c-0.1,0.3-0.1,0.7-0.1,1h-0.2v-0.5c0-0.2-0.2-0.3-0.5-0.4c-0.2-0.1-0.4-0.1-0.6-0.1c-1,0-1.6,0.9-1.6,2.1
			c0,1.3,0.7,2.2,1.8,2.2c0.4,0,0.9-0.2,1.1-0.4v0.1L58.9,44.6z"/>
		<path class="st1" d="M61.4,44c0,0.3,0,0.4,0,0.5s0.1,0.1,0.2,0.1h0.3v0.2c-0.3,0-0.5,0-0.8,0s-0.5,0-0.8,0v-0.2h0.3
			c0.1,0,0.2,0,0.2-0.1s0-0.3,0-0.5v-3c0-0.3,0-0.4,0-0.5s-0.1-0.1-0.2-0.1h-0.3v-0.2c0.3,0,0.5,0,0.8,0c0.2,0,0.5,0,0.8,0v0.2h-0.3
			c-0.1,0-0.2,0-0.2,0.1s0,0.3,0,0.5V44z"/>
		<path class="st1" d="M63.6,41c0-0.3,0-0.4,0-0.5s-0.1-0.1-0.2-0.1h-0.3v-0.2c0.3,0,0.6,0,0.9,0c0.5,0,1,0,1.3,0c0.2,0,0.5,0,0.7,0
			c-0.1,0.3-0.1,0.7-0.1,1h-0.2v-0.4c0-0.1,0-0.2,0-0.2c-0.3-0.1-0.7-0.1-1.1-0.1c-0.1,0-0.3,0-0.5,0.1v1.8c0.2,0,0.4,0,0.6,0
			c0.3,0,0.5,0,0.6-0.1c0,0,0-0.1,0-0.2v-0.4h0.2c0,0.3,0,0.5,0,0.8s0,0.5,0,0.8h-0.2v-0.4c0-0.1,0-0.1,0-0.2
			c-0.1-0.1-0.2-0.1-0.6-0.1c-0.3,0-0.5,0-0.6,0v1.9c0.2,0,0.3,0.1,0.5,0.1c0.4,0,1,0,1.1-0.1s0.2-0.4,0.2-0.8h0.2
			C66,44,66,44.4,66,44.8c-0.2,0-0.7,0-1.1,0c-0.4,0-0.8,0-1.2,0c-0.2,0-0.4,0-0.6,0v-0.2h0.2c0.1,0,0.2,0,0.2-0.1s0-0.3,0-0.5
			L63.6,41L63.6,41z"/>
		<path class="st1" d="M67.8,41c0-0.3,0-0.4,0-0.5s-0.1-0.1-0.2-0.1h-0.2v-0.2c0.2,0,0.5,0,0.6,0s0.2,0,0.3,0l2.6,4l0,0V41
			c0-0.3,0-0.4,0-0.5s-0.1-0.1-0.2-0.1h-0.2v-0.2c0.2,0,0.4,0,0.6,0s0.4,0,0.6,0v0.2h-0.2c-0.1,0-0.2,0-0.2,0.1s0,0.3,0,0.5v3.7
			c0,0.1,0,0.2,0,0.3l-0.5-0.1l-2.6-4l0,0V44c0,0.3,0,0.4,0,0.5s0.1,0.1,0.2,0.1h0.2v0.2c-0.2,0-0.4,0-0.6,0s-0.4,0-0.6,0v-0.2h0.2
			c0.1,0,0.2,0,0.2-0.1s0-0.3,0-0.5C67.8,44,67.8,41,67.8,41z"/>
		<path class="st1" d="M74.1,41.1c0-0.3,0-0.5,0-0.7h-0.8c-0.2,0-0.2,0.1-0.2,0.2v0.5h-0.2c0-0.4,0-0.7,0-1.1c0.4,0,0.8,0,1.2,0h0.8
			c0.4,0,0.8,0,1.2,0c0,0.4,0,0.7,0,1.1h-0.2v-0.5c0-0.2-0.1-0.2-0.2-0.2h-0.8c0,0.2,0,0.4,0,0.7V44c0,0.3,0,0.4,0,0.5
			s0.1,0.1,0.2,0.1h0.3v0.2c-0.3,0-0.5,0-0.8,0s-0.5,0-0.8,0v-0.2h0.3c0.1,0,0.2,0,0.2-0.1s0-0.3,0-0.5v-2.9H74.1z"/>
		<path class="st1" d="M78.1,44c0,0.3,0,0.4,0,0.5s0.1,0.1,0.2,0.1h0.3v0.2c-0.3,0-0.5,0-0.8,0s-0.5,0-0.8,0v-0.2h0.3
			c0.1,0,0.2,0,0.2-0.1s0-0.3,0-0.5v-3c0-0.3,0-0.4,0-0.5s-0.1-0.1-0.2-0.1H77v-0.2c0.3,0,0.5,0,0.8,0c0.2,0,0.5,0,0.8,0v0.2h-0.3
			c-0.1,0-0.2,0-0.2,0.1s0,0.3,0,0.5V44z"/>
		<path class="st1" d="M80.9,44c0,0.3,0,0.4,0,0.5s0.1,0.1,0.2,0.1h0.3v0.2c-0.3,0-0.5,0-0.8,0s-0.5,0-0.8,0v-0.2h0.3
			c0.1,0,0.2,0,0.2-0.1s0-0.3,0-0.5v-3c0-0.3,0-0.4,0-0.5s-0.1-0.1-0.2-0.1h-0.3v-0.2c0.3,0,0.6,0,0.9,0c0.4,0,0.9,0,1.2,0
			c0.2,0,0.5,0,0.7,0c-0.1,0.3-0.1,0.7-0.1,1h-0.2v-0.4c0-0.1,0-0.2,0-0.2c-0.3-0.1-0.7-0.1-1-0.1c-0.1,0-0.3,0-0.5,0.1v1.8
			c0.2,0,0.4,0,0.6,0c0.3,0,0.5,0,0.6-0.1c0,0,0-0.1,0-0.2v-0.4h0.3c0,0.3,0,0.5,0,0.8s0,0.5,0,0.8h-0.2v-0.4c0-0.1,0-0.1,0-0.2
			c-0.1-0.1-0.2-0.1-0.6-0.1c-0.3,0-0.5,0-0.6,0C80.9,42.6,80.9,44,80.9,44z"/>
		<path class="st1" d="M84.8,44c0,0.3,0,0.4,0,0.5s0.1,0.1,0.2,0.1h0.3v0.2c-0.3,0-0.5,0-0.8,0s-0.5,0-0.8,0v-0.2H84
			c0.1,0,0.2,0,0.2-0.1s0-0.3,0-0.5v-3c0-0.3,0-0.4,0-0.5s-0.1-0.1-0.2-0.1h-0.3v-0.2c0.3,0,0.5,0,0.8,0c0.2,0,0.5,0,0.8,0v0.2H85
			c-0.1,0-0.2,0-0.2,0.1s0,0.3,0,0.5V44z"/>
		<path class="st1" d="M89.9,44.6C89.6,44.8,89,45,88.7,45c-1.3,0-2.2-0.9-2.2-2.5c0-0.8,0.2-1.4,0.7-1.8c0.4-0.4,1-0.6,1.6-0.6
			c0.5,0,1,0.2,1.3,0.3c-0.1,0.3-0.1,0.7-0.1,1h-0.2v-0.5c0-0.2-0.2-0.3-0.5-0.4c-0.2-0.1-0.4-0.1-0.6-0.1c-1,0-1.6,0.9-1.6,2.1
			c0,1.3,0.7,2.2,1.8,2.2c0.4,0,0.9-0.2,1.1-0.4v0.1L89.9,44.6z"/>
		<path class="st1" d="M95.1,43.7c0,0.3,0,0.6,0.1,0.7c0,0.1,0.1,0.1,0.3,0.1h0.3v0.3c-0.4,0-0.7,0-1,0c-0.4,0-0.7,0-1.1,0v-0.3H94
			c0.2,0,0.3,0,0.3-0.1c0.1-0.1,0.1-0.3,0.1-0.7v-4.1c0-0.3,0-0.6-0.1-0.7c0-0.1-0.1-0.1-0.3-0.1h-0.3v-0.3c0.4,0,0.8,0,1.2,0
			c0.4,0,0.8,0,1.3,0c1.2,0,1.5,0.7,1.5,1.4c0,1-0.7,1.6-1.4,1.7l1.6,2.7c0.1,0.2,0.3,0.2,0.4,0.2v0.3c-0.2,0-0.4,0-0.5,0
			s-0.3,0-0.5,0c-0.1-0.2-0.2-0.3-0.3-0.5l-1.3-2.2c-0.1-0.2-0.3-0.4-0.4-0.6v-0.1c0.2,0,0.4,0,0.6,0c0.5-0.1,0.9-0.6,0.9-1.3
			c0-1-0.6-1.2-1.1-1.2c-0.3,0-0.5,0-0.7,0.1L95.1,43.7L95.1,43.7z"/>
		<path class="st1" d="M100.2,41c0-0.3,0-0.4,0-0.5s-0.1-0.1-0.2-0.1h-0.3v-0.2c0.3,0,0.6,0,0.9,0c0.5,0,1,0,1.3,0
			c0.2,0,0.5,0,0.7,0c-0.1,0.3-0.1,0.7-0.1,1h-0.2v-0.4c0-0.1,0-0.2,0-0.2c-0.3-0.1-0.7-0.1-1.1-0.1c-0.1,0-0.3,0-0.5,0.1v1.8
			c0.2,0,0.4,0,0.6,0c0.3,0,0.5,0,0.6-0.1c0,0,0-0.1,0-0.2v-0.4h0.2c0,0.3,0,0.5,0,0.8s0,0.5,0,0.8h-0.2v-0.4c0-0.1,0-0.1,0-0.2
			c-0.1-0.1-0.2-0.1-0.6-0.1c-0.3,0-0.5,0-0.6,0v1.9c0.2,0,0.3,0.1,0.5,0.1c0.4,0,1,0,1.1-0.1s0.2-0.4,0.2-0.8h0.2
			c-0.1,0.3-0.1,0.7-0.1,1.1c-0.2,0-0.7,0-1.1,0s-0.8,0-1.2,0c-0.2,0-0.4,0-0.6,0v-0.2h0.2c0.1,0,0.2,0,0.2-0.1s0-0.3,0-0.5v-3
			C100.1,41,100.2,41,100.2,41z"/>
		<path class="st1" d="M106.1,41.2v-0.4c0-0.2,0-0.3-0.2-0.4c-0.2-0.1-0.4-0.2-0.6-0.2c-0.4,0-0.8,0.3-0.8,1c0,0.5,0.2,0.7,0.9,0.8
			c0.8,0.1,1.2,0.3,1.2,1.1c0,1.2-0.8,1.7-1.6,1.7c-0.4,0-0.7-0.1-0.9-0.3c0-0.4,0-0.7,0-1h0.2V44c0,0.3,0.5,0.5,0.9,0.5
			c0.5,0,1-0.4,1-1s-0.4-0.8-1-0.9c-0.9-0.1-1.2-0.5-1.2-1.2c0-1,0.7-1.5,1.4-1.5c0.4,0,0.8,0.2,1,0.3c-0.1,0.3-0.1,0.6-0.1,1
			C106.3,41.2,106.1,41.2,106.1,41.2z"/>
		<path class="st1" d="M108.3,41c0-0.3,0-0.4,0-0.5s-0.1-0.1-0.2-0.1h-0.3v-0.2c0.3,0,0.6,0,0.9,0c0.5,0,1,0,1.3,0
			c0.2,0,0.5,0,0.7,0c-0.1,0.3-0.1,0.7-0.1,1h-0.3v-0.4c0-0.1,0-0.2,0-0.2c-0.3-0.1-0.7-0.1-1.1-0.1c-0.1,0-0.3,0-0.5,0.1v1.8
			c0.2,0,0.4,0,0.6,0c0.3,0,0.5,0,0.6-0.1c0,0,0-0.1,0-0.2v-0.4h0.2c0,0.3,0,0.5,0,0.8s0,0.5,0,0.8h-0.2v-0.4c0-0.1,0-0.1,0-0.2
			c-0.1-0.1-0.2-0.1-0.6-0.1c-0.3,0-0.5,0-0.6,0v1.9c0.2,0,0.3,0.1,0.5,0.1c0.4,0,1,0,1.1-0.1s0.2-0.4,0.2-0.8h0.2
			c-0.1,0.3-0.1,0.7-0.1,1.1c-0.2,0-0.7,0-1.1,0s-0.8,0-1.2,0c-0.2,0-0.4,0-0.6,0v-0.2h0.2c0.1,0,0.2,0,0.2-0.1s0-0.3,0-0.5v-3
			C108.1,41,108.3,41,108.3,41z"/>
		<path class="st1" d="M113.2,43l0.7-2l0.7,2H113.2z M114.1,40.1h-0.2c-0.1,0.5-0.3,1-0.5,1.5l-1,2.7c-0.1,0.2-0.2,0.3-0.3,0.3h-0.2
			v0.2c0.2,0,0.4,0,0.6,0s0.4,0,0.6,0v-0.2h-0.2c-0.2,0-0.3,0-0.3-0.2c0-0.1,0.1-0.6,0.2-0.7l0.2-0.5h1.6l0.2,0.8
			c0.1,0.2,0.1,0.3,0.1,0.4c0,0.1-0.1,0.1-0.2,0.1h-0.3v0.2c0.3,0,0.5,0,0.7,0s0.5,0,0.7,0v-0.2h-0.2c-0.1,0-0.2-0.1-0.2-0.2
			c-0.1-0.1-0.1-0.3-0.2-0.5L114.1,40.1z"/>
		<path class="st1" d="M118.2,44c0,0.3,0,0.4,0,0.5s0.1,0.1,0.2,0.1h0.3v0.2c-0.3,0-0.5,0-0.8,0s-0.5,0-0.8,0v-0.2h0.3
			c0.1,0,0.2,0,0.2-0.1s0-0.3,0-0.5v-3c0-0.3,0-0.4,0-0.5s-0.1-0.1-0.2-0.1h-0.2v-0.2c0.3,0,0.6,0,0.9,0s0.6,0,0.9,0
			c0.9,0,1.1,0.5,1.1,1c0,0.7-0.5,1.2-1.1,1.3l1.2,2c0.1,0.1,0.2,0.2,0.3,0.2v0.2c-0.1,0-0.3,0-0.4,0s-0.2,0-0.4,0
			c-0.1-0.1-0.2-0.2-0.2-0.4l-1-1.7c-0.1-0.1-0.2-0.3-0.3-0.4v-0.1c0.1,0,0.3,0,0.5,0c0.4-0.1,0.7-0.4,0.7-0.9
			c0-0.7-0.4-0.9-0.9-0.9c-0.2,0-0.4,0-0.6,0.1V44C117.9,44,118.2,44,118.2,44z"/>
		<path class="st1" d="M125.1,44.6c-0.3,0.2-0.9,0.4-1.2,0.4c-1.3,0-2.2-0.9-2.2-2.5c0-0.8,0.2-1.4,0.7-1.8c0.4-0.4,1-0.6,1.6-0.6
			c0.5,0,1,0.2,1.3,0.3c-0.1,0.3-0.1,0.7-0.1,1H125v-0.5c0-0.2-0.2-0.3-0.5-0.4c-0.2-0.1-0.4-0.1-0.6-0.1c-1,0-1.6,0.9-1.6,2.1
			c0,1.3,0.7,2.2,1.8,2.2c0.4,0,0.9-0.2,1.1-0.4v0.1L125.1,44.6z"/>
		<path class="st1" d="M130.2,44c0,0.3,0,0.4,0,0.5s0.1,0.1,0.2,0.1h0.3v0.2c-0.3,0-0.5,0-0.8,0s-0.5,0-0.8,0v-0.2h0.3
			c0.1,0,0.2,0,0.2-0.1s0-0.3,0-0.5v-1.5c-0.1,0-0.2,0-0.4,0h-1.3c-0.2,0-0.4,0-0.4,0V44c0,0.3,0,0.4,0,0.5s0.1,0.1,0.2,0.1h0.3v0.2
			c-0.3,0-0.5,0-0.8,0s-0.5,0-0.8,0v-0.2h0.3c0.1,0,0.2,0,0.2-0.1s0-0.3,0-0.5v-3c0-0.3,0-0.4,0-0.5s-0.1-0.1-0.2-0.1h-0.3v-0.2
			c0.3,0,0.5,0,0.8,0c0.2,0,0.5,0,0.8,0v0.2h-0.3c-0.1,0-0.2,0-0.2,0.1s0,0.3,0,0.5v1.2c0.1,0,0.2,0,0.4,0h1.3c0.2,0,0.4,0,0.4,0V41
			c0-0.3,0-0.4,0-0.5s-0.1-0.1-0.2-0.1h-0.3v-0.2c0.3,0,0.5,0,0.8,0c0.2,0,0.5,0,0.8,0v0.2h-0.3c-0.1,0-0.2,0-0.2,0.1s0,0.3,0,0.5
			V44z"/>
		<path class="st1" d="M137.1,40.1v-0.5c0-0.2-0.1-0.3-0.3-0.5s-0.5-0.2-0.8-0.2c-0.5,0-1.1,0.4-1.1,1.3c0,0.6,0.3,1,1.2,1.1
			c1,0.1,1.7,0.5,1.7,1.5c0,1.5-1.1,2.3-2.2,2.3c-0.5,0-1-0.2-1.2-0.3c0.1-0.5,0.1-1,0.1-1.4h0.2l0.1,0.6c0,0.4,0.6,0.7,1.2,0.7
			c0.6,0,1.3-0.5,1.3-1.4s-0.5-1.1-1.3-1.2c-1.1-0.2-1.6-0.6-1.6-1.5c0-1.4,1-2,1.8-2c0.6,0,1,0.2,1.3,0.4c-0.1,0.5-0.1,0.8-0.1,1.3
			h-0.3L137.1,40.1L137.1,40.1z"/>
		<path class="st1" d="M141.2,40.3c1,0,1.5,0.9,1.5,2.2c0,1.2-0.4,2.1-1.3,2.1c-1.1,0-1.5-1.2-1.5-2.4
			C139.8,41.1,140.3,40.3,141.2,40.3z M141.2,44.9c1.2,0,2.1-1.2,2.1-2.6c0-1.5-0.8-2.3-2-2.3c-1.3,0-2,1.1-2,2.5
			C139.3,44,140.1,44.9,141.2,44.9z"/>
		<path class="st1" d="M147.8,44.6c-0.3,0.2-0.9,0.4-1.2,0.4c-1.3,0-2.2-0.9-2.2-2.5c0-0.8,0.2-1.4,0.7-1.8c0.4-0.4,1-0.6,1.6-0.6
			c0.5,0,1,0.2,1.3,0.3c-0.1,0.3-0.1,0.7-0.1,1h-0.2v-0.5c0-0.2-0.2-0.3-0.5-0.4c-0.2-0.1-0.4-0.1-0.6-0.1c-1,0-1.6,0.9-1.6,2.1
			c0,1.3,0.7,2.2,1.8,2.2c0.4,0,0.9-0.2,1.1-0.4v0.1L147.8,44.6z"/>
		<path class="st1" d="M150.3,44c0,0.3,0,0.4,0,0.5s0.1,0.1,0.2,0.1h0.3v0.2c-0.3,0-0.5,0-0.8,0s-0.5,0-0.8,0v-0.2h0.3
			c0.1,0,0.2,0,0.2-0.1s0-0.3,0-0.5v-3c0-0.3,0-0.4,0-0.5s-0.1-0.1-0.2-0.1h-0.3v-0.2c0.3,0,0.5,0,0.8,0c0.2,0,0.5,0,0.8,0v0.2h-0.3
			c-0.1,0-0.2,0-0.2,0.1s0,0.3,0,0.5V44z"/>
		<path class="st1" d="M152.6,41c0-0.3,0-0.4,0-0.5s-0.1-0.1-0.2-0.1h-0.3v-0.2c0.3,0,0.6,0,0.9,0c0.5,0,1,0,1.3,0
			c0.2,0,0.5,0,0.7,0c-0.1,0.3-0.1,0.7-0.1,1h-0.2v-0.4c0-0.1,0-0.2,0-0.2c-0.3-0.1-0.7-0.1-1.1-0.1c-0.1,0-0.3,0-0.5,0.1v1.8
			c0.2,0,0.4,0,0.6,0c0.3,0,0.5,0,0.6-0.1c0,0,0-0.1,0-0.2v-0.4h0.2c0,0.3,0,0.5,0,0.8s0,0.5,0,0.8h-0.2v-0.4c0-0.1,0-0.1,0-0.2
			c-0.1-0.1-0.2-0.1-0.6-0.1c-0.3,0-0.5,0-0.6,0v1.9c0.2,0,0.3,0.1,0.5,0.1c0.4,0,1,0,1.1-0.1s0.2-0.4,0.2-0.8h0.2
			c-0.1,0.3-0.1,0.7-0.1,1.1c-0.2,0-0.7,0-1.1,0c-0.4,0-0.8,0-1.2,0c-0.2,0-0.4,0-0.6,0v-0.2h0.2c0.1,0,0.2,0,0.2-0.1s0-0.3,0-0.5
			v-3C152.5,41,152.6,41,152.6,41z"/>
		<path class="st1" d="M157.5,41.1c0-0.3,0-0.5,0-0.7h-0.8c-0.2,0-0.2,0.1-0.2,0.2v0.5h-0.2c0-0.4,0-0.7,0-1.1c0.4,0,0.8,0,1.2,0
			h0.8c0.4,0,0.8,0,1.2,0c0,0.4,0,0.7,0,1.1h-0.2v-0.5c0-0.2-0.1-0.2-0.2-0.2h-0.8c0,0.2,0,0.4,0,0.7V44c0,0.3,0,0.4,0,0.5
			s0.1,0.1,0.2,0.1h0.3v0.2c-0.3,0-0.5,0-0.8,0s-0.5,0-0.8,0v-0.2h0.3c0.1,0,0.2,0,0.2-0.1s0-0.3,0-0.5v-2.9H157.5z"/>
		<path class="st1" d="M162.4,42.5l0.6-1.1c0.2-0.4,0.4-0.9,0.6-1.3h0.4v0.1c-0.5,0.7-1.1,1.8-1.3,2.4c-0.1,0.2-0.1,0.3-0.1,0.5V44
			c0,0.3,0,0.4,0,0.5s0.1,0.1,0.2,0.1h0.3v0.2c-0.3,0-0.5,0-0.8,0s-0.5,0-0.8,0v-0.2h0.3c0.1,0,0.2,0,0.2-0.1s0-0.3,0-0.5v-1
			c0-0.1,0-0.2,0-0.3l-0.7-1.5c-0.3-0.6-0.6-0.9-0.7-0.9h-0.2v-0.2l0.6-0.2c0.1,0,0.2,0.1,0.3,0.3c0.1,0.1,0.2,0.3,0.2,0.4
			L162.4,42.5z"/>
	</g>
	<g>
		<path class="st1" d="M45.8,14l-0.2-1.8c-0.1-0.8-0.2-1.2-1.4-1.9c-0.9-0.5-2.2-0.8-3.4-0.8c-2.2,0-4.6,1.5-4.6,4.6
			c0,2.1,1.3,3.4,5.2,3.9c4.4,0.5,7.2,1.6,7.2,5.1c0,5.4-4.8,7.9-9.5,7.9c-2.2,0-4.3-0.7-5.4-1.2c0.3-1.6,0.3-3.3,0.2-4.8h1l0.3,2.1
			c0.2,1.3,2.6,2.5,5.1,2.5c2.8,0,5.6-1.7,5.6-4.8c0-3-2.3-3.8-5.5-4.2c-4.9-0.6-6.9-2.1-6.9-5.4c0-4.9,4.3-7.1,8-7.1
			c2.5,0,4.4,0.8,5.7,1.3c-0.3,1.6-0.4,2.9-0.4,4.4h-1C45.8,13.8,45.8,14,45.8,14z"/>
		<path class="st1" d="M56,27.5c0,1,0.1,1.6,0.2,1.9c0.2,0.3,0.5,0.4,1.1,0.4l1.2,0.1v0.8c-1.3-0.1-2.5-0.1-3.7-0.1s-2.4,0-3.7,0.1
			v-0.8l1.2-0.1c0.6,0,0.9-0.1,1.1-0.4c0.2-0.3,0.2-0.9,0.2-1.9V16.1c0-1-0.1-1.6-0.2-1.9c-0.2-0.2-0.5-0.3-1.1-0.3l-1.2-0.1V13
			c1.3,0.1,2.5,0.1,3.7,0.1s2.3,0,3.7-0.1v0.8l-1.2,0.1c-0.6,0-0.9,0.1-1.1,0.4C56,14.6,56,15.2,56,16.2V27.5z"/>
		<path class="st1" d="M75.5,25.5c0-0.6-0.2-0.8-0.9-0.9l-2.1-0.2v-0.8c1,0,2.1,0.1,3.1,0.1s2.1,0,3.1-0.1l0.1,0.6l-0.7,0.3
			c-0.3,0.1-0.3,0.2-0.3,0.9v4.2c-2.2,0.6-4.9,1.3-6.6,1.3C65.6,30.9,61,28,61,21.6c0-5.5,4.6-9.1,10.6-9.1c3.1,0,5.1,0.7,6.3,1
			c-0.3,1.2-0.5,2.5-0.5,3.8h-0.8V16c0-1.2-0.9-1.6-2.1-2c-0.8-0.3-1.9-0.5-3.5-0.5c-4.8,0-7.3,3.2-7.3,7.6c0,5,2.9,8.6,8.1,8.6
			c1.9,0,3.4-0.4,3.5-0.9c0.1-0.3,0.1-0.4,0.1-1L75.5,25.5L75.5,25.5z"/>
		<path class="st1" d="M102,27.5c0,1,0.1,1.6,0.2,1.9c0.2,0.3,0.5,0.4,1.1,0.4l1.2,0.1v0.8c-1.3-0.1-2.5-0.1-3.7-0.1s-2.4,0-3.4,0.1
			v-0.8l0.9-0.1c0.6-0.1,0.9-0.1,1.1-0.4c0.2-0.3,0.2-0.9,0.2-1.9V16h-0.1c-0.4,0.7-0.7,1.4-1.1,2.1l-4.5,9.5
			c-0.5,1-0.9,2.1-1.4,3.2H92L85,16h-0.1v11.4c0,1,0.1,1.6,0.2,1.9c0.2,0.3,0.5,0.3,1.1,0.4l1.1,0.1v0.8c-1.1,0-2-0.1-3-0.1
			c-0.9,0-1.9,0.1-2.9,0.1v-0.8l1.1-0.1c0.6-0.1,0.9-0.1,1.1-0.4c0.2-0.3,0.2-0.9,0.2-1.9V16.1c0-1-0.1-1.6-0.2-1.9
			c-0.2-0.3-0.5-0.3-1.1-0.4l-1.1-0.1v-0.8c0.8,0,1.6,0.1,2.4,0.1s1.6-0.1,2.4-0.1l6.7,14l6.6-14c0.8,0,1.6,0.1,2.4,0.1
			s1.6-0.1,2.3-0.1v0.8l-0.9,0.2c-0.6,0.1-0.9,0.1-1.1,0.4s-0.2,0.9-0.2,1.9C102,16.2,102,27.5,102,27.5z"/>
		<path class="st1" d="M111.1,23.7l3.2-7.5l3.2,7.5H111.1z M115.4,12.8h-0.8c-0.7,1.8-1.5,3.7-2.3,5.4l-4.5,10.2
			c-0.3,0.7-0.8,1.2-1.4,1.2l-0.9,0.1v0.8c1,0,1.9-0.1,2.9-0.1c0.7,0,1.7,0.1,2.9,0.1v-0.8l-0.9-0.1c-0.8-0.1-1.2-0.2-1.2-0.7
			c0-0.4,0.7-2.1,0.9-2.6l0.7-1.7h7.3l1.2,2.9c0.3,0.6,0.5,1.3,0.5,1.6s-0.5,0.5-1,0.5l-1.2,0.1v0.8c1.4,0,2.5-0.1,3.4-0.1
			c1.1,0,2.2,0.1,3.4,0.1v-0.8l-0.9-0.1c-0.5-0.1-0.7-0.4-1-0.9s-0.6-1.2-0.8-1.7L115.4,12.8z"/>
		<path class="st1" d="M144.2,21c-0.5,0.7-1,1.3-1.4,2l-4.9,7.6c-0.5,0-1.1-0.1-1.6-0.1c-0.6,0-1.1,0.1-1.6,0.1v-0.9l0.8-0.1
			c1-0.1,1.5-1,2-1.8l5.9-8l-4-6.7c-1-1.7-2.1-2.8-2.9-2.8l-1.4-0.1L135,9.4l4.4-0.8c0.8,0.4,1.3,1.3,1.8,2l4,6.8l5.8-8.5h3.2v0.9
			l-1.3,0.1c-0.6,0-1.5,1.3-2.1,2.1l-4.8,6.5l5.5,8.8c0.6,0.9,1.3,2.1,2.1,2.2l0.9,0.1v0.9c-0.8,0-1.5-0.1-2.3-0.1s-1.5,0.1-2.3,0.1
			l-0.5-0.8L144.2,21z"/>
		<path class="st1" d="M162.2,27.5c0,1,0.1,1.6,0.2,1.9c0.2,0.3,0.5,0.4,1.1,0.4l1.2,0.1v0.8c-1.3-0.1-2.5-0.1-3.7-0.1
			s-2.4,0-3.7,0.1v-0.8l1.2-0.1c0.6,0,0.9-0.1,1.1-0.4c0.2-0.3,0.2-0.9,0.2-1.9V16.1c0-1-0.1-1.6-0.2-1.9c-0.2-0.3-0.5-0.4-1.1-0.4
			l-1.2-0.1v-0.8c1.3,0.1,2.5,0.1,3.7,0.1s2.3,0,3.7-0.1v0.8l-1.2,0.1c-0.6,0-0.9,0.1-1.1,0.4c-0.2,0.3-0.2,0.9-0.2,1.9V27.5z"/>
	</g>
	<path class="st2" d="M24.5,24c-1.1-0.2-0.6,1.1-1,1.6c-0.2,0.4-0.6,0.7-1,0.7h-2.9h-0.2l0.4-2.9l-0.1-0.1h-3.3l-1,0.7h-3.8l2.4-1.7
		h7.3h0.1c-0.1,0.7-0.3,1.5-0.2,2.2c0.1,0.2,0.3,0.3,0.5,0.3s0.4-0.2,0.4-0.3l2.3-15.9c0.1-0.3,0.1-0.7-0.2-0.8
		c-0.2-0.1-0.5,0-0.6,0.2c-0.3,0.8,0,2.1-1.1,2.4h-9.2V8.2C13.9,8,14.4,7.8,15,7.4c1.3-1,1.8-2.5,1.5-4.1c-0.3-1.4-1.6-2.8-3-3.1
		c-1.5-0.4-3,0-4.1,1.1C8.3,2.1,8,3.7,8.3,5c0.3,1.4,1.6,2.7,3,3.1v2.2H2.9c-0.3,0-0.6-0.3-0.8-0.6c-0.4-0.6,0.4-1.5-0.3-2
		C1.6,7.6,1.3,7.7,1.2,8L0,16.2c0,0.1,0.1,0.3,0.2,0.4c0.2,0.1,0.5,0.1,0.7-0.1c0.2-0.3,0.1-0.6,0.2-0.9c0.1-0.6,0.6-1.2,1.2-1.3h3
		l0.1,0.1l-0.3,2.4c0,0,1.5,1.5,1.6,1.5H6.5c-1,0-2.2,0-3.2,0H3.2l0.2-2c-0.1-0.2-0.3-0.4-0.5-0.4s-0.4,0.2-0.4,0.4L0.7,28.8
		l-0.5,3.6c0.1,0.2,0.2,0.2,0.3,0.3c0.2,0.1,0.4,0,0.6-0.1c0.4-0.8,0-2.1,1.1-2.4h9.1v2h-0.6c-0.3,0.3-0.4,0.7-0.6,1
		c-0.3,0.9-0.1,1.8,0.6,2.4c0.2,0.1,0.5,0.1,0.6,0.1v8.9c0.6,0.3,1.4,0.3,2,0v-9c0,0,0.4,0,0.6-0.1c0.2-0.1,0.2-0.3,0.4-0.4
		c0.4-0.6,0.5-1.6,0.1-2.2c-0.2-0.3-0.4-0.6-0.7-0.7c-0.1,0-0.2,0-0.4,0v-1.9v-0.1h8.6l0.4,0.1c0.8,0.4,0.5,1.4,0.5,2.1
		c0.1,0.2,0.3,0.3,0.5,0.3s0.3-0.2,0.4-0.3l1.1-7.3C24.6,24.8,25,24.2,24.5,24z M20.8,17.3l0.4-2.8h1.4l-0.5,3.9H22h-8.1h-0.2
		l-1.8-1.6h4.6l0.9,0.7h3.3L20.8,17.3z M11.3,6.6c-1-0.3-1.6-1.4-1.7-2.3c0-0.9,0.3-1.8,1.1-2.4c0.7-0.5,1.7-0.7,2.5-0.4
		c0.8,0.3,1.6,1.1,1.7,1.8c0.2,0.9,0,1.9-0.7,2.6c-0.3,0.3-0.6,0.5-1,0.7C13.1,6.4,13.3,6.1,13,6c-0.6-0.2-1.3-0.1-1.9,0.1L11.3,6.6
		z M3.5,26.2H2l0,0c0.2-1.3,0.4-2.6,0.6-3.9h0.1h3.2c-0.6,0.5-1.4,1-2,1.5L3.5,26.2z M18.2,27.8H4.4l0,0l0.5-3.5l5.5-4l0,0L6,16.4
		l0.5-3.5H7h13.3l-0.5,3.5h-2.3l-0.9-0.7H10H9.2l0.1,0.2l5.4,4.7l-0.1,0.2l-6,4.4h0.1h7l1-0.7h2L18.2,27.8z"/>
</g>
</svg>
